<?xml version="1.0" encoding="UTF-8"?>
<svg id="Calque_2" data-name="Calque 2" xmlns="http://www.w3.org/2000/svg" xmlns:xlink="http://www.w3.org/1999/xlink" viewBox="0 0 933.91 213.48">
  <defs>
    <style>
      .cls-1 {
        fill: none;
      }

      .cls-2 {
        clip-path: url(#clippath-1);
      }

      .cls-3 {
        fill: #fff;
      }

      .cls-4 {
        fill: #e8ab54;
      }

      .cls-5 {
        clip-path: url(#clippath);
      }
    </style>
    <clipPath id="clippath">
      <rect class="cls-1" width="933.91" height="213.48"/>
    </clipPath>
    <clipPath id="clippath-1">
      <rect class="cls-1" width="933.91" height="213.48"/>
    </clipPath>
  </defs>
  <g id="CONTENT">
    <g>
      <g class="cls-5">
        <g>
          <path class="cls-3" d="M233.75,24.08l5.3-15.29h2.67l-6.88,18.54h-2.16l-6.86-18.54h2.66l5.27,15.29Z"/>
          <path class="cls-3" d="M249.55,27.58c-1.87,0-3.39-.61-4.56-1.84s-1.76-2.87-1.76-4.92v-.43c0-1.37.26-2.59.78-3.66.52-1.07,1.25-1.91,2.19-2.52.94-.61,1.95-.91,3.05-.91,1.79,0,3.18.59,4.18,1.77s1.49,2.87,1.49,5.07v.98h-9.33c.03,1.36.43,2.46,1.19,3.29.76.84,1.73,1.25,2.9,1.25.83,0,1.54-.17,2.11-.51.58-.34,1.08-.79,1.52-1.35l1.44,1.12c-1.15,1.77-2.89,2.66-5.19,2.66ZM249.26,15.23c-.95,0-1.75.35-2.39,1.04s-1.04,1.66-1.2,2.91h6.9v-.18c-.07-1.2-.39-2.12-.97-2.78-.58-.66-1.36-.99-2.34-.99Z"/>
          <path class="cls-3" d="M259.88,13.55l.08,1.73c1.05-1.32,2.43-1.99,4.12-1.99,2.91,0,4.38,1.64,4.41,4.93v9.1h-2.35v-9.12c0-.99-.24-1.73-.68-2.2-.45-.48-1.14-.71-2.08-.71-.76,0-1.43.2-2.01.61-.58.41-1.03.94-1.35,1.6v9.82h-2.35v-13.78h2.23Z"/>
          <path class="cls-3" d="M277.75,27.58c-1.87,0-3.39-.61-4.56-1.84s-1.76-2.87-1.76-4.92v-.43c0-1.37.26-2.59.78-3.66.52-1.07,1.25-1.91,2.19-2.52.94-.61,1.95-.91,3.05-.91,1.79,0,3.18.59,4.18,1.77s1.49,2.87,1.49,5.07v.98h-9.33c.03,1.36.43,2.46,1.19,3.29.76.84,1.73,1.25,2.9,1.25.83,0,1.54-.17,2.11-.51.58-.34,1.08-.79,1.52-1.35l1.44,1.12c-1.15,1.77-2.89,2.66-5.19,2.66ZM277.46,15.23c-.95,0-1.75.35-2.39,1.04s-1.04,1.66-1.2,2.91h6.9v-.18c-.07-1.2-.39-2.12-.97-2.78-.58-.66-1.36-.99-2.34-.99Z"/>
          <path class="cls-3" d="M288.07,25.4h8.06v1.92h-10.94v-1.73l7.6-10.1h-7.49v-1.95h10.44v1.67l-7.68,10.19Z"/>
          <path class="cls-3" d="M304.66,20.32c0-2.11.5-3.81,1.5-5.1,1-1.29,2.31-1.93,3.93-1.93s2.89.55,3.83,1.66v-7.18h2.36v19.56h-2.16l-.11-1.48c-.94,1.15-2.25,1.73-3.93,1.73s-2.9-.65-3.9-1.96-1.51-3.01-1.51-5.12v-.18ZM307.01,20.59c0,1.56.32,2.78.97,3.67.65.88,1.54,1.32,2.67,1.32,1.49,0,2.58-.67,3.27-2.01v-6.33c-.7-1.3-1.79-1.95-3.25-1.95-1.15,0-2.05.45-2.7,1.34-.65.89-.97,2.21-.97,3.96Z"/>
          <path class="cls-3" d="M325.65,27.58c-1.87,0-3.39-.61-4.56-1.84s-1.76-2.87-1.76-4.92v-.43c0-1.37.26-2.59.78-3.66.52-1.07,1.25-1.91,2.19-2.52.94-.61,1.95-.91,3.05-.91,1.79,0,3.18.59,4.18,1.77s1.49,2.87,1.49,5.07v.98h-9.33c.03,1.36.43,2.46,1.19,3.29.76.84,1.73,1.25,2.9,1.25.83,0,1.54-.17,2.11-.51.58-.34,1.08-.79,1.52-1.35l1.44,1.12c-1.15,1.77-2.89,2.66-5.19,2.66ZM325.36,15.23c-.95,0-1.75.35-2.39,1.04s-1.04,1.66-1.2,2.91h6.9v-.18c-.07-1.2-.39-2.12-.97-2.78-.58-.66-1.36-.99-2.34-.99ZM326.5,7.77h2.85l-3.41,3.74h-1.9s2.46-3.74,2.46-3.74Z"/>
          <path class="cls-3" d="M339.27,25.65c.84,0,1.57-.25,2.2-.76.63-.51.98-1.15,1.04-1.91h2.23c-.04.79-.31,1.54-.81,2.25-.5.71-1.17,1.28-2.01,1.71-.84.42-1.72.64-2.65.64-1.88,0-3.37-.63-4.48-1.88-1.11-1.25-1.66-2.96-1.66-5.14v-.39c0-1.34.25-2.53.74-3.58s1.2-1.85,2.12-2.43c.92-.58,2.01-.87,3.27-.87,1.54,0,2.83.46,3.85,1.39,1.02.93,1.57,2.13,1.64,3.6h-2.23c-.07-.89-.41-1.62-1.01-2.2-.61-.57-1.36-.86-2.25-.86-1.2,0-2.12.43-2.78,1.29-.66.86-.99,2.11-.99,3.74v.45c0,1.59.33,2.81.98,3.67.65.86,1.59,1.29,2.8,1.29Z"/>
          <path class="cls-3" d="M346.77,20.31c0-1.35.27-2.56.8-3.64.53-1.08,1.27-1.91,2.22-2.5.95-.59,2.03-.88,3.24-.88,1.88,0,3.39.65,4.55,1.95,1.16,1.3,1.74,3.03,1.74,5.18v.17c0,1.34-.26,2.54-.77,3.61-.51,1.06-1.25,1.9-2.2,2.49-.95.59-2.05.89-3.29.89-1.87,0-3.38-.65-4.54-1.95s-1.74-3.02-1.74-5.16v-.17ZM349.14,20.59c0,1.53.35,2.75,1.06,3.68.71.93,1.66,1.39,2.85,1.39s2.15-.47,2.85-1.41c.7-.94,1.06-2.25,1.06-3.94,0-1.51-.36-2.74-1.08-3.67-.72-.94-1.67-1.41-2.86-1.41s-2.1.46-2.81,1.39-1.07,2.25-1.07,3.97Z"/>
          <path class="cls-3" d="M370.77,25.96c-.92,1.08-2.26,1.62-4.04,1.62-1.47,0-2.59-.43-3.35-1.28s-1.16-2.12-1.17-3.79v-8.96h2.36v8.9c0,2.09.85,3.13,2.55,3.13,1.8,0,3-.67,3.59-2.01v-10.02h2.36v13.78h-2.24l-.05-1.36Z"/>
          <path class="cls-3" d="M381.19,24.13l3.41-10.58h2.41l-4.94,13.78h-1.8l-4.99-13.78h2.41l3.5,10.58Z"/>
          <path class="cls-3" d="M395.93,15.66c-.36-.06-.74-.09-1.16-.09-1.54,0-2.59.66-3.15,1.97v9.78h-2.35v-13.78h2.29l.04,1.59c.77-1.23,1.87-1.85,3.29-1.85.46,0,.81.06,1.04.18v2.19Z"/>
          <path class="cls-3" d="M398.11,9.89c0-.38.12-.7.35-.97.23-.26.58-.39,1.04-.39s.81.13,1.04.39c.24.26.36.59.36.97s-.12.7-.36.96c-.24.25-.59.38-1.04.38s-.8-.13-1.04-.38c-.23-.25-.35-.57-.35-.96ZM400.66,27.32h-2.36v-13.78h2.36v13.78Z"/>
          <path class="cls-3" d="M411.08,15.66c-.36-.06-.74-.09-1.16-.09-1.54,0-2.59.66-3.15,1.97v9.78h-2.35v-13.78h2.29l.04,1.59c.77-1.23,1.87-1.85,3.29-1.85.46,0,.81.06,1.04.18v2.19Z"/>
          <path class="cls-3" d="M422.26,27.32h-2.36V7.77h2.36v19.56Z"/>
          <path class="cls-3" d="M431.75,27.58c-1.87,0-3.39-.61-4.56-1.84s-1.76-2.87-1.76-4.92v-.43c0-1.37.26-2.59.78-3.66.52-1.07,1.25-1.91,2.19-2.52.94-.61,1.95-.91,3.05-.91,1.79,0,3.18.59,4.18,1.77s1.49,2.87,1.49,5.07v.98h-9.33c.03,1.36.43,2.46,1.19,3.29.76.84,1.73,1.25,2.9,1.25.83,0,1.54-.17,2.11-.51.58-.34,1.08-.79,1.52-1.35l1.44,1.12c-1.15,1.77-2.89,2.66-5.19,2.66ZM431.45,15.23c-.95,0-1.75.35-2.39,1.04s-1.04,1.66-1.2,2.91h6.9v-.18c-.07-1.2-.39-2.12-.97-2.78-.58-.66-1.36-.99-2.34-.99Z"/>
          <path class="cls-3" d="M447.87,23.67c0-.64-.24-1.13-.72-1.48-.48-.35-1.32-.66-2.51-.91-1.19-.25-2.14-.56-2.84-.92s-1.22-.78-1.55-1.27c-.34-.49-.5-1.08-.5-1.76,0-1.13.48-2.08,1.43-2.86.96-.78,2.18-1.17,3.66-1.17,1.56,0,2.83.4,3.8,1.21.97.81,1.46,1.84,1.46,3.09h-2.37c0-.65-.27-1.2-.82-1.67s-1.24-.7-2.07-.7-1.53.19-2.01.56-.73.86-.73,1.46c0,.57.22,1,.67,1.29.45.29,1.26.56,2.44.83s2.13.58,2.86.94c.73.36,1.27.8,1.62,1.32.35.51.53,1.14.53,1.88,0,1.23-.49,2.22-1.48,2.96-.98.74-2.26,1.11-3.83,1.11-1.1,0-2.08-.2-2.93-.59s-1.51-.94-1.99-1.64c-.48-.7-.72-1.46-.72-2.27h2.36c.04.79.36,1.42.95,1.88.59.46,1.37.69,2.34.69.89,0,1.61-.18,2.15-.54s.81-.84.81-1.45Z"/>
          <path class="cls-3" d="M471.38,20.59c0,2.1-.48,3.79-1.44,5.07-.96,1.28-2.26,1.92-3.9,1.92s-2.99-.53-3.95-1.59v6.63h-2.35V13.55h2.15l.11,1.53c.96-1.19,2.29-1.78,4-1.78s2.96.62,3.93,1.87c.96,1.25,1.44,2.98,1.44,5.21v.22ZM469.03,20.32c0-1.55-.33-2.78-.99-3.68-.66-.9-1.57-1.35-2.72-1.35-1.43,0-2.5.63-3.21,1.9v6.58c.7,1.26,1.78,1.88,3.23,1.88,1.13,0,2.03-.45,2.69-1.34.67-.9,1-2.23,1-3.99Z"/>
          <path class="cls-3" d="M476.93,27.32h-2.36V7.77h2.36v19.56Z"/>
          <path class="cls-3" d="M489.21,27.32c-.14-.27-.25-.76-.33-1.45-1.1,1.14-2.4,1.71-3.92,1.71-1.36,0-2.47-.38-3.34-1.15s-1.31-1.74-1.31-2.92c0-1.43.55-2.55,1.64-3.34,1.09-.79,2.62-1.19,4.6-1.19h2.29v-1.08c0-.82-.25-1.48-.74-1.97s-1.22-.73-2.18-.73c-.84,0-1.54.21-2.11.64-.57.42-.85.94-.85,1.54h-2.37c0-.69.24-1.35.73-1.99.49-.64,1.15-1.15,1.99-1.52.84-.37,1.75-.56,2.76-.56,1.59,0,2.83.4,3.73,1.19.9.79,1.37,1.89,1.4,3.28v6.34c0,1.26.16,2.27.48,3.02v.2h-2.47ZM485.3,25.53c.74,0,1.44-.19,2.1-.57s1.14-.88,1.44-1.49v-2.83h-1.85c-2.89,0-4.33.84-4.33,2.53,0,.74.25,1.32.74,1.73s1.12.62,1.9.62Z"/>
          <path class="cls-3" d="M494.32,20.32c0-2.15.5-3.86,1.49-5.12.99-1.27,2.31-1.9,3.95-1.9s2.99.59,3.93,1.78l.11-1.53h2.15v13.44c0,1.78-.53,3.19-1.58,4.21-1.06,1.03-2.48,1.54-4.26,1.54-.99,0-1.96-.21-2.92-.64s-1.68-1.01-2.18-1.74l1.22-1.41c1.01,1.25,2.24,1.87,3.7,1.87,1.15,0,2.04-.32,2.68-.97s.96-1.55.96-2.72v-1.18c-.94,1.09-2.23,1.63-3.86,1.63s-2.92-.65-3.92-1.95c-1-1.3-1.5-3.07-1.5-5.31ZM496.69,20.59c0,1.55.32,2.77.96,3.66.64.89,1.53,1.33,2.67,1.33,1.48,0,2.58-.67,3.27-2.02v-6.29c-.72-1.32-1.8-1.97-3.25-1.97-1.15,0-2.04.45-2.69,1.34s-.97,2.21-.97,3.96Z"/>
          <path class="cls-3" d="M515.23,27.58c-1.87,0-3.39-.61-4.56-1.84s-1.76-2.87-1.76-4.92v-.43c0-1.37.26-2.59.78-3.66.52-1.07,1.25-1.91,2.19-2.52.94-.61,1.95-.91,3.05-.91,1.79,0,3.18.59,4.18,1.77s1.49,2.87,1.49,5.07v.98h-9.33c.03,1.36.43,2.46,1.19,3.29.76.84,1.73,1.25,2.9,1.25.83,0,1.54-.17,2.11-.51.58-.34,1.08-.79,1.52-1.35l1.44,1.12c-1.15,1.77-2.89,2.66-5.19,2.66ZM514.94,15.23c-.95,0-1.75.35-2.39,1.04s-1.04,1.66-1.2,2.91h6.9v-.18c-.07-1.2-.39-2.12-.97-2.78-.58-.66-1.36-.99-2.34-.99Z"/>
          <path class="cls-3" d="M531.35,23.67c0-.64-.24-1.13-.72-1.48-.48-.35-1.32-.66-2.51-.91-1.19-.25-2.14-.56-2.84-.92s-1.22-.78-1.55-1.27c-.34-.49-.5-1.08-.5-1.76,0-1.13.48-2.08,1.43-2.86.96-.78,2.18-1.17,3.66-1.17,1.56,0,2.83.4,3.8,1.21.97.81,1.46,1.84,1.46,3.09h-2.37c0-.65-.27-1.2-.82-1.67s-1.24-.7-2.07-.7-1.53.19-2.01.56-.73.86-.73,1.46c0,.57.22,1,.67,1.29.45.29,1.26.56,2.44.83s2.13.58,2.86.94c.73.36,1.27.8,1.62,1.32.35.51.53,1.14.53,1.88,0,1.23-.49,2.22-1.48,2.96-.98.74-2.26,1.11-3.83,1.11-1.1,0-2.08-.2-2.93-.59s-1.51-.94-1.99-1.64c-.48-.7-.72-1.46-.72-2.27h2.36c.04.79.36,1.42.95,1.88.59.46,1.37.69,2.34.69.89,0,1.61-.18,2.15-.54s.81-.84.81-1.45Z"/>
          <path class="cls-3" d="M542.65,20.32c0-2.11.5-3.81,1.5-5.1,1-1.29,2.31-1.93,3.93-1.93s2.89.55,3.83,1.66v-7.18h2.36v19.56h-2.16l-.11-1.48c-.94,1.15-2.25,1.73-3.93,1.73s-2.9-.65-3.9-1.96-1.51-3.01-1.51-5.12v-.18ZM545.01,20.59c0,1.56.32,2.78.97,3.67.65.88,1.54,1.32,2.67,1.32,1.49,0,2.58-.67,3.27-2.01v-6.33c-.7-1.3-1.79-1.95-3.25-1.95-1.15,0-2.05.45-2.7,1.34-.65.89-.97,2.21-.97,3.96Z"/>
          <path class="cls-3" d="M563.65,27.58c-1.87,0-3.39-.61-4.56-1.84s-1.76-2.87-1.76-4.92v-.43c0-1.37.26-2.59.78-3.66.52-1.07,1.25-1.91,2.19-2.52.94-.61,1.95-.91,3.05-.91,1.79,0,3.18.59,4.18,1.77s1.49,2.87,1.49,5.07v.98h-9.33c.03,1.36.43,2.46,1.19,3.29.76.84,1.73,1.25,2.9,1.25.83,0,1.54-.17,2.11-.51.58-.34,1.08-.79,1.52-1.35l1.44,1.12c-1.15,1.77-2.89,2.66-5.19,2.66ZM563.36,15.23c-.95,0-1.75.35-2.39,1.04s-1.04,1.66-1.2,2.91h6.9v-.18c-.07-1.2-.39-2.12-.97-2.78-.58-.66-1.36-.99-2.34-.99Z"/>
          <path class="cls-3" d="M586.22,23.67c0-.64-.24-1.13-.72-1.48-.48-.35-1.32-.66-2.51-.91-1.19-.25-2.14-.56-2.84-.92s-1.22-.78-1.55-1.27c-.34-.49-.5-1.08-.5-1.76,0-1.13.48-2.08,1.43-2.86.96-.78,2.18-1.17,3.66-1.17,1.56,0,2.83.4,3.8,1.21.97.81,1.46,1.84,1.46,3.09h-2.37c0-.65-.27-1.2-.82-1.67s-1.24-.7-2.07-.7-1.53.19-2.01.56-.73.86-.73,1.46c0,.57.22,1,.67,1.29.45.29,1.26.56,2.44.83s2.13.58,2.86.94c.73.36,1.27.8,1.62,1.32.35.51.53,1.14.53,1.88,0,1.23-.49,2.22-1.48,2.96-.98.74-2.26,1.11-3.83,1.11-1.1,0-2.08-.2-2.93-.59s-1.51-.94-1.99-1.64c-.48-.7-.72-1.46-.72-2.27h2.36c.04.79.36,1.42.95,1.88.59.46,1.37.69,2.34.69.89,0,1.61-.18,2.15-.54s.81-.84.81-1.45Z"/>
          <path class="cls-3" d="M600.15,27.32c-.14-.27-.25-.76-.33-1.45-1.1,1.14-2.4,1.71-3.92,1.71-1.36,0-2.47-.38-3.34-1.15s-1.31-1.74-1.31-2.92c0-1.43.55-2.55,1.64-3.34,1.09-.79,2.62-1.19,4.6-1.19h2.29v-1.08c0-.82-.25-1.48-.74-1.97s-1.22-.73-2.18-.73c-.84,0-1.54.21-2.11.64-.57.42-.85.94-.85,1.54h-2.37c0-.69.24-1.35.73-1.99.49-.64,1.15-1.15,1.99-1.52.84-.37,1.75-.56,2.76-.56,1.59,0,2.83.4,3.73,1.19.9.79,1.37,1.89,1.4,3.28v6.34c0,1.26.16,2.27.48,3.02v.2h-2.47ZM596.24,25.53c.74,0,1.44-.19,2.1-.57s1.14-.88,1.44-1.49v-2.83h-1.85c-2.89,0-4.33.84-4.33,2.53,0,.74.25,1.32.74,1.73s1.12.62,1.9.62Z"/>
          <path class="cls-3" d="M617.49,20.59c0,2.11-.48,3.8-1.45,5.07-.97,1.28-2.27,1.92-3.9,1.92-1.74,0-3.09-.62-4.04-1.85l-.11,1.59h-2.16V7.77h2.35v7.3c.95-1.18,2.26-1.77,3.93-1.77s2.99.63,3.94,1.9c.95,1.27,1.43,3,1.43,5.19v.2ZM615.14,20.32c0-1.6-.31-2.84-.93-3.72s-1.51-1.31-2.67-1.31c-1.55,0-2.67.72-3.35,2.16v5.96c.72,1.44,1.85,2.16,3.37,2.16,1.13,0,2.01-.44,2.64-1.31.63-.87.94-2.19.94-3.95Z"/>
          <path class="cls-3" d="M623.02,27.32h-2.36V7.77h2.36v19.56Z"/>
          <path class="cls-3" d="M632.5,27.58c-1.87,0-3.39-.61-4.56-1.84s-1.76-2.87-1.76-4.92v-.43c0-1.37.26-2.59.78-3.66.52-1.07,1.25-1.91,2.19-2.52.94-.61,1.95-.91,3.05-.91,1.79,0,3.18.59,4.18,1.77s1.49,2.87,1.49,5.07v.98h-9.33c.03,1.36.43,2.46,1.19,3.29.76.84,1.73,1.25,2.9,1.25.83,0,1.54-.17,2.11-.51.58-.34,1.08-.79,1.52-1.35l1.44,1.12c-1.15,1.77-2.89,2.66-5.19,2.66ZM632.21,15.23c-.95,0-1.75.35-2.39,1.04s-1.04,1.66-1.2,2.91h6.9v-.18c-.07-1.2-.39-2.12-.97-2.78-.58-.66-1.36-.99-2.34-.99Z"/>
          <path class="cls-3" d="M658.72,20.59c0,2.11-.48,3.8-1.45,5.07-.97,1.28-2.27,1.92-3.9,1.92-1.74,0-3.09-.62-4.04-1.85l-.11,1.59h-2.16V7.77h2.35v7.3c.95-1.18,2.26-1.77,3.93-1.77s2.99.63,3.94,1.9c.95,1.27,1.43,3,1.43,5.19v.2ZM656.36,20.32c0-1.6-.31-2.84-.93-3.72s-1.51-1.31-2.67-1.31c-1.55,0-2.67.72-3.35,2.16v5.96c.72,1.44,1.85,2.16,3.37,2.16,1.13,0,2.01-.44,2.64-1.31.63-.87.94-2.19.94-3.95Z"/>
          <path class="cls-3" d="M664.25,27.32h-2.36V7.77h2.36v19.56Z"/>
          <path class="cls-3" d="M676.52,27.32c-.14-.27-.25-.76-.33-1.45-1.1,1.14-2.4,1.71-3.92,1.71-1.36,0-2.47-.38-3.34-1.15s-1.31-1.74-1.31-2.92c0-1.43.55-2.55,1.64-3.34,1.09-.79,2.62-1.19,4.6-1.19h2.29v-1.08c0-.82-.25-1.48-.74-1.97s-1.22-.73-2.18-.73c-.84,0-1.54.21-2.11.64-.57.42-.85.94-.85,1.54h-2.37c0-.69.24-1.35.73-1.99.49-.64,1.15-1.15,1.99-1.52.84-.37,1.75-.56,2.76-.56,1.59,0,2.83.4,3.73,1.19.9.79,1.37,1.89,1.4,3.28v6.34c0,1.26.16,2.27.48,3.02v.2h-2.47ZM672.61,25.53c.74,0,1.44-.19,2.1-.57s1.14-.88,1.44-1.49v-2.83h-1.85c-2.89,0-4.33.84-4.33,2.53,0,.74.25,1.32.74,1.73s1.12.62,1.9.62Z"/>
          <path class="cls-3" d="M684.43,13.55l.08,1.73c1.05-1.32,2.43-1.99,4.12-1.99,2.91,0,4.38,1.64,4.41,4.93v9.1h-2.35v-9.12c0-.99-.24-1.73-.68-2.2-.45-.48-1.14-.71-2.08-.71-.76,0-1.43.2-2.01.61-.58.41-1.03.94-1.35,1.6v9.82h-2.35v-13.78h2.23Z"/>
          <path class="cls-3" d="M702.11,25.65c.84,0,1.57-.25,2.2-.76.63-.51.98-1.15,1.04-1.91h2.23c-.04.79-.31,1.54-.81,2.25-.5.71-1.17,1.28-2.01,1.71-.84.42-1.72.64-2.65.64-1.88,0-3.37-.63-4.48-1.88-1.11-1.25-1.66-2.96-1.66-5.14v-.39c0-1.34.25-2.53.74-3.58s1.2-1.85,2.12-2.43c.92-.58,2.01-.87,3.27-.87,1.54,0,2.83.46,3.85,1.39,1.02.93,1.57,2.13,1.64,3.6h-2.23c-.07-.89-.41-1.62-1.01-2.2-.61-.57-1.36-.86-2.25-.86-1.2,0-2.12.43-2.78,1.29-.66.86-.99,2.11-.99,3.74v.45c0,1.59.33,2.81.98,3.67.65.86,1.59,1.29,2.8,1.29Z"/>
        </g>
      </g>
      <g>
        <path class="cls-3" d="M244.42,82.63c0-2.11.5-3.81,1.5-5.1,1-1.29,2.31-1.93,3.93-1.93s2.89.55,3.83,1.66v-7.18h2.36v19.56h-2.16l-.11-1.48c-.94,1.15-2.25,1.73-3.93,1.73s-2.9-.65-3.9-1.96-1.51-3.01-1.51-5.12v-.18ZM246.78,82.89c0,1.56.32,2.78.97,3.67.65.88,1.54,1.32,2.67,1.32,1.49,0,2.58-.67,3.27-2.01v-6.33c-.7-1.3-1.79-1.95-3.25-1.95-1.15,0-2.05.45-2.7,1.34-.65.89-.97,2.21-.97,3.96Z"/>
        <path class="cls-3" d="M265.42,89.88c-1.87,0-3.39-.61-4.56-1.84s-1.76-2.87-1.76-4.92v-.43c0-1.37.26-2.59.78-3.66.52-1.07,1.25-1.91,2.19-2.52.94-.61,1.95-.91,3.05-.91,1.79,0,3.18.59,4.18,1.77s1.49,2.87,1.49,5.07v.98h-9.33c.03,1.36.43,2.46,1.19,3.29.76.84,1.73,1.25,2.9,1.25.83,0,1.54-.17,2.11-.51.58-.34,1.08-.79,1.52-1.35l1.44,1.12c-1.15,1.77-2.89,2.66-5.19,2.66ZM265.13,77.53c-.95,0-1.75.35-2.39,1.04s-1.04,1.66-1.2,2.91h6.9v-.18c-.07-1.2-.39-2.12-.97-2.78-.58-.66-1.36-.99-2.34-.99Z"/>
      </g>
      <g>
        <path class="cls-4" d="M277.36,99.74c-.21-.27-.45-.52-.72-.76-.27-.24-.48-.49-.64-.76.05-.16.04-.32-.04-.48-.08-.16-.25-.21-.52-.16,0-.11.03-.19.08-.24s.08-.13.08-.24c-.11-.05-.21-.04-.32.04-.11.08-.16.07-.16-.04.11-.27.12-.43.04-.48-.08-.05-.17-.11-.28-.16.27-.9.7-1.65,1.31-2.23.61-.58,1.29-.98,2.03-1.19-.27.11-.42.27-.48.48-.05.21-.13.42-.24.64.05.11.08.24.08.4v.48l.72.64c0,.64.13,1.12.4,1.43.27.32.6.56,1,.72.4.16.86.27,1.39.32.53.05,1.04.11,1.51.16h.16c1.12,0,2.1-.08,2.95-.24.85-.16,1.73-.35,2.63-.56.11-.11.25-.16.44-.16s.33-.03.44-.08c.21-.11.37-.19.48-.24.11-.05.24-.13.4-.24.48-.11.98-.27,1.51-.48.53-.21,1.06-.4,1.59-.56.27-.05.45-.13.56-.24.85-.43,1.76-.96,2.75-1.59.98-.64,1.95-1.25,2.91-1.83.42-.27.88-.61,1.35-1.04.48-.43.85-.82,1.11-1.19.8-.85,1.5-1.83,2.11-2.95.61-1.11.89-2.44.84-3.98.05-1.12-.15-2.1-.6-2.95-.45-.85-.84-1.75-1.15-2.71.16.16.28.39.36.68.08.29.2.54.36.76-.11-.69-.33-1.3-.68-1.83-.35-.53-.7-1.09-1.08-1.67,0,.16.05.35.16.56.11.21.19.4.24.56-.11-.16-.21-.34-.32-.56-.11-.21-.21-.42-.32-.64-.58-.8-1.21-1.61-1.87-2.43-.66-.82-1.34-1.58-2.03-2.27l-1.75-1.83c-.11-.27-.11-.42,0-.48-.27-.21-.52-.41-.76-.6-.24-.19-.39-.41-.44-.68-.85-1.11-1.78-2.31-2.79-3.58-1.01-1.27-1.73-2.73-2.15-4.38-.43-1.54-.74-3.17-.96-4.9-.21-1.73.05-3.54.8-5.46.05-.26.13-.52.24-.76.11-.24.21-.49.32-.76.96-1.86,2.18-3.6,3.66-5.22,1.49-1.62,3.03-3.01,4.62-4.18.27-.11.49-.21.68-.32.19-.11.36-.24.52-.4.58-.27,1.14-.57,1.67-.92.53-.34,1.09-.6,1.67-.76,1.22-.37,2.46-.68,3.7-.92,1.25-.24,2.51-.15,3.78.28l1.43,1.35c.26.27.56.52.88.76.32.24.64.52.96.84.16.11.28.29.36.56.08.27.2.56.36.88.21.27.34.56.4.88.05.32.13.61.24.88.32.85.53,1.71.64,2.59.11.88.03,1.85-.24,2.91-.32,1.01-.51,1.75-.56,2.23-.05.48-.13,1.06-.24,1.75-.11.37-.27.72-.48,1.04-.21.32-.35.61-.4.88-.27.69-.65.96-1.15.8-.51-.16-1.05-.45-1.63-.88-.43-.27-.73-.46-.92-.6-.19-.13-.39-.41-.6-.84.05-.21.12-.42.2-.64.08-.21.09-.42.04-.64.26-.64.56-1.29.88-1.95.32-.66.56-1.37.72-2.11,0-.21-.01-.37-.04-.48-.03-.11.01-.21.12-.32,0-.11.05-.31.16-.6.11-.29.05-.49-.16-.6.05-.11.11-.17.16-.2.05-.03.11-.15.16-.36,0-.32.01-.64.04-.96.03-.32-.01-.64-.12-.96,0-.37-.17-.7-.52-1-.35-.29-.65-.57-.92-.84-.43-.27-.92-.46-1.47-.6-.56-.13-1.13-.09-1.71.12-2.23.37-4.29,1.19-6.17,2.47-1.89,1.27-3.49,2.87-4.82,4.78-.48.85-1.01,1.9-1.59,3.15-.58,1.25-1.09,2.48-1.51,3.7-.32,1.01-.43,2-.32,2.99.11.98.37,1.87.8,2.67.05,1.33.36,2.48.92,3.46.56.98,1.13,2,1.71,3.07,1.12,1.38,2.31,2.71,3.58,3.98,1.27,1.27,2.52,2.58,3.74,3.9,1.22,1.33,2.39,2.71,3.5,4.14,1.12,1.43,2.04,3,2.79,4.7v.32c.42,1.01.62,2.06.6,3.15-.03,1.09-.2,2.15-.52,3.19-.32,1.04-.74,2.02-1.27,2.95-.53.93-1.09,1.71-1.67,2.35l-.88.48c-.16.32-.37.58-.64.8-.11.16-.23.29-.36.4-.13.11-.2.21-.2.32-.48.21-.86.45-1.15.72-.29.27-.65.48-1.08.64.11.11.19.11.24,0,.05-.11.13-.13.24-.08-.64.8-1.45,1.37-2.43,1.71-.98.34-1.87.81-2.67,1.39-.9.42-1.87.81-2.91,1.15-1.04.34-2.06.73-3.07,1.16-.27-.16-.51-.13-.72.08-.05-.16-.17-.24-.36-.24s-.4.01-.64.04c-.24.03-.49.07-.76.12-.27.05-.51.03-.72-.08v-.16c.05-.11.21-.19.48-.24.27-.05.42,0,.48.16.37-.05.66-.12.88-.2.21-.08.45-.15.72-.2,0-.16.19-.28.56-.36.37-.08.58-.17.64-.28,0-.05.01-.08.04-.08.03,0,.04-.03.04-.08v.08c.11,0,.13-.03.08-.08-.05-.05-.03-.08.08-.08s.13,0,.08,0-.08.05-.08.16c.16-.11.26-.13.32-.08.11-.27.41-.47.92-.6.5-.13,1-.33,1.47-.6.27-.11.45-.29.56-.56.11-.27.21-.45.32-.56-.11,0-.24.05-.4.16-.16.11-.32.19-.48.24,0,.11.03.15.08.12.05-.03.08.04.08.2-.69.27-1.37.56-2.03.88-.66.32-1.37.56-2.11.72,0-.05.13-.16.4-.32-.27-.11-.41-.12-.44-.04-.03.08-.09.09-.2.04.05-.11.17-.19.36-.24.19-.05.33-.16.44-.32.37.11.68.04.92-.2.24-.24.54-.33.92-.28.37-.21.7-.37,1-.48.29-.11.62-.27,1-.48.32-.27.77-.45,1.35-.56.58-.11,1.09-.35,1.51-.72-.11-.05-.24-.04-.4.04-.16.08-.29.15-.4.2.11-.32.37-.57.8-.76.42-.19.74-.39.96-.6.27-.11.45-.17.56-.2.11-.03.29-.07.56-.12.21-.53.56-.88,1.04-1.04.11-.21.23-.39.36-.52.13-.13.25-.31.36-.52-.11,0-.2.01-.28.04-.08.03-.17.04-.28.04-.27.32-.52.57-.76.76-.24.19-.41.46-.52.84h-.32c-1.43.8-2.88,1.57-4.34,2.31-1.46.74-3.04,1.46-4.74,2.15l-.32.4c-.16.11-.33.16-.52.16s-.36.05-.52.16c-.05.11-.03.16.08.16s.13,0,.08,0c-.21.27-.49.44-.84.52-.35.08-.62.23-.84.44-.48.16-1.02.24-1.63.24s-1.15.08-1.63.24c-.11-.05-.27-.01-.48.12-.21.13-.4.07-.56-.2-.74,0-1.59-.07-2.55-.2-.96-.13-1.7-.33-2.23-.6-.32-.27-.62-.44-.92-.52-.29-.08-.52-.25-.68-.52-.16-.05-.27-.12-.32-.2-.05-.08-.16-.12-.32-.12ZM275.77,97.91c.11-.05.16.03.16.24l-.16-.24ZM277.92,99.74c-.05-.21-.16-.35-.32-.4-.16-.05-.32-.08-.48-.08.21.32.48.48.8.48ZM279.27,100.54c-.05-.16-.12-.25-.2-.28-.08-.03-.15-.09-.2-.2-.11.05-.23.05-.36,0-.13-.05-.2-.03-.2.08.21.11.4.19.56.24.16.05.29.11.4.16ZM294.01,98.15c.05-.16.11-.24.16-.24.42-.27.9-.55,1.43-.84.53-.29.96-.65,1.27-1.08-.96.37-1.91.77-2.87,1.19-.96.42-1.96.8-3.03,1.11h-.16c-.32.21-.68.36-1.08.44-.4.08-.73.33-1,.76.16-.05.33-.09.52-.12.19-.03.3-.07.36-.12.11.05.13.09.08.12-.05.03-.08.09-.08.2-.11.11-.24.16-.4.16s-.29.05-.4.16c.27,0,.37.05.32.16.53-.11,1.05-.21,1.55-.32.5-.11.97-.32,1.39-.64.11.05.25.03.44-.08.19-.11.33-.19.44-.24-.05-.27.05-.41.32-.44.27-.03.5-.09.72-.2ZM301.1,73.78c-.05-.21-.24-.4-.56-.56.11.11.19.21.24.32.05.11.16.19.32.24Z"/>
        <path class="cls-4" d="M355.57,81.58c-.27-.05-.5.07-.72.36-.21.29-.43.57-.64.84,0-.05.03-.13.08-.24-.43.32-.82.65-1.19,1-.37.35-.77.73-1.19,1.15h-.16v-.08c-.11.11-.23.24-.36.4-.13.16-.28.19-.44.08-.27.16-.47.35-.6.56-.13.21-.31.35-.52.4-.27.27-.48.47-.64.6-.16.13-.4.33-.72.6,0-.05-.05-.08-.16-.08-.16.21-.51.37-1.04.48-.58.32-1.1.65-1.55,1-.45.35-.92.52-1.39.52-.48.05-.82.11-1.04.16-.21.05-.45.05-.72,0-.43,0-.96.12-1.59.36-.64.24-1.17.28-1.59.12-.11-.27-.29-.45-.56-.56-.27-.16-.52-.29-.76-.4-.24-.11-.41-.34-.52-.72-.58-.37-1.01-.92-1.27-1.63-.27-.72-.41-1.54-.44-2.47-.03-.93.04-1.9.2-2.91.16-1.01.37-1.99.64-2.95-.74.58-1.46,1.29-2.15,2.11-.69.82-1.38,1.61-2.07,2.35-.27.48-.56.88-.88,1.19-.32.32-.64.61-.96.88-.9,1.06-1.75,1.99-2.55,2.79,0,.05-.01.09-.04.12s-.07.09-.12.2c-.43.32-.9.69-1.43,1.12-.53.43-1.08.78-1.63,1.08-.56.29-1.14.46-1.75.52-.61.05-1.23-.16-1.87-.64-.37-.05-.62-.17-.76-.36-.13-.19-.33-.36-.6-.52-.58-.27-.94-.58-1.08-.96-.13-.37-.23-.93-.28-1.67-.05-.37-.01-.85.12-1.43.13-.58.31-1.09.52-1.51.27-1.01.66-1.95,1.19-2.83.53-.88,1.04-1.69,1.51-2.43.9-1.22,1.82-2.35,2.75-3.38.93-1.04,1.9-2.06,2.91-3.07.32-.16.65-.37,1-.64.34-.27.73-.48,1.15-.64.27.11.56.04.88-.2.32-.24.58-.17.8.2,1.12.11,2.1.37,2.95.8.85.43,1.43,1.12,1.75,2.07.37-.27.72-.5,1.04-.72.32-.21.66-.37,1.04-.48.16-.05.29-.16.4-.32.11-.16.21-.24.32-.24.53-.11,1.02,0,1.47.32.45.32.89.58,1.31.8.05-.05.12-.07.2-.04.08.03.2.01.36-.04.11.16.19.28.24.36.05.08.11.2.16.36.11.96-.01,1.99-.36,3.11-.35,1.12-.73,2.04-1.15,2.79-.21,1.22-.51,2.55-.88,3.98-.37,1.43-.4,2.68-.08,3.74,1.86-.21,3.41-.68,4.66-1.39,1.25-.72,2.51-1.42,3.78-2.11.48-.37.92-.69,1.31-.96.4-.27.78-.61,1.15-1.04.05,0,.11.03.16.08v.08c.27,0,.8-.33,1.59-1,.8-.66,1.61-1.35,2.43-2.07.82-.72,1.59-1.34,2.31-1.87.72-.53,1.13-.72,1.23-.56.11.11.24.12.4.04.16-.08.29-.09.4-.04.05.11.07.19.04.24-.03.05-.01.11.04.16v-.16c.05,0,.05.07,0,.2-.05.13-.11.27-.16.4-.05.13-.11.23-.16.28-.05.05-.05,0,0-.16l-.36.36-.36.36c-.11.27-.17.45-.2.56-.03.11-.09.29-.2.56-.16,0-.27-.03-.32-.08-.11.27-.25.45-.44.56-.19.11-.33.32-.44.64-.11,0-.21.13-.32.4l-1.12,1.19ZM333.83,74.74c-.11-.69-.31-1.27-.6-1.75-.29-.48-.81-.53-1.55-.16l-1.27,1.43c-.11.16-.24.28-.4.36-.16.08-.29.17-.4.28-.11.11-.21.25-.32.44-.11.19-.24.39-.4.6l-1.12,1.27c-.58.74-1.15,1.58-1.71,2.51-.56.93-1.05,1.82-1.47,2.67-.11.27-.24.51-.4.72-.16.21-.29.53-.4.96-.11-.05-.16-.04-.16.04s-.03.09-.08.04c-.11.58-.29,1.08-.56,1.47-.27.4-.4.92-.4,1.55.42-.27.88-.53,1.35-.8.48-.26.88-.56,1.19-.88,1.54-1.49,3.01-3.04,4.42-4.66,1.41-1.62,2.8-3.28,4.18-4.98.16-.11.29-.25.4-.44.11-.19.24-.31.4-.36v-.16c-.11-.11-.35-.16-.72-.16Z"/>
        <path class="cls-4" d="M374.13,87.96c-.11.05-.21.07-.32.04-.11-.03-.19-.01-.24.04,0,.05-.11.03-.32-.08-.16.27-.32.52-.48.76-.16.24-.37.31-.64.2-.11.11-.23.2-.36.28-.13.08-.28.2-.44.36-.05.05-.08.05-.08,0-.16.11-.47.24-.92.4-.45.16-.92.33-1.39.52-.48.19-.92.36-1.31.52-.4.16-.65.29-.76.4-.32,0-.68.05-1.08.16-.4.11-.73.27-1,.48-.64.11-1.37.25-2.19.44-.82.19-1.71.15-2.67-.12-.27-.05-.4-.07-.4-.04s.03.07.08.12.08.11.08.16-.11.08-.32.08c0-.21-.05-.33-.16-.36-.11-.03-.21-.04-.32-.04-.11-.11-.23-.2-.36-.28-.13-.08-.33-.15-.6-.2-1.01-.96-1.83-2.06-2.47-3.31s-1.04-2.64-1.19-4.18c0-.16.03-.33.08-.52.05-.19.05-.33,0-.44v-3.5c0-.11.04-.2.12-.28s.09-.17.04-.28l.24-1.83c0-.16-.01-.28-.04-.36-.03-.08-.04-.17-.04-.28l.08-.08c.11,0,.16-.05.16-.16.11-.11.13-.19.08-.24-.05-.05-.08-.13-.08-.24l.48-1.43c.05-.11.09-.2.12-.28.03-.08-.01-.2-.12-.36.05-.11.16-.11.32,0,.05-.27.11-.53.16-.8.05-.27.03-.5-.08-.72h.08c.11-.11.16-.21.16-.32s.05-.16.16-.16c.05-.8.27-1.5.64-2.11.37-.61.58-1.29.64-2.03.37-.16.5-.4.4-.72.11,0,.16-.09.16-.28s.05-.31.16-.36v-.24c.53-.69.82-1.41.88-2.15.85-1.17,1.46-2.34,1.83-3.5.21-.05.33-.15.36-.28.03-.13.07-.28.12-.44.27-.42.53-.93.8-1.51.27-.58.64-1.09,1.12-1.51.16-.37.37-.74.64-1.11.27-.37.53-.77.8-1.19.9-1.27,1.8-2.56,2.71-3.86.9-1.3,2.12-2.46,3.66-3.46.27-.27.56-.45.88-.56.32-.11.69-.24,1.12-.4,1.22-.74,2.47-.66,3.74.24.27.21.58.36.96.44.37.08.64.31.8.68.21.05.31.12.28.2-.03.08-.01.2.04.36.05.11.13.21.24.32.11.11.11.24,0,.4-.05.11-.04.21.04.32.08.11.04.27-.12.48-.05.27-.27.58-.64.96l-.16,1.19-.56.64c-.16.43-.32.84-.48,1.23-.16.4-.37.76-.64,1.08-.32,1.27-.9,2.42-1.75,3.42-.85,1.01-1.62,2.07-2.31,3.19-.53.58-.97,1.25-1.31,1.99-.35.74-.76,1.43-1.23,2.07-.16.11-.33.24-.52.4-.19.16-.28.37-.28.64-.69.58-1.23,1.22-1.63,1.91-.4.69-.92,1.38-1.55,2.07-.11.37-.29.62-.56.76-.27.13-.45.39-.56.76-.11.11-.21.17-.32.2-.11.03-.13.15-.08.36-.32.11-.57.37-.76.8-.19.43-.41.72-.68.88-.05.16-.17.32-.36.48-.19.16-.33.27-.44.32-.37.37-.78.86-1.23,1.47-.45.61-1.13,1.21-2.03,1.79-.11.16-.21.24-.32.24v.56c-.27,1.12-.44,2.38-.52,3.78-.08,1.41.04,2.8.36,4.18.21.8.37,1.22.48,1.27.11.05.2.03.28-.08.08-.11.13-.13.16-.08.03.05.09.43.2,1.12,0,.05.03.08.08.08h.16c.05.05.13.08.24.08,1.01.16,1.71.23,2.11.2.4-.03.89-.17,1.47-.44.85-.32,1.66-.62,2.43-.92.77-.29,1.5-.65,2.19-1.08,0,.05.05.08.16.08h.08v.08c.11,0,.13-.05.08-.16.11,0,.16-.01.16-.04,0-.03.03-.04.08-.04h.16l.24-.24c.9-.42,1.74-1,2.51-1.71.77-.72,1.61-1.29,2.51-1.71,0-.16.05-.25.16-.28.11-.03.16-.12.16-.28.05,0,.07.03.04.08-.03.05.01.03.12-.08.53-.27,1-.49,1.39-.68.4-.19.57-.49.52-.92.11,0,.16.03.16.08s.03.08.08.08c.21-.27.37-.45.48-.56.11-.11.21-.19.32-.24.11-.05.23-.12.36-.2.13-.08.33-.25.6-.52-.16-.16-.19-.25-.08-.28.11-.03.19-.09.24-.2.11.11.12.17.04.2-.08.03-.09.09-.04.2.42-.48.84-.93,1.23-1.35.4-.42.62-.53.68-.32.32-.27.46-.41.44-.44-.03-.03-.08-.04-.16-.04s-.13-.01-.16-.04c-.03-.03.12-.15.44-.36.27-.05.48,0,.64.16-.05.37.08.58.4.64-.21.11-.28.21-.2.32.08.11.15.21.2.32,0,.21-.03.37-.08.48-.05.53-.12.89-.2,1.08-.08.19-.16.31-.24.36-.08.05-.16.09-.24.12-.08.03-.12.12-.12.28,0,.11.03.19.08.24v.08c-.05.05-.09.03-.12-.08-.03-.11-.09-.19-.2-.24,0,.11-.01.21-.04.32-.03.11.01.19.12.24-.21.16-.37.27-.48.32-.11.05-.17.08-.2.08-.03,0-.07.03-.12.08-.05.05-.13.19-.24.4v-.16c-.21-.05-.32.01-.32.2s-.08.33-.24.44c-.11-.11-.12-.19-.04-.24.08-.05.09-.13.04-.24-.11-.05-.2-.01-.28.12-.08.13-.17.12-.28-.04-.05.11-.11.29-.16.56-.05.27-.16.45-.32.56-.11,0-.12-.07-.04-.2.08-.13.12-.25.12-.36-.32.21-.51.4-.56.56l-.24.24c0,.05.05.08.16.08,0,.11-.03.23-.08.36-.05.13-.21.25-.48.36-.11.48-.37.72-.8.72l.08-.16v-.16c-.32,0-.43.11-.32.32-.11-.05-.19-.03-.24.08-.05.11-.16.11-.32,0-.11.11-.09.17.04.2.13.03.15.04.04.04-.05.05-.09.05-.12,0-.03-.05-.07-.08-.12-.08-.32.27-.66.53-1.04.8-.37.27-.66.58-.88.96,0,.11.03.19.08.24.05.05.11.13.16.24ZM355.81,75.77c0-.21-.03-.34-.08-.4,0,.05-.01.12-.04.2-.03.08.01.15.12.2ZM360.35,72.11c1.11-1.38,2.12-2.72,3.03-4.02.9-1.3,1.86-2.64,2.87-4.02,0-.05.03-.08.08-.08.32-.27.57-.64.76-1.11.19-.48.38-.85.6-1.12.85-1.12,1.69-2.24,2.51-3.38.82-1.14,1.53-2.32,2.11-3.54.37-.69.72-1.37,1.04-2.03.32-.66.56-1.37.72-2.11.58-.37.8-.96.64-1.75-.58.16-1.04.47-1.35.92-.32.45-.69.84-1.12,1.15-.21.48-.48.92-.8,1.31-.32.4-.64.78-.96,1.15-1.38,1.17-2.44,2.5-3.19,3.98-.74,1.49-1.49,3-2.23,4.54-.16.05-.29.08-.4.08-.11.43-.29.78-.56,1.08-.27.29-.4.62-.4,1-.32.43-.56.82-.72,1.19-.16.37-.37.77-.64,1.19-.11.27-.23.52-.36.76-.13.24-.25.47-.36.68v.4c-.11.21-.24.44-.4.68-.16.24-.21.54-.16.92-.27.32-.44.66-.52,1.04-.08.37-.17.74-.28,1.11h.08ZM372.14,87.32c0,.05-.03.08-.08.08.11.05.17.04.2-.04.03-.08.04-.15.04-.2.26.05.48-.04.64-.28.16-.24.32-.44.48-.6,0,.05.05.11.16.16l.36-.36c.13-.13.17-.25.12-.36-.27.11-.56.25-.88.44-.32.19-.61.47-.88.84h-.24v.16c0,.05.03.08.08.08-.11-.05-.21-.03-.32.08s-.11.21,0,.32c.05,0,.09-.04.12-.12.03-.08.09-.15.2-.2ZM372.22,87.24l-.08.08v-.08h.08ZM374.53,85.41c-.27,0-.4.11-.4.32.11,0,.17-.03.2-.08.03-.05.09-.13.2-.24ZM374.85,85.73c0-.21.03-.32.08-.32v.32c.16,0,.25-.03.28-.08.03-.05.09-.13.2-.24-.16,0-.24-.05-.24-.16-.16.05-.28.13-.36.24-.08.11-.07.19.04.24ZM375.4,85.17c-.05,0-.09.01-.12.04-.03.03-.07.04-.12.04.16.16.24.21.24.16v-.24ZM375.8,84.85c.05.05.04.15-.04.28-.08.13-.07.2.04.2.05-.11.08-.19.08-.24,0-.11-.03-.19-.08-.24ZM377.63,83.81c-.21.11-.37.19-.48.24-.11.05-.21.13-.32.24-.05,0-.07-.01-.04-.04s-.01-.04-.12-.04c-.11.11-.2.19-.28.24-.08.05-.09.19-.04.4.32-.11.57-.24.76-.4.19-.16.36-.37.52-.64ZM378.35,83.66c0,.21-.08.35-.24.4,0-.16.03-.27.08-.32,0-.05.05-.08.16-.08ZM378.75,79.91c-.05-.16-.08-.13-.08.08l.08-.08ZM379.55,81.74c-.21,0-.4.07-.56.2-.16.13-.21.25-.16.36.11-.05.2-.11.28-.16.08-.05.23-.19.44-.4ZM381.06,80.39c-.27.16-.4.4-.4.72.16.05.32.01.48-.12.16-.13.13-.33-.08-.6ZM381.54,81.35v.4-.48.08ZM381.62,81.74c0,.05-.01.08-.04.08s-.04-.03-.04-.08h.08Z"/>
        <path class="cls-4" d="M408.3,79.99c.11.16-.08.43-.56.8-.48.37-.96.8-1.43,1.27-.11.05-.35.24-.72.56-.37.32-.58.53-.64.64l-.48.4-1.35,1.04-.64.4-1.11.72c-.9.58-1.75,1.14-2.55,1.67-.8.53-1.78,1.01-2.95,1.43-.05,0-.15.03-.28.08-.13.05-.28.11-.44.16-.21.05-.4.11-.56.16-.21,0-.4.04-.56.12-.16.08-.37.12-.64.12-.05,0-.03-.05.08-.16-.27.05-.48.09-.64.12-.16.03-.35.12-.56.28-.16-.11-.31-.09-.44.04-.13.13-.31.15-.52.04-.11.16-.27.21-.48.16-.21-.05-.4,0-.56.16-.11-.05-.13-.09-.08-.12.05-.03.03-.07-.08-.12-.16.05-.36.07-.6.04-.24-.03-.49.04-.76.2-.16-.11-.28-.13-.36-.08-.08.05-.25.03-.52-.08l-.08.16c-.8-.16-1.38-.21-1.75-.16-.21-.05-.37-.11-.48-.16-.11-.05-.21-.03-.32.08-.58-.11-1.13-.23-1.63-.36-.5-.13-1.05-.33-1.63-.6-.64-.27-1.19-.65-1.67-1.15-.48-.5-.93-1.05-1.35-1.63-.21-.37-.37-.74-.48-1.11-.11-.37-.21-.72-.32-1.04-.11-.42-.16-.81-.16-1.15s.05-.73.16-1.15c.11-.58.28-1.38.52-2.39.24-1.01.65-1.88,1.23-2.63l1.83-2.07,1.19-1.59c.42-.32.77-.58,1.04-.8.27-.21.58-.53.96-.96.26-.27.58-.49.96-.68.37-.19.69-.41.96-.68.48-.32.85-.61,1.12-.88.37-.27.77-.52,1.19-.76.42-.24.82-.41,1.19-.52.16-.11.37-.16.64-.16s.48-.05.64-.16c.11-.05.21-.11.32-.16.11-.05.24-.08.4-.08.27.43.62.78,1.08,1.08.45.29.81.65,1.08,1.08.37.11.58.29.64.56.05.27.21.51.48.72.11.43.12.8.04,1.12s-.23.66-.44,1.04c-.11.11-.16.21-.16.32s-.03.21-.08.32c-.11.27-.28.49-.52.68-.24.19-.47.41-.68.68-.11.11-.2.27-.28.48-.08.21-.17.43-.28.64l-.8.8c-.32.32-.61.64-.88.96-.27.37-.6.64-1,.8-.4.16-.73.4-1,.72-.16.11-.24.27-.24.48-.43.43-.92.81-1.47,1.15-.56.35-1.05.73-1.47,1.15-.85.16-1.63.48-2.35.96-.72.48-1.55.61-2.51.4-.11.05-.12.11-.04.16.08.05.2.08.36.08-.16.27-.17.47-.04.6.13.13.23.28.28.44.42.43.93.82,1.51,1.19.58.37,1.22.61,1.91.72,1.96.58,3.82.61,5.58.08.58-.11,1.13-.21,1.63-.32.5-.11,1.1-.29,1.79-.56.85-.32,1.62-.66,2.31-1.04l1.04-.48c.16-.11.25-.15.28-.12.03.03.03.05,0,.08-.03.03-.04.05-.04.08s.08-.01.24-.12l2.07-.96c.58-.42,1.06-.76,1.43-1,.37-.24.93-.65,1.67-1.23.05-.05.21-.17.48-.36.27-.19.54-.38.84-.6.29-.21.57-.41.84-.6.26-.19.45-.3.56-.36l.8-.8c.64-.42,1.18-.78,1.63-1.08.45-.29.78-.49,1-.6.16.16.27.39.32.68.05.29.16.44.32.44-.32.48-.54.84-.68,1.08-.13.24-.24.41-.32.52-.08.11-.19.2-.32.28-.13.08-.36.23-.68.44ZM391.41,71.07c-.16.11-.35.24-.56.4-.21.16-.4.29-.56.4-.21,0-.35.05-.4.16-.11.05-.2.11-.28.16-.08.05-.17.11-.28.16l-.64.48c-.27.27-.53.47-.8.6-.27.13-.53.31-.8.52-.32.43-.62.76-.92,1-.29.24-.6.57-.92,1-.58.37-1.06.82-1.43,1.35-.58.58-1.12,1.15-1.59,1.71-.48.56-.85,1.13-1.12,1.71,1.01-.32,1.96-.82,2.87-1.51.9-.69,1.86-1.41,2.87-2.15.32-.26.64-.53.96-.8.32-.27.61-.58.88-.96.48-.27,1.02-.7,1.63-1.31.61-.61,1.13-1.21,1.55-1.79.11-.27.23-.5.36-.72.13-.21.15-.42.04-.64-.11,0-.25.01-.44.04-.19.03-.33.09-.44.2Z"/>
        <path class="cls-4" d="M428.21,85.09c-.43.05-.8.24-1.11.56s-.69.56-1.12.72c-.05.05-.05.13,0,.24h-.56c-.05-.05-.11-.08-.16-.08-.16,0-.21.04-.16.12.05.08.03.17-.08.28-.43.11-.73.25-.92.44-.19.19-.57.28-1.15.28,0,.11-.03.19-.08.24-.27,0-.51.16-.72.48-.43,0-.82.19-1.19.56-.85.11-1.55.4-2.11.88-.56.48-1.31.77-2.27.88-.21,0-.32.03-.32.08-1.06.16-2.14.23-3.23.2-1.09-.03-2.19-.23-3.31-.6-.43-.11-.84-.27-1.23-.48-.4-.21-.78-.42-1.15-.64-.58-.21-1.08-.66-1.47-1.35-.4-.69-.68-1.35-.84-1.99-.21-.74-.28-1.67-.2-2.79.08-1.12.28-2.12.6-3.03.16-.64.4-1.22.72-1.75.32-.53.61-1.09.88-1.67.32-.16.61-.58.88-1.27l.16-.08c.74-1.06,1.49-2,2.23-2.83.74-.82,1.65-1.6,2.71-2.35,0-.11.04-.16.12-.16s.12-.03.12-.08c.32-.27.66-.46,1.04-.6.37-.13.77-.33,1.19-.6.27-.16.5-.34.72-.56.21-.21.53-.29.96-.24.27.05.52.17.76.36.24.19.49.31.76.36.16.11.3.13.44.08.13-.05.25-.08.36-.08.11.11.21.23.32.36.11.13.29.2.56.2.27.43.58.92.96,1.47.37.56.56,1.21.56,1.95-.27.43-.35.98-.24,1.67-.27.37-.48.84-.64,1.39s-.35,1.02-.56,1.39c-.11.05-.19.07-.24.04-.05-.03-.13-.01-.24.04-.11,0-.17-.04-.2-.12-.03-.08-.07-.12-.12-.12v.24c-.11-.05-.21-.19-.32-.4-.27.11-.65-.09-1.15-.6-.51-.5-.76-.94-.76-1.31l.32-.88c.26-.58.54-1.15.84-1.71.29-.56.44-1.1.44-1.63-1.27.32-2.24.9-2.91,1.75-.66.85-1.47,1.67-2.43,2.47,0,.11-.01.16-.04.16s-.04.05-.04.16c-1.12.96-1.99,2.1-2.63,3.42-.64,1.33-1.25,2.68-1.83,4.06-.05.43-.11.89-.16,1.39-.05.5-.08,1-.08,1.47.05.37.19.88.4,1.51.21.64.61,1.01,1.19,1.12,1.27.43,2.4.44,3.39.04.98-.4,2-.73,3.07-1,1.65-.74,3.19-1.42,4.62-2.03,1.43-.61,2.84-1.37,4.22-2.27h.24c.74-.53,1.47-1.04,2.19-1.51.72-.48,1.45-1.01,2.19-1.59.69-.27,1.27-.66,1.75-1.19.48-.53,1.09-.93,1.83-1.19.05-.27.19-.45.4-.56.05-.11.07-.16.04-.16s-.01-.03.04-.08l.24.08v-.24c.27,0,.44-.12.52-.36.08-.24.2-.41.36-.52l.08.08c.11-.16.24-.32.4-.48.16-.16.4-.29.72-.4-.21.21-.2.36.04.44.24.08.25.17.04.28.11-.05.19-.04.24.04.05.08.16.12.32.12l-.08.08h.16c.05.05.07.12.04.2-.03.08.04.12.2.12-.11.16-.15.33-.12.52.03.19.04.31.04.36s-.03.08-.08.08-.11.03-.16.08v.8c-.11.16-.17.23-.2.2-.03-.03-.07.01-.12.12v.08c-.21-.05-.21-.08,0-.08-.27-.11-.32-.05-.16.16-.27-.05-.45.01-.56.2-.11.19-.27.33-.48.44,0-.27.08-.45.24-.56.16-.11.24-.21.24-.32-.27.11-.44.28-.52.52-.08.24-.25.44-.52.6l.16-.16c-.32,0-.54.07-.68.2l-.36.36c0,.11.01.15.04.12.03-.03.04.01.04.12h-.08c-.16-.05-.24-.19-.24-.4-.11.16-.23.39-.36.68-.13.29-.28.49-.44.6-.11-.05-.19-.07-.24-.04-.05.03-.11.04-.16.04,0,.11-.03.19-.08.24-.05.05-.11.13-.16.24l-.08-.08v.24c-.05-.05-.25.07-.6.36-.35.29-.57.49-.68.6-.05.16-.07.29-.04.4.03.11.01.19-.04.24-.11-.05-.21-.01-.32.12-.11.13-.21.25-.32.36-.11-.11-.09-.19.04-.24.13-.05.2-.13.2-.24,0-.05-.08-.08-.24-.08-.37.21-.66.45-.88.72-.21.27-.45.61-.72,1.04-.27.05-.47.15-.6.28l-.36.36c-.05-.05-.05-.08,0-.08s.08-.03.08-.08ZM436.25,78c.16-.11.29-.24.4-.4-.11.11-.19.17-.24.2-.05.03-.11.09-.16.2ZM436.73,76.01c.11.05.2.05.28,0,.08-.05.09-.13.04-.24-.21.11-.32.19-.32.24ZM437.21,76.33h.08c.16-.16.13-.24-.08-.24v.24Z"/>
        <path class="cls-4" d="M454.65,85.09c-.43.05-.8.24-1.11.56s-.69.56-1.12.72c-.05.05-.05.13,0,.24h-.56c-.05-.05-.11-.08-.16-.08-.16,0-.21.04-.16.12.05.08.03.17-.08.28-.43.11-.73.25-.92.44-.19.19-.57.28-1.15.28,0,.11-.03.19-.08.24-.27,0-.51.16-.72.48-.43,0-.82.19-1.19.56-.85.11-1.55.4-2.11.88-.56.48-1.31.77-2.27.88-.21,0-.32.03-.32.08-1.06.16-2.14.23-3.23.2-1.09-.03-2.19-.23-3.31-.6-.43-.11-.84-.27-1.23-.48-.4-.21-.78-.42-1.15-.64-.58-.21-1.08-.66-1.47-1.35-.4-.69-.68-1.35-.84-1.99-.21-.74-.28-1.67-.2-2.79.08-1.12.28-2.12.6-3.03.16-.64.4-1.22.72-1.75.32-.53.61-1.09.88-1.67.32-.16.61-.58.88-1.27l.16-.08c.74-1.06,1.49-2,2.23-2.83.74-.82,1.65-1.6,2.71-2.35,0-.11.04-.16.12-.16s.12-.03.12-.08c.32-.27.66-.46,1.04-.6.37-.13.77-.33,1.19-.6.27-.16.5-.34.72-.56.21-.21.53-.29.96-.24.27.05.52.17.76.36.24.19.49.31.76.36.16.11.3.13.44.08.13-.05.25-.08.36-.08.11.11.21.23.32.36.11.13.29.2.56.2.27.43.58.92.96,1.47.37.56.56,1.21.56,1.95-.27.43-.35.98-.24,1.67-.27.37-.48.84-.64,1.39s-.35,1.02-.56,1.39c-.11.05-.19.07-.24.04-.05-.03-.13-.01-.24.04-.11,0-.17-.04-.2-.12-.03-.08-.07-.12-.12-.12v.24c-.11-.05-.21-.19-.32-.4-.27.11-.65-.09-1.15-.6-.51-.5-.76-.94-.76-1.31l.32-.88c.26-.58.54-1.15.84-1.71.29-.56.44-1.1.44-1.63-1.27.32-2.24.9-2.91,1.75-.66.85-1.47,1.67-2.43,2.47,0,.11-.01.16-.04.16s-.04.05-.04.16c-1.12.96-1.99,2.1-2.63,3.42-.64,1.33-1.25,2.68-1.83,4.06-.05.43-.11.89-.16,1.39-.05.5-.08,1-.08,1.47.05.37.19.88.4,1.51.21.64.61,1.01,1.19,1.12,1.27.43,2.4.44,3.39.04.98-.4,2-.73,3.07-1,1.65-.74,3.19-1.42,4.62-2.03,1.43-.61,2.84-1.37,4.22-2.27h.24c.74-.53,1.47-1.04,2.19-1.51.72-.48,1.45-1.01,2.19-1.59.69-.27,1.27-.66,1.75-1.19.48-.53,1.09-.93,1.83-1.19.05-.27.19-.45.4-.56.05-.11.07-.16.04-.16s-.01-.03.04-.08l.24.08v-.24c.27,0,.44-.12.52-.36.08-.24.2-.41.36-.52l.08.08c.11-.16.24-.32.4-.48.16-.16.4-.29.72-.4-.21.21-.2.36.04.44.24.08.25.17.04.28.11-.05.19-.04.24.04.05.08.16.12.32.12l-.08.08h.16c.05.05.07.12.04.2-.03.08.04.12.2.12-.11.16-.15.33-.12.52.03.19.04.31.04.36s-.03.08-.08.08-.11.03-.16.08v.8c-.11.16-.17.23-.2.2-.03-.03-.07.01-.12.12v.08c-.21-.05-.21-.08,0-.08-.27-.11-.32-.05-.16.16-.27-.05-.45.01-.56.2-.11.19-.27.33-.48.44,0-.27.08-.45.24-.56.16-.11.24-.21.24-.32-.27.11-.44.28-.52.52-.08.24-.25.44-.52.6l.16-.16c-.32,0-.54.07-.68.2l-.36.36c0,.11.01.15.04.12.03-.03.04.01.04.12h-.08c-.16-.05-.24-.19-.24-.4-.11.16-.23.39-.36.68-.13.29-.28.49-.44.6-.11-.05-.19-.07-.24-.04-.05.03-.11.04-.16.04,0,.11-.03.19-.08.24-.05.05-.11.13-.16.24l-.08-.08v.24c-.05-.05-.25.07-.6.36-.35.29-.57.49-.68.6-.05.16-.07.29-.04.4.03.11.01.19-.04.24-.11-.05-.21-.01-.32.12-.11.13-.21.25-.32.36-.11-.11-.09-.19.04-.24.13-.05.2-.13.2-.24,0-.05-.08-.08-.24-.08-.37.21-.66.45-.88.72-.21.27-.45.61-.72,1.04-.27.05-.47.15-.6.28l-.36.36c-.05-.05-.05-.08,0-.08s.08-.03.08-.08ZM462.69,78c.16-.11.29-.24.4-.4-.11.11-.19.17-.24.2-.05.03-.11.09-.16.2ZM463.17,76.01c.11.05.2.05.28,0,.08-.05.09-.13.04-.24-.21.11-.32.19-.32.24ZM463.65,76.33h.08c.16-.16.13-.24-.08-.24v.24Z"/>
        <path class="cls-4" d="M458.55,83.58c.11-.05.17-.16.2-.32.03-.16.01-.29-.04-.4.11-.27.17-.53.2-.8.03-.26.17-.45.44-.56.16-.16.2-.29.12-.4-.08-.11-.01-.19.2-.24.11-.21.2-.42.28-.64.08-.21.2-.4.36-.56.42-1.01.97-2.08,1.63-3.23.66-1.14,1.26-2.24,1.79-3.31.27-.32.5-.64.72-.96.21-.32.34-.66.4-1.04h.16c.11-.53.46-.73,1.08-.6.61.13,1.21.31,1.79.52.27.11.42.25.48.44.05.19.08.39.08.6-.11.05-.15.15-.12.28.03.13.01.25-.04.36-.37.58-.64,1.19-.8,1.83s-.43,1.25-.8,1.83c-.05.11-.12.19-.2.24-.08.05-.15.13-.2.24-.11.21-.2.52-.28.92-.08.4-.25.81-.52,1.23-.43.85-.8,1.65-1.11,2.39-.32.74-.64,1.57-.96,2.47-.16.85-.33,1.57-.52,2.15-.19.58-.07,1.27.36,2.07,1.22-.32,2.3-.7,3.23-1.15.93-.45,1.9-.94,2.91-1.47l2.15-1.59.64-.4,2.55-1.91,2.15-1.67c.21-.16.48-.33.8-.52.32-.19.58-.36.8-.52.53-.42.96-.76,1.27-1,.32-.24.74-.54,1.27-.92.11-.16.23-.28.36-.36.13-.08.31-.17.52-.28l.56-.4c.11-.27.36-.45.76-.56.4-.11.65-.34.76-.72.21.05.32,0,.32-.16.27.11.36.24.28.4-.08.16-.01.29.2.4-.11.05-.2.19-.28.4-.08.21-.12.35-.12.4.21.11.34-.01.4-.36.05-.34.16-.49.32-.44,0,.05-.03.2-.08.44-.05.24-.11.36-.16.36.27.11.32.25.16.44-.16.19-.19.36-.08.52-.11.11-.19.17-.24.2-.05.03-.11.12-.16.28-.11,0-.12-.05-.04-.16.08-.11.01-.16-.2-.16-.05.11-.11.2-.16.28-.05.08-.11.23-.16.44-.11,0-.15-.04-.12-.12.03-.08.04-.15.04-.2-.27,0-.4.08-.4.24-.27.11-.43.27-.48.48-.05.21-.16.43-.32.64-.16,0-.21-.03-.16-.08.05-.05,0-.08-.16-.08.05.05.01.2-.12.44-.13.24-.28.47-.44.68-.16.21-.28.39-.36.52-.08.13-.07.09.04-.12-.11-.05-.35.05-.72.32-.37.27-.61.45-.72.56l-.96.96c-.16.11-.44.32-.84.64-.4.32-.65.53-.76.64l-.16-.08c0,.05-.01.09-.04.12s-.04.09-.04.2c-.05-.11-.13-.12-.24-.04-.11.08-.11.17,0,.28h-.24c0,.05-.11.24-.32.56-.21.32-.51.58-.88.8v-.32c-.11-.05-.16-.04-.16.04s-.05.15-.16.2h.24c-.05.21-.13.33-.24.36-.11.03-.24.07-.4.12-.05,0-.04-.03.04-.08.08-.05.07-.08-.04-.08-.11.11-.23.24-.36.4-.13.16-.28.29-.44.4-.11-.16-.2-.19-.28-.08-.08.11-.17.19-.28.24l-.4.16c-.16.11-.31.21-.44.32-.13.11-.33.19-.6.24-.05.11-.08.21-.08.32-.05,0-.08-.03-.08-.08s-.05-.05-.16,0c-.11.11-.24.23-.4.36-.16.13-.37.23-.64.28-.21.37-.52.64-.92.8s-.81.32-1.23.48c-.64.42-1.27.72-1.91.88-.58.11-1.22.23-1.91.36-.69.13-1.43.15-2.23.04-.53-.11-1.05-.19-1.55-.24-.51-.05-.89-.16-1.16-.32-.37-.27-.68-.58-.92-.96-.24-.37-.44-.69-.6-.96-.16-.05-.24-.13-.24-.24s-.08-.24-.24-.4c0-.05.01-.08.04-.08.03,0,.04-.05.04-.16-.11.11-.19.16-.24.16-.11-.27-.07-.48.12-.64.19-.16.2-.37.04-.64-.11.11-.16.32-.16.64-.11-.11-.16-.25-.16-.44s.11-.28.32-.28c0-.32.11-.69.32-1.12-.11,0-.19.03-.24.08.05-.27.16-.48.32-.64.16-.16.24-.37.24-.64-.11,0-.15.05-.12.16.03.11.01.16-.04.16-.11-.27,0-.61.32-1.04.05,0,.08-.05.08-.16,0,.11-.05.23-.16.36-.11.13-.11.25,0,.36ZM471.77,65.34c-.11.05-.13.09-.08.12.05.03.03.09-.08.2-.27.21-.47.48-.6.8-.13.32-.39.45-.76.4-.27.11-.48.29-.64.56-.27,0-.43-.03-.48-.08-.05-.05-.13-.13-.24-.24-.27,0-.43.08-.48.24-.48-.16-.86-.32-1.16-.48-.29-.16-.62-.32-1-.48,0-.48.07-.94.2-1.39.13-.45.52-.62,1.15-.52.11-.11.19-.16.24-.16s.11-.03.16-.08c.64.05,1.19.19,1.67.4.48.21,1.06.35,1.75.4-.11.21,0,.32.32.32ZM474,85.81c.11,0,.21-.04.32-.12.11-.08.11-.17,0-.28l-.32.4ZM482.52,78.48c-.21.05-.37.16-.48.32-.11.16-.08.32.08.48,0-.16.08-.32.24-.48.11-.11.16-.21.16-.32ZM483.32,78.08c-.05-.05-.03-.08.08-.08l-.08.08Z"/>
        <path class="cls-4" d="M514.94,81.58c-.27-.05-.5.07-.72.36-.21.29-.43.57-.64.84,0-.05.03-.13.08-.24-.43.32-.82.65-1.19,1-.37.35-.77.73-1.19,1.15h-.16v-.08c-.11.11-.23.24-.36.4-.13.16-.28.19-.44.08-.27.16-.47.35-.6.56-.13.21-.31.35-.52.4-.27.27-.48.47-.64.6-.16.13-.4.33-.72.6,0-.05-.05-.08-.16-.08-.16.21-.51.37-1.04.48-.58.32-1.1.65-1.55,1-.45.35-.92.52-1.39.52-.48.05-.82.11-1.04.16-.21.05-.45.05-.72,0-.43,0-.96.12-1.59.36-.64.24-1.17.28-1.59.12-.11-.27-.29-.45-.56-.56-.27-.16-.52-.29-.76-.4-.24-.11-.41-.34-.52-.72-.58-.37-1.01-.92-1.27-1.63-.27-.72-.41-1.54-.44-2.47-.03-.93.04-1.9.2-2.91.16-1.01.37-1.99.64-2.95-.74.58-1.46,1.29-2.15,2.11-.69.82-1.38,1.61-2.07,2.35-.27.48-.56.88-.88,1.19-.32.32-.64.61-.96.88-.9,1.06-1.75,1.99-2.55,2.79,0,.05-.01.09-.04.12s-.07.09-.12.2c-.43.32-.9.69-1.43,1.12-.53.43-1.08.78-1.63,1.08-.56.29-1.14.46-1.75.52-.61.05-1.23-.16-1.87-.64-.37-.05-.62-.17-.76-.36-.13-.19-.33-.36-.6-.52-.58-.27-.94-.58-1.08-.96-.13-.37-.23-.93-.28-1.67-.05-.37-.01-.85.12-1.43.13-.58.31-1.09.52-1.51.27-1.01.66-1.95,1.19-2.83.53-.88,1.04-1.69,1.51-2.43.9-1.22,1.82-2.35,2.75-3.38.93-1.04,1.9-2.06,2.91-3.07.32-.16.65-.37,1-.64.34-.27.73-.48,1.15-.64.27.11.56.04.88-.2.32-.24.58-.17.8.2,1.12.11,2.1.37,2.95.8.85.43,1.43,1.12,1.75,2.07.37-.27.72-.5,1.04-.72.32-.21.66-.37,1.04-.48.16-.05.29-.16.4-.32.11-.16.21-.24.32-.24.53-.11,1.02,0,1.47.32.45.32.89.58,1.31.8.05-.05.12-.07.2-.04.08.03.2.01.36-.04.11.16.19.28.24.36.05.08.11.2.16.36.11.96-.01,1.99-.36,3.11-.35,1.12-.73,2.04-1.15,2.79-.21,1.22-.51,2.55-.88,3.98-.37,1.43-.4,2.68-.08,3.74,1.86-.21,3.41-.68,4.66-1.39,1.25-.72,2.51-1.42,3.78-2.11.48-.37.92-.69,1.31-.96.4-.27.78-.61,1.15-1.04.05,0,.11.03.16.08v.08c.27,0,.8-.33,1.59-1,.8-.66,1.61-1.35,2.43-2.07.82-.72,1.59-1.34,2.31-1.87.72-.53,1.13-.72,1.23-.56.11.11.24.12.4.04.16-.08.29-.09.4-.04.05.11.07.19.04.24-.03.05-.01.11.04.16v-.16c.05,0,.05.07,0,.2-.05.13-.11.27-.16.4-.05.13-.11.23-.16.28-.05.05-.05,0,0-.16l-.36.36-.36.36c-.11.27-.17.45-.2.56-.03.11-.09.29-.2.56-.16,0-.27-.03-.32-.08-.11.27-.25.45-.44.56-.19.11-.33.32-.44.64-.11,0-.21.13-.32.4l-1.12,1.19ZM493.19,74.74c-.11-.69-.31-1.27-.6-1.75-.29-.48-.81-.53-1.55-.16l-1.27,1.43c-.11.16-.24.28-.4.36-.16.08-.29.17-.4.28-.11.11-.21.25-.32.44-.11.19-.24.39-.4.6l-1.12,1.27c-.58.74-1.15,1.58-1.71,2.51-.56.93-1.05,1.82-1.47,2.67-.11.27-.24.51-.4.72-.16.21-.29.53-.4.96-.11-.05-.16-.04-.16.04s-.03.09-.08.04c-.11.58-.29,1.08-.56,1.47-.27.4-.4.92-.4,1.55.42-.27.88-.53,1.35-.8.48-.26.88-.56,1.19-.88,1.54-1.49,3.01-3.04,4.42-4.66,1.41-1.62,2.8-3.28,4.18-4.98.16-.11.29-.25.4-.44.11-.19.24-.31.4-.36v-.16c-.11-.11-.35-.16-.72-.16Z"/>
      </g>
      <path class="cls-3" d="M524.06,94.87c.94-2.51,2.09-7.07,2.56-10.18l4.18-.43c-.98,3.62-2.85,8.35-4.05,10.35l-2.68.26Z"/>
      <g>
        <path class="cls-3" d="M540.7,82.63c0-2.11.5-3.81,1.5-5.1,1-1.29,2.31-1.93,3.93-1.93s2.89.55,3.83,1.66v-7.18h2.36v19.56h-2.16l-.11-1.48c-.94,1.15-2.25,1.73-3.93,1.73s-2.9-.65-3.9-1.96-1.51-3.01-1.51-5.12v-.18ZM543.06,82.89c0,1.56.32,2.78.97,3.67.65.88,1.54,1.32,2.67,1.32,1.49,0,2.58-.67,3.27-2.01v-6.33c-.7-1.3-1.79-1.95-3.25-1.95-1.15,0-2.05.45-2.7,1.34-.65.89-.97,2.21-.97,3.96Z"/>
        <path class="cls-3" d="M564.48,88.27c-.92,1.08-2.26,1.62-4.04,1.62-1.47,0-2.59-.43-3.35-1.28s-1.16-2.12-1.17-3.79v-8.96h2.36v8.9c0,2.09.85,3.13,2.55,3.13,1.8,0,3-.67,3.59-2.01v-10.02h2.36v13.78h-2.24l-.05-1.36Z"/>
      </g>
      <g>
        <path class="cls-4" d="M589.79,104.76l.08-.08c-.32.05-.54.16-.68.32-.13.16-.39.24-.76.24.11-.27.25-.35.44-.24.19.11.28.03.28-.24-.37,0-.64.08-.8.24-.16.16-.37.29-.64.4-.16-.27-.32-.28-.48-.04-.16.24-.37.36-.64.36-.11.11-.31.13-.6.08-.29-.05-.49.03-.6.24-.11-.11-.27-.11-.48,0-.21.11-.32.21-.32.32s-.04.05-.12-.16c-.08-.21-.15-.29-.2-.24v.16c-.16,0-.31.09-.44.28-.13.19-.28.38-.44.6-.16.21-.31.4-.44.56-.13.16-.28.21-.44.16-.27.27-.45.46-.56.6-.11.13-.61.23-1.51.28-.58.05-1.04.04-1.35-.04-.32-.08-.61-.17-.88-.28-.27-.11-.53-.24-.8-.4-.27-.16-.61-.32-1.04-.48-.64-.32-1.1-.54-1.39-.68-.29-.13-.6-.39-.92-.76l.24-.32c-.26-.21-.45-.31-.56-.28-.11.03-.21-.2-.32-.68.05-.05.15-.05.28,0,.13.05.28.05.44,0-.11-.43-.12-.93-.04-1.51.08-.58.09-1.14.04-1.67.27-.16.48-.55.64-1.15.16-.61.21-1.1.16-1.47.11.05.16.01.16-.12s.05-.2.16-.2c.43-2.12,1-4.13,1.71-6.01.72-1.89,1.45-3.76,2.19-5.62.16.11.17.23.04.36s-.17.31-.12.52c.32-.11.48-.33.48-.68s.11-.57.32-.68c.05-.32.16-.66.32-1.04.16-.37.37-.69.64-.96-.16-.21-.19-.45-.08-.72.11-.27.21-.48.32-.64-.53.37-.88.97-1.04,1.79-.16.82-.45,1.5-.88,2.03.85-2.81,1.87-5.46,3.07-7.92,1.19-2.47,2.32-5.03,3.38-7.69.42-.58.81-1.26,1.15-2.03.34-.77.73-1.47,1.16-2.11-.05-.27.04-.46.28-.6.24-.13.31-.3.2-.52.16-.16.29-.5.4-1.04-.05-.11-.11-.12-.16-.04-.05.08-.11.12-.16.12s-.01-.08.12-.24c.13-.16.28-.19.44-.08-.21-.27-.2-.5.04-.72.24-.21.36-.53.36-.96h.4c0-.11.08-.29.24-.56,0-.11-.03-.13-.08-.08-.05.05-.11.13-.16.24.53-1.49,1.23-3.12,2.11-4.9.88-1.78,1.63-3.44,2.27-4.98.74-2.02,1.53-3.92,2.35-5.69.82-1.78,1.58-3.65,2.27-5.61-.11-.16-.23-.28-.36-.36-.13-.08-.25-.23-.36-.44.11-.32.27-.5.48-.56.9.11,1.8.25,2.71.44.9.19,1.51.73,1.83,1.63-.27.69-.43,1.53-.48,2.51-.05.98-.24,1.85-.56,2.59-.27.53-.43,1.09-.48,1.67-.05.58-.19,1.17-.4,1.75l-2.87,6.37c-.16.48-.37,1.09-.64,1.83-.27.74-.51,1.27-.72,1.59-.11.21-.19.39-.24.52-.05.13-.13.33-.24.6-.64,1.22-1.21,2.36-1.71,3.42-.51,1.06-1.05,2.12-1.63,3.19,0,.11-.04.17-.12.2-.08.03-.12.07-.12.12-.69.96-1.19,1.83-1.51,2.63.11,0,.19.03.24.08-.37.43-.57.82-.6,1.19-.03.37-.25.69-.68.96-.05.16-.03.2.08.12.11-.08.13-.04.08.12-.27.27-.41.52-.44.76-.03.24-.17.49-.44.76-.43,0-.64.11-.64.32.11.11.16.09.16-.04s.08-.17.24-.12c-.11.16-.24.35-.4.56-.16.21-.27.37-.32.48,0,.11.11.16.32.16-.11.21-.24.35-.4.4-.16.05-.29.16-.4.32.16.11.28.11.36,0,.08-.11.17-.11.28,0-.11.11-.2.24-.28.4s-.2.19-.36.08c.16.32.15.62-.04.92-.19.29-.41.52-.68.68,0,.11.04.13.12.08.08-.05.12-.03.12.08-.21.37-.36.77-.44,1.19-.08.43-.33.72-.76.88.11.53.04.97-.2,1.31-.24.35-.39.76-.44,1.23-.11.05-.2.09-.28.12-.08.03-.12.09-.12.2h.24c-.27.53-.54,1.1-.84,1.71-.29.61-.49,1.18-.6,1.71-.37,0-.58.2-.64.6-.05.4-.21.73-.48,1,.21,0,.37.05.48.16-.11.32-.21.6-.32.84-.11.24-.21.52-.32.84-.43-.05-.66-.03-.72.08-.05.11-.13.21-.24.32.11.16.19.19.24.08.05-.11.21-.13.48-.08,0,.11-.08.19-.24.24-.16.05-.19.16-.08.32-.16.05-.32.05-.48,0l-.32,1.75c-.11,0-.16-.03-.16-.08s-.05-.08-.16-.08c.21-.27.33-.54.36-.84.03-.29.04-.57.04-.84-.27,0-.44.07-.52.2-.08.13-.13.29-.16.48-.03.19-.07.36-.12.52-.05.16-.19.27-.4.32.21.16.19.34-.08.56,0,.05.13.13.4.24-.27,0-.44.08-.52.24-.08.16-.15.32-.2.48.05.05.16.08.32.08-.43.58-.74,1.25-.96,1.99-.16-.11-.15-.29.04-.56.19-.27.25-.53.2-.8-.37.37-.61.82-.72,1.35-.11.53-.21,1.01-.32,1.43.27-.11.4-.33.4-.68s.16-.57.48-.68c-.27.69-.4,1.33-.4,1.91,0,.11.07.12.2.04.13-.08.17-.01.12.2-.37-.11-.58-.01-.64.28-.05.29-.13.49-.24.6h-.24c-.21.58-.35,1.14-.4,1.67-.05.53-.08,1.12-.08,1.75.05.11.08.12.08.04s.05-.09.16-.04c.05.27.15.4.28.4s.25.11.36.32c3.66-1.33,7.31-2.56,10.95-3.7,3.64-1.14,7.61-1.95,11.91-2.43.42,0,.72-.04.88-.12.16-.08.48-.12.96-.12-.11-.05-.08-.09.08-.12.16-.03.29-.07.4-.12h2.47c.69-.16,1.5-.27,2.43-.32.93-.05,1.83-.03,2.71.08.88.11,1.7.28,2.47.52.77.24,1.39.6,1.87,1.08-.11.05-.15.11-.12.16.03.05.07.09.12.12.05.03.11.08.16.16.05.08.05.2,0,.36.05.05.12.12.2.2.08.08.12.2.12.36-.05-.16-.13-.25-.24-.28-.11-.03-.21-.09-.32-.2-.21.11-.23.19-.04.24.19.05.23.13.12.24,0,.05.07.15.2.28.13.13.2.23.2.28-.43.11-.8.12-1.11.04-.32-.08-.66-.09-1.04-.04l1.67-.56c-.21-.16-.41-.13-.6.08-.19.21-.33.26-.44.16-.11-.11-.07-.13.12-.08.19.05.28.03.28-.08-.05-.11-.15-.13-.28-.08-.13.05-.31.03-.52-.08h-.08c-.16,0-.32-.03-.48-.08-.43-.11-.97-.16-1.63-.16s-1.21.08-1.63.24c-.11.05-.15.03-.12-.08.03-.11-.01-.21-.12-.32v.4l-.4.16-.16-.08c-.43-.05-1.08-.05-1.95,0-.88.05-1.7.13-2.47.24-.77.11-1.34.2-1.71.28-.37.08-.27.12.32.12v.24c.11-.11.33-.2.68-.28.34-.08.6-.12.76-.12s.2.03.12.08c-.08.05-.12.11-.12.16h.32c0-.11.21-.17.64-.2.42-.03.77-.09,1.04-.2,0,.11.05.13.16.08.11-.05.19-.11.24-.16.42-.11.86-.09,1.31.04.45.13.92.15,1.39.04l.48-.24v.16c-.11.11-.09.12.04.04.13-.08.15-.01.04.2-1.01.11-2.02.2-3.03.28-1.01.08-1.97.07-2.87-.04.11.05.13.09.08.12-.05.03-.16.05-.32.08-.16.03-.31.04-.44.04h-.28c-.53,0-.9.12-1.11.36-.21.24-.53.36-.96.36,0-.16-.08-.29-.24-.4-.96.37-1.99.56-3.11.56.05.11.11.16.16.16s.03.08-.08.24c-.11-.43-.16-.43-.16,0-.11,0-.17-.05-.2-.16-.03-.11-.09-.16-.2-.16-.05,0-.08.05-.08.16v.16c-.43,0-.76.05-1,.16-.24.11-.54.13-.92.08,0-.11.03-.15.08-.12.05.03.08-.01.08-.12-.11,0-.24.09-.4.28-.16.19-.37.25-.64.2l.48-.16c-.69,0-1.01.16-.96.48h-.8c0-.05.05-.08.16-.08s.16-.05.16-.16c-.27,0-.41.03-.44.08-.03.05-.09.13-.2.24-.11-.11-.19-.13-.24-.08-.05.05-.13.05-.24,0l-.48.24h-.08.08l-.08.08c-.53.37-1.09.4-1.67.08-.27.21-.54.33-.84.36-.29.03-.47.12-.52.28v.08h-.08ZM577.2,94.41c-.26,0-.4.27-.4.8h.08c.11-.05.17-.17.2-.36.03-.19.07-.33.12-.44ZM577.2,94.41c-.26,0-.4.27-.4.8h.08c.11-.05.17-.17.2-.36.03-.19.07-.33.12-.44ZM577.76,103.01c-.11-.16-.2-.2-.28-.12s-.17.12-.28.12c.05.32.03.65-.08,1-.11.34-.13.7-.08,1.08l.32-.4c.05-.05.08-.16.08-.32.05-.16.08-.37.08-.64v-.24c.11-.27.19-.43.24-.48ZM577.76,103.01c-.11-.16-.2-.2-.28-.12s-.17.12-.28.12c.05.32.03.65-.08,1-.11.34-.13.7-.08,1.08l.32-.4c.05-.05.08-.16.08-.32.05-.16.08-.37.08-.64v-.24c.11-.27.19-.43.24-.48ZM577.28,93.93c.16-.05.29-.29.4-.72l.08-.08c0-.16.03-.29.08-.4h-.32v.08c0,.16-.05.32-.16.48-.11.16-.19.29-.24.4,0,.05-.01.08-.04.08s-.04.03-.04.08v.08h.24ZM577.52,92.81c0,.16-.05.32-.16.48-.11.16-.19.29-.24.4,0,.05-.01.08-.04.08s-.04.03-.04.08v.08h.24c.16-.05.29-.29.4-.72l.08-.08c0-.16.03-.29.08-.4h-.32v.08ZM577.84,91.38c-.05.16-.13.36-.24.6-.11.24-.11.41,0,.52-.11-.05.03-.27.4-.64.16-.21.32-.43.48-.64.16-.21.27-.37.32-.48-.05.05-.2.19-.44.4-.24.21-.33.32-.28.32l-.08.08c.05,0,.08-.03.08-.08-.05,0-.08-.01-.08-.04s-.05-.04-.16-.04ZM578.96,89.07c-.16.05-.27.11-.32.16-.05.05-.13.13-.24.24,0,.05-.03.11-.08.16-.05.16-.05.27,0,.32h.08c.11-.05.16-.11.16-.16s.03-.11.08-.16c.05-.11.09-.2.12-.28.03-.08.09-.17.2-.28ZM578.4,89.95c.11-.05.16-.11.16-.16s.03-.11.08-.16c.05-.11.09-.2.12-.28.03-.08.09-.17.2-.28-.16.05-.27.11-.32.16-.05.05-.13.13-.24.24,0,.05-.03.11-.08.16-.05.16-.05.27,0,.32h.08ZM578.32,90.27v.64c-.05,0,.05-.11.32-.32.27-.21.4-.35.4-.4.05-.05,0-.08-.16-.08-.11,0-.27.05-.48.16h-.08ZM578.8,101.42c-.11.05-.17.11-.2.16-.03.05-.09.13-.2.24-.11-.11-.11-.2,0-.28.11-.08.24-.12.4-.12ZM578.4,90.27c0,.05.08.05.24,0,.16-.05.29-.08.4-.08,0-.05-.05-.08-.16-.08-.21.11-.37.16-.48.16ZM579.43,95.76c.11,0,.17.01.2.04s.09.04.2.04h.16l-.08-.08c-.05-.05-.08-.11-.08-.16l.08-.08c0-.05.03-.08.08-.08,0-.05.03-.11.08-.16h-.24l-.24.32-.16.16ZM579.43,95.76c.11,0,.17.01.2.04s.09.04.2.04h.16l-.08-.08c-.05-.05-.08-.11-.08-.16l.08-.08c0-.05.03-.08.08-.08,0-.05.03-.11.08-.16h-.24l-.24.32-.16.16ZM580.31,98.95c-.11.16-.17.36-.2.6-.03.24-.2.41-.52.52,0-.11.08-.27.24-.48.16-.21.19-.35.08-.4,0-.11.04-.16.12-.16s.17-.03.28-.08ZM580.31,98.39c.11.05.15.13.12.24-.03.11-.15.11-.36,0,0-.05.04-.08.12-.08s.12-.05.12-.16ZM580.63,93.53l.16-.08c-.05,0-.11-.03-.16-.08h-.24v.16h.24ZM580.79,93.45c-.05,0-.11-.03-.16-.08h-.24v.16h.24l.16-.08ZM580.47,97.51c.05.05.11.13.16.24.05.11,0,.19-.16.24.05-.11.05-.2,0-.28-.05-.08-.05-.15,0-.2ZM580.55,93.29h.16c.11-.11.16-.21.16-.32s.05-.21.16-.32h-.48c0,.05.03.11.08.16v.16c-.05,0-.08.03-.08.08l-.08.08v.16h.08ZM580.55,92.65c0,.05.03.11.08.16v.16c-.05,0-.08.03-.08.08l-.08.08v.16h.24c.11-.11.16-.21.16-.32s.05-.21.16-.32h-.48ZM580.55,96.8c0-.11.08-.11.24,0,.16.11.21.05.16-.16.11.16.08.28-.08.36-.16.08-.29.17-.4.28,0-.11.07-.19.2-.24.13-.05.09-.13-.12-.24ZM581.43,94.33c.11-.05.13.01.08.2-.05.19,0,.2.16.04-.05.11-.11.2-.16.28-.05.08-.13.17-.24.28.16.05.16.15,0,.28-.16.13-.08.2.24.2,0,.11-.09.17-.28.2-.19.03-.31.09-.36.2-.16-.11-.17-.2-.04-.28.13-.08.15-.15.04-.2.11-.05.17-.11.2-.16.03-.05.09-.13.2-.24-.11-.11-.19-.15-.24-.12-.05.03-.13.01-.24-.04.11-.11.24-.19.4-.24.16-.05.24-.19.24-.4ZM581.11,82.94h.08v-.08c.11-.21.16-.37.16-.48v-.08l.08-.08c0-.05.03-.11.08-.16-.05,0-.11-.03-.16-.08h-.08c0,.11-.03.19-.08.24-.05.16-.12.29-.2.4-.08.11-.09.21-.04.32h.16ZM581.27,81.98c0,.11-.03.19-.08.24-.05.16-.12.29-.2.4-.08.11-.09.21-.04.32h.24v-.08c.11-.21.16-.37.16-.48v-.08l.08-.08c0-.05.03-.11.08-.16-.05,0-.11-.03-.16-.08h-.08ZM581.82,81.03c-.16.16-.21.24-.16.24-.05.05-.11.08-.16.08l-.16.16v.24h.08c.05,0,.13-.05.24-.16,0-.05.01-.08.04-.08s.04-.03.04-.08c.05,0,.08-.03.08-.08.16-.16.16-.24,0-.24v-.08ZM581.43,81.74c.05,0,.13-.05.24-.16,0-.05.01-.08.04-.08s.04-.03.04-.08c.05,0,.08-.03.08-.08.16-.16.16-.24,0-.24v-.08c-.16.16-.21.24-.16.24-.05.05-.11.08-.16.08l-.16.16v.24h.08ZM582.3,93.13c.16.21.08.32-.24.32,0-.21.08-.32.24-.32ZM582.38,79.51l.08-.08.08-.08v-.08h-.16v.08c-.11,0-.16.03-.16.08v.08h.16ZM582.38,79.51l.08-.08.08-.08v-.08h-.16v.08c-.11,0-.16.03-.16.08v.08h.16ZM582.46,79.2c.11,0,.19-.03.24-.08.05-.05.08-.11.08-.16v-.24l-.08-.08c0,.05-.03.11-.08.16l-.08.08c0,.05-.01.09-.04.12s-.04.07-.04.12v.08ZM582.46,79.2c.11,0,.19-.03.24-.08.05-.05.08-.11.08-.16v-.24l-.08-.08c0,.05-.03.11-.08.16l-.08.08c0,.05-.01.09-.04.12s-.04.07-.04.12v.08ZM583.1,87.64v.08c-.05.11-.09.2-.12.28-.03.08-.09.17-.2.28v.08h-.08l.56-.16c.11-.11.16-.19.16-.24l.08-.08v-.48l-.4.24ZM582.78,88.35l.48-.16c.11-.11.16-.19.16-.24l.08-.08v-.48l-.4.24v.08c-.05.11-.09.2-.12.28-.03.08-.09.17-.2.28v.08ZM583.74,76.89v-.08c0-.05.01-.09.04-.12.03-.03.04-.07.04-.12v-.08l.08-.16v-.08c-.21.05-.32.19-.32.4v.24c0,.05.03.08.08.08h.08v-.08ZM583.74,76.89v-.08c0-.05.01-.09.04-.12.03-.03.04-.07.04-.12v-.08l.08-.16v-.08c-.21.05-.32.19-.32.4v.24c0,.05.03.08.08.08h.08v-.08ZM583.97,88.51c.05.11.05.29,0,.56-.05.27-.16.35-.32.24.05-.11.09-.24.12-.4.03-.16.09-.29.2-.4ZM585.17,84.13h-.24l-.16.24-.16.16v.08h.32l.08-.08.24-.32v-.08h-.08ZM585.17,84.13h-.24l-.16.24-.16.16v.08h.32l.08-.08.24-.32v-.08h-.08ZM585.49,83.66c-.05.05-.11.08-.16.08l-.08.08h.24l.16-.08v-.16h-.16v.08ZM585.49,83.81l.16-.08v-.16h-.16v.08c-.05.05-.11.08-.16.08l-.08.08h.24ZM587.56,78.48h.16l.08-.08v-.08h-.16c-.05,0-.08.03-.08.08v.08ZM587.64,78.32c-.05,0-.08.03-.08.08v.08h.16l.08-.08v-.08h-.16ZM587.88,105.56h-.24l.08-.16h.08c.05.05.08.11.08.16ZM589.15,76.49c0,.05-.03.08-.08.08.05,0,.08-.03.08-.08ZM591.54,104.36c-.11.05-.29.08-.56.08.11-.11.29-.13.56-.08ZM592.97,103.33h-.08c-.05,0-.08.03-.08.08v.08h.08c.05,0,.09.01.12.04.03.03.07.04.12.04h.08v-.24h-.24ZM592.97,103.33h-.08c-.05,0-.08.03-.08.08v.08h.08c.05,0,.09.01.12.04.03.03.07.04.12.04h.08v-.24h-.24ZM593.77,103.33h.32l.16-.16h.64c.05,0,.08.01.08.04,0,.03.03.04.08.04l.32-.24c.16,0,.29-.03.4-.08l.08-.08h-1.12c-.05,0-.11.03-.16.08,0,.05-.01.08-.04.08s-.04.03-.04.08l-.16.08h-.08c-.11-.05-.16-.13-.16-.24l-.16.16c-.05.05-.11.08-.16.08h-.08v.16h.08ZM593.77,103.33h.32l.16-.16h.64c.05,0,.08.01.08.04,0,.03.03.04.08.04l.32-.24c.16,0,.29-.03.4-.08l.08-.08h-1.12c-.05,0-.11.03-.16.08,0,.05-.01.08-.04.08s-.04.03-.04.08l-.16.08h-.08c-.11-.05-.16-.13-.16-.24l-.16.16c-.05.05-.11.08-.16.08h-.08v.16h.08ZM601.97,101.34c-.11,0-.21.05-.32.16h-.08c-.11,0-.16.03-.16.08l.08-.08v-.08l.08-.08-.16.16h-.36c-.13,0-.25.03-.36.08-.16,0-.27.03-.32.08h-.64l-.4.16c-.05,0-.19.05-.4.16h-.08c-.11.05-.2.11-.28.16-.08.05-.17.08-.28.08-.05,0-.11.01-.16.04-.05.03-.11.04-.16.04h-.64c-.16,0-.27.03-.32.08h-.08c-.16,0-.29.05-.4.16l-.32.16h.08-.08l.32-.08.96-.16h.08c.05-.05.13-.08.24-.08h.48v-.08h.48c.27-.11.52-.2.76-.28.24-.08.46-.17.68-.28h.24c.27,0,.48-.03.64-.08h.08c.11,0,.16-.03.16-.08v.16c.37,0,.74-.04,1.12-.12.37-.08.66-.16.88-.24.21-.08.25-.12.12-.12s-.55.03-1.23.08h-.24ZM601.18,101.65c.11,0,.16-.03.16-.08h.08l.08-.08v-.08c0,.05-.03.08-.08.08h-.36c-.13,0-.25.03-.36.08-.16,0-.27.03-.32.08h-.08.08-.16v.08-.08h-.48l-.4.16c-.05,0-.19.05-.4.16h-.08c-.11.05-.2.11-.28.16-.08.05-.17.08-.28.08-.05,0-.11.01-.16.04-.05.03-.11.04-.16.04h-.64c-.16,0-.27.03-.32.08h-.08c-.16,0-.29.05-.4.16l-.24.16.24-.08.96-.16h.08c.05-.05.13-.08.24-.08h.48v-.08h.48c.27-.11.5-.2.72-.28.21-.08.45-.17.72-.28h.24c.27,0,.48-.03.64-.08h.08ZM602.21,101.34h-.24c-.11,0-.21.05-.32.16h-.08c-.11,0-.19.08-.24.24l.88-.4ZM601.89,101.18h-.16v.08h.24c.11,0,.19-.03.24-.08h-.32ZM601.89,101.18h-.16v.08h.24c.11,0,.19-.03.24-.08h-.32ZM605.48,100.62h.08l.16-.08h-.24c-.11,0-.19.03-.24.08h.24ZM605.48,100.62h.08l.16-.08h-.24c-.11,0-.19.03-.24.08h.24ZM606.04,100.46l.16.08h.08l.16-.08c0-.05-.05-.08-.16-.08,0-.05-.03-.08-.08-.08-.11,0-.19.03-.24.08-.05.05-.03.11.08.16v-.08ZM606.04,100.46l.16.08h.08l.16-.08c0-.05-.05-.08-.16-.08,0-.05-.03-.08-.08-.08-.11,0-.19.03-.24.08-.05.05-.03.11.08.16v-.08ZM613.92,100.54c0,.16-.09.23-.28.2-.19-.03-.36-.04-.52-.04.05-.11.19-.13.4-.08.21.05.34.03.4-.08ZM615.19,99.35c-.05.26.03.42.24.48.21.05.45.13.72.24-.21-.27-.53-.51-.96-.72Z"/>
        <path class="cls-4" d="M624.43,71.79c.05-.27.13-.12.24.44.11.56.16,1.33.16,2.31s-.08,2.07-.24,3.27-.48,2.27-.96,3.23c.27.05,1.04-.08,2.31-.4l1.04-.4c.48-.11.96-.25,1.43-.44.48-.19.96-.38,1.43-.6l1.67-.64,1.19-.48c.53-.21,1.05-.42,1.55-.64.5-.21.94-.45,1.31-.72l1.83-1.27.16-.08c.11-.05.21-.11.32-.16.11-.05.24-.16.4-.32.21-.16.49-.34.84-.56.34-.21.69-.41,1.04-.6.34-.19.65-.36.92-.52.27-.16.4-.27.4-.32l.32.72c.16-.16.24-.19.24-.08s-.07.28-.2.52c-.13.24-.32.53-.56.88-.24.35-.52.65-.84.92l-.96.56c-.27.21-.49.44-.68.68-.19.24-.39.44-.6.6-.11.05-.23.16-.36.32-.13.16-.23.21-.28.16-.16.11-.24.23-.24.36s-.11.17-.32.12c-.32.21-.55.44-.68.68-.13.24-.39.47-.76.68-.11.05-.21.13-.32.24s-.19.11-.24,0c-.05.05-.13.11-.24.16-.11.05-.2.11-.28.16-.08.05-.17.11-.28.16l-3.03,1.43c-.21.16-.48.31-.8.44-.32.13-.62.27-.92.4-.29.13-.65.28-1.08.44-.11.11-.24.15-.4.12-.16-.03-.43-.01-.8.04-.16.05-.37.17-.64.36-.27.19-.51.31-.72.36-.85.11-1.66.23-2.43.36-.77.13-1.29.31-1.55.52-.16.27-.28.45-.36.56-.08.11-.16.19-.24.24-.08.05-.15.13-.2.24-.05.11-.16.29-.32.56-.11-.16-.15-.2-.12-.12.03.08.04.2.04.36-.21.53-.47.96-.76,1.27-.29.32-.57.69-.84,1.12-.11,0-.25.09-.44.28-.19.19-.28.25-.28.2-.37.53-.69.8-.96.8s-.58.19-.96.56c-.11-.11-.17-.11-.2,0-.03.11-.09.11-.2,0-.05.16-.21.27-.48.32-1.49.42-3.19.56-5.1.4l.08-.08c-.16-.11-.29-.13-.4-.08-.11.05-.24.08-.4.08-.21-.16-.39-.29-.52-.4-.13-.11-.33-.19-.6-.24-.85-.48-1.43-1.19-1.75-2.15,0-.11-.09-.27-.28-.48-.19-.21-.2-.4-.04-.56-.21-.27-.36-.68-.44-1.23-.08-.56.01-1.1.28-1.63.11-1.12.34-2.18.72-3.19.42-.96.77-1.71,1.04-2.27.27-.56.52-1.08.76-1.55.24-.48.38-.72.44-.72,0,.11.04.04.12-.2.08-.24.17-.41.28-.52.37-.69.82-1.41,1.35-2.15.53-.74,1.08-1.41,1.63-1.99.56-.58,1.1-1.09,1.63-1.51.53-.42.98-.69,1.35-.8l1.43-.88c.32.11.56.13.72.08.16-.05.29-.11.4-.16.11-.05.2-.08.28-.08s.17.11.28.32h.24c0-.05.05-.03.16.08.11.11.16.08.16-.08.27,0,.42.07.48.2.05.13.13.2.24.2-.05.11-.04.12.04.04.08-.08.12-.09.12-.04.37-.16.64-.2.8-.12.16.08.32.17.48.28.11.05.11.12,0,.2-.11.08-.11.15,0,.2.27,0,.37-.08.32-.24.42.11.76.29,1,.56.24.27.57.53,1,.8-.05.05-.05.13,0,.24.05.11.19.19.4.24h.16l-.08-.24-.48-.24c0-.16.19-.11.56.16ZM617.19,84.13c-1.12-.27-1.93-.85-2.43-1.75-.51-.9-.94-1.73-1.31-2.47-.21.11-.43.28-.64.52-.21.24-.45.47-.72.68l-.08.08c-.05.05-.08.11-.08.16-.05.05-.08.11-.08.16v.16h.08c-.32.32-.56.74-.72,1.27-.11.32-.21.62-.32.92-.11.29-.16.55-.16.76-.11.43-.17.92-.2,1.47-.03.56-.03,1.09,0,1.59.03.51.11.94.24,1.31.13.37.33.58.6.64.05,0,.2-.01.44-.04.24-.03.49-.05.76-.08.27-.03.52-.07.76-.12.24-.05.41-.11.52-.16.96-.48,1.65-.88,2.07-1.19.42-.32.74-.62.96-.92.21-.29.41-.57.6-.84.19-.27.49-.56.92-.88l.32-1.04c-.27-.05-.54-.08-.84-.08s-.52-.05-.68-.16ZM612.01,81.19c-.05.05-.08.11-.08.16v.08c0,.05-.03.08-.08.08,0,.05.03.11.08.16v-.08c0-.16.03-.29.08-.4ZM620.69,72.19c-.21.11-.49.32-.84.64-.35.32-.7.68-1.08,1.08-.37.4-.73.8-1.08,1.19-.35.4-.62.76-.84,1.08.05,0,.08.01.08.04s.03.04.08.04c-.05.11-.15.16-.28.16s-.25.05-.36.16c-.11.16-.15.27-.12.32.03.05.05.08.08.08s.05.01.08.04c.03.03.01.15-.04.36.05.27.16.64.32,1.11.16.48.38.96.68,1.43.29.48.64.89,1.04,1.23.4.35.86.47,1.39.36.16-.48.36-1.21.6-2.19.24-.98.44-1.98.6-2.99.16-1.01.23-1.92.2-2.75-.03-.82-.2-1.29-.52-1.39Z"/>
        <path class="cls-4" d="M659.88,80.95c0,.11-.04.19-.12.24-.08.05-.07.08.04.08-.27.37-.68.86-1.23,1.47-.56.61-.92,1.08-1.08,1.39-.11,0-.32.05-.64.16.11-.16.28-.32.52-.48.24-.16.44-.29.6-.4,0-.11.05-.28.16-.52.11-.24.21-.46.32-.68-.11.05-.24.24-.4.56-.16.32-.29.53-.4.64-.32.32-.64.55-.96.68-.32.13-.61.41-.88.84-.53.21-.97.61-1.31,1.19-.35.58-.81.93-1.39,1.04-.05.16-.11.25-.16.28-.05.03-.13.09-.24.2-.05-.11-.07-.2-.04-.28.03-.08.01-.12-.04-.12l-.72.64c-.27.11-.49.25-.68.44s-.41.28-.68.28l.08-.08c-.21.11-.35.2-.4.28-.05.08-.09.15-.12.2-.03.05-.07.12-.12.2-.05.08-.19.15-.4.2-.11,0-.16-.03-.16-.08-.21.05-.41.17-.6.36-.19.19-.41.28-.68.28,0-.11.05-.16.16-.16-.32-.05-.53.03-.64.24h-.16l-2.07,1.11c-.43.16-.9.32-1.43.48-.53.16-1.01.27-1.43.32-.8.37-1.65.46-2.55.28-.9-.19-1.81-.49-2.71-.92-.64-.37-1.19-.66-1.67-.88-.48-.21-.85-.47-1.12-.76-.27-.29-.45-.64-.56-1.04-.11-.4-.16-.97-.16-1.71,0-.11.03-.17.08-.2.05-.03.08-.09.08-.2-.05-.9.05-1.96.32-3.19.27-1.22.53-2.36.8-3.42.11-.26.16-.5.16-.72s.08-.42.24-.64c.26-1.11.61-2.27,1.04-3.46.42-1.19.88-2.35,1.35-3.46.11-.27.16-.41.16-.44s-.03-.04-.08-.04l.32-.56c.42-.85.94-1.88,1.55-3.11.61-1.22,1.05-2.31,1.31-3.27-.21.16-.29.2-.24.12.05-.08-.05-.12-.32-.12-.37.11-.73.23-1.08.36-.35.13-.7.2-1.08.2-.43.11-.8.21-1.12.32-.32.11-.66.19-1.04.24-.64.11-1.04.16-1.19.16h-.28s-.11.03-.24.08c-.13.05-.52.16-1.15.32-.32-.11-.7-.05-1.15.16-.45.21-.89.29-1.31.24-.11-.05-.17-.09-.2-.12-.03-.03-.09-.04-.2-.04-.42.16-.76.17-1,.04-.24-.13-.44-.33-.6-.6.11-.32.05-.61-.16-.88-.21-.27-.32-.53-.32-.8l.32.24c1.12-.21,2.07-.46,2.87-.76.8-.29,1.67-.6,2.63-.92s2.1-.64,3.42-.96c1.33-.32,3.08-.61,5.26-.88,1.06-2.18,2.15-4.17,3.27-5.97,1.11-1.8,2.28-3.66,3.5-5.58v-.4c.11-.11.23-.12.36-.04.13.08.25.07.36-.04-.05.16-.01.25.12.28.13.03.2.09.2.2.27.05.58.16.96.32.37.16.72.37,1.04.64.32.27.56.54.72.84.16.29.16.6,0,.92l-.72.56c-.05.11-.08.21-.08.32-.16.48-.41.92-.76,1.31-.35.4-.62.81-.84,1.23-.27.43-.47.8-.6,1.11-.13.32-.33.72-.6,1.19-.27.53-.56.92-.88,1.15-.32.24-.53.65-.64,1.23.9-.11,1.75-.19,2.55-.24.8-.05,1.65-.08,2.55-.08.85-.21,1.59-.32,2.23-.32h1.99c.05,0,.19-.03.4-.08.48.11.94.08,1.39-.08.45-.16.94-.16,1.47,0,.16,0,.33.03.52.08.19.05.38.05.6,0-.05.05-.03.05.08,0,.11-.05.21-.08.32-.08l-.08.08c.32.11.56.11.72,0-.16-.11-.25-.17-.28-.2-.03-.03.17.04.6.2.42,0,.96.04,1.59.12s1.17.36,1.59.84c.05.05.07.15.04.28-.03.13-.01.25.04.36-.05.05-.11.08-.16.08s-.08.05-.08.16c.05.05.09.09.12.12.03.03.12.07.28.12-.11.11-.27.16-.48.16.05.21.21.4.48.56-.11.11-.23.16-.36.16s-.23.05-.28.16c-.11,0-.21-.03-.32-.08-.37.05-.7.05-1,0-.29-.05-.65.03-1.08.24-.27-.16-.43-.21-.48-.16-.05.05-.16.05-.32,0,0-.11.03-.15.08-.12.05.03.08-.01.08-.12-.21,0-.35.04-.4.12-.05.08-.09.15-.12.2-.03.05-.07.07-.12.04-.05-.03-.16-.12-.32-.28l-.32.16-.08.08h-.08c-.11,0-.15-.01-.12-.04.03-.03.01-.07-.04-.12-.16.11-.24.19-.24.24-.11-.21-.31-.25-.6-.12-.29.13-.36.07-.2-.2-.11,0-.17.09-.2.28-.03.19-.17.2-.44.04.11-.21.17-.3.2-.28.03.03.04-.01.04-.12-.05,0-.13.03-.24.08-.11.05-.19.16-.24.32v-.24c-.21,0-.32.11-.32.32v-.24c-.16-.11-.27-.13-.32-.08-.05.05-.16.08-.32.08-.11-.11-.11-.15,0-.12.11.03.21-.01.32-.12h-.4c-.16,0-.27.05-.32.16-.32-.21-.58-.21-.8,0,.05.11.15.11.28,0,.13-.11.23-.11.28,0-.05.05-.16.11-.32.16-.16.05-.31.09-.44.12-.13.03-.23.03-.28,0-.05-.03-.03-.09.08-.2h-.32v-.08c-.05,0-.08.03-.08.08v-.08c-.05,0-.09-.03-.12-.08-.03-.05-.07-.03-.12.08.05,0,.08.01.08.04,0,.03.03.04.08.04-.21.11-.32.2-.32.28s-.05.04-.16-.12c0-.21-.16-.3-.48-.28-.32.03-.61.09-.88.2v-.16c-.16.11-.36.21-.6.32-.24.11-.47.05-.68-.16.11-.05.19-.08.24-.08s.11-.03.16-.08c0-.11-.03-.16-.08-.16s-.08-.03-.08-.08c-.11,0-.19.03-.24.08s-.13.11-.24.16c-.05,0-.08-.05-.08-.16,0-.05.03-.08.08-.08-.27,0-.37-.03-.32-.08-.11,0-.16.11-.16.32s-.05.37-.16.48c-.27,0-.49.01-.68.04-.19.03-.47.04-.84.04,0-.11.04-.15.12-.12.08.03.12-.01.12-.12-.05,0-.08-.01-.08-.04s-.03-.04-.08-.04h-.08c-.11,0-.21.01-.32.04-.11.03-.21.04-.32.04-.11.27-.25.36-.44.28-.19-.08-.33-.07-.44.04v-.08c-.16,0-.27.05-.32.16.16.05.27.03.32-.08.05.11.09.13.12.08.03-.05.04-.03.04.08s-.04.16-.12.16-.17.05-.28.16c-.16,0-.29-.04-.4-.12-.11-.08-.24-.07-.4.04-.27,0-.57.03-.92.08-.35.05-.65.11-.92.16-.21.11-.35.23-.4.36-.05.13-.13.31-.24.52-.37.96-.9,2.1-1.59,3.42-.69,1.33-1.25,2.58-1.67,3.74-.16.48-.28.82-.36,1.04-.08.21-.16.39-.24.52-.08.13-.16.31-.24.52-.08.21-.2.58-.36,1.11-.58.96-1.04,2.14-1.35,3.54-.32,1.41-.61,2.83-.88,4.26-.11.48-.24.96-.4,1.43-.16.48-.27.98-.32,1.51-.05.8-.2,1.53-.44,2.19-.24.66-.15,1.37.28,2.11.11.05.13.07.08.04-.05-.03.03-.04.24-.04.42,0,.96-.07,1.59-.2.64-.13,1.19-.3,1.67-.52.58-.16,1.18-.36,1.79-.6.61-.24,1.18-.44,1.71-.6.11-.11.17-.15.2-.12.03.03.04-.01.04-.12.16-.05.32-.09.48-.12.16-.03.27-.15.32-.36.32-.11.57-.2.76-.28.19-.08.34-.17.48-.28.13-.11.28-.2.44-.28.16-.08.4-.17.72-.28v-.32c.21.16.53,0,.96-.48.05,0,.11.03.16.08.48-.32,1.02-.66,1.63-1.04.61-.37,1.18-.74,1.71-1.12.27-.05.69-.32,1.27-.8.58-.48,1.18-1.01,1.79-1.59.61-.58,1.15-1.13,1.63-1.63.48-.5.77-.81.88-.92.05.05.11.08.16.08.05-.32.09-.5.12-.56.03-.05.05-.08.08-.08.03,0,.05-.01.08-.04.03-.03.12-.15.28-.36,0-.16.03-.24.08-.24.16-.11.27-.19.32-.24.05-.05.13-.16.24-.32.32.05.53-.13.64-.56.37.11.62.23.76.36.13.13.25.15.36.04,0,.11.05.17.16.2.11.03.21.04.32.04,0,.11-.01.16-.04.16s-.04.03-.04.08c.11.05.04.13-.2.24-.24.11-.23.19.04.24,0,.11-.05.27-.16.48.05,0,.13.08.24.24-.11,0-.56.61-1.35,1.83h.08c-.05.05-.11.08-.16.08-.21.21-.32.29-.32.24l-.48.4v-.16c-.11.11-.16.2-.16.28s-.05.15-.16.2c-.05.05-.08.13-.08.24v-.08c0-.05-.03-.08-.08-.08ZM648.41,62.95c0-.05.03-.08.08-.08s.08-.03.08-.08c-.21-.11-.27-.05-.16.16ZM648.65,62.87c.11.11.19.13.24.08s.11-.08.16-.08c0-.05.03-.09.08-.12.05-.03.03-.09-.08-.2,0,.11-.05.17-.16.2-.11.03-.19.07-.24.12ZM651.03,62.71c-.11-.05-.11-.08,0-.08v.08ZM651.03,62.63l.16-.16c0,.11-.05.16-.16.16ZM654.46,85.81c.16-.16.31-.29.44-.4.13-.11.25-.27.36-.48-.16.11-.36.24-.6.4s-.31.32-.2.48ZM654.94,62.55c-.21.05-.31.07-.28.04.03-.03.09-.09.2-.2,0,.11.03.16.08.16ZM655.49,83.58c.11.05.21.03.32-.08.11-.11.13-.21.08-.32-.11.11-.17.19-.2.24-.03.05-.09.11-.2.16ZM655.57,84.45c.21.05.34.03.4-.08.05-.11.13-.21.24-.32,0-.21.03-.34.08-.4-.11,0-.16.08-.16.24l.08.16c-.11.05-.21.12-.32.2-.11.08-.21.15-.32.2ZM655.57,84.77c.05.11.15.12.28.04.13-.08.15-.17.04-.28-.05.11-.12.15-.2.12-.08-.03-.12.01-.12.12ZM656.37,85.09c.16-.27.33-.44.52-.52.19-.08.38-.2.6-.36v.08c-.21.11-.41.24-.6.4-.19.16-.36.29-.52.4ZM656.53,83.58c.05.05.08,0,.08-.16,0,.05-.03.11-.08.16ZM656.77,62.39c-.05,0-.08-.03-.08-.08h.16c.11.16.12.23.04.2-.08-.03-.12-.07-.12-.12ZM657.57,84.13l-.08.08v-.08h.08ZM658.04,83.42c-.05-.27.05-.5.32-.72.26-.21.4-.37.4-.48.11.11.04.31-.2.6-.24.29-.41.49-.52.6ZM661.39,79.27c-.05,0,0-.08.16-.24v-.08l-.16.08c-.11.16-.23.31-.36.44l-.36.36v-.24c-.21.32-.29.58-.24.8l.16-.16h-.08l.08-.32c.11,0,.19.03.24.08,0-.16.11-.29.32-.4l.24-.4v.08ZM660.75,80.07c-.11-.05-.15-.04-.12.04.03.08.01.12-.04.12l.16-.16ZM661.95,61.2c-.11.11-.23.12-.36.04-.13-.08-.25-.07-.36.04.11.05.26.09.48.12.21.03.29-.04.24-.2ZM661.39,79.43c0,.05-.03.08-.08.08.05,0,.08-.03.08-.08ZM661.39,79.43c.11-.11.16-.19.16-.24l-.16.16v.08Z"/>
        <path class="cls-4" d="M694.2,76.57c-.16.16-.24.32-.24.48.11-.11.19-.12.24-.04.05.08.11-.01.16-.28.11-.05.16-.11.16-.16s.05-.08.16-.08c.05.32-.07.62-.36.92s-.39.57-.28.84c-.11.11-.2.21-.28.32-.08.11-.17.29-.28.56-.11.11-.08.13.08.08.16-.05.24-.05.24,0-.37.27-.55.48-.52.64.03.16-.17.37-.6.64-.05.05-.05.11,0,.16v.08h-.08c-.11.11-.31.16-.6.16s-.49.19-.6.56c-.11-.05-.2-.05-.28,0-.08.05-.17.11-.28.16-.21.69-.53,1.14-.96,1.35v-.08l-.32.32c-.05.05-.09.08-.12.08s-.07.04-.12.12c-.05.08-.13.23-.24.44l-.08-.24c-.11.11-.19.27-.24.48-.05.21-.13.29-.24.24-.05.05-.03.16.08.32-.05.11-.23.27-.52.48-.29.21-.47.35-.52.4,0,.21-.04.32-.12.32s-.15.05-.2.16c-.11.05-.15.07-.12.04.03-.03-.01-.04-.12-.04-.16.27-.27.43-.32.48-.05.05-.11.08-.16.08s-.13-.01-.24-.04c-.11-.03-.24.04-.4.2-.11.05-.17.08-.2.08-.03,0-.09.05-.2.16-.11.27-.23.44-.36.52-.13.08-.28.25-.44.52,0-.11-.05-.11-.16,0-.27.16-.6.37-1,.64-.4.27-.84.53-1.31.8-.48.27-.97.5-1.47.72-.51.21-.94.34-1.31.4-.58.11-1.16.15-1.71.12-.56-.03-1.18-.23-1.87-.6-.05-.05-.13-.09-.24-.12-.11-.03-.16-.09-.16-.2l-.16-.32-.16-.08c-.43-.27-.73-.61-.92-1.04-.19-.42-.33-.85-.44-1.27-.11-.27-.19-.37-.24-.32.11-.27.11-.45,0-.56-.05-.27-.07-.7-.04-1.31.03-.61.08-1.25.16-1.91.08-.66.15-1.29.2-1.87.05-.58.11-1.04.16-1.35-.11,0-.19.05-.24.16-.05.11-.08.21-.08.32-.27.32-.48.6-.64.84-.16.24-.35.55-.56.92-.27.11-.47.32-.6.64-.13.32-.41.61-.84.88-.11.21-.25.4-.44.56-.19.16-.36.29-.52.4-.27.58-.72,1.06-1.35,1.43-.74.85-1.58,1.62-2.51,2.31-.93.69-1.82,1.33-2.67,1.91-.64.37-1.27.53-1.91.48-.64-.05-1.3-.19-1.99-.4-.21-.16-.52-.25-.92-.28-.4-.03-.68-.09-.84-.2-.27-.16-.46-.45-.6-.88-.13-.42-.25-.72-.36-.88-.05-1.06.08-2.28.4-3.66.32-1.38.72-2.76,1.19-4.14.48-1.38.98-2.72,1.51-4.02.53-1.3.96-2.43,1.27-3.38l.8-2.31c.05-.21.07-.36.04-.44-.03-.08-.01-.15.04-.2.37-.05.84-.11,1.39-.16.56-.05,1,.05,1.31.32.37-.11.68-.01.92.28.24.29.41.52.52.68,0,.37.05.56.16.56-.21.37-.28.69-.2.96.08.27.07.53-.04.8l-.48.96c0-.05-.11.03-.32.24-.05.16-.15.45-.28.88-.13.43-.28.86-.44,1.31-.16.45-.31.88-.44,1.27-.13.4-.25.68-.36.84-.43.69-.78,1.38-1.08,2.07-.29.69-.54,1.25-.76,1.67-.27.9-.48,1.77-.64,2.59-.16.82-.29,1.71-.4,2.67,2.39-1.7,4.84-3.82,7.37-6.37,2.52-2.55,4.98-5.5,7.37-8.84.11-.27.23-.46.36-.6.13-.13.2-.36.2-.68.37-.11.58-.21.64-.32.74,0,1.25.01,1.51.04.27.03.64.2,1.12.52.05.53.08,1.13.08,1.79s-.05,1.33-.16,1.99c-.11.66-.25,1.27-.44,1.83-.19.56-.39.97-.6,1.23-.16.58-.35,1.3-.56,2.15-.21.85-.41,1.73-.6,2.63-.19.9-.29,1.77-.32,2.59-.03.82.09,1.47.36,1.95,1.01-.11,2.08-.58,3.23-1.43,1.14-.85,2.14-1.49,2.99-1.91l.08-.24c.21-.11.36-.16.44-.16h.16s.05-.01.08-.04c.03-.03.12-.15.28-.36,1.49-.8,2.84-1.78,4.06-2.95.32-.27.42-.38.32-.36-.11.03.03.01.4-.04.26-.37.53-.66.8-.88.27-.21.54-.42.84-.64.29-.21.62-.46,1-.76.37-.29.77-.7,1.19-1.23h.88ZM693.88,77.12l.08-.08c-.05-.05-.09-.12-.12-.2-.03-.08-.01.01.04.28Z"/>
      </g>
      <g>
        <path class="cls-3" d="M337.39,126.82h10.4c.22,0,.42.03.6.08.59.2.89.61.89,1.25,0,.18-.04.34-.11.49-.22.47-.65.75-1.3.85h-9.33l-1.18,8.83h6.72c.26,0,.5.05.73.15.53.24.79.64.79,1.22,0,.15-.03.3-.08.44-.19.48-.64.77-1.33.88h-7.15l-1.07,8.26h9.22c.25,0,.48.04.7.11.56.23.84.64.84,1.23,0,.13-.02.26-.06.4-.17.51-.62.82-1.33.92h-10.78c-.27,0-.51-.07-.73-.21-.42-.29-.64-.74-.64-1.36,0-.15.96-7.59,2.89-22.32.02-.16.07-.31.13-.45.23-.52.62-.78,1.18-.78Z"/>
        <path class="cls-3" d="M370.83,128.14c0,.22-.06.43-.19.62-.27.39-.68.59-1.22.59h-7.41c-1.73,13.67-2.64,20.75-2.74,21.26-.01.06-.02.13-.03.19-.17.75-.62,1.13-1.33,1.13-.26,0-.49-.07-.69-.21-.42-.28-.62-.73-.62-1.36,0-.13.65-5.06,1.96-14.78.44-3.3.72-5.38.83-6.24h-6.92c-.25,0-.49-.04-.71-.11-.57-.19-.86-.54-.86-1.05,0-.25.06-.49.19-.72.26-.42.66-.64,1.22-.64h17.13c.15,0,.31.03.49.1.59.22.89.62.89,1.21Z"/>
        <path class="cls-3" d="M397.34,131.6c-.01,2.57-1,4.75-2.97,6.55-1.86,1.69-4.34,2.86-7.45,3.52l-1.18,8.94c-.01.06-.02.13-.03.19-.16.76-.59,1.13-1.28,1.13-.26,0-.49-.06-.68-.19-.43-.28-.65-.74-.65-1.38,0-.08.98-7.51,2.95-22.31.02-.18.08-.36.16-.53.27-.51.69-.76,1.26-.76.99-.18,2.06-.28,3.19-.28s2.23.15,3.16.44c2.34.75,3.52,2.31,3.52,4.68ZM394.91,131.75v-.18c-.1-1.77-1.49-2.66-4.18-2.66-.73,0-1.48.05-2.24.16-.06.62-.47,3.84-1.22,9.67,1.51-.23,2.94-.75,4.28-1.57,2.24-1.37,3.35-3.18,3.35-5.43Z"/>
        <path class="cls-3" d="M410.97,151.94h-10.89c-.25,0-.48-.07-.7-.21-.31-.23-.52-.68-.62-1.36v-.02c0-.44,1-7.87,3.01-22.29.01-.17.03-.32.07-.48.23-.53.62-.79,1.17-.79.22,0,.42.05.6.15.45.24.68.62.68,1.15-.1.98-.34,3.02-.74,6.11-1.25,9.52-1.89,14.54-1.95,15.07h9.25c.25,0,.48.04.7.13.55.23.83.63.83,1.22,0,.14-.02.28-.06.42-.18.5-.63.8-1.35.91Z"/>
        <path class="cls-3" d="M428.6,150.65h0c-.13.85-.57,1.28-1.32,1.28-.25,0-.47-.06-.66-.19-.43-.28-.64-.74-.64-1.38,0-.13.05-.6.15-1.41-.43.67-.98,1.25-1.66,1.73-1.18.83-2.47,1.25-3.88,1.25-.24,0-.48-.02-.73-.05-1.67-.24-3.05-1.23-4.14-2.97-1.21-1.93-1.82-4.35-1.82-7.26s.52-7.09,1.56-12.88c.05-.31.09-.51.1-.58.03-.15.08-.3.13-.45.24-.55.62-.83,1.13-.83.21,0,.4.05.6.16.43.24.66.61.7,1.12-.04.25-.09.54-.15.89-.88,5.48-1.31,9.35-1.31,11.62,0,2.42.32,4.38.97,5.91.75,1.77,1.82,2.65,3.23,2.65.13,0,.26-.01.41-.03,1.06-.2,2.15-1.07,3.28-2.6,1.28-1.73,2.18-3.74,2.71-6.02l1.67-12.41c.01-.21.07-.4.17-.58.23-.47.61-.7,1.12-.7.2,0,.39.05.57.16.43.24.66.61.7,1.12-.13.98-.28,2.12-.44,3.4-1.6,12.55-2.41,18.9-2.45,19.05Z"/>
        <path class="cls-3" d="M433.15,147.43c-.05-.16-.08-.35-.08-.58,0-.19.04-.38.11-.55.19-.42.51-.63.96-.63.41.01.8.25,1.18.71.12.15.23.29.34.42,1.51,1.86,2.96,2.79,4.35,2.79s2.54-.49,3.52-1.48c.95-.97,1.43-2.13,1.43-3.47-.01-1.16-.32-2.14-.91-2.95-.48-.66-1.33-1.34-2.55-2.04-1.28-.75-2.05-1.21-2.29-1.38-.55-.39-1.02-.79-1.41-1.2-.97-1.04-1.46-2.31-1.46-3.84,0-.19.01-.4.03-.62.15-1.64.83-3.02,2.03-4.15,1.23-1.13,2.68-1.7,4.35-1.7.71,0,1.41.11,2.09.34,1.42.48,2.51,1.32,3.27,2.52.13.32.19.56.19.71,0,.19-.05.39-.16.58-.24.4-.58.6-1.02.6-.39,0-.66-.1-.83-.31-1.11-1.33-2.3-2-3.57-2.01-1,0-1.89.36-2.66,1.09-.86.81-1.29,1.8-1.29,2.97,0,.72.22,1.37.67,1.95.4.52,1.19,1.13,2.37,1.83,1.28.76,2.24,1.39,2.87,1.89,2.02,1.62,3.03,3.51,3.03,5.69,0,.48-.05.97-.15,1.45-.36,1.71-1.25,3.14-2.69,4.28-1.45,1.16-3.08,1.75-4.87,1.75-1.16,0-2.28-.3-3.36-.9-1.49-.85-2.66-2.11-3.5-3.78Z"/>
        <path class="cls-3" d="M468.28,126.82h10.4c.22,0,.42.03.6.08.59.2.89.61.89,1.25,0,.18-.04.34-.11.49-.22.47-.65.75-1.3.85h-9.33l-1.18,8.83h6.72c.26,0,.5.05.73.15.53.24.79.64.79,1.22,0,.15-.03.3-.08.44-.19.48-.64.77-1.33.88h-7.15l-1.07,8.26h9.22c.25,0,.48.04.7.11.56.23.84.64.84,1.23,0,.13-.02.26-.06.4-.17.51-.62.82-1.33.92h-10.78c-.27,0-.51-.07-.73-.21-.42-.29-.64-.74-.64-1.36,0-.15.96-7.59,2.89-22.32.02-.16.07-.31.13-.45.23-.52.62-.78,1.18-.78Z"/>
        <path class="cls-3" d="M497.52,150.66c-.12.84-.54,1.26-1.28,1.27-.55-.01-1.01-.33-1.38-.96l-8.2-18.73c-.1.89-.23,1.88-.38,2.98-1.08,8.99-1.72,14.11-1.94,15.38-.15.87-.6,1.32-1.33,1.33-.25,0-.48-.07-.7-.21-.42-.28-.63-.73-.63-1.36,1.96-14.83,2.94-22.27,2.95-22.31.03-.18.09-.36.18-.52.27-.44.67-.66,1.2-.66.7,0,1.16.21,1.36.63l8.16,18.33,2.38-17.71c.01-.19.06-.38.15-.57.22-.48.58-.71,1.08-.71.22,0,.44.06.64.18.41.26.61.63.61,1.11-.04.37-.09.76-.15,1.18-1.58,12.8-2.49,19.92-2.74,21.36Z"/>
        <path class="cls-3" d="M516.6,132.55c-.24-.58-.53-1.11-.88-1.59-.84-1.11-1.77-1.67-2.79-1.67-.66,0-1.32.24-1.99.73-1.27.91-2.37,2.48-3.29,4.73-.96,2.31-1.44,4.58-1.44,6.8s.35,3.92,1.04,5.34c.77,1.58,1.81,2.36,3.14,2.36.62,0,1.3-.28,2.06-.84,1.19-.9,2.21-2.2,3.06-3.9.02-.06.05-.13.1-.19.25-.42.61-.63,1.09-.63.23,0,.44.05.65.16.43.25.65.63.65,1.14,0,.18-.05.4-.16.63-.69,1.47-1.52,2.73-2.5,3.76-1.62,1.7-3.36,2.55-5.22,2.55-.24,0-.48-.02-.71-.05-1.66-.24-3.04-1.23-4.13-2.96-1.21-1.93-1.81-4.35-1.81-7.26,0-1.73.25-3.48.75-5.25.78-2.79,1.98-5.1,3.6-6.94,1.7-1.9,3.49-2.85,5.38-2.85.81,0,1.58.18,2.32.53,1.56.78,2.72,2.23,3.5,4.38.09.21.13.4.13.6,0,.23-.06.44-.18.65-.26.43-.63.65-1.12.65-.5-.03-.91-.32-1.23-.87Z"/>
        <path class="cls-3" d="M521.57,141.66c0-1.76.25-3.54.76-5.33.79-2.78,2-5.07,3.63-6.89,1.69-1.88,3.46-2.82,5.33-2.82,1.75.01,3.24.82,4.46,2.42,1.3,1.71,2.03,3.97,2.2,6.79.36-.13.88-.37,1.57-.7.88-.43,1.54-.65,1.99-.65.21,0,.4.05.58.16.4.24.6.58.6,1.03-.01.41-.2.8-.57,1.18-.8.78-2.21,1.36-4.23,1.74-.1,1.19-.3,2.36-.62,3.51-.76,2.86-1.97,5.21-3.63,7.04-1.69,1.86-3.49,2.79-5.43,2.79-.24,0-.48-.02-.71-.05-1.66-.24-3.04-1.23-4.13-2.96-1.21-1.93-1.81-4.35-1.81-7.26ZM524.33,141.2c0,1.97.28,3.68.84,5.13.76,1.95,1.87,2.93,3.34,2.93.37,0,.75-.09,1.15-.27,1.18-.54,2.29-1.73,3.32-3.57,1.18-2.06,1.91-4.25,2.2-6.59-1.61-.02-3.07-.47-4.39-1.35-1.75-1.17-3-2.91-3.74-5.21-1.77,2.65-2.68,5.62-2.72,8.92ZM531.8,129.58c-.28,0-.53.06-.76.18-.59.34-.89,1.02-.89,2.03,0,.18.02.37.05.57.19,1.2.94,2.2,2.24,3.01.99.61,1.94.93,2.84.95-.06-.94-.19-1.83-.39-2.65-.59-2.63-1.62-3.99-3.08-4.09Z"/>
        <path class="cls-3" d="M545.78,150.61c-.15.88-.59,1.32-1.33,1.33-.25,0-.47-.06-.66-.19-.43-.28-.65-.74-.65-1.38.49-4.06,1.46-11.5,2.93-22.31.03-.22.15-.42.34-.6.37-.33.82-.5,1.34-.5.96-.18,2.02-.28,3.18-.28.82,0,1.58.06,2.27.18,3.04.55,4.55,2.23,4.55,5.02,0,1.09-.18,2.11-.54,3.06-1.09,2.93-3.78,5.06-8.05,6.4l8.94,8.17c.36.38.54.77.55,1.17,0,.22-.06.43-.18.65-.26.41-.61.62-1.05.62-.35,0-.7-.12-1.05-.36-.25-.17-3.44-3.08-9.58-8.73-.54,4.3-.88,6.89-1.02,7.76ZM548.59,129.32l-1.25,9.71c1.53-.23,2.98-.73,4.34-1.51,2.37-1.38,3.55-3.24,3.55-5.57-.01-1.87-1.43-2.81-4.25-2.84-.22,0-1.02.07-2.4.21Z"/>
        <path class="cls-3" d="M565.96,126.82h10.4c.22,0,.42.03.6.08.59.2.89.61.89,1.25,0,.18-.04.34-.11.49-.22.47-.65.75-1.3.85h-9.33l-1.18,8.83h6.72c.26,0,.5.05.73.15.53.24.79.64.79,1.22,0,.15-.03.3-.08.44-.19.48-.64.77-1.33.88h-7.15l-1.07,8.26h9.22c.25,0,.48.04.7.11.56.23.84.64.84,1.23,0,.13-.02.26-.06.4-.17.51-.62.82-1.33.92h-10.78c-.27,0-.51-.07-.73-.21-.42-.29-.64-.74-.64-1.36,0-.15.96-7.59,2.89-22.32.02-.16.07-.31.13-.45.23-.52.62-.78,1.18-.78Z"/>
        <path class="cls-3" d="M596.45,150.48c0-.28.07-.54.2-.78.27-.48.66-.71,1.17-.71.26,0,.5.08.73.23.44.28.67.7.67,1.26,0,.27-.07.52-.21.76-.27.46-.67.7-1.18.7-.25,0-.49-.08-.73-.23-.42-.29-.64-.7-.64-1.23ZM597.33,144.64l2.16-16.11c.06-.45.22-.81.45-1.07.23-.24.5-.36.83-.36s.59.08.77.24c.25.22.37.53.37.96,0,.1,0,.19-.02.29l-1.91,15.98c-.05.41-.16.76-.32,1.05-.31.53-.71.79-1.18.79-.12,0-.23-.02-.34-.06-.54-.21-.81-.78-.81-1.72Z"/>
      </g>
      <g class="cls-2">
        <path class="cls-4" d="M465.65,213.3c.08-.12.13-.23.16-.33s.05-.2.06-.29c0-.09,0-.18-.01-.26-.02-.08-.03-.16-.04-.25-.06-.33-.17-.64-.31-.93-.14-.3-.27-.6-.44-.88s-.35-.56-.53-.84c-.27-.42-.53-.84-.64-1.32l.11-.05s.07-.1.03-.18c-.03-.08-.1-.12-.15-.1l.07-.03c.06-.02.08-.11.04-.18-.03-.08-.1-.12-.16-.1h-.02c-.02-.12-.06-.23-.1-.35l-.04-.13c2.15-1.08,3.8-2.79,4.82-4.82l.13.04c.12.04.23.07.35.09v.02c-.03.06.01.13.09.16.08.03.16.01.18-.04l.03-.07c-.02.05.02.12.1.15.08.03.16.02.18-.03l.05-.11c.48.11.9.38,1.33.64.28.18.55.37.84.53.29.16.58.3.88.44.3.13.61.25.93.31.08.02.16.03.25.04.08.02.17.02.26.02.09,0,.19-.02.29-.06.1-.03.21-.08.33-.16.13-.09.2-.25.17-.41-.03-.14-.07-.25-.12-.35-.05-.1-.1-.17-.16-.24-.06-.07-.12-.12-.19-.17-.07-.05-.14-.1-.21-.14-.27-.19-.57-.33-.88-.44-.31-.11-.61-.23-.93-.31s-.65-.15-.97-.21c-.48-.11-.97-.22-1.39-.48l.05-.11c.02-.05-.03-.12-.1-.15-.08-.03-.16-.02-.18.04l.03-.07c.02-.06-.02-.13-.1-.16-.08-.03-.16-.01-.18.04h0c-.1-.06-.21-.12-.32-.17l-.12-.06c.71-2.15.76-4.53,0-6.82l.12-.06c.11-.05.22-.11.32-.18h0c.02.07.1.09.18.06.08-.03.12-.1.1-.16l-.03-.07c.02.05.1.06.18.03.08-.03.12-.1.1-.15l-.05-.11c.42-.27.9-.38,1.39-.48.32-.07.65-.13.97-.21.32-.09.62-.2.93-.31.31-.11.6-.25.88-.44.07-.05.14-.1.2-.14.07-.05.13-.11.19-.17.06-.07.12-.15.16-.25.05-.1.1-.2.12-.35.03-.15-.03-.32-.17-.41-.12-.08-.23-.13-.33-.16-.1-.04-.2-.05-.29-.06-.09,0-.18,0-.26.02-.08.01-.17.02-.25.04-.33.06-.63.17-.93.31-.29.14-.59.27-.88.43-.29.16-.56.35-.84.53-.42.27-.84.53-1.33.64l-.05-.11c-.02-.05-.1-.07-.18-.03-.08.03-.12.1-.1.15l-.03-.07c-.02-.06-.1-.07-.18-.04-.08.03-.12.11-.1.16h0c-.12.04-.24.07-.35.11l-.13.04c-1.08-2.15-2.79-3.8-4.82-4.82l.04-.13c.04-.11.08-.23.1-.35h.02c.06.03.13-.01.16-.09.03-.08.01-.16-.04-.18l-.07-.03c.05.02.12-.03.15-.1.03-.08.02-.16-.03-.18l-.11-.05c.11-.48.37-.9.64-1.32.18-.28.37-.55.53-.84.16-.29.3-.58.44-.88.13-.29.24-.6.31-.93.02-.08.03-.16.04-.25.01-.08.02-.17.01-.26,0-.09-.02-.19-.06-.29-.03-.1-.08-.21-.16-.33-.09-.13-.25-.2-.41-.17-.14.03-.25.07-.35.12-.1.05-.18.1-.25.16-.07.06-.12.12-.17.19-.05.07-.1.13-.15.21-.19.27-.33.57-.44.87-.11.31-.23.61-.31.93-.09.32-.15.64-.21.97-.11.48-.22.97-.48,1.39l-.11-.05c-.05-.02-.12.02-.15.1-.03.08-.02.16.03.18l-.07-.03c-.06-.02-.13.02-.16.1-.03.08-.02.16.04.18h.01c-.07.11-.13.21-.18.32l-.06.12c-2.15-.71-4.53-.76-6.81,0l-.06-.12c-.05-.11-.11-.22-.18-.32h.01c.06-.03.08-.11.04-.19-.03-.08-.1-.12-.16-.1l-.07.03c.05-.02.07-.1.04-.18-.03-.08-.1-.12-.15-.1l-.11.05c-.27-.42-.37-.9-.48-1.39-.07-.33-.13-.65-.21-.97-.08-.32-.2-.62-.31-.93-.11-.31-.25-.6-.44-.87-.05-.07-.1-.14-.15-.21-.05-.07-.1-.13-.17-.19-.07-.06-.15-.12-.24-.16-.1-.05-.21-.09-.35-.12-.15-.03-.32.03-.41.17-.08.12-.13.23-.16.33-.03.1-.05.2-.06.29,0,.09,0,.18.01.26.01.08.03.16.04.25.06.33.17.64.31.93.14.29.27.59.44.88.16.28.35.56.53.84.27.42.53.84.64,1.32l-.11.05c-.05.02-.07.1-.04.18.03.08.1.12.15.1l-.07.03c-.06.02-.08.11-.04.18.03.08.1.12.16.1h.02c.02.12.05.23.1.35l.04.13c-2.15,1.08-3.8,2.79-4.82,4.82l-.13-.04c-.12-.04-.23-.07-.36-.09v-.02c.03-.06-.01-.13-.09-.16-.08-.03-.16-.01-.18.04l-.03.07c.02-.05-.02-.12-.1-.15-.08-.03-.16-.02-.18.03l-.04.11c-.49-.11-.9-.38-1.33-.64-.28-.18-.55-.37-.84-.53-.28-.16-.58-.29-.88-.43-.3-.13-.6-.25-.93-.31-.08-.02-.16-.03-.25-.04-.08-.02-.17-.02-.26-.02-.09,0-.19.02-.29.06-.1.03-.21.08-.33.16-.13.09-.2.25-.17.41.03.14.07.25.12.35.05.1.1.17.16.25.06.07.13.12.19.17.07.05.13.1.21.14.27.19.57.33.88.44.31.11.61.23.92.31.32.09.65.15.97.21.48.11.97.22,1.39.48l-.05.11c-.02.05.03.12.11.15.08.03.15.02.18-.03l-.03.07c-.02.06.02.13.1.16.08.03.16.01.18-.04h0c.1.06.21.12.32.17l.12.06c-.71,2.15-.76,4.53,0,6.82l-.12.06c-.11.05-.22.11-.32.18v-.02c-.03-.06-.11-.08-.19-.04-.08.03-.12.1-.1.16l.03.07c-.02-.05-.1-.06-.18-.04-.08.03-.13.1-.11.15l.05.11c-.42.27-.9.38-1.39.48-.32.07-.65.13-.97.21-.32.09-.62.2-.92.31-.31.12-.6.25-.88.44-.07.05-.14.1-.21.14-.07.05-.13.1-.19.17-.06.07-.11.15-.16.24-.05.1-.09.21-.12.35-.03.15.03.32.17.41.12.08.23.13.33.16.1.04.2.05.29.06.09,0,.18,0,.26-.02.08-.01.17-.03.25-.04.33-.06.63-.17.93-.31.29-.14.59-.27.88-.44.29-.16.56-.35.84-.53.42-.27.84-.53,1.33-.64l.04.11c.02.05.1.07.18.03.08-.03.12-.1.1-.15l.03.07c.02.06.1.07.18.04.08-.03.12-.11.1-.16v-.02c.12-.02.23-.06.35-.09l.13-.04c1.08,2.15,2.79,3.8,4.82,4.82l-.04.13c-.04.12-.08.23-.1.36h-.02c-.06-.03-.13.01-.16.09-.03.08-.01.16.04.18l.07.03c-.05-.02-.12.03-.15.1-.03.08-.02.16.04.18l.11.05c-.11.48-.37.9-.64,1.32-.18.28-.37.55-.53.84-.17.28-.3.58-.44.88-.14.29-.25.6-.31.93-.02.08-.03.16-.04.25-.01.08-.02.17-.01.26,0,.09.02.19.06.29s.08.21.16.33c.09.13.25.2.41.17.14-.03.25-.07.35-.12.1-.05.17-.1.24-.16.07-.06.12-.12.17-.19.05-.07.1-.13.15-.21.19-.27.33-.57.44-.87.11-.31.23-.61.31-.93.09-.32.15-.64.21-.97.11-.48.22-.97.48-1.39l.11.05c.05.02.12-.02.15-.1.03-.08.02-.16-.04-.18l.07.03c.06.02.13-.02.16-.1.03-.08.01-.16-.04-.18h-.01c.07-.11.13-.21.18-.32l.06-.12c2.15.71,4.53.76,6.81,0l.06.12c.05.11.11.22.18.32h-.01c-.06.03-.08.11-.04.19.03.08.1.12.16.1l.07-.03c-.05.02-.07.1-.03.18.03.08.1.12.15.1l.11-.05c.27.42.37.9.48,1.39.07.33.13.65.21.97.08.32.2.62.31.93.11.31.25.6.44.87.05.07.1.14.15.21.05.07.1.13.17.19.07.06.15.12.24.16.09.05.21.09.35.12.15.03.32-.03.41-.17M456.2,205.8c.03-.08.06-.16.08-.24.02-.06.03-.12.04-.19h0c.06.03.13-.02.16-.1.03-.08.01-.16-.04-.18l-.07-.03s.12-.02.15-.1c.03-.08.02-.16-.03-.18l-.09-.04s.1-.03.14-.11c.03-.08-.03-.18-.07-.2h-.04c.02-.14.04-.26.08-.38.05-.16.11-.31.18-.45.14-.3.31-.58.51-.85.36-.56.85-1.06.71-1.82.02-.03.03-.05.04-.08l.1.04s.11-.03.14-.11c.03-.08.02-.16-.03-.17l.05.02c.05.02.12-.02.15-.1.03-.08.02-.16-.04-.18l-.08-.03s0-.02.01-.03c.02-.06.13-.16.18-.24.25.04.51.04.76,0,.05.08.16.18.18.24,0,.01,0,.02.01.03l-.08.03c-.05.02-.06.1-.04.18.03.08.1.12.15.1l.05-.02s-.06.1-.03.17c.03.08.1.12.14.11l.1-.04s.03.05.04.08c-.14.76.35,1.27.71,1.82.19.27.37.55.51.85.07.15.13.3.18.45.04.12.06.24.08.36h-.04s-.11.13-.07.21c.03.08.1.13.14.11l-.08.04c-.05.02-.07.1-.04.18.03.08.1.12.15.1l-.07.03c-.06.02-.07.11-.04.18.03.08.11.12.16.1h0c.01.06.03.12.04.18.02.08.05.16.08.24-1.76.55-3.57.52-5.23,0M451.03,201.49c.08-.04.15-.08.23-.12.06-.03.11-.06.16-.1h0c.02.06.1.08.18.05.08-.03.12-.1.1-.16l-.03-.07c.02.05.1.07.18.03.08-.03.13-.1.1-.15l-.04-.09s.1.05.17.02c.08-.03.11-.14.09-.19l-.02-.04c.1-.08.2-.14.31-.2.14-.08.29-.14.45-.2.31-.11.63-.19.96-.24.65-.13,1.35-.15,1.79-.79.03,0,.06-.02.08-.02l.04.1s.1.06.18.02c.08-.03.13-.1.1-.14l.02.05c.02.05.1.07.18.04.08-.03.12-.1.1-.15l-.03-.07s.02,0,.03-.02c.06-.03.21-.03.3-.05.15.21.33.39.54.54-.02.09-.02.24-.04.3,0,0,0,.02-.02.03l-.08-.03c-.05-.02-.12.03-.15.1-.03.08-.02.16.03.18l.05.02s-.11.03-.14.1c-.03.08-.02.16.03.18l.09.04s-.01.06-.02.08c-.64.44-.65,1.14-.79,1.79-.06.33-.13.65-.24.96-.06.15-.12.31-.19.45-.06.11-.13.21-.2.31l-.04-.02s-.16.01-.19.09c-.03.08-.02.16.02.17l-.09-.04c-.05-.02-.12.02-.15.1-.03.08-.02.16.03.18l-.07-.03c-.06-.02-.13.02-.16.1-.03.08-.01.16.04.18h0c-.04.06-.07.11-.1.16-.04.08-.08.15-.12.23-1.54-.81-2.85-2.07-3.7-3.7M450.43,194.79c.08.02.16.05.24.08.06.02.12.03.18.04h0c-.02.06.02.13.1.17.08.03.16.01.19-.04l.03-.07c-.02.05.02.12.1.15.08.03.16.02.18-.03l.04-.09s.03.11.11.14c.08.03.18-.03.19-.07l.02-.04c.12.02.24.04.36.08.16.05.31.11.45.18.29.14.58.31.85.5.55.37,1.06.85,1.82.71.03.01.05.03.08.04l-.04.09s.03.11.1.14c.08.03.15.02.18-.03l-.02.05c-.02.05.03.12.1.15.08.03.16.02.18-.04l.03-.07s.02,0,.04.01c.06.02.16.13.24.18-.04.25-.04.5,0,.76-.08.05-.18.16-.24.18-.01,0-.02,0-.04.01l-.03-.07c-.02-.05-.1-.07-.18-.04-.08.03-.12.1-.1.15l.02.05s-.1-.06-.18-.03c-.08.03-.13.1-.1.14l.04.09s-.05.03-.08.04c-.76-.14-1.27.35-1.82.71-.27.19-.56.37-.85.5-.15.07-.3.13-.46.18-.12.03-.24.06-.36.08l-.02-.04s-.12-.1-.19-.07c-.08.03-.13.09-.11.14l-.03-.09s-.1-.07-.18-.03c-.08.03-.13.1-.1.15l-.03-.07c-.02-.06-.11-.08-.19-.04-.08.03-.12.1-.1.16h0c-.06.02-.12.03-.18.05-.08.02-.16.05-.24.08-.55-1.75-.52-3.57,0-5.23M454.74,189.62c.04.08.08.15.12.23.03.05.06.11.1.16h0c-.06.02-.08.11-.04.19.03.08.1.12.16.1l.07-.03c-.05.02-.06.1-.03.18.03.08.1.12.15.1l.09-.04s-.05.1-.02.17c.03.08.15.1.19.09l.04-.02c.08.1.14.21.2.31.08.14.14.29.19.45.11.31.19.63.24.96.13.65.14,1.35.79,1.79.01.03.02.06.02.08l-.09.04s-.06.1-.03.18c.03.08.1.12.14.1l-.05.02c-.05.02-.06.1-.03.18.03.08.1.12.15.1l.08-.03s0,.02.01.03c.03.06.03.2.04.3-.21.15-.39.34-.54.54-.09-.02-.24-.02-.3-.05,0,0-.02,0-.03-.01l.03-.07c.02-.05-.02-.12-.1-.15-.08-.03-.16-.02-.18.04l-.02.05s-.03-.11-.1-.14c-.08-.03-.15-.02-.18.02l-.04.1s-.06-.01-.08-.02c-.44-.64-1.14-.65-1.79-.79-.33-.06-.65-.13-.96-.24-.15-.06-.31-.12-.45-.2-.11-.06-.21-.12-.31-.2l.02-.04s0-.15-.09-.19c-.08-.03-.15-.02-.17.02l.04-.09c.02-.05-.02-.12-.1-.15-.08-.03-.16-.02-.18.03l.03-.07c.02-.06-.02-.13-.1-.16-.08-.03-.16-.02-.18.04h0c-.05-.03-.11-.07-.16-.1-.07-.04-.15-.08-.23-.12.81-1.54,2.07-2.85,3.7-3.7M461.44,189.01c-.03.08-.05.16-.08.24-.02.06-.03.12-.04.19h0c-.06-.03-.13.02-.16.1-.03.08-.01.16.04.18l.07.03c-.05-.02-.12.02-.15.1-.03.08-.02.16.04.18l.08.04s-.1.03-.14.11c-.03.08.03.18.07.2h.04c-.02.14-.04.26-.08.38-.04.16-.11.31-.18.45-.14.3-.31.58-.51.85-.36.56-.85,1.06-.71,1.82-.01.03-.03.05-.04.08l-.1-.04s-.11.03-.14.11c-.03.08-.02.16.03.17l-.05-.02c-.05-.02-.12.02-.15.1-.03.08-.02.16.04.18l.08.03s0,.02-.01.03c-.02.06-.13.16-.18.24-.25-.04-.51-.04-.76,0-.05-.08-.16-.18-.18-.24v-.03s.06-.03.06-.03c.05-.02.07-.1.04-.18-.03-.08-.1-.12-.15-.1l-.05.02s.06-.1.03-.17c-.03-.08-.1-.12-.14-.11l-.1.04s-.03-.05-.04-.08c.15-.76-.34-1.27-.71-1.82-.19-.27-.37-.55-.51-.85-.07-.15-.13-.3-.18-.45-.03-.12-.06-.24-.08-.36h.04s.11-.13.07-.21c-.03-.08-.09-.13-.14-.11l.09-.04c.05-.02.06-.1.03-.18-.03-.08-.1-.12-.15-.1l.07-.03c.06-.02.08-.11.04-.18-.03-.08-.11-.12-.16-.1h0c-.01-.06-.03-.12-.04-.18-.02-.08-.05-.16-.08-.24,1.76-.55,3.58-.52,5.23,0M466.61,193.32c-.08.04-.15.08-.22.12-.06.03-.11.06-.16.1h0c-.02-.06-.1-.08-.18-.05-.08.03-.12.1-.1.16l.03.07c-.02-.05-.1-.07-.18-.03-.08.03-.12.1-.1.15l.04.09s-.1-.05-.17-.02c-.08.03-.11.14-.09.19l.02.04c-.1.08-.2.14-.31.2-.14.08-.29.14-.45.2-.31.11-.63.19-.96.24-.65.13-1.35.15-1.79.79-.03,0-.06.02-.08.02l-.04-.1s-.1-.06-.18-.02c-.08.03-.12.1-.1.14l-.02-.05c-.02-.05-.1-.07-.18-.04-.08.03-.13.1-.1.15l.03.07s-.02,0-.03.01c-.06.03-.21.03-.3.05-.15-.21-.34-.39-.54-.54.02-.09.02-.24.05-.3,0,0,0-.02.01-.03l.08.03c.05.02.12-.03.15-.1.03-.08.02-.16-.03-.18l-.05-.02s.11-.03.14-.1c.03-.08.02-.16-.03-.18l-.1-.04s.01-.06.02-.08c.64-.44.65-1.14.79-1.79.06-.33.13-.65.24-.96.06-.15.12-.31.2-.45.06-.11.13-.21.2-.31l.04.02s.16-.01.19-.09c.03-.08.02-.16-.02-.17l.09.04c.05.02.12-.03.15-.1.03-.08.02-.16-.03-.18l.07.03c.06.02.13-.02.16-.1.03-.08.01-.16-.04-.18h0c.04-.06.07-.11.1-.16.04-.08.08-.15.12-.23,1.54.81,2.85,2.07,3.7,3.7M467.22,200.02c-.08-.02-.16-.05-.24-.08-.06-.02-.12-.03-.19-.04h0c.02-.06-.02-.13-.1-.17-.08-.03-.16-.01-.19.04l-.03.07c.02-.05-.03-.12-.1-.15s-.16-.02-.18.03l-.03.09s-.03-.11-.11-.14c-.08-.03-.18.03-.19.07l-.02.04c-.12-.02-.24-.04-.36-.08-.15-.05-.31-.11-.45-.18-.29-.14-.58-.31-.85-.5-.56-.37-1.06-.85-1.82-.71-.02-.01-.05-.03-.08-.04l.04-.09s-.03-.11-.11-.14c-.08-.03-.15-.02-.17.02l.02-.05c.02-.05-.02-.12-.1-.15-.08-.03-.16-.02-.18.04l-.03.07s-.02,0-.03-.01c-.06-.02-.17-.13-.25-.18.04-.25.04-.5,0-.76.08-.05.18-.16.25-.18.01,0,.02,0,.03-.01l.03.07c.02.05.1.07.18.04.08-.03.12-.1.1-.15l-.02-.05s.1.06.17.03c.08-.03.13-.1.11-.14l-.04-.09s.05-.03.08-.04c.76.14,1.27-.35,1.82-.71.27-.19.55-.37.85-.5.15-.07.3-.13.45-.18.12-.04.24-.06.36-.08l.02.04s.12.1.19.07c.08-.03.13-.09.11-.14l.03.09s.1.07.18.03c.08-.03.12-.1.1-.15l.03.07c.02.06.11.08.19.04.08-.03.12-.1.1-.16h0c.06-.02.12-.03.19-.05.08-.02.16-.05.24-.08.55,1.75.52,3.57,0,5.23M457.68,197.88c-.26-.63.04-1.35.67-1.61.63-.26,1.35.04,1.61.67.26.63-.04,1.35-.67,1.61-.63.26-1.35-.04-1.61-.67M462.79,204.96c-.03-.05-.06-.11-.1-.16h0c.06-.02.08-.11.04-.19-.03-.08-.1-.12-.16-.1l-.07.03c.05-.02.06-.1.03-.18-.03-.08-.1-.12-.15-.1l-.09.04s.05-.1.02-.17c-.03-.08-.15-.1-.19-.09l-.04.02c-.08-.1-.14-.21-.2-.31-.08-.14-.14-.29-.2-.45-.11-.31-.19-.63-.24-.96-.13-.65-.14-1.35-.79-1.79-.01-.03-.02-.06-.02-.08l.1-.04s.06-.1.03-.18c-.03-.08-.1-.12-.14-.1l.05-.02c.05-.02.07-.1.03-.18-.03-.08-.1-.12-.15-.1l-.08.03s0-.02-.01-.03c-.03-.06-.03-.2-.05-.3.21-.15.39-.34.54-.54.09.02.24.02.3.05.01,0,.02.01.03.02l-.03.07c-.02.05.02.12.1.15.08.03.16.02.18-.04l.02-.05s.03.11.1.14c.08.03.16.02.18-.02l.04-.1s.06.01.08.02c.44.64,1.14.65,1.79.79.33.06.65.13.96.24.15.06.31.12.45.2.11.06.21.12.31.2l-.02.04s0,.15.09.19c.08.03.15.02.17-.02l-.04.09c-.02.05.02.12.1.15.08.03.16.02.18-.03l-.03.07c-.02.06.02.13.1.16.08.03.16.02.18-.04h0c.05.03.11.07.16.1.08.04.15.08.23.12-.81,1.54-2.07,2.85-3.7,3.7-.04-.08-.08-.15-.12-.23"/>
      </g>
    </g>
  </g>
</svg>