<svg xmlns="http://www.w3.org/2000/svg" viewBox="0 0 512 512">
  <g transform="translate(256, 256) scale(10) translate(-53.815, -54.665)">
	<path class="st0" d="M58.95,67.85c-0.04-0.08-0.09-0.15-0.14-0.23l0.01,0c0.08-0.03,0.11-0.15,0.06-0.27
		c-0.05-0.11-0.15-0.17-0.23-0.14l-0.1,0.04c0.07-0.03,0.09-0.15,0.05-0.26c-0.05-0.11-0.14-0.18-0.22-0.15l-0.12,0.05
		c0.06-0.03,0.08-0.14,0.03-0.25c-0.05-0.11-0.21-0.15-0.27-0.12l-0.05,0.02c-0.11-0.14-0.2-0.3-0.29-0.45
		c-0.11-0.2-0.2-0.42-0.29-0.64c-0.16-0.44-0.27-0.91-0.35-1.38c-0.19-0.94-0.21-1.95-1.14-2.58c-0.01-0.04-0.02-0.08-0.03-0.12
		L56,61.3c0.07-0.03,0.08-0.14,0.04-0.26c-0.05-0.11-0.14-0.18-0.2-0.15l0.07-0.03c0.07-0.03,0.1-0.14,0.05-0.26
		c-0.05-0.11-0.14-0.18-0.22-0.15l-0.11,0.05c-0.01-0.02-0.01-0.03-0.02-0.05c-0.04-0.08-0.04-0.3-0.07-0.43
		c0.3-0.22,0.56-0.48,0.78-0.78c0.13,0.03,0.35,0.02,0.43,0.07c0.02,0.01,0.03,0.01,0.05,0.02l-0.05,0.11
		c-0.03,0.07,0.04,0.17,0.15,0.22c0.11,0.04,0.23,0.02,0.26-0.05l0.03-0.07c-0.03,0.07,0.04,0.16,0.15,0.21
		c0.11,0.05,0.23,0.03,0.26-0.04l0.06-0.14c0.04,0.01,0.08,0.02,0.12,0.03c0.63,0.93,1.65,0.94,2.58,1.14
		c0.48,0.08,0.94,0.19,1.38,0.35c0.22,0.08,0.44,0.17,0.64,0.29c0.15,0.08,0.31,0.18,0.45,0.29l-0.02,0.05
		c-0.03,0.06,0.01,0.23,0.12,0.27c0.11,0.05,0.23,0.03,0.25-0.03l-0.05,0.12c-0.03,0.07,0.04,0.17,0.15,0.21
		c0.11,0.05,0.23,0.03,0.26-0.05l-0.04,0.1c-0.03,0.08,0.03,0.18,0.14,0.23c0.11,0.05,0.23,0.02,0.26-0.06l0-0.01
		c0.08,0.05,0.15,0.1,0.23,0.14c0.11,0.06,0.22,0.11,0.33,0.17c-1.17,2.22-2.99,4.11-5.34,5.34C59.06,68.07,59.01,67.95,58.95,67.85
		 M51.58,57.62c-0.38-0.91,0.05-1.95,0.96-2.32c0.91-0.38,1.95,0.05,2.32,0.96c0.38,0.91-0.05,1.95-0.96,2.32
		C53,58.95,51.96,58.52,51.58,57.62 M65.34,60.71c-0.12-0.04-0.23-0.08-0.35-0.11c-0.09-0.02-0.18-0.04-0.27-0.06l0-0.01
		c0.04-0.08-0.03-0.18-0.14-0.23c-0.11-0.04-0.23-0.02-0.27,0.06l-0.04,0.1c0.03-0.07-0.04-0.17-0.15-0.22
		c-0.11-0.05-0.23-0.02-0.26,0.05l-0.05,0.12c0.02-0.06-0.04-0.15-0.16-0.2c-0.11-0.05-0.26,0.04-0.28,0.1l-0.02,0.05
		c-0.18-0.03-0.35-0.06-0.52-0.11c-0.23-0.07-0.44-0.16-0.66-0.26c-0.43-0.2-0.83-0.45-1.22-0.73c-0.8-0.53-1.53-1.23-2.63-1.02
		c-0.04-0.02-0.07-0.04-0.11-0.06l0.06-0.13c0.03-0.07-0.04-0.16-0.15-0.21c-0.11-0.05-0.23-0.03-0.25,0.04l0.03-0.07
		c0.03-0.07-0.03-0.17-0.15-0.22c-0.11-0.05-0.23-0.02-0.26,0.05l-0.04,0.11c-0.02-0.01-0.03-0.01-0.05-0.02
		c-0.09-0.03-0.24-0.18-0.35-0.26c0.05-0.36,0.05-0.73,0-1.1c0.12-0.07,0.26-0.23,0.35-0.26c0.02,0,0.03-0.01,0.05-0.02l0.04,0.11
		c0.03,0.07,0.15,0.1,0.26,0.05c0.11-0.05,0.18-0.14,0.15-0.22l-0.03-0.07c0.03,0.07,0.14,0.09,0.25,0.04
		c0.11-0.05,0.18-0.14,0.15-0.21l-0.06-0.13c0.04-0.02,0.07-0.04,0.11-0.06c1.1,0.21,1.83-0.5,2.63-1.02
		c0.39-0.28,0.8-0.53,1.22-0.73c0.21-0.1,0.43-0.19,0.66-0.26c0.17-0.05,0.35-0.08,0.52-0.11l0.02,0.05
		c0.03,0.06,0.17,0.15,0.28,0.1c0.11-0.05,0.18-0.13,0.16-0.2l0.05,0.12c0.03,0.07,0.14,0.09,0.26,0.05
		c0.11-0.05,0.18-0.14,0.15-0.22l0.04,0.1c0.03,0.08,0.15,0.11,0.27,0.06c0.11-0.05,0.17-0.15,0.14-0.23l0-0.01
		c0.09-0.02,0.18-0.04,0.27-0.06c0.12-0.03,0.23-0.07,0.35-0.11C66.13,55.69,66.09,58.32,65.34,60.71 M64.46,51.04
		c-0.11,0.06-0.22,0.11-0.32,0.17c-0.08,0.04-0.16,0.09-0.24,0.14l0-0.01c-0.03-0.08-0.15-0.11-0.26-0.06
		c-0.11,0.04-0.18,0.15-0.14,0.23l0.04,0.1c-0.03-0.07-0.15-0.09-0.26-0.05c-0.11,0.04-0.18,0.14-0.15,0.21l0.05,0.12
		c-0.03-0.06-0.14-0.08-0.25-0.03c-0.11,0.05-0.15,0.21-0.12,0.27l0.02,0.05c-0.14,0.11-0.3,0.2-0.45,0.29
		c-0.21,0.11-0.43,0.2-0.65,0.29c-0.44,0.16-0.9,0.27-1.38,0.35c-0.94,0.19-1.95,0.21-2.58,1.14c-0.04,0.01-0.08,0.02-0.12,0.03
		l-0.06-0.14c-0.03-0.07-0.14-0.08-0.26-0.04c-0.11,0.05-0.18,0.14-0.15,0.21l-0.03-0.07c-0.03-0.07-0.14-0.09-0.26-0.05
		c-0.11,0.05-0.18,0.14-0.15,0.22l0.05,0.11c-0.02,0.01-0.03,0.01-0.05,0.02c-0.08,0.04-0.3,0.04-0.43,0.07
		c-0.23-0.3-0.49-0.56-0.78-0.78c0.03-0.13,0.02-0.35,0.07-0.43c0.01-0.01,0.01-0.03,0.02-0.05l0.11,0.05
		c0.07,0.03,0.17-0.04,0.22-0.15c0.05-0.11,0.02-0.23-0.05-0.26l-0.07-0.03c0.07,0.03,0.16-0.04,0.2-0.15
		c0.05-0.11,0.03-0.23-0.04-0.26l-0.14-0.06c0.01-0.04,0.02-0.08,0.03-0.12c0.93-0.63,0.94-1.65,1.14-2.58
		c0.08-0.47,0.19-0.94,0.35-1.38c0.08-0.22,0.17-0.44,0.29-0.64c0.08-0.15,0.18-0.31,0.29-0.45l0.05,0.02
		c0.06,0.03,0.23-0.01,0.27-0.12c0.05-0.11,0.03-0.23-0.03-0.25l0.12,0.05c0.07,0.03,0.17-0.04,0.22-0.15
		c0.04-0.11,0.02-0.23-0.05-0.26l0.1,0.04c0.08,0.03,0.19-0.03,0.24-0.14c0.04-0.11,0.02-0.23-0.06-0.27l-0.01,0
		c0.05-0.08,0.1-0.15,0.14-0.23c0.06-0.11,0.11-0.22,0.17-0.33C61.34,46.86,63.23,48.69,64.46,51.04 M57,44.82
		c-0.04,0.12-0.07,0.23-0.11,0.35c-0.02,0.09-0.04,0.18-0.06,0.27l-0.01,0c-0.08-0.03-0.19,0.03-0.24,0.14
		c-0.04,0.11-0.02,0.23,0.06,0.27l0.1,0.04c-0.07-0.03-0.17,0.04-0.22,0.15c-0.05,0.11-0.02,0.23,0.05,0.26l0.12,0.05
		c-0.06-0.03-0.15,0.04-0.2,0.15c-0.05,0.11,0.04,0.26,0.1,0.28l0.05,0.02c-0.02,0.18-0.06,0.35-0.11,0.52
		c-0.06,0.23-0.16,0.44-0.26,0.66c-0.2,0.43-0.45,0.83-0.73,1.23c-0.52,0.8-1.23,1.53-1.02,2.63c-0.02,0.04-0.04,0.07-0.06,0.11
		l-0.14-0.06c-0.07-0.03-0.16,0.04-0.21,0.15c-0.05,0.11-0.03,0.23,0.04,0.25l-0.07-0.03c-0.07-0.03-0.17,0.04-0.22,0.15
		c-0.04,0.11-0.02,0.23,0.05,0.26l0.11,0.04c0,0.02-0.01,0.03-0.02,0.05C54,52.85,53.85,53,53.77,53.11c-0.36-0.05-0.73-0.05-1.1,0
		c-0.08-0.11-0.23-0.26-0.26-0.35c-0.01-0.01-0.01-0.03-0.02-0.05l0.11-0.04c0.07-0.03,0.1-0.15,0.05-0.26
		c-0.05-0.11-0.14-0.18-0.22-0.15l-0.07,0.03c0.07-0.03,0.08-0.14,0.04-0.25c-0.05-0.11-0.14-0.18-0.21-0.15l-0.13,0.06
		c-0.02-0.04-0.04-0.07-0.06-0.11c0.21-1.1-0.5-1.83-1.02-2.63c-0.28-0.39-0.53-0.8-0.73-1.23c-0.1-0.21-0.19-0.43-0.26-0.66
		c-0.05-0.17-0.08-0.35-0.11-0.52l0.05-0.02c0.06-0.03,0.15-0.17,0.1-0.28c-0.05-0.11-0.13-0.18-0.2-0.15l0.12-0.05
		c0.07-0.03,0.09-0.14,0.05-0.26c-0.05-0.11-0.14-0.18-0.21-0.15l0.1-0.04c0.08-0.03,0.11-0.15,0.06-0.27
		c-0.05-0.11-0.15-0.17-0.23-0.14l-0.01,0c-0.02-0.09-0.04-0.18-0.06-0.27c-0.03-0.12-0.07-0.23-0.11-0.35
		C51.98,44.03,54.61,44.07,57,44.82 M47.33,45.7c0.05,0.11,0.11,0.22,0.17,0.33c0.04,0.08,0.09,0.15,0.14,0.23l-0.01,0
		c-0.08,0.03-0.11,0.15-0.06,0.27c0.05,0.11,0.15,0.17,0.23,0.14l0.1-0.04c-0.07,0.03-0.09,0.15-0.05,0.26
		c0.05,0.11,0.14,0.18,0.21,0.15l0.12-0.05c-0.06,0.03-0.08,0.14-0.03,0.25c0.05,0.11,0.21,0.15,0.27,0.12l0.05-0.02
		c0.11,0.14,0.2,0.3,0.29,0.45c0.11,0.2,0.2,0.42,0.28,0.64c0.16,0.44,0.27,0.91,0.35,1.38c0.19,0.94,0.21,1.95,1.14,2.58
		c0.01,0.04,0.02,0.08,0.03,0.12l-0.13,0.06c-0.07,0.03-0.09,0.14-0.04,0.26c0.05,0.11,0.14,0.18,0.21,0.15l-0.07,0.03
		c-0.07,0.03-0.09,0.14-0.05,0.26c0.04,0.11,0.14,0.18,0.21,0.15l0.11-0.05c0.01,0.02,0.01,0.03,0.02,0.05
		c0.04,0.08,0.04,0.3,0.06,0.43c-0.3,0.22-0.56,0.48-0.78,0.78c-0.13-0.03-0.35-0.02-0.43-0.07c-0.01-0.01-0.03-0.01-0.04-0.02
		l0.04-0.11c0.03-0.07-0.04-0.17-0.15-0.22c-0.11-0.04-0.23-0.02-0.26,0.05l-0.03,0.07c0.03-0.07-0.04-0.16-0.15-0.21
		c-0.11-0.05-0.23-0.03-0.26,0.04L48.8,54.3c-0.04-0.01-0.08-0.02-0.12-0.03c-0.63-0.93-1.65-0.94-2.58-1.14
		c-0.47-0.08-0.94-0.19-1.38-0.35c-0.22-0.08-0.44-0.17-0.64-0.29c-0.15-0.08-0.3-0.18-0.45-0.29l0.02-0.05
		c0.03-0.06-0.01-0.23-0.12-0.27c-0.11-0.05-0.23-0.03-0.25,0.03l0.05-0.12c0.03-0.07-0.03-0.17-0.15-0.21
		c-0.11-0.05-0.23-0.03-0.26,0.05l0.04-0.1c0.03-0.08-0.03-0.19-0.14-0.23c-0.11-0.05-0.23-0.02-0.27,0.06l0,0.01
		c-0.08-0.05-0.15-0.1-0.23-0.14c-0.11-0.06-0.22-0.11-0.33-0.17C43.15,48.82,44.97,46.93,47.33,45.7 M41.1,53.16
		c0.12,0.04,0.23,0.08,0.35,0.11c0.09,0.02,0.17,0.04,0.27,0.06l0,0.01c-0.03,0.08,0.03,0.18,0.14,0.23
		c0.11,0.04,0.23,0.02,0.27-0.06l0.04-0.1c-0.03,0.07,0.03,0.17,0.15,0.22c0.11,0.05,0.23,0.02,0.26-0.05l0.05-0.12
		c-0.03,0.06,0.04,0.15,0.15,0.2c0.11,0.05,0.26-0.04,0.28-0.1l0.02-0.05c0.18,0.03,0.35,0.06,0.52,0.11
		c0.23,0.07,0.44,0.16,0.66,0.26c0.43,0.2,0.83,0.45,1.23,0.73c0.8,0.53,1.53,1.23,2.63,1.02c0.04,0.02,0.08,0.04,0.11,0.06
		l-0.05,0.13c-0.03,0.07,0.04,0.16,0.15,0.21c0.11,0.05,0.23,0.03,0.26-0.04l-0.03,0.07c-0.03,0.07,0.04,0.17,0.15,0.22
		c0.11,0.05,0.23,0.02,0.26-0.05L49,56.11c0.02,0.01,0.03,0.01,0.05,0.02c0.09,0.03,0.24,0.18,0.35,0.26c-0.05,0.36-0.05,0.73,0,1.1
		c-0.11,0.07-0.26,0.23-0.35,0.26c-0.02,0-0.03,0.01-0.05,0.02l-0.04-0.11c-0.03-0.07-0.14-0.1-0.26-0.05
		c-0.11,0.05-0.18,0.14-0.15,0.22l0.03,0.07c-0.03-0.07-0.14-0.09-0.26-0.04c-0.11,0.05-0.18,0.14-0.15,0.21l0.05,0.13
		c-0.03,0.02-0.07,0.04-0.11,0.06c-1.1-0.21-1.83,0.5-2.63,1.02c-0.39,0.28-0.8,0.53-1.22,0.73c-0.21,0.1-0.43,0.19-0.66,0.26
		c-0.17,0.05-0.34,0.08-0.52,0.11l-0.02-0.05c-0.03-0.06-0.17-0.15-0.28-0.1c-0.11,0.05-0.18,0.13-0.15,0.2l-0.05-0.12
		c-0.03-0.07-0.15-0.09-0.26-0.05c-0.11,0.05-0.18,0.14-0.15,0.22l-0.04-0.1c-0.03-0.08-0.15-0.11-0.27-0.06
		c-0.11,0.05-0.17,0.15-0.14,0.23l0,0.01c-0.09,0.02-0.18,0.04-0.27,0.06c-0.12,0.03-0.24,0.07-0.35,0.11
		C40.32,58.18,40.36,55.56,41.1,53.16 M41.98,62.83c0.11-0.06,0.22-0.11,0.33-0.17c0.08-0.04,0.15-0.09,0.23-0.14l0,0.01
		c0.03,0.08,0.15,0.11,0.27,0.06c0.11-0.05,0.17-0.15,0.14-0.23l-0.04-0.1c0.03,0.07,0.15,0.09,0.26,0.05
		c0.11-0.04,0.18-0.14,0.15-0.21l-0.05-0.12c0.03,0.06,0.14,0.08,0.25,0.03c0.11-0.05,0.15-0.21,0.12-0.27l-0.02-0.05
		c0.15-0.11,0.3-0.2,0.45-0.29c0.2-0.11,0.42-0.2,0.64-0.29c0.44-0.16,0.91-0.27,1.38-0.35c0.94-0.19,1.95-0.21,2.58-1.14
		c0.04-0.01,0.08-0.02,0.12-0.03l0.06,0.14c0.03,0.07,0.14,0.08,0.26,0.04c0.11-0.05,0.18-0.14,0.15-0.21l0.03,0.07
		c0.03,0.07,0.14,0.09,0.26,0.05c0.11-0.05,0.18-0.14,0.15-0.22l-0.04-0.11c0.01-0.01,0.03-0.01,0.04-0.02
		c0.08-0.04,0.3-0.04,0.43-0.07c0.22,0.3,0.48,0.56,0.78,0.78c-0.03,0.13-0.02,0.35-0.06,0.43c-0.01,0.01-0.01,0.03-0.02,0.05
		l-0.11-0.05c-0.07-0.03-0.17,0.04-0.21,0.15c-0.05,0.11-0.03,0.23,0.05,0.26l0.07,0.03c-0.07-0.03-0.16,0.04-0.21,0.15
		c-0.05,0.11-0.03,0.23,0.04,0.26l0.13,0.06c-0.01,0.04-0.02,0.08-0.03,0.12c-0.93,0.63-0.94,1.65-1.14,2.58
		c-0.08,0.47-0.19,0.94-0.35,1.38c-0.08,0.22-0.17,0.44-0.28,0.64c-0.09,0.15-0.18,0.31-0.29,0.45l-0.05-0.02
		c-0.06-0.03-0.23,0.01-0.27,0.12c-0.05,0.11-0.03,0.23,0.03,0.25l-0.12-0.05c-0.07-0.03-0.17,0.03-0.21,0.15
		c-0.05,0.11-0.03,0.23,0.05,0.26l-0.1-0.04c-0.08-0.03-0.18,0.03-0.23,0.14c-0.05,0.11-0.02,0.23,0.06,0.27l0.01,0
		c-0.05,0.08-0.1,0.15-0.14,0.23c-0.06,0.11-0.11,0.22-0.17,0.33C45.1,67.01,43.21,65.18,41.98,62.83 M49.45,69.05
		c0.04-0.12,0.08-0.23,0.11-0.35c0.02-0.09,0.04-0.18,0.06-0.27l0.01,0c0.08,0.03,0.18-0.03,0.23-0.14
		c0.05-0.11,0.02-0.23-0.06-0.27l-0.1-0.04c0.07,0.03,0.17-0.04,0.21-0.15c0.05-0.11,0.03-0.23-0.05-0.26l-0.12-0.05
		c0.06,0.03,0.15-0.04,0.2-0.15c0.05-0.11-0.04-0.26-0.1-0.28l-0.05-0.02c0.03-0.18,0.06-0.35,0.11-0.52
		c0.07-0.23,0.16-0.44,0.26-0.66c0.2-0.43,0.45-0.83,0.73-1.23c0.52-0.8,1.23-1.53,1.02-2.63c0.02-0.04,0.04-0.07,0.06-0.11
		l0.14,0.06c0.07,0.03,0.16-0.04,0.2-0.15c0.05-0.11,0.03-0.23-0.04-0.25l0.07,0.03c0.07,0.03,0.17-0.04,0.22-0.15
		c0.05-0.11,0.02-0.23-0.05-0.26l-0.11-0.04c0.01-0.02,0.01-0.03,0.02-0.05c0.03-0.09,0.18-0.24,0.26-0.35
		c0.36,0.05,0.73,0.05,1.1,0c0.07,0.11,0.23,0.26,0.26,0.35c0,0.01,0.01,0.03,0.02,0.05l-0.11,0.04c-0.07,0.03-0.09,0.15-0.05,0.26
		c0.05,0.11,0.14,0.18,0.22,0.15l0.07-0.03c-0.07,0.03-0.08,0.14-0.04,0.25c0.05,0.11,0.14,0.18,0.21,0.15l0.14-0.06
		c0.02,0.04,0.04,0.07,0.06,0.11c-0.2,1.1,0.5,1.83,1.02,2.63c0.28,0.39,0.53,0.8,0.73,1.23c0.1,0.21,0.19,0.43,0.26,0.66
		c0.05,0.17,0.09,0.34,0.11,0.52l-0.05,0.02c-0.06,0.03-0.15,0.17-0.1,0.28c0.05,0.11,0.14,0.18,0.2,0.15l-0.12,0.05
		c-0.07,0.03-0.1,0.14-0.05,0.26c0.05,0.11,0.14,0.18,0.22,0.15l-0.1,0.04c-0.08,0.03-0.11,0.15-0.06,0.27
		c0.05,0.11,0.15,0.17,0.24,0.14l0.01,0c0.02,0.09,0.04,0.18,0.06,0.27c0.03,0.12,0.07,0.23,0.11,0.35
		C54.46,69.85,51.84,69.8,49.45,69.05 M63.07,79.88c0.12-0.17,0.18-0.33,0.23-0.48c0.05-0.15,0.07-0.29,0.08-0.42
		c0.01-0.13,0-0.26-0.02-0.37c-0.02-0.12-0.04-0.24-0.06-0.36c-0.09-0.47-0.25-0.92-0.44-1.34c-0.2-0.43-0.39-0.86-0.63-1.27
		s-0.51-0.81-0.77-1.21c-0.38-0.61-0.77-1.21-0.92-1.91l0.16-0.07c0.07-0.03,0.09-0.15,0.05-0.26c-0.05-0.11-0.14-0.18-0.21-0.15
		l0.1-0.04c0.08-0.03,0.11-0.15,0.06-0.26c-0.05-0.11-0.15-0.18-0.23-0.14l-0.02,0.01c-0.03-0.18-0.08-0.35-0.14-0.51l-0.06-0.19
		c3.1-1.56,5.49-4.03,6.95-6.95l0.19,0.06c0.16,0.06,0.33,0.11,0.51,0.13l-0.01,0.02c-0.03,0.08,0.03,0.18,0.14,0.23
		c0.11,0.04,0.23,0.02,0.26-0.06l0.04-0.1c-0.03,0.07,0.04,0.17,0.15,0.22c0.11,0.05,0.23,0.02,0.26-0.05l0.07-0.16
		c0.7,0.15,1.3,0.54,1.91,0.92c0.4,0.26,0.8,0.53,1.21,0.77c0.41,0.24,0.84,0.43,1.27,0.63c0.43,0.19,0.87,0.35,1.34,0.44
		c0.12,0.02,0.24,0.04,0.36,0.06c0.12,0.02,0.24,0.03,0.37,0.02c0.13-0.01,0.27-0.03,0.42-0.08c0.15-0.05,0.3-0.12,0.48-0.23
		c0.19-0.12,0.29-0.36,0.25-0.59c-0.04-0.21-0.1-0.37-0.17-0.5c-0.07-0.14-0.15-0.25-0.24-0.35c-0.08-0.1-0.18-0.18-0.28-0.25
		c-0.1-0.07-0.2-0.14-0.3-0.21c-0.4-0.27-0.82-0.47-1.26-0.63c-0.44-0.16-0.88-0.33-1.34-0.45c-0.46-0.12-0.93-0.21-1.4-0.31
		c-0.7-0.16-1.4-0.32-2.01-0.7l0.07-0.16c0.03-0.07-0.04-0.17-0.15-0.22c-0.11-0.04-0.23-0.02-0.26,0.05l0.04-0.1
		c0.03-0.08-0.03-0.19-0.14-0.23c-0.11-0.05-0.23-0.02-0.27,0.06l-0.01,0.02c-0.15-0.1-0.3-0.19-0.46-0.27l-0.17-0.09
		c1.03-3.1,1.1-6.54,0-9.84l0.17-0.09c0.16-0.07,0.31-0.16,0.46-0.27l0.01,0.02c0.03,0.08,0.15,0.11,0.26,0.06
		c0.11-0.04,0.18-0.15,0.14-0.23l-0.04-0.1c0.03,0.07,0.14,0.09,0.26,0.05c0.11-0.04,0.18-0.14,0.15-0.21l-0.07-0.16
		c0.6-0.38,1.31-0.54,2.01-0.7c0.47-0.1,0.94-0.18,1.4-0.31c0.46-0.12,0.9-0.29,1.34-0.45c0.44-0.16,0.87-0.36,1.26-0.63
		c0.1-0.07,0.2-0.14,0.29-0.21c0.1-0.07,0.19-0.15,0.28-0.25c0.09-0.1,0.17-0.21,0.24-0.35c0.07-0.14,0.13-0.3,0.17-0.5
		c0.04-0.22-0.04-0.46-0.25-0.59c-0.17-0.11-0.33-0.18-0.48-0.23c-0.15-0.05-0.29-0.07-0.42-0.08c-0.13-0.01-0.26,0-0.37,0.02
		c-0.12,0.02-0.24,0.04-0.36,0.06c-0.47,0.09-0.92,0.25-1.34,0.44c-0.42,0.2-0.85,0.39-1.27,0.63c-0.41,0.24-0.81,0.51-1.21,0.77
		c-0.61,0.38-1.21,0.77-1.91,0.92l-0.07-0.16c-0.03-0.07-0.14-0.1-0.26-0.05c-0.11,0.05-0.18,0.14-0.15,0.22l-0.04-0.1
		c-0.03-0.08-0.15-0.11-0.26-0.06c-0.11,0.05-0.18,0.15-0.14,0.23l0.01,0.02c-0.18,0.03-0.35,0.08-0.51,0.14l-0.19,0.06
		c-1.56-3.1-4.03-5.49-6.95-6.95l0.06-0.19c0.06-0.16,0.11-0.33,0.14-0.51l0.02,0.01c0.08,0.03,0.18-0.03,0.23-0.14
		c0.05-0.11,0.02-0.23-0.06-0.26l-0.1-0.04c0.07,0.03,0.17-0.04,0.22-0.15c0.05-0.11,0.02-0.23-0.05-0.26l-0.16-0.07
		c0.15-0.7,0.54-1.3,0.92-1.91c0.26-0.4,0.53-0.8,0.77-1.21c0.24-0.41,0.43-0.84,0.63-1.27c0.19-0.43,0.35-0.87,0.44-1.34
		c0.02-0.12,0.04-0.24,0.06-0.36c0.02-0.12,0.03-0.24,0.02-0.37c-0.01-0.13-0.03-0.27-0.08-0.42c-0.05-0.14-0.11-0.3-0.23-0.48
		c-0.12-0.19-0.36-0.29-0.59-0.25c-0.2,0.04-0.37,0.1-0.5,0.17c-0.14,0.07-0.26,0.15-0.36,0.24c-0.1,0.08-0.18,0.18-0.25,0.28
		c-0.07,0.1-0.14,0.19-0.21,0.3c-0.27,0.4-0.47,0.82-0.63,1.26c-0.16,0.44-0.33,0.88-0.45,1.34c-0.12,0.46-0.21,0.93-0.31,1.4
		c-0.16,0.7-0.32,1.4-0.7,2.01l-0.16-0.07c-0.07-0.03-0.17,0.04-0.21,0.15c-0.05,0.11-0.03,0.23,0.05,0.26l-0.1-0.04
		c-0.08-0.03-0.18,0.03-0.23,0.14c-0.05,0.11-0.02,0.23,0.06,0.27l0.02,0.01c-0.1,0.15-0.19,0.3-0.27,0.46l-0.09,0.17
		c-3.1-1.03-6.54-1.1-9.84,0l-0.09-0.17c-0.07-0.16-0.16-0.31-0.26-0.46l0.02-0.01c0.08-0.03,0.11-0.15,0.06-0.27
		c-0.05-0.11-0.15-0.17-0.23-0.14l-0.1,0.04c0.07-0.03,0.09-0.14,0.05-0.26c-0.05-0.11-0.14-0.18-0.22-0.15l-0.16,0.07
		c-0.38-0.6-0.54-1.31-0.7-2.01c-0.1-0.47-0.18-0.94-0.31-1.4c-0.12-0.46-0.29-0.9-0.45-1.34c-0.16-0.44-0.37-0.86-0.64-1.26
		c-0.07-0.1-0.13-0.2-0.21-0.3c-0.07-0.1-0.15-0.19-0.25-0.28c-0.1-0.09-0.21-0.17-0.35-0.24c-0.14-0.07-0.3-0.13-0.5-0.17
		c-0.23-0.04-0.46,0.04-0.59,0.25c-0.11,0.17-0.18,0.33-0.23,0.48c-0.05,0.15-0.07,0.29-0.08,0.42c-0.01,0.13,0,0.26,0.02,0.37
		c0.02,0.12,0.04,0.24,0.06,0.36c0.09,0.47,0.25,0.92,0.44,1.34c0.2,0.42,0.39,0.86,0.63,1.27c0.23,0.41,0.51,0.81,0.77,1.21
		c0.38,0.61,0.77,1.21,0.92,1.91l-0.16,0.07c-0.07,0.03-0.1,0.15-0.05,0.26c0.05,0.11,0.14,0.18,0.22,0.15l-0.1,0.04
		c-0.08,0.03-0.11,0.15-0.06,0.26c0.04,0.11,0.15,0.18,0.23,0.14L46,42.26c0.03,0.18,0.08,0.35,0.14,0.51l0.06,0.19
		c-3.1,1.56-5.49,4.03-6.95,6.95l-0.18-0.06c-0.17-0.06-0.34-0.11-0.51-0.13l0.01-0.02c0.03-0.08-0.03-0.18-0.14-0.23
		c-0.11-0.04-0.23-0.02-0.27,0.06l-0.04,0.1c0.03-0.07-0.03-0.17-0.15-0.22c-0.11-0.05-0.23-0.02-0.26,0.05l-0.06,0.16
		c-0.7-0.15-1.31-0.54-1.91-0.92c-0.4-0.26-0.8-0.53-1.21-0.77c-0.41-0.24-0.84-0.43-1.27-0.63c-0.43-0.19-0.87-0.35-1.34-0.44
		c-0.12-0.02-0.24-0.04-0.36-0.06c-0.12-0.02-0.24-0.03-0.37-0.02c-0.13,0.01-0.27,0.03-0.42,0.08c-0.14,0.05-0.3,0.12-0.48,0.23
		c-0.19,0.12-0.29,0.36-0.25,0.59c0.04,0.21,0.1,0.37,0.17,0.5c0.07,0.14,0.15,0.25,0.24,0.35c0.09,0.1,0.18,0.18,0.28,0.25
		c0.1,0.07,0.19,0.14,0.3,0.21c0.4,0.27,0.82,0.47,1.26,0.63c0.44,0.16,0.88,0.33,1.34,0.45c0.46,0.12,0.93,0.21,1.4,0.31
		c0.7,0.16,1.4,0.32,2.01,0.7l-0.07,0.16c-0.03,0.07,0.04,0.17,0.15,0.21c0.11,0.05,0.23,0.03,0.26-0.05l-0.04,0.1
		c-0.03,0.08,0.03,0.19,0.14,0.23c0.11,0.05,0.23,0.02,0.27-0.06l0.01-0.02c0.15,0.1,0.3,0.19,0.46,0.27l0.17,0.09
		c-1.03,3.1-1.1,6.54,0,9.84l-0.17,0.09c-0.16,0.07-0.31,0.16-0.46,0.27l-0.01-0.02c-0.03-0.08-0.15-0.11-0.27-0.06
		c-0.11,0.04-0.17,0.15-0.14,0.23l0.04,0.1c-0.03-0.07-0.14-0.09-0.26-0.05c-0.11,0.05-0.18,0.14-0.15,0.22l0.07,0.16
		c-0.6,0.38-1.31,0.54-2.01,0.7c-0.47,0.1-0.94,0.18-1.4,0.31c-0.46,0.12-0.9,0.29-1.34,0.45c-0.44,0.16-0.87,0.37-1.26,0.64
		c-0.1,0.07-0.2,0.14-0.3,0.21c-0.1,0.07-0.19,0.15-0.28,0.25c-0.09,0.1-0.16,0.21-0.24,0.35c-0.07,0.14-0.13,0.3-0.17,0.5
		c-0.04,0.22,0.05,0.46,0.25,0.59c0.17,0.11,0.33,0.18,0.48,0.23c0.15,0.05,0.29,0.07,0.42,0.08c0.13,0.01,0.26,0,0.37-0.02
		c0.12-0.02,0.24-0.04,0.36-0.06c0.47-0.09,0.92-0.25,1.34-0.44c0.43-0.2,0.86-0.39,1.27-0.63c0.41-0.23,0.81-0.51,1.21-0.77
		c0.61-0.38,1.21-0.77,1.91-0.92l0.06,0.16c0.03,0.07,0.15,0.1,0.26,0.05c0.11-0.05,0.18-0.14,0.15-0.22l0.04,0.1
		c0.03,0.08,0.15,0.11,0.27,0.06c0.11-0.05,0.17-0.15,0.14-0.23l-0.01-0.02c0.18-0.03,0.35-0.08,0.51-0.13l0.18-0.06
		c1.56,3.1,4.03,5.49,6.95,6.95l-0.06,0.18c-0.06,0.17-0.11,0.34-0.14,0.51l-0.02-0.01c-0.08-0.03-0.19,0.03-0.23,0.14
		c-0.05,0.11-0.02,0.23,0.06,0.27l0.1,0.04c-0.07-0.03-0.17,0.04-0.22,0.15c-0.05,0.11-0.02,0.23,0.05,0.26l0.16,0.07
		c-0.15,0.7-0.54,1.3-0.92,1.91c-0.26,0.4-0.53,0.8-0.77,1.21c-0.24,0.41-0.43,0.84-0.63,1.27c-0.2,0.43-0.36,0.87-0.44,1.34
		c-0.02,0.12-0.04,0.24-0.06,0.36c-0.02,0.12-0.03,0.24-0.02,0.37c0.01,0.13,0.03,0.27,0.08,0.42c0.05,0.14,0.12,0.3,0.23,0.48
		c0.13,0.19,0.36,0.29,0.59,0.25c0.21-0.04,0.37-0.1,0.5-0.17c0.14-0.07,0.25-0.15,0.35-0.24c0.1-0.09,0.18-0.18,0.25-0.28
		c0.07-0.1,0.14-0.19,0.21-0.3c0.27-0.4,0.47-0.82,0.64-1.26c0.16-0.44,0.33-0.88,0.45-1.34c0.12-0.46,0.21-0.93,0.31-1.4
		c0.16-0.7,0.32-1.4,0.7-2.01l0.16,0.07c0.07,0.03,0.17-0.04,0.22-0.15c0.04-0.11,0.02-0.23-0.05-0.26l0.1,0.04
		c0.08,0.03,0.18-0.03,0.23-0.14c0.04-0.11,0.02-0.23-0.06-0.27l-0.02-0.01c0.1-0.15,0.19-0.3,0.26-0.46l0.09-0.17
		c3.1,1.03,6.54,1.1,9.84,0l0.09,0.17c0.07,0.16,0.16,0.31,0.27,0.46l-0.02,0.01c-0.08,0.03-0.11,0.15-0.06,0.27
		c0.05,0.11,0.15,0.17,0.23,0.14l0.1-0.04c-0.07,0.03-0.09,0.14-0.05,0.26c0.05,0.11,0.14,0.18,0.21,0.15l0.16-0.07
		c0.38,0.6,0.54,1.31,0.7,2.01c0.1,0.47,0.18,0.94,0.31,1.4c0.12,0.46,0.29,0.9,0.45,1.34c0.16,0.44,0.37,0.86,0.63,1.26
		c0.07,0.1,0.14,0.2,0.21,0.3c0.07,0.1,0.15,0.19,0.25,0.28c0.1,0.09,0.21,0.17,0.35,0.24c0.13,0.07,0.3,0.13,0.5,0.17
		C62.7,80.17,62.94,80.08,63.07,79.88"/>
</g>
</svg>
