<svg viewBox="0 0 140 141" fill="none" xmlns="http://www.w3.org/2000/svg">
<g clip-path="url(#clip0_2038_6395)">
<circle cx="70" cy="71" r="70" fill="#2A4D69"/>
<path d="M66.9379 7.03572C58.134 7.46221 49.7566 9.6708 41.8819 13.6615C26.9091 21.2316 15.7291 34.3004 10.3676 50.4917C4.10736 69.4094 6.90998 90.2464 17.9377 106.803C20.1463 110.108 22.233 112.652 25.4926 115.973L27.8383 118.364L27.7164 122.918C27.625 127.077 27.625 127.473 27.8687 127.671C28.2343 127.975 30.2144 128.097 36.8554 128.219L42.4911 128.326L43.4964 128.828C44.9282 129.544 47.8679 130.747 49.7262 131.402C61.8506 135.606 75.0564 136.048 86.9676 132.621C99.9449 128.889 110.805 121.608 119.441 110.809C122.229 107.336 124.422 103.833 126.57 99.4767C129.906 92.6987 131.855 86.0729 132.845 78.1676C133.059 76.416 133.119 74.8624 133.119 70.628C133.104 65.9671 133.074 64.977 132.769 62.7836C130.865 48.74 125.488 37.2401 115.953 26.8369C111.095 21.521 104.789 16.7535 98.3608 13.5244C92.1463 10.4171 85.0331 8.29995 77.8133 7.43175C76.0312 7.21851 70.3803 6.85295 69.6035 6.91387C69.4359 6.91387 68.2326 6.9748 66.9379 7.03572ZM73.7922 10.2344C80.6921 10.6609 86.9066 12.1079 93.1212 14.7277C96.9138 16.327 99.3966 17.6674 103.037 20.074C109.358 24.2323 115.055 29.8985 119.381 36.2805C125.001 44.5818 128.276 53.4314 129.647 63.926C130.027 66.9267 130.027 74.5425 129.631 77.7107C128.428 87.5351 125.153 96.7198 120.173 104.29C117.614 108.159 115.253 111.007 111.689 114.495C105.977 120.1 100.006 124.122 93.0602 127.031C91.004 127.899 87.7444 129.041 87.3636 129.041C87.2265 129.041 86.998 128.859 86.8609 128.615C86.3888 127.823 84.8961 126.3 83.6623 125.386C80.8597 123.269 77.0822 122.02 72.1167 121.578C71.1571 121.502 70.3041 121.426 70.2127 121.426C70.1366 121.426 71.02 120.984 72.1929 120.466C82.1848 115.957 88.8563 111.495 94.888 105.25C98.9549 101.061 102.382 96.141 104.712 91.2212C105.687 89.1649 105.718 89.1192 106.312 88.9669C114.674 86.7735 120.904 81.5643 123.036 74.9538C124.026 71.9226 124.224 67.6882 123.615 63.0121C123.204 59.9353 123.143 59.8439 121.696 60.2247C119.975 60.6817 116.593 62.0068 114.385 63.0883C110.805 64.8399 108.246 66.7896 106.403 69.1962C104.667 71.42 103.418 74.1922 102.778 77.1471C102.382 78.9901 102.412 84.3974 102.839 86.3013L103.144 87.6417L102.504 89.0583C101.118 92.1199 98.8483 95.7602 96.1523 99.2635C94.7509 101.061 90.0444 105.95 88.7192 106.956L88.0338 107.489L88.4298 106.956C90.6232 104.016 92.39 101.289 93.5933 98.9893C98.5589 89.5305 100.28 79.0511 98.8483 66.8962C98.3304 62.5247 98.2542 59.2347 98.5436 54.6347C98.9092 48.8467 98.8026 44.597 98.2542 41.9924C96.7463 34.9097 93.3344 29.7918 87.5159 25.8925C83.9974 23.5469 79.961 21.9932 74.8584 21.0336C72.6803 20.6224 66.8922 20.4548 64.5466 20.729C56.6566 21.6581 49.7262 25.0243 44.5017 30.4925C42.4911 32.5945 41.1203 34.5137 39.9017 36.966C38.0435 40.6977 37.3276 43.5613 36.7031 49.9129C35.9568 57.483 35.5607 59.1737 32.9713 65.7538C30.6104 71.7551 29.5899 75.1975 28.7979 79.8431C27.7774 85.8596 27.5793 90.1245 27.7469 103.498C27.8078 109.088 27.823 113.657 27.7774 113.657C27.6707 113.657 25.8886 111.723 24.3045 109.88C16.9019 101.274 12.1649 90.0483 10.6417 77.5584C10.3066 74.8471 10.2609 67.871 10.5503 65.2207C11.7689 54.1168 14.8457 45.4043 20.5728 36.7984C24.2284 31.2845 27.8383 27.37 33.1541 23.1204C44.7454 13.829 58.9413 9.32047 73.7922 10.2344ZM72.8021 23.9581C76.3206 24.3389 79.7173 25.3442 82.9312 26.9435L84.9722 27.9793L83.2206 28.1468C81.2252 28.3448 80.1286 28.6342 78.5749 29.3501C76.3511 30.3706 74.4319 31.9547 72.7869 34.1329C71.7968 35.4428 70.167 38.4739 69.8167 39.6315C69.7101 39.9666 69.5882 40.2408 69.5273 40.2408C69.4664 40.2408 69.3445 39.9818 69.2532 39.662C68.9637 38.7176 67.7604 36.3567 66.9227 35.1077C65.9479 33.6607 63.9678 31.5892 62.7492 30.721C60.2665 28.9541 56.9764 27.9031 53.9758 27.9031C53.3056 27.9031 52.7725 27.8422 52.7725 27.7813C52.7725 27.5832 56.1235 26.0296 57.6923 25.4813C62.2771 23.882 67.3949 23.3641 72.8021 23.9581ZM55.7884 31.1932C57.0831 31.4521 58.8804 32.168 60.1903 32.96C61.3022 33.615 63.4347 35.6408 64.2724 36.7984C66.1916 39.5096 67.4101 43.3633 67.4406 46.8665C67.471 48.4963 67.4558 48.5725 66.8922 49.8367C66.5724 50.5526 66.1611 51.4665 65.9783 51.8778L65.6585 52.6241L65.9783 53.1725C66.1459 53.4771 66.6333 54.2844 67.0598 54.985C67.4863 55.6857 68.0194 56.8128 68.2326 57.4983C68.7505 59.0671 68.979 59.4327 69.4359 59.4327C69.9081 59.4327 70.0757 59.2042 70.5021 57.9704C70.9439 56.6757 71.477 55.5791 72.4366 54.0864C72.8478 53.4466 73.1829 52.746 73.1829 52.5327C73.1829 52.3043 72.8174 51.4208 72.3909 50.5678C71.6293 49.0904 71.5836 48.9381 71.5379 47.6738C71.4465 45.5109 72.1167 42.2818 73.1982 39.6924C74.6604 36.1891 78.1484 32.762 81.4385 31.5892C82.7636 31.1322 85.3835 30.9494 86.7696 31.2388C89.5265 31.8176 92.3291 34.5137 93.7914 37.9865C94.9337 40.7282 95.4211 43.348 95.4211 46.7295C95.4211 50.1718 94.8576 52.7307 93.4715 55.5486C92.4357 57.6353 91.3848 59.0824 89.5722 60.8797C87.2722 63.1797 85.0027 64.779 79.7782 67.7949C71.3856 72.6385 66.1459 78.5789 61.1347 88.9212C57.5248 96.3695 55.4685 100.436 54.4328 102.158C51.2036 107.55 47.8831 111.951 44.0905 115.851C42.415 117.572 38.9422 120.664 38.6832 120.664C38.6375 120.664 39.1706 119.994 39.8713 119.171C42.9481 115.607 46.9692 110.383 50.0003 106.026C55.697 97.847 59.3526 89.3172 60.0989 82.402C60.3122 80.4676 60.1903 76.8577 59.8552 75.1518C59.1546 71.5876 57.3877 68.2214 54.8745 65.6624C53.6559 64.4287 52.1175 63.2101 49.1169 61.1082C45.9335 58.8843 43.3136 55.7923 42.0494 52.7612C40.0084 47.9023 40.8156 40.652 43.8772 36.2653C46.4818 32.5488 49.1778 30.9951 53.1228 30.9647C53.9453 30.9494 55.1486 31.0561 55.7884 31.1932ZM39.7494 55.3658C41.1203 58.2751 44.258 61.5499 48.4315 64.4591C53.8083 68.2061 55.8341 70.9478 56.9155 75.959C57.2049 77.3299 57.1592 82.006 56.8394 83.7729C55.7731 89.4391 52.6049 96.4609 48.0659 103.224C43.7249 109.652 38.3024 116.384 32.225 122.796L31.0065 124.091L30.9912 116.018C30.976 111.571 30.9151 104.854 30.8541 101.091C30.5495 84.2908 31.6005 77.1623 35.9111 66.5916C37.7389 62.0982 38.668 59.0214 39.0792 56.0969C39.1859 55.3354 39.3077 54.7109 39.3534 54.7109C39.3991 54.7109 39.5819 55.0003 39.7494 55.3658ZM95.6039 67.2008C95.9999 71.1458 96.0761 78.1067 95.7562 80.8332C94.7966 88.647 92.2073 95.8211 88.0947 101.944C85.9014 105.219 82.2458 109.21 79.2756 111.555C70.2737 118.699 56.6109 123.908 44.6236 124.777C42.2474 124.944 39.4296 124.975 38.5918 124.837L38.0283 124.746L39.5819 123.695C43.9229 120.771 47.9441 116.78 51.9348 111.449C55.8798 106.194 58.7738 101.213 62.4446 93.3232C66.3287 85.0067 68.5068 81.6252 72.8021 77.3147C76.2902 73.7961 78.1332 72.4101 83.2358 69.4856C86.5258 67.5969 88.7649 66.0737 90.6536 64.4591C92.0092 63.3168 93.9284 61.1996 94.6139 60.1029L95.0403 59.4327L95.147 61.6717C95.2079 62.9207 95.4059 65.4035 95.6039 67.2008ZM121.117 68.4194C121.056 71.6637 120.873 72.6538 119.944 74.8624C118.421 78.5332 114.781 82.1888 110.607 84.2451C108.977 85.0371 107.408 85.6769 107.485 85.5093C107.515 85.4484 108.627 83.7577 109.983 81.7471C115.177 73.9942 119.807 66.7439 120.584 65.1446L120.934 64.4439L121.056 64.9465C121.132 65.2207 121.163 66.7896 121.117 68.4194ZM117.111 65.632C111.216 74.5577 107.119 81.0007 105.992 83.1027L105.352 84.2908L105.261 83.4073C105.139 82.3107 105.367 79.5385 105.718 78.0153C106.083 76.4008 106.967 74.2988 107.926 72.7604C108.932 71.1306 110.896 69.0896 112.557 67.9624C113.836 67.079 117.035 65.2207 117.263 65.2207C117.324 65.2207 117.263 65.4035 117.111 65.632ZM74.4015 125.294C77.8743 125.965 80.7378 127.229 82.5047 128.874C83.114 129.453 83.5709 129.971 83.5252 130.016C83.3577 130.184 80.1742 130.854 78.0418 131.174C70.9743 132.21 63.5717 131.753 55.8036 129.803C53.8844 129.316 48.7666 127.671 48.858 127.564C48.8884 127.533 49.9394 127.351 51.1884 127.137C52.4374 126.939 54.844 126.498 56.5195 126.163C59.1241 125.645 60.83 125.386 64.0439 125.02C64.3333 124.99 66.4962 124.975 68.8419 125.005C71.9644 125.036 73.4571 125.127 74.4015 125.294Z" fill="#D9E8F5"/>
<path d="M49.1626 42.9825C47.4262 43.6831 49.5282 46.6838 52.5898 47.8718C53.7931 48.344 56.3215 48.4506 57.5857 48.0851C58.8957 47.7043 59.8857 47.1559 60.7844 46.303C62.2009 44.9626 62.4903 43.8659 61.5764 43.2262C61.0586 42.8606 60.6625 42.9215 59.9162 43.4851C58.0122 44.9321 56.8851 45.3434 54.9964 45.2367C53.5037 45.1606 52.2394 44.6427 50.8838 43.5613C49.9699 42.8149 49.7567 42.754 49.1626 42.9825Z" fill="#D9E8F5"/>
<path d="M87.4857 43.3634C85.3075 44.9475 84.1652 45.3435 82.185 45.2369C80.6771 45.1455 79.687 44.7647 78.3771 43.7594C77.448 43.0587 76.9149 42.9673 76.4122 43.4395C75.8791 43.9422 75.8487 44.4144 76.2904 45.1759C77.8288 47.7958 81.9566 49.1057 85.1552 47.9786C87.6075 47.1104 89.7704 44.9779 89.3439 43.8355C89.1764 43.4243 88.628 42.9826 88.2472 42.9826C88.1102 42.9826 87.7751 43.1501 87.4857 43.3634Z" fill="#D9E8F5"/>
</g>
<defs>
<clipPath id="clip0_2038_6395">
<rect width="139.907" height="141" fill="white"/>
</clipPath>
</defs>
</svg>
