<?xml version="1.0" encoding="UTF-8"?>
<svg id="Calque_2" data-name="Calque 2" xmlns="http://www.w3.org/2000/svg" viewBox="0 0 18.49 28.17">
  <defs>
    <style>
      .cls-1 {
        fill: #e8ab55;
      }
    </style>
  </defs>
  <g id="MENU_fond_gris" data-name="MENU fond gris">
    <path class="cls-1" d="M9.3,0h0s-.04,0-.05,0c-.02,0-.04,0-.05,0h0C-1.45-.02.08,11.33.08,11.33c.98,7.28,7.89,15.34,9.11,16.72v.12s.04-.04.05-.06c.02.02.04.05.05.06v-.12c1.23-1.38,8.13-9.45,9.11-16.72C18.41,11.33,19.94-.02,9.3,0ZM9.24,14.6c-2.72-.03-4.92-2.24-4.92-4.97s2.2-4.94,4.92-4.97c2.72.03,4.92,2.24,4.92,4.97s-2.2,4.94-4.92,4.97Z"/>
  </g>
</svg>