<?xml version="1.0" standalone="no"?>
<!DOCTYPE svg PUBLIC "-//W3C//DTD SVG 20010904//EN"
 "http://www.w3.org/TR/2001/REC-SVG-20010904/DTD/svg10.dtd">
<svg version="1.0" xmlns="http://www.w3.org/2000/svg"
 width="205.000000pt" height="161.000000pt" viewBox="0 0 205.000000 161.000000"
 preserveAspectRatio="xMidYMid meet">
<metadata>
Created by potrace 1.10, written by Peter Selinger 2001-2011
</metadata>
<g transform="translate(0.000000,161.000000) scale(0.100000,-0.100000)"
fill="#000000" stroke="none">
<path d="M456 1510 c-115 -20 -227 -107 -280 -220 -31 -65 -31 -65 -34 -267
l-3 -203 195 0 196 0 0 350 c0 274 -3 350 -12 349 -7 -1 -35 -5 -62 -9z"/>
<path d="M640 1170 l0 -350 94 0 93 0 5 72 c5 65 9 75 37 100 31 28 33 28 166
28 133 0 135 0 166 -28 28 -25 32 -35 37 -100 l5 -72 93 0 94 0 0 350 0 350
-395 0 -395 0 0 -350z"/>
<path d="M1540 1170 l0 -350 195 0 195 0 0 183 c0 127 -4 196 -14 228 -49 159
-167 260 -333 283 l-43 6 0 -350z"/>
<path d="M1008 909 c-16 -9 -18 -27 -18 -140 0 -127 1 -130 24 -140 17 -8 29
-8 45 0 20 11 21 19 21 141 0 118 -2 130 -19 140 -24 12 -31 12 -53 -1z"/>
<path d="M140 471 c0 -241 1 -249 23 -282 39 -59 73 -69 230 -69 l137 0 0 300
0 300 -195 0 -195 0 0 -249z"/>
<path d="M640 420 l0 -300 395 0 395 0 0 300 0 300 -94 0 -93 0 -5 -71 c-5
-60 -10 -75 -32 -98 -26 -26 -28 -26 -171 -26 -143 0 -145 0 -171 26 -22 23
-27 38 -32 98 l-5 71 -93 0 -94 0 0 -300z"/>
<path d="M1540 420 l0 -300 138 0 c156 0 190 10 229 69 22 33 23 41 23 282 l0
249 -195 0 -195 0 0 -300z"/>
</g>
</svg>
