<?xml version="1.0" standalone="no"?>
<!DOCTYPE svg PUBLIC "-//W3C//DTD SVG 20010904//EN"
 "http://www.w3.org/TR/2001/REC-SVG-20010904/DTD/svg10.dtd">
<svg version="1.0" xmlns="http://www.w3.org/2000/svg"
 width="1024.000000pt" height="1024.000000pt" viewBox="0 0 1024.000000 1024.000000"
 preserveAspectRatio="xMidYMid meet">

<g transform="translate(0.000000,1024.000000) scale(0.100000,-0.100000)"
fill="#000000" stroke="none">
<path d="M4910 9440 c-578 -28 -1128 -173 -1645 -435 -983 -497 -1717 -1355
-2069 -2418 -411 -1242 -227 -2610 497 -3697 145 -217 282 -384 496 -602 l154
-157 -8 -299 c-6 -273 -6 -299 10 -312 24 -20 154 -28 590 -36 l370 -7 66 -33
c94 -47 287 -126 409 -169 796 -276 1663 -305 2445 -80 852 245 1565 723 2132
1432 183 228 327 458 468 744 219 445 347 880 412 1399 14 115 18 217 18 495
-1 306 -3 371 -23 515 -125 922 -478 1677 -1104 2360 -319 349 -733 662 -1155
874 -408 204 -875 343 -1349 400 -117 14 -488 38 -539 34 -11 0 -90 -4 -175
-8z m450 -210 c453 -28 861 -123 1269 -295 249 -105 412 -193 651 -351 415
-273 789 -645 1073 -1064 369 -545 584 -1126 674 -1815 25 -197 25 -697 -1
-905 -79 -645 -294 -1248 -621 -1745 -168 -254 -323 -441 -557 -670 -375 -368
-767 -632 -1223 -823 -135 -57 -349 -132 -374 -132 -9 0 -24 12 -33 28 -31 52
-129 152 -210 212 -184 139 -432 221 -758 250 -63 5 -119 10 -125 10 -5 0 53
29 130 63 656 296 1094 589 1490 999 267 275 492 598 645 921 64 135 66 138
105 148 549 144 958 486 1098 920 65 199 78 477 38 784 -27 202 -31 208 -126
183 -113 -30 -335 -117 -480 -188 -235 -115 -403 -243 -524 -401 -114 -146
-196 -328 -238 -522 -26 -121 -24 -476 4 -601 l20 -88 -42 -93 c-91 -201 -240
-440 -417 -670 -92 -118 -401 -439 -488 -505 l-45 -35 26 35 c144 193 260 372
339 523 326 621 439 1309 345 2107 -34 287 -39 503 -20 805 24 380 17 659 -19
830 -99 465 -323 801 -705 1057 -231 154 -496 256 -831 319 -143 27 -523 38
-677 20 -518 -61 -973 -282 -1316 -641 -132 -138 -222 -264 -302 -425 -122
-245 -169 -433 -210 -850 -49 -497 -75 -608 -245 -1040 -155 -394 -222 -620
-274 -925 -67 -395 -80 -675 -69 -1553 4 -367 5 -667 2 -667 -7 0 -124 127
-228 248 -486 565 -797 1302 -897 2122 -22 178 -25 636 -6 810 80 729 282
1301 658 1866 240 362 477 619 826 898 761 610 1693 906 2668 846z m-65 -901
c231 -25 454 -91 665 -196 l134 -68 -115 -11 c-131 -13 -203 -32 -305 -79
-146 -67 -272 -171 -380 -314 -65 -86 -172 -285 -195 -361 -7 -22 -15 -40 -19
-40 -4 0 -12 17 -18 38 -19 62 -98 217 -153 299 -64 95 -194 231 -274 288
-163 116 -379 185 -576 185 -44 0 -79 4 -79 8 0 13 220 115 323 151 301 105
637 139 992 100z m-1117 -475 c85 -17 203 -64 289 -116 73 -43 213 -176 268
-252 126 -178 206 -431 208 -661 2 -107 1 -112 -36 -195 -21 -47 -48 -107 -60
-134 l-21 -49 21 -36 c11 -20 43 -73 71 -119 28 -46 63 -120 77 -165 34 -103
49 -127 79 -127 31 0 42 15 70 96 29 85 64 157 127 255 27 42 49 88 49 102 0
15 -24 73 -52 129 -50 97 -53 107 -56 190 -6 142 38 354 109 524 96 230 325
455 541 532 87 30 259 42 350 23 181 -38 365 -215 461 -443 75 -180 107 -352
107 -574 0 -226 -37 -394 -128 -579 -68 -137 -137 -232 -256 -350 -151 -151
-300 -256 -643 -454 -551 -318 -895 -708 -1224 -1387 -237 -489 -372 -756
-440 -869 -212 -354 -430 -643 -679 -899 -110 -113 -338 -316 -355 -316 -3 0
32 44 78 98 202 234 466 577 665 863 374 537 614 1097 663 1551 14 127 6 364
-16 476 -46 234 -162 455 -327 623 -80 81 -181 161 -378 299 -209 146 -381
349 -464 548 -134 319 -81 795 120 1083 171 244 348 346 607 348 54 1 133 -6
175 -15z m-1053 -1587 c90 -191 296 -406 570 -597 353 -246 486 -426 557 -755
19 -90 16 -397 -5 -513 -70 -372 -278 -833 -576 -1277 -285 -422 -641 -864
-1040 -1285 l-80 -85 -1 530 c-1 292 -5 733 -9 980 -20 1103 49 1571 332 2265
120 295 181 497 208 689 7 50 15 91 18 91 3 0 15 -19 26 -43z m3667 -777 c26
-259 31 -716 10 -895 -63 -513 -233 -984 -503 -1386 -144 -215 -384 -477 -579
-631 -591 -469 -1488 -811 -2275 -868 -156 -11 -341 -13 -396 -4 l-37 6 102
69 c285 192 549 454 811 804 259 345 449 672 690 1190 255 546 398 768 680
1051 229 231 350 322 685 514 216 124 363 224 487 330 89 75 215 214 260 286
l28 44 7 -147 c4 -82 17 -245 30 -363z m1675 -80 c-4 -213 -16 -278 -77 -423
-100 -241 -339 -481 -613 -616 -107 -52 -210 -94 -205 -83 2 4 75 115 164 247
341 509 645 985 696 1090 l23 46 8 -33 c5 -18 7 -121 4 -228z m-263 183 c-387
-586 -656 -1009 -730 -1147 l-42 -78 -6 58 c-8 72 7 254 30 354 24 106 82 244
145 345 66 107 195 241 304 315 84 58 294 180 309 180 4 0 0 -12 -10 -27z
m-2804 -3917 c228 -44 416 -127 532 -235 40 -38 70 -72 67 -75 -11 -11 -220
-55 -360 -76 -464 -68 -950 -38 -1460 90 -126 32 -462 140 -456 147 2 2 71 14
153 28 82 13 240 42 350 64 171 34 283 51 494 75 19 2 161 3 315 1 205 -2 303
-8 365 -19z"/>
<path d="M3743 7080 c-114 -46 24 -243 225 -321 79 -31 245 -38 328 -14 86 25
151 61 210 117 93 88 112 160 52 202 -34 24 -60 20 -109 -17 -125 -95 -199
-122 -323 -115 -98 5 -181 39 -270 110 -60 49 -74 53 -113 38z"/>
<path d="M6259 7055 c-143 -104 -218 -130 -348 -123 -99 6 -164 31 -250 97
-61 46 -96 52 -129 21 -35 -33 -37 -64 -8 -114 101 -172 372 -258 582 -184
161 57 303 197 275 272 -11 27 -47 56 -72 56 -9 0 -31 -11 -50 -25z"/>
</g>
</svg>
