<svg xmlns="http://www.w3.org/2000/svg" xml:space="preserve" viewBox="0 0 355.01 449.12"><path d="M355.01 295.56c-.14.04-.27.07-.41.11-3.78.98-7.58 1.79-11.45 2.22-1.66.18-3.23.92-4.98.89-1.68-.03-3.37.34-5.06.47-1.69.14-3.38.2-5.07.3-1.86.12-3.7.29-5.55-.1-.8-.17-1.68.02-2.53.05-1.86.05-3.72.1-5.46.15-.74-.34-1.35-.61-2.02-.91l-1.7.31c-2.7-1.12-5.73-1.99-8.86-2.23-.23-.38-.4-.67-.57-.95-1.53-.14-2.54-1.63-4.3-1.53-.5-.5-1.06-1.05-1.62-1.6.1-.11.2-.23.3-.23 1.18.01 2.31.28 3.32.86.75.43 1.51.79 2.36.75 2.92-.13 5.61.89 9.3 1.47 4.19-.14 9.26-.49 14.33-.82 2.53-.16 5.07-.43 7.6-.62 2.02-.15 4.01-.26 6.01-.88 1.59-.5 3.35-.44 5.04-.6.84-.08 1.69-.08 2.53-.13 1.18-.07 2.37-.1 3.54-.27 1.16-.17 2.3-.65 3.46-.75.6-.05 1.19-.13 1.79-.21v-2.17c-5.14.72-10.27 1.46-15.44 1.82-1.01.07-1.98.23-2.98.5-1.46.4-3.05.68-4.53.54-2.56-.25-5.04.28-7.56.44-.68.04-1.35.2-2.02.28-1.66.18-3.29-.36-5.01.14-1.45.42-3.02.36-4.58.51-1.12-.19-2.34-.23-3.42-.64-1.31-.49-2.74 0-3.97-.58-1.11-.52-2.36-.14-3.51-.59-.38-.25-.8-.52-1.13-.74-1.71-.46-3.32-.91-4.94-1.34-.65-.17-1.33-.27-1.84-.74-.89-.82-2.03-1.12-3.1-1.57-.91-.39-1.71-1.03-2.58-1.52-.29-.16-.64-.21-.92-.29-1.7-1.42-3.37-2.82-5.04-4.22-1.03-.87-1.96-1.81-2.5-3.09-.62-1.46-2.11-2.13-3.33-3.75-.47-1.05-1.36-2.52-1.77-4.12-.53-2.04-2.45-3.19-2.93-5.21-.07-.28-.45-.48-.68-.73-.57-.61-1.26-1.15-1.68-1.86-.44-.72-.71-1.5-1.66-1.68-1.04-2.43-3.34-3.7-5.01-5.56-.78-.87-1.71-1.57-2.22-2.69-.26-.59-.79-1.08-1.27-1.53-1.09-1.04-2.23-2.02-3.42-3.09-.56-.21-1.19-.44-2.1-.79-.65-.59-1.5-1.39-2.4-2.14-.77-.64-1.58-1.25-2.61-1.45-.32-.06-.67-.19-.91-.4-1.04-.87-2.17-1.49-3.53-1.82-.77-.19-1.4-.9-2.03-1.33-1.51-.44-2.98-.81-4.41-1.28-2.25-.73-4.61-.77-6.93-1.08-1.33-.18-2.69-.22-4.04-.29-.84-.05-1.69-.07-2.48.37-.29.16-.64.34-.95.32-2.28-.12-4.31.81-6.4 1.59-.97.36-1.82.89-2.72 1.36-1.51.8-2.84 1.88-4.4 2.61-1.35.63-2.49 1.75-4.18 2.98l-3.04 3.39c-1.08 2.74-2.29 5.37-4.09 7.49-.63 2.48-1.54 4.71-1.77 7.11-.08.83-.37 1.67-.7 2.45-1.31 3.05-1.65 6.22-1.53 9.46.08 2.37.09 4.73.89 7.01.33.93.29 2 .44 3.16.26.64.57 1.42.91 2.27.28.32.58.73.94 1.08.84.82 1.68 1.61 2.09 2.78.39 1.11 1.69 1.64 1.89 2.92-.2.23-.42.46-.64.72l-6.19-2.15c-2.36-3.02-4.29-6.3-6.21-10.17-.35-1.82-.23-4.23-1.11-6.47-.3-.76-.29-1.66-.31-2.51-.08-2.89-.12-5.77-.17-8.58.35-1.58.82-3 1.53-4.4.76-1.51.68-3.29 1.58-4.83.76-1.3 1.14-2.83 1.81-4.6.63-.79 1.49-1.86 2.34-2.94.32-.4.76-.77.91-1.23.66-2.06 2.22-3.43 3.63-4.92.35-.38.69-.77.92-1.02 1.29-.84 2.36-1.74 3.58-2.29 1.13-.5 2.05-1.21 2.97-1.97 2.37-1.37 5.09-1.99 7.31-3.67 2.12-.65 4.41-.27 6.51-1.14.15-.06.36-.08.5-.03 1.79.66 3.7-.06 5.53.36.81.18 1.66.29 2.49.25 1.38-.06 2.69.23 3.99.55.81.2 1.62.44 2.41.7.94.31 1.7 1.02 2.78 1.09.82.06 1.65.36 2.4.7.76.34 1.4.91 2.14 1.3.88.46 1.92.5 2.78 1.12.66.47 1.55.61 2.28 1.02.58.32 1.09.78 1.58 1.24.77.73 1.74.97 2.85 1.28 1.08.84 2.27 1.77 3.31 2.57.67.21 1.15.37 1.66.53 1.29 1.03 2.66 2.01 3.9 3.13 1.24 1.11 2.37 2.36 3.55 3.55.81 1.92 2.41 3.17 3.83 4.58.47.47.97.98 1.2 1.59.44 1.15 1.16 2.04 2.03 2.83 1.15 1.04 1.65 2.51 2.5 3.75.94 1.36 1.56 2.95 2.33 4.46 1.66 1.62 3.42 3.19 4.97 4.95.76.87 1.51 1.62 2.49 2.26 1.25.82 2.32 1.92 3.47 2.9 1.53 1.31 3.05 2.62 4.46 3.84 3.72 1.51 7.46 2.44 11.24 3.16 3.13.59 6.32.87 9.49 1.24 1.5.18 3.02.33 4.53.34 1.52.01 3.05-.2 4.57-.27 3.21-.16 6.42-.49 9.62-.09.49.06 1.06.05 1.51-.14 1.47-.6 2.98-.61 4.5-.73 2.19-.18 4.36-.56 6.53-1.01 2.82-.58 5.61-1.34 8.38-1.69.51-.35.94-.64 1.64-1.13.38-.07.79-.13 1.21-.19v-2.14c-.82.22-1.64.44-2.45.7-.98.3-1.95.54-2.8 1.19-.38.29-.94.34-1.43.47-.98.27-1.96.53-3.09.83-1.16-.15-2.46-.43-3.8.25-.58.29-1.32.33-2 .37-3.56.26-7.11.49-10.67.71-2.37.14-4.76.1-7.12.39-3.24.4-6.42-.13-9.63-.1-.33 0-.69 0-.99-.11-2.26-.85-4.66-.68-6.72-.84-4.32-1.11-8.33-2.32-12.39-3.96-1-.64-1.66-1.81-2.45-3.06-.5-.21-1.12-.47-1.8-.76-.94-.84-1.94-1.74-3.04-2.72-.26-.48-.59-1.06-.94-1.69-.54-.76-2-.55-2.12-1.86-1.02-1.11-2.04-2.22-3.09-3.35-.34-.91-.7-1.84-1.13-2.97 2.01.77 3.02 2.26 3.92 3.83 2.45.9 4.16 2.81 6.18 4.34 2.98 1 6.06 1.85 8.67 3.74 1.51.36 2.61 1.53 3.98 2.04 1.87.69 3.77 1.34 5.63 2.07 1.72.67 3.64.58 5.43 1 1.64.38 3.24.9 4.88 1.25 1.15.24 2.34.43 3.51.38 1.71-.07 3.37.03 5.05.31.82.14 1.69.11 2.54.05 3.73-.27 7.45-.57 11.18-.87 1.01-.08 2-.19 2.99-.56.78-.29 1.67-.43 2.5-.41 2.08.05 4.07-.54 5.97-1.21 1.72-.61 3.51-.89 5.24-1.46v-1.98c-.83.28-1.66.65-2.5 1.1-1.49.35-3.26.04-4.8.97-.28.17-.65.21-.98.24-4.38.34-8.67 1.55-13.08 1.6-1.68.02-3.37.27-5.05.37-1.01.06-2.09.24-3.03-.02-2.02-.56-4.04-.01-6.34-.1-2-.48-4.25-1.12-6.62-1.27-.4-.03-.76-.46-1.13-.76.08-.11.16-.22.26-.26 1.15-.36 2.38-.47 3.48-.19 1.84.48 3.69.31 5.53.23 3.55-.15 7.09-.47 10.64-.69 3.38-.21 6.71-.76 10-1.64 1.64-.44 3.31-.74 5.15-1.14 1.48-.77 3.08-1.72 4.9-2.19 1.15-.3 2.28-.69 3.43-.94.05-.01.1-.03.16-.04v-2.28c-.61.21-1.2.47-1.73.87-1.03.11-2.04.23-2.7.3-2.48 1.13-4.64 2.1-6.62 3-2.54.44-4.93.43-7.22 1.29-.76.29-1.67.16-2.52.24-4.23.41-8.46.74-12.7.81-1.02.02-2.07.25-3.04.07-2.16-.41-4.36-.15-6.54-.55-4.15-.76-5.91-1.22-9.37-3.25-.57-.33-1.18-.59-1.77-.88l-.51-.87c-1.56-.35-2.7-1.22-3.4-2.69 4.65 1.06 4.65 1.06 7.04 2.53 1.34.61 3 .2 4.32 1.12.38.26.96.28 1.46.32 1.34.11 2.72.41 4.03.2 1.87-.3 3.69.15 5.53-.09.68-.09 1.36-.09 2.03-.21 1.5-.29 2.98-.72 4.49-.92 1.51-.19 3.04-.14 4.56-.26.67-.06 1.4-.15 1.97-.47.8-.44 1.61-.53 2.45-.56 2.06-.09 4.05-.69 5.95-1.38 2.26-.82 4.59-1.23 6.87-1.9 2.44-.72 4.95-1.13 7.42-1.74v-2.11c-1 .28-2.01.52-3.02.73-.22.05-.48-.09-.72-.19.31-.31.6-.68.97-.83.91-.36 1.84-.66 2.78-.94v-6.07c-.15.01-.29.04-.44.05-3.39.2-6.78.28-10.16.68-.99.12-2.02-.07-3.03-.13-.67-.04-1.34-.11-2.02-.15-1.85-.1-3.68.1-5.54-.33-1.78-.41-3.64-.59-5.45-.91-1.79-.32-3.61-.85-5.52-.59-.65.09-1.37-.02-2.01-.2-3.71-1.04-7.53-1.71-11.06-3.35-1.66-.77-3.38-1.43-5.2-1.85-1.3-.3-2.6-.61-3.77-1.34-1.12-.7-2.56-.76-3.59-1.73-.86-.81-2.25-.65-3.15-1.49-.73-.69-1.56-1.26-2.44-1.96-.53-.19-1.16-.42-1.93-.7-1.05-.87-2.2-1.84-3.36-2.81-.39-.32-.74-.76-1.19-.91-3.48-1.19-5.65-4.12-8.42-6.24-.53-.41-1-.89-1.17-1.04-1.14-.58-1.99-.82-2.61-1.34-1.92-1.61-3.76-3.33-5.55-4.94-.45-1.04-.84-1.95-1.26-2.92.36.03.68-.04.87.09.83.57 1.56 1.29 2.43 1.79.86.5 1.87.73 2.73 1.23.72.42 1.38.92 2.18 1.22.94.35 1.79.92 2.74 1.22.99.31 1.83.82 2.63 1.43.27.2.49.53.79.61 2.92.77 4.77 3 6.85 4.92.12.11.27.2.53.39.63.26 1.46.47 2.16.91.99.61 1.83 1.47 3.05 1.69.31.06.61.28.86.49 1.17.95 2.35 1.86 3.75 2.48 2.9 1.28 5.74 2.7 8.89 3.38.27.19.55.38.82.56.28.19.54.42.84.55 1.53.65 2.88 1.73 4.43 2.24 1.56.52 2.9 1.71 4.74 1.48.63-.08 1.3.25 1.94.43 1.29.36 2.67.58 3.84 1.18 1.29.66 2.66.36 3.94.7 1.78.48 3.54.96 5.41 1.13 1.51.14 2.99.41 4.53.3 2.04-.15 4.02.35 6.02.58 2.51.28 4.98.72 7.53.67 1.46-.03 2.87.57 4.37.43v-2.24c-.87.02-1.73-.06-2.61-.23-1.47-.27-3.06.01-4.5-.33-1.47-.35-3.06.2-4.43-.6-1.34-.01-2.69-.03-4.07-.04q-.555-.45-1.14-.9c.12-.12.25-.31.37-.32 1.5-.08 3.04-.32 4.5-.13 1.31.16 2.65.25 3.94.47 1.99.35 4.01.15 6 .57.63.13 1.28.12 1.95.08v-2.87c-1.09-.19-2.17-.41-3.25-.6-3.14-.55-6.21-1.45-9.3-2.19-1.95-.47-3.84-1.13-5.9-1.27-1.48-.1-2.98-.58-4.36-1.13-2.96-1.18-6.06-1.89-9.12-2.72-1.94-.53-3.95-.91-5.76-1.72-1.84-.83-3.92-1.01-5.62-2.14-3.13-.66-5.87-2.41-9.06-2.99-.54-.36-1.1-.73-1.65-1.11-1.09-.76-2.55-.75-3.56-1.78-.94-.96-2.61-.7-3.56-1.76-1.59-.2-2.71-1.27-3.91-2.16-.95-.7-1.83-1.48-2.89-1.51-1.34-1.09-2.54-2.02-3.68-3-.77-.67-1.55-1.26-2.59-1.47-.32-.06-.63-.24-.89-.43-1.36-.96-2.72-1.87-4.25-2.6-1.49-.7-2.67-1.95-4.29-2.56-.76-.28-1.36-.97-2.01-1.49-1.04-.84-2.07-1.7-2.95-2.43-.67-.23-1.15-.39-1.69-.58-1.39-1.11-2.84-2.25-4.23-3.36-.55-.16-1.03-.31-1.79-.54-.67-.6-1.51-1.41-2.41-2.15-.77-.64-1.61-1.16-2.56-1.57-1.22-.53-2.3-1.4-3.54-1.83-1.32-.46-2.33-1.29-3.45-2.01-.41-.27-.9-.43-1.36-.6-1.25-.48-2.24-1.28-3.07-2.3.23-.23.5-.33.8-.27 2.16.46 4.02 1.65 6.05 2.41.88.86 2.08 1.03 3.17 1.44.94.36 1.94.43 2.87.91 1.78.92 3.69 1.61 4.66 3.01.92.25 1.41.38 1.97.53.75.55 1.52 1.21 2.39 1.72.85.5 1.78.87 2.7 1.27 1.53.66 3.02 1.36 4.34 2.44 1.15.94 2.71 1.23 3.97 2.1 1.21.83 2.7 1.25 4.07 1.84.46.2.97.32 1.37.6 1.1.76 2.07 1.76 3.25 2.35 1.06.52 2.07 1.06 2.99 1.79.91.73 1.84 1.44 3 1.81 1.31.42 2.22 1.48 3.27 2.3 1.18.93 2.26 1.95 3.77 2.45.77.25 1.43.85 2.07 1.39 1.28 1.08 2.51 2.23 3.43 3.06 1.72.87 3.34 1.16 3.75 2.84.37.18.66.31.94.47 2.34 1.3 4.91 2.1 7.32 3.24.3.14.63.32.94.32 1.58-.04 2.91.67 4.33 1.16 2.54.88 5.22 1.32 7.87 1.66 2.18.28 4.3.77 6.43 1.22.98.2 1.92.59 2.97.55.49-.02 1.07.03 1.47.27 1.62.97 3.5 1.13 5.26 1.65 1.77.52 3.54 1.06 5.41 1.12 1.8 1.11 3.92 1.02 5.9 1.49v-4.69c-.52-.12-1.03-.28-1.55-.4-1.75-1.46-4.06-1.46-6.1-2.13-2.05-.67-4.25-.94-6.26-1.77-1.99-.82-3.9-1.8-5.92-2.55-.85-.91-2.26-.67-3.16-1.44-.78-.67-1.67-1.07-2.61-1.45-.6-.24-1.13-.7-1.62-1.14-.9-.82-2.01-1.18-3.14-1.47-1.55-1.29-3.08-2.57-4.5-3.76-1.52-.63-3.04-.94-3.97-2.23.12-.12.26-.31.35-.3 2.41.45 2.79.61 4.93 2.05 1.73.58 3.59.79 5.17 1.82.54.35 1.26.45 1.91.6 3.27.78 6.24 2.32 9.38 3.41 1.45.5 2.4 1.87 3.99 2.02 6.95 3.18 7.47 3.42 13.1 4.86v-2.51c-.07-.01-.14-.03-.21-.04-1.3-.21-2.57-.63-3.79-1.24-1.17-.59-2.61-.64-3.82-1.17-1.21-.52-2.14-1.62-3.55-1.79-7.65-3.87-7.98-4-14.8-5.89-.49-.14-.98-.24-1.49-.36-.66-.48-1.34-.98-1.99-1.45-.99-.28-1.96-.56-2.92-.84-.48-.14-1.05-.17-1.42-.45-1.64-1.26-3.73-1.46-5.34-2.29-1.77-.91-2.95-2.42-4.75-3.07-1.56-.56-2.7-1.97-4.42-2.27-1.7-1.37-4.04-1.66-5.57-3.3-1.66-.77-3.32-1.54-5.69-2.63-.57-.45-1.74-1.38-2.84-2.25-.75-.24-1.38-.44-2.05-.65-.5-.4-1.02-.83-1.55-1.23-.66-.51-1.34-1-2.01-1.5-1.65-.1-2.48-1.78-3.96-2.06-1.56-.3-2.58-1.55-4.04-1.97-1.32-.39-2.22-1.51-3.42-2.05-1.53-.7-2.99-1.45-4.23-2.58-.12-.11-.26-.25-.41-.28-1.9-.3-3.19-1.78-4.94-2.4-1.41-.49-2.74-1.23-4.08-1.89-1.19-.59-2.39-1.17-3.51-1.88-.99-.62-1.87-1.41-2.69-2.04-1.26-.38-2.45-.57-3.48-1.08-2.27-1.14-4.74-1.58-7.14-2.29-1.43-.43-3.02-.45-4.24-1.47-3.57-.88-7.01-2.2-10.68-2.77-2.48-.38-4.93-1.02-7.35-1.67-1.95-.53-3.93-.86-5.93-1.12-1.68-.23-3.36-.34-5.04-.16-2.52.27-5.08.1-7.56.92-.44.15-.98-.11-1.49-.12-.67-.02-1.41-.15-2.01.08-1.3.52-2.63.65-3.98.76-2.26.17-6.08 1.04-8.37 1.91-2.22.85-4.5 1.53-6.52 2.89-.55.37-1.23.58-1.88.72-1.68.38-3.18 1.12-4.62 2.08-.98.65-2.04 1.21-3.06 1.8s-2.09 1.12-3.13 1.7c-.44.25-1 .35-1.37.69-1.66 1.52-3.64 2.51-5.53 3.65s-3.78 2.27-5.71 3.34c-.44.25-.91.49-1.28.83-.77.72-1.62 1.21-2.62 1.53-1.95.63-3.49 2.08-5.34 2.94-.75.35-1.41.94-2.24 1.19-1.97.61-3.51 2.08-5.38 2.89-1.38 1.34-3.11 2.1-4.84 2.81-1 .41-1.69 1.14-2.51 1.83-1.62.84-3.45 1.36-4.91 2.61-3.17 1.64-6.43 3.07-9.67 4.55-.28.13-.56-.01-.81-.26.76-1.13 1.7-2.03 2.95-2.67a86 86 0 0 0 5.78-3.25c1.73-1.07 3.49-2.09 5.21-3.18 1.01-.65 2.01-1.24 2.87-2.1.47-.47 1.06-.91 1.67-1.14 1.33-.51 1.99-1.94 3.29-2.4 1.2-.42 1.96-1.34 2.82-2.17.25-.24.47-.57.76-.68 2-.76 3.34-2.34 4.56-3.72 1.22-.72 2.31-1.15 3.19-2.05 1.68-1.71 3.97-2.68 5.42-4.41 2.8-1.27 5.37-2.56 7.84-4.1 1.73-1.07 3.49-2.12 5.42-2.83 1.43-.53 2.85-1.13 4.13-2.01.28-.19.58-.38.9-.47 1.31-.37 2.69-.54 3.71-1.6 2.38-.33 4.49-1.53 6.75-2.23.64-.2 1.34-.24 1.95-.34.49-.33.91-.61 1.44-.96.85-.46 1.91.42 2.85-.28 4.56-.42 9.12-.86 13.69-1.25 1.01-.09 2.05-.15 3.05-.03 3.04.36 6.08.16 9.12.01 1.19-.06 2.37-.12 3.52.21.32.09.67.11 1 .11 5.65-.06 10.94 1.63 16.31 2.96 1.64.41 3.06 1.32 4.72 1.7 1.46.33 2.8 1.16 4.22 1.55 1.51.42 2.47 1.68 4.02 2.01 1.46.3 2.86.9 4.21 1.6 1.32.69 2.84.99 4.18 1.65 1.48.73 2.9 1.58 4.41 2.28.89.42 1.57 1.29 2.46 1.73s1.84.76 2.76 1.19c2.41 1.13 4.99 1.95 7.08 3.69 1.42.52 2.8 1.12 3.99 2.07 2.01.41 3.34 2.26 5.43 2.5 1.71 1.05 3.57 1.82 5.47 2.45 1 .33 1.63 1.18 2.57 1.52 1.26.45 2.55.83 3.45 1.12 2.12 1.09 3.38 2.83 5.46 3.27 1.55 1.31 3.64 1.66 5.27 2.82 1.93.18 3.08 2.03 5 2.23 1.57 1.02 3.37 1.45 4.95 1.84 1.05.61 1.91 1.13 2.79 1.61.58.32 1.23.53 1.78.88 1.13.72 2.13 1.67 3.32 2.23 3.47 1.64 6.7 3.72 10.27 5.17.62.25 1.35.35 1.84.74 1.58 1.26 3.72 1.57 5.02 2.97 2.7.89 5.39 1.26 7.8 2.5 1.84.48 3.68.99 5.52 1.44v-2.76c-.72-.19-1.43-.42-2.16-.58-1.31-.28-2.6-.7-3.89-1.07-2.25-.63-4.45-1.39-6.41-2.7-.55-.36-1.2-.57-1.8-.86-3.16-1.5-6.27-3.09-9.5-4.44-.8-.33-1.42-.87-2.13-1.3-.56-.34-1.2-.55-1.87-.85l-.47-.8c-1.96-.91-4.05-1.56-5.8-2.87-2.38-.79-4.62-1.88-6.87-2.95-1.23-.08-2.03-1.18-3.23-1.33-1.22-.15-1.93-1.31-3.17-1.46-.47-.06-.93-.36-1.35-.62-1.13-.69-2.05-1.76-3.49-1.9-.16-.02-.3-.13-.45-.21-1.15-.67-1.95-1.86-3.36-2.14-1.33-.27-2.3-1.4-3.71-1.5-1.32-1.06-3.07-1.28-4.46-2.25-1.22-.85-2.7-1.26-3.96-2.11-1.08-.72-2.5-.91-3.63-1.63-1.64-.13-2.49-1.64-3.91-2.16-1.41-.52-2.79-1.1-4.18-1.65-1.9-1.73-4.35-2.42-6.61-3.47-.45-.21-.97-.35-1.34-.67-1.8-1.57-3.99-2.36-6.17-3.21-.31-.12-.64-.23-.88-.44-1.57-1.33-3.61-1.67-5.39-2.56-1.93-.97-4.07-1.54-5.71-2.85-1.38-.41-2.66-.8-3.95-1.17-1.45-.42-3.01-.6-4.32-1.27-1.22-.62-2.54-.83-3.79-1.29-1.57-.57-3.21-.99-4.85-1.36-1.63-.37-3.29-.73-4.95-.84-3.68-.25-7.31-1.09-11.03-.93-1.5.07-3-.67-4.5.06-1.52-.03-3.03-.11-4.55-.09-1.35.02-2.71.14-4.06.21-1.52.07-3.05.09-4.57.22-1.01.08-2.05.18-3.01.48-1.17.37-2.3.6-3.49.31-.51-.12-.98.03-1.48.16-1.32.33-2.66.54-4.57.91-2.04.61-4.45 2-7.14 2.52-.48.09-.93.41-1.37.65-.29.16-.53.47-.83.57-1.46.47-2.95.83-4.39 1.34-1.28.45-2.21 1.59-3.58 1.91-.49.11-.95.41-1.45.48-1.92.27-3.31 1.68-5.01 2.41-.89 1.13-2.2 1.58-3.43 2.17-1.22.59-2.53 1.04-3.44 2.17-.46.57-1.25.52-1.83.86-1.03.6-1.95 1.35-2.99 1.95-1.16.67-2 1.9-3.42 2.2-.75.71-1.4 1.57-2.26 2.1-1.76 1.08-3.27 2.47-4.94 3.64-.99.69-1.96 1.37-2.79 2.23-1.22 1.26-2.94 1.68-4.3 2.73-.66.51-1.52.78-2.06 1.48-1.3 1.69-3.21 2.55-4.93 3.61-2.03 1.24-4.11 2.41-6.14 3.66-.09.06-.27-.02-.41-.04-.34-.65-.2-1.3.11-2 1.25-.78 2.59-1.52 3.66-2.67.45-.49 1.04-.89 1.64-1.2.97-.5 1.66-1.22 1.98-2.24.38-1.22 1.13-2.22 2.2-2.74 1.29-.62 2.26-1.53 3.22-2.51.72-.74 1.46-1.45 2.02-2.01.8-.46 1.52-.68 1.96-1.16 1.31-1.44 2.99-2.32 4.64-3.15 1.52-.76 2.85-1.87 4.48-2.42 1.16-1.1 2.81-1.21 4.08-2.06 2.69-1.79 5.65-3.1 8.34-4.88 1.7-1.13 3.54-2 5.17-3.29 1.59-1.26 3.48-2.14 5.21-3.22.43-.27.8-.65 1.43-1.17 1.99-.65 4.41-.97 6.31-2.58 2.21-.9 4.42-1.81 6.87-2.81 1.78-.11 3.72-.68 5.66-1.38 2.72-.99 5.54-1.69 8.41-2.02 2.19-.25 4.38-.31 6.56-.82.8-.19 1.7.18 2.51.01.84-.18 1.62-.43 2.45-.05.14.07.33.07.5.06 4.91-.3 9.78.11 14.67.26 1.7-.42 3.33.24 5.01.24.67 0 1.33.26 2 .24 2.94-.09 5.63.81 8.32 1.79 1.1.4 2.23.71 3.35 1.03 1.77.5 3.56.98 5.34 1.46 1.35 1.12 3.15 1.08 4.68 1.71 1.7.7 3.45 1.27 5.15 1.95 2.47.99 5.15 1.48 7.45 2.88 1.6.1 2.51 1.61 4.07 1.88 1.37.24 2.27 1.37 3.28 2.24.52.44 1.07.78 1.74.94 1.18.28 1.91 1.37 2.99 1.78.94.36 1.85.65 2.69 1.28.92.68 2.09 1.02 3.06 1.64.99.62 1.78 1.63 2.84 2.06 1.6.64 2.86 1.68 4.23 2.64 1.08.76 2.37 1.21 3.48 1.93.97.64 1.84 1.4 2.97 1.83 1.23.47 2.36 1.22 3.55 1.79 2.54 1.22 4.94 2.74 7.68 3.57.61.19 1.06.82 1.65 1.14.58.31 1.25.46 1.63.6 1.6 1.08 2.94 2.07 4.38 2.93 1.28.77 2.66 1.39 3.99 2.09q.66.345 1.32.72c1.6.9 2.71 2.53 4.5 3.14 1.65.56 2.67 2.01 5.14 3.13.28.09 1.7.27 2.8.96 1.3.81 2.9.74 4.14 1.72 1.03.81 2.54.84 3.55 1.81.23.22.57.35.89.44 1.78.5 3.47 1.22 5.15 1.97 2.75 1.23 5.67 1.93 8.68 2.2v-2.41c-.68-.13-1.36-.26-2.04-.42-.16-.04-.31-.15-.47-.18-3.57-.71-7.06-1.93-9.83-3.44-2.07-1.13-6.18-2.94-8.24-3.57-1.61-.49-3.16-1.06-4.52-2.1-.51-.39-1.23-.49-2.01-.78-.39-.35-.86-.84-1.39-1.23-1.34-.98-2.47-2.3-4.23-2.61-1.54-.98-2.93-2.19-4.73-2.76-.6-.19-1.1-.74-1.6-1.19-.72-.63-1.4-1.31-2.09-1.97.24-.23.5-.32.77-.22 1.42.55 2.26 2.04 3.79 2.37 1.34.29 2.33 1.31 3.7 1.54.47.08.88.46 1.31.72a22 22 0 0 0 5.5 2.37c1.28.36 2.62.68 3.61 1.68 1.72.67 3.3 1.6 4.93 2.42.59.3 1.26.47 1.76.93 1.26 1.15 2.86 1.72 4.37 2.4 2.44 1.09 4.94 2.02 7.52 2.76 1.29.37 2.59.69 3.9.99v-2.84c-2.03-.55-4.02-1.27-5.99-2.07-2-.82-3.98-1.69-5.98-2.52-1.55-.64-2.75-1.92-4.43-2.3-2.47-1.76-5.47-2.46-8.1-3.91-1.44-.1-2.35-1.23-3.57-1.77-1.07-.47-2.12-1.05-3.25-1.3-1.05-.22-1.7-1.07-2.69-1.3-.83-.19-1.57-.52-2.21-1.11-.74-.68-1.56-1.27-2.6-1.46-.33-.06-.71-.15-.93-.36-1.92-1.93-4.73-2.51-6.71-4.36-.46-.43-1.19-.57-2.38-1.1-.55-.43-1.6-1.25-2.65-2.08-.79-.62-1.54-1.25-2.56-1.55-.62-.18-1.16-.64-1.7-1.03-.81-.59-1.58-1.24-2.25-1.77-.63-.18-1.11-.33-1.69-.5-1.18-1.06-2.43-2.18-3.78-3.39l-.89-1.46c-.43-.55-1.57-.53-2.32-1.22-1.51-1.37-3.41-2.08-5.28-2.81-.79-.3-1.61-.54-2.22-1.13-1.46-1.42-3.32-2.2-5.07-3.16-.29-.16-.54-.43-.85-.54-1.57-.55-3.34-.71-4.67-1.76-1.22-.96-2.71-1.31-4.04-1.98-1.77-.88-3.78-1.19-5.6-2.09-1.61-.8-3.51-1.04-5.23-1.71-1.23-.48-2.61-.6-3.94-.82-1.16-.19-2.34-.45-3.51-.4-1.39.06-2.67-.18-3.97-.56-.64-.18-1.32-.34-1.98-.35-2.37-.02-4.71-.17-6.96-.92-4.09.07-8.03-.92-12.05-1.33-.84-.08-1.69-.1-2.54-.09-3.04.06-6.06-.37-9.11-.16-2.88.2-5.76.34-8.64.52-1.86.11-3.7.32-5.5.99-1.1.41-2.32.48-3.51.71-.87.46-1.59 1.22-2.69 1.34-2.05.24-3.98 1.04-5.74 2.05a14 14 0 0 1-4.59 1.64c-.53.43-.93.76-1.36 1.11l-2.45.65c-2.69 1.43-5.22 3.2-8.11 4.27l-2.45 1.96c-.79.17-1.69.21-2.43.57-1.21.59-2.42 1.27-3.44 2.14-1.07.91-2.25 1.59-3.5 2.11-2.04.86-3.88 2.16-6.03 2.77-1.69 1.18-3.51 2.08-5.42 2.82-.46.18-.91.52-1.23.91-.8.99-2.1 1.13-3 1.91-.78.67-1.47 1.41-2.52 1.7-.45.13-.87.52-1.23.87-.75.72-1.54 1.27-2.51 1.7-.89.4-1.58 1.26-2.39 1.88-.23.18-.52.13-.79-.03 1.02-1.08 2.03-2.15 2.9-3.08.71-.27 1.19-.45 1.66-.62.86-.86 1.7-1.71 2.5-2.51.55-.22 1.03-.41 1.66-.65 1.1-1.11 2.36-2.26 3.94-2.96.78-1.01 2.18-.93 3.04-1.84.71-.75 1.59-1.24 2.53-1.69.73-.35 1.34-1.04 1.91-1.67.73-.8 1.66-1.19 2.63-1.62 1.08-1.06 2.19-2.13 3.26-3.17 1.3-.59 2.54-1.15 3.91-1.77.78-.71 1.67-1.51 2.55-2.31 2.01-.47 3.88-1.09 5.7-2.18 2.03-1.22 4.33-1.96 6.51-2.91.78-.34 1.56-.68 2.34-1.01 2.02-.85 3.83-2.24 6.1-2.41 1.89-.81 3.85-1.35 5.87-1.68.66-.11 1.29-.39 1.94-.59.81-.26 1.61-.62 2.44-.75 4.19-.65 8.25-2.01 12.48-2.41 2.94-.98 5.96-1.21 9.01-1.35 1.52-.07 3.09-.47 4.56-.25 2.66.4 5.38.25 8.01.77 1.31.26 2.63.53 3.93.87 2.28.59 4.54 1.18 6.91 1.41 1.16.11 2.3.44 3.43.74 4.86 1.29 9.72 2.57 14.56 3.91 1.12.31 2.18.81 3.25 1.29 1.52.68 2.98 1.53 4.55 2.07 1.58.54 3.03 1.43 4.72 1.72.65.11 1.39.26 1.89.64 1.64 1.26 3.58 1.77 5.5 2.36.47.15.94.39 1.31.71 1.28 1.12 3.05 1.29 4.41 2.33 1.16.88 2.72 1.23 3.87 2.25 1.26 1.12 3.12 1.24 4.32 2.47 1.81.54 3.31 1.61 4.7 2.8 1.05.9 2.48 1.01 3.52 1.89 1.02.87 2.07 1.69 3.11 2.54 1.86.45 3.1 1.99 4.78 2.7 1.27.54 2.34 1.29 3.38 2.11 1.44 1.13 2.69 2.53 4.57 3.01 1.44 1.15 2.87 2.3 4.27 3.42 2.14.44 3.4 2.26 5.2 3.05 1.89.83 3.41 2.08 4.64 3.14 1.43.6 2.54.91 3.6 1.47 1.01.54 2.19.78 3.07 1.6.24.22.56.41.87.47 2 .39 3.74 1.44 5.66 2.01 1.77.52 3.44 1.26 5.13 1.99.91.4 1.8.87 2.75 1.16 1.26.38 2.55.73 3.85.89v-2.75c-1.19-.26-2.39-.48-3.65-.45-1.48-1.21-3.14-1.94-4.93-2.47-2.4-.7-4.59-1.95-7.02-2.6-.31-.08-.57-.35-.86-.51-3.05-1.77-3.92-2.1-6.89-2.67-.16-.29-.32-.59-.49-.88-.31-.11-.63-.22-.94-.34-.16-.06-.32-.11-.45-.21-1.06-.82-2.17-1.59-3.15-2.5-1.03-.95-2.52-.97-3.53-1.86-1.77-1.55-4.12-2.21-5.87-3.81-1.6-1.47-3.32-2.82-4.98-4.23-2.14-.16-3.18-2.52-5.26-2.47-1.57-1.24-3.02-2.38-4.31-3.4-.68-.2-1.16-.35-1.6-.49-1.61-.96-2.69-2.55-4.53-3.17-1.73-.59-3.21-1.73-4.89-2.5-1.19-.55-2.15-1.57-3.18-2.36-1.87-.43-3.54-1.27-5.04-2.27-1.56-1.04-3.37-1.46-4.95-2.37-1.06-.06-1.81-.85-2.76-1.14-.98-.3-1.86-.69-2.67-1.34-.5-.4-1.2-.57-1.82-.81-1.09-.42-2.19-.79-3.28-1.21s-2.15-.89-3.25-1.28c-1.26-.44-2.62-.67-3.81-1.25-1.36-.66-2.8-1.08-4.2-1.58-1.26-.45-2.62-.63-3.89-1.05-1.28-.43-2.73.12-3.94-.67-1.14-.74-2.51-.9-3.78-1.29-2.56-.79-5.14-1.51-7.85-1.72-.83-.07-1.66-.28-2.46-.53-2.9-.91-5.9-1.19-8.94-1.36-1.49-.08-2.94-.48-4.48-.44-2.38.06-4.73.2-7.07.75-1.49.35-3.02.46-4.54.65-1.85.24-3.68.41-5.51.93-1.61.47-3.38.27-4.97 1.03-.3.14-.66.19-.99.23-2.54.26-4.99.77-7.39 1.8-1.53.66-3.27.87-4.94 1.14-1.09.18-1.81.9-2.66 1.44-1.32.28-2.71.33-3.84 1.22-4.31 1.6-8.36 3.82-12.61 5.55-1.56.64-3.03 1.51-4.54 2.3-.3.15-.59.35-.83.58-.86.84-1.76 1.55-2.95 1.96-1.12.39-1.69 1.71-2.9 2.06-2.41 1.89-5.21 3.29-7.15 5.9-.58.22-1.22.43-1.84.7-.63.27-1.23.59-2.34 1.13-.89.47-1.59 2.08-3.1 2.59-1.49.51-2.21 2.21-3.84 2.47-1.18.97-2.34 1.96-3.54 2.9-.26.2-.62.04-.86-.27-.09-.12-.08-.31-.12-.47.36-.3.91-.54 1.05-.92.24-.65.44-1.31.9-1.82 1.61-1.76 2.94-3.83 5.23-4.85 1.13-1.05 2.26-2.1 3.45-3.19 1.65-.7 3.14-1.86 4.8-2.73 1.64-.86 3.29-1.76 4.69-3.08.85-.8 1.96-1.39 3.05-1.84.97-.4 1.72-1.13 2.65-1.51.98-.39 1.75-1.06 2.62-1.58.88-.53 1.7-1.14 2.55-1.68 2.44-1.55 4.92-3.04 7.51-4.32 1.37-.68 2.73-1.37 4.07-2.13 1.6-.91 3.21-1.86 5.11-2.25 1.64-.33 3.23-1.09 4.76-1.82 2.94-1.39 5.89-2.68 9.09-3.3.82-.16 1.58-.61 2.38-.9 2.89-1.04 5.79-1.87 8.9-1.97 3.38-.11 6.77-.58 10.14-.99.84-.1 1.64-.21 2.49-.16 1.85.11 3.77-.21 5.57.11 1.72.3 3.37-.03 5.05.01 2.19.05 4.39.03 6.53.61.8.22 1.66.27 2.48.39 1.5.22 2.99.44 4.5.58 1.66.16 3.23.88 4.94.9 1.53.01 2.91.76 4.46.76.61 0 1.18.59 1.81.78 1.29.38 2.63.6 3.9 1.02 1.74.58 3.61.75 5.24 1.68 1.6.91 3.59.86 5.17 1.88 3.92.96 7.44 2.95 11.29 4.09.32.09.71.11.95.3 2.25 1.82 5.3 2.13 7.57 3.83 1.1.82 2.52.91 3.53 1.85.86.8 1.83 1.47 2.75 2.19.26.2.51.49.82.57 2.41.61 3.86 2.61 5.83 3.92.44.16.91.33 1.55.56.3.42.68.96 1.07 1.5l1.4.57c1.11.99 2.19 2.05 3.36 3 1.7 1.38 3.43 2.7 4.25 4.85.06.15.18.29.3.4 2.25 1.98 4.18 4.34 7.03 5.59.39.17.61.73.94 1.15.41.16.87.34 1.3.5.95.77 1.85 1.53 2.78 2.25.53.41 1.06.99 1.67 1.07 1.59.24 2.52 1.61 4.02 2.01 3.4.91 6.58 2.41 9.74 3.92 1.06.51 2.36.47 3.22 1.35.87.89 2.11.97 3.14 1.51 2.76 1.43 5.63 2.5 8.58 3.02v-2.64c-1.06-.28-2.14-.49-3.24-.67-1.45-.23-2.79-1.03-4.18-1.57-1.29-1.42-3.36-1.44-4.78-2.66-.48-.41-1.22-.5-1.83-.77-1.36-.61-2.93-.74-4.11-1.81-.34-.31-.9-.43-1.39-.52-2.02-.37-3.7-1.55-5.6-2.2-1.09-.38-2.03-1.16-2.76-2.1-.13-.16-.06-.49-.08-.76 3.33 1.23 6.65 2.29 10.17 2.75 2.16.28 4.28.79 6.29 1.67.91.4 1.86.82 2.84.95 1.67.23 3.27.54 4.84 1.2 1.2.51 2.51.74 3.82 1.04v-2.63c-.54-.16-1.07-.36-1.62-.5-.64-.16-1.1-.55-1.55-.98.09-.1.18-.2.28-.23.31-.08.64-.15.96-.13.64.03 1.28.07 1.93.12v-9.6c-.41-.21-.82-.44-1.16-.74-1.9-1.64-3.75-3.34-5.23-4.67-.86-1.28-1.04-2.29-1.73-3.09-1.67-1.94-2.8-4-3.49-5.99-.33-.95-.64-1.9-1.05-3.09.08-.61.19-1.44.24-1.85-.23-2.09-.53-3.77-.56-5.45-.04-1.72-.79-3.32-.75-4.99.04-1.69-.12-3.35-.25-5.03 1.15.03 1.16.02 3.53 2.54.33 1.56.46 3.24-.02 4.92-.52 1.85-.51 3.69-.33 5.56.22 2.19.36 4.39.55 6.85.25.7.58 1.65.91 2.58.55.66 1.3 1.22 1.58 1.97.62 1.66 1.79 2.8 3.02 3.93 1.58 1.45 3.16 2.88 4.74 4.32v-2.94c-1.1-.99-2.21-1.98-3.28-3-1.21-1.17-1.53-3-2.88-4.08-.51-1.05-1.01-2.11-1.5-3.13-.23-1.69.24-3.46-.87-4.87.42-.59.71-1 1-1.4-.29-.39-.7-.73-.85-1.17-.17-.52.16-.94.74-1.08.37.54.49 1.17.44 1.82-.01.14-.18.28-.27.42.26.21.52.41.76.63.12.11.23.26.28.41.52 1.42 1.09 2.82 1.52 4.26.43 1.48 1.66 2.52 2.06 4.22.87.91 1.84 1.93 2.83 2.98v-4.49c-.5-.69-1-1.38-1.37-2.16-.49-1.05-1.14-1.97-1.36-3.17-.27-1.47-.83-2.88-1.27-4.33.19.01.47-.05.65.06.59.36.91.93 1.22 1.55.61 1.25 1.36 2.41 2.13 3.57v-5.13c-.59-.6-1.2-1.23-1.82-1.87-.32-1.27-1.54-2.08-1.7-3.44.21-.03.39-.11.54-.07.64.21 1.26.45 1.89.68.24.66.66 1.22 1.1 1.77v-9.63c-.49-.38-.99-.77-1.5-1.15-.53-.4-1.08-.83-1.7-1.04-.99-.33-1.8-.89-2.58-1.53s-1.51-1.34-2.35-1.89c-.82-.54-1.74-.93-2.44-1.29-.34-.66-.56-1.11-.88-1.74-1.24-1.11-2.62-2.33-3.98-3.57-2.36-2.14-4.72-4.28-7.06-6.44-.61-.56-1.39-1.13-1.66-1.86-.84-2.28-3.3-3.36-3.98-5.71-.83-.82-1.65-1.64-2.28-2.26-.27-.77-.44-1.24-.64-1.8-.99-1.03-2.03-2.12-2.95-3.08-.36-.77-.54-1.47-.96-1.95-1.33-1.52-2.32-3.25-3.17-5.07-.29-.62-.59-1.21-1.09-1.67-.88-.81-.82-2.23-1.84-2.95-1.16-.82-1.37-2.27-2.09-3.39-.9-1.42-1.79-2.79-3.04-3.93-1.47-1.35-3.12-2.56-3.89-4.54-.11-.29-.4-.53-.64-.76-2.08-1.94-4.15-3.91-6.27-5.81-2-1.79-4.05-3.5-6.09-5.25-.62-.24-1.3-.39-1.85-.75-.84-.55-1.53-1.32-2.38-1.85-.98-.62-2.08-1.04-3.09-1.62-2.78-1.6-4.52-2.34-7.32-3.08-1.77-.47-3.57-.87-5.31-1.78-2.09.13-4.3.44-6.43-.32-1.87.12-3.72-.09-5.56-.34-2-.28-4.01-.49-6.06-.31-2.18.19-4.41-.16-6.54.71-.3.12-.68.15-.99.07-1.37-.32-2.65.09-3.98.39-1.65.38-3.36.53-5.05.64-1.35.09-2.66.15-3.98.67-1.41.56-2.98.48-4.48.9-3.1.87-6.1 2.16-9.33 2.52-.33.04-.69.14-.97.32-2.6 1.71-5.59 2.5-8.38 3.76-.63.28-1.18.66-1.76 1.02-1.58.99-3.22 1.9-4.93 2.89-1 1.03-2.07 2.14-3.16 3.24-.48.48-.93 1.07-1.51 1.38-2.19 1.14-3.71 3-5.32 4.78-.69.76-1.4 1.52-2.09 2.28-2.09 2.3-2.73 3.25-4.22 6.38-1.26 2.65-1.93 5.46-2.33 8.33-.22 1.53.03 3.05.59 4.49.24.62.47 1.25.71 1.86.37.38.65.88 1.07 1.08 1.65.79 3.3 1.6 5.14 1.89.83.13 1.67.2 2.77.33 1.19-.51 2.6-1.09 3.99-1.72.3-.13.55-.39.81-.61.13-.11.26-.25.33-.4.89-2.06 1.67-4.13.72-6.45-.7-.63-1.42-1.33-2.21-1.95-.38-.3-.91-.41-1.35-.64-.3-.16-.32-.47-.1-.8.44-.61 1.25-.55 1.77-.95 2.25-1.75 5.02-2.03 7.57-2.91 3.89-.5 7.78-.66 11.68-.63 2.79.62 5.67.72 8.47 1.34 4.1.91 8.14 2.01 12.13 3.25 1.32.72 2.32 1.95 3.89 2.27.47.1.93.4 1.32.7.94.7 1.83 1.46 2.74 2.2 1.41.23 2.32 1.29 3.45 2 .43.27.83.61 1.3.74 1.35.38 2.35 1.27 3.37 2.13 1.15.97 2.32 1.93 3.48 2.91.62.24 1.25.49 2.06.8 1.2 1.13 2.54 2.38 3.86 3.65.08.08.03.27.05.42-.33.07-.7.28-.98.2-2.88-.85-5.96-1.08-8.67-2.5-.58-.3-1.27-.44-1.93-.57-2.63-.53-5.16-1.51-7.89-1.64-2.75-.84-5.69-.46-8.45-1.2-2.69.19-5.37-.8-8.06.15-1.17-.26-2.29-.16-3.49.12-1.1.26-2.32-.12-3.49-.08-2.37.08-4.74.09-7.05.9-.95.34-2.01.36-3.01.52-.84.13-1.73.11-2.51.41-1.14.44-2.29.63-3.48.73-2.72.24-5.34.99-7.92 1.9-.96.34-1.85.92-2.89.97-1.27.06-2.1 1.11-3.24 1.44-.81.24-1.65.41-2.31.58-.8.67-1.45 1.22-1.63 1.36-3.2 1.44-5.91 2.48-8.46 3.85-2.09 1.12-4.23 2.21-6.13 3.62a40 40 0 0 1-4.71 3.05c-1.66.91-2.88 2.46-4.7 3.06-.86.84-1.72 1.68-2.59 2.52l-1.1 1.07c-1.05.59-2.16 1.06-2.96 2.01-.33.39-.67.86-1.11 1.07-2.2 1.1-3.76 2.94-5.48 4.6-.49.47-.94 1.06-1.52 1.35-1.42.72-2.47 1.82-3.49 2.99-2.39 2.71-4.83 5.37-7.21 8.09-.9 1.03-1.75 2.08-2.26 3.41-.5 1.29-1.62 2.17-2.56 3.13-.48.25-.94.48-1.67.85-.2 1.14-.92 2.27-1.77 3.36-.84 1.07-.84 2.59-1.96 3.57-1.07.94-1.21 2.43-1.88 3.49-.94 1.15-1.8 2.21-2.45 3.01-.37.96-.61 1.59-.74 1.92l-3.37 4.33c-.57 2.05-2.14 3.48-3.3 5.17-.41.93-.44 2.03-1.28 2.76-.97.84-.99 2.16-2.07 3.68-1.16 1.3-2.78 3.08-4.37 4.88-1.47 1.67-2.75 3.53-4.93 4.41-.44.18-.77.66-1.14 1.02-1.1 1.07-2.2 2.16-3.25 3.18-2.94 1.19-5.79 2.34-8.42 3.41-.91-.08-1.59-.22-2.25-.17-.83.06-1.65.28-2.57.46-1.24-.72-2.31-1.79-3.5-2.69-.13-.1-.26-.22-.35-.36-.53-.85-1.03-1.72-1.58-2.55-.45-.69-1.19-1.19-1.52-2.71-.38-1.72-.07-4.07.36-6.42.16-.86.43-1.65 1.21-2.27 1.64-.72 3.34-1.47 4.94-2.17.65.04 1.16.07 1.7.11 1.2.89 2.43 1.76 3.27 3.06.03 1.22-.02 1.5-.51 1.79-.57.34-1.17.63-1.86 1.01-.05.82-.06 1.67-.16 2.51-.12 1.01-.4 2.02-.46 3.03-.06.87.22 1.67 1.7 2.04.88-.05 2.23-.12 3.17-.17 2.14-.91 3.87-1.64 5.36-2.27 1.6-1.2 2.77-2.45 3.86-4.16.27-.87.64-2.01.97-3.15.9-3.1.37-6.01-.77-8.91-.7-1.77-2.18-2.95-2.98-4.61-.35-.73-.96-1.36-1.54-1.95-.82-.83-1.73-1.58-2.64-2.39-1.92-.02-2.83-1.67-4.38-2.6-1.31-.37-2.83-.62-4.18-1.23-1.28-.59-2.6-.61-3.91-.87-1.38-.28-2.68-.15-4.01.23-1.4-.34-2.67.22-3.91.76-.79.34-1.57.63-2.42.77-.5.08-1.11.15-1.43.46-.89.88-2.22.94-3.07 1.79-.79.78-1.88.78-2.73 1.35-.99.66-1.97 1.32-2.94 1.96-.18.52-.34 1.01-.55 1.62-1.03 1.2-2.16 2.5-3.26 3.81-1.21 1.45-2.4 2.92-3.32 4.04-.55 1.16-.84 1.97-1.28 2.68-1.5 2.43-2.65 4.78-3.24 6.91-.28.98-.49 1.98-.74 2.99-.1 1.34.3 2.71-.21 4.04-.07 3.56-.3 7.14.8 10.59.14 2.05 1.19 3.87 1.52 5.84.4 2.39 1.69 4.38 2.3 6.65 1.24 1.42 1.71 3.24 2.69 5.32 3.4 3.34 6.95 6.41 10.63 9.32.38.3.85.56 1.33.67 1.7.37 2.62 2.15 4.43 2.29.91.73 1.83 1.46 2.74 2.19l2.42 1.9c2.38.66 4.79 1.4 7.24 1.97 1.01.24 1.77 1.07 2.79 1.07 2.07.01 3.94.8 6.02 1.25 2.76.12 5.63-.25 8.5-.58 1.5-.17 3.07-.15 4.46-.96 2.56-.28 4.84-1.65 7.35-2.15.32-.06.67-.2.92-.42 1.2-1.04 2.78-1.27 4.1-2.06 1.46-.87 2.91-1.75 4.38-2.6.59-.34 1.23-.59 1.99-.94.63-.61 1.33-1.38 2.14-2.01.8-.63 1.75-1.06 2.55-1.69.8-.64 1.48-1.43 2.24-2.13.25-.23.53-.46.84-.59 1.16-.46 2.06-1.28 2.78-2.23.86-1.13 2.17-1.61 3.07-2.46.18-.42.32-.73.45-1.05.95-.72 1.99-1.35 2.82-2.19 2.18-2.19 4.27-4.47 6.39-6.71.61-.33 1.21-.66 1.94-1.06 1.66-1.78 3.39-3.7 5.18-5.55.95-.98 1.87-1.99 3.15-2.61.75-.36 1.34-1.05 2.02-1.57.54-.41 1.06-.91 1.66-1.16 1.17-.47 1.95-1.38 2.83-2.19 1.64-.9 3.41-1.5 5.01-2.54 1.56-1 3.48-1.4 4.99-2.58 1.43-.16 2.31-1.52 3.63-1.8 2.19-.46 4.15-1.52 6.24-2.25 2.1-.73 4.25-1.21 6.35-1.97 2.38-.87 4.87-1.47 7.45-1.59 2.2-.1 4.39-.5 6.58.03.48.12 1.01.09 1.52.07 4.96-.19 9.68.97 14.37 2.29.36.1.46.45.39.84-.32.07-.65.22-.96.2-4.77-.31-8.19-.4-15.1 1.26-.86.2-1.53.67-2.29 1.04-.89.44-1.99.41-2.93.79-2.85 1.13-5.66 2.36-8.49 3.54-2.49 1.82-5.29 3.09-7.94 4.62-1.2.69-1.95 1.95-3.3 2.4-1.47.49-2.57 1.66-4.13 2.32-.72.8-1.54 1.69-2.32 2.6-.56.65-1.08 1.34-1.6 1.99-.34.82-.67 1.6-1.01 2.44l-2.27 2.53c-.58 1.23-.73 2.46-1.53 3.41-.1 1.47-1.2 2.43-2.02 3.77-.87 3.08-1.81 6.35-2.68 9.42.08 3.63.1 7.04.24 10.43.08 1.86.24 3.74.63 5.55.25 1.15.44 2.32.68 3.47.59 2.8 1.06 5.64 2.3 8.24 1.01 2.11 2.1 4.18 3.05 6.32.47 1.06 1.18 2.01 1.78 3.01.93.96 1.85 1.93 2.63 2.73.29.68.49 1.15.77 1.8 2.52 2.19 5.17 4.5 7.54 6.57.98.39 1.61.61 2.22.89 1.52.69 2.97 1.59 4.55 2.06 2.89.86 5.66 2.07 8.61 2.76 1.14.26 2.28.59 3.44.69 2.69.24 5.4-.2 8.1.15 1.15.15 2.37-.11 3.55-.21 1.02-.08 2.03-.19 3.06-.29.94-.34 1.9-.71 2.86-1.04 1.12-.37 2.26-.71 3.3-1.04 2.2-2.6 4.79-4.65 6.7-7.33.2-.28.36-.58.59-.95.27-.89.57-1.87.84-2.77-.18-1.95-.35-3.81-.5-5.42-.43-1-.6-1.93-1.14-2.51-1.15-1.24-1.75-2.84-2.34-3.57-1.02-1.03-1.73-1.04-2.35-1.27-.78-.29-1.51-.69-2.06-.95-1.77-.04-3.29-.17-4.65.26-.78.87-1.48 1.62-2.14 2.4-.21.25-.3.6-.53 1.09.06.49.13 1.15.21 1.82 1.16 1.04 2.28 2.04 3.37 3.02 1.04.21 2.03.4 2.73.54 1.97-.47 1.98-.49 2.99.48.37 1.31.4 2.64.1 4.15-.48.54-1.05 1.17-1.59 1.77-.9.21-1.73.41-2.63.62-1.91-.52-3.84-1.05-5.65-1.55-1.37-1.23-2.62-2.35-4-3.58-.15-1.1-1.03-1.94-1.54-2.98-1.43-2.9-1.61-6.16-2.1-9.32-.05-.33-.06-.7.04-1.02.52-1.67.45-3.37.41-5.07-.02-1.03.13-2.03.41-3.02.32-1.15.65-2.29.91-3.2.62-.93 1.33-1.58 1.52-2.36.55-2.17 2.19-3.43 3.67-4.84 2.14-.85 3.46-2.76 5.02-3.98.96-.5 1.69-.97 2.48-1.28 2.22-.88 4.46-1.69 6.51-2.47 8.75-.52 8.97.23 16.64 3.77 2.36 1.98 4.84 3.98 7.23 6.08 2.88 2.53 5.89 4.94 7.91 8.34.76 1.28 2.18 2.06 2.92 3.31.44 1.35.66 2.65 1.44 3.83.83 1.25 1.53 2.56 2.63 3.62 1.09 1.04 1.23 2.76 2.52 3.71.67.49 1.18 1.18 1.74 1.76.31.63.49 1.34.92 1.82 1 1.13 1.72 2.47 2.68 3.61 1.07 1.27 2.39 2.35 3.64 3.46 2.26 2 4.55 3.97 6.77 5.91.38.14.69.27 1.01.37 1.17.35 1.88 1.39 2.92 1.92 1.18.6 2.58.77 3.59 1.74.23.22.57.34.67.4 5.77 1.91 11.5 3.2 17.19 4.66 1.46.37 2.96.73 4.45.78 2.55.07 5.03.51 7.72.88 4.55-.28 9.3-.56 14.04-.88 1.68-.11 3.38-.14 5.02-.77.78-.3 1.67-.31 2.51-.42 1.35-.17 2.67-.49 4-.75 2.18-.42 4.23-1.35 6.43-1.62.1-.06.2-.09.3-.14v-10.61zm-43.74-16.19c-.49.38-.98.39-1.45-.06-.17-.16-.33-.32-.49-.48.85-.53 1.41-.05 1.94.54m-2.21-.52c-.19.21-.43.29-.71.19-.06-.02-.04-.27-.06-.41.26.07.51.15.77.22m-5.76-1.99.18.22-.27.04zm46.56-13.12c.4-.27.77-.28 1.13-.04-.31.29-.62.59-.95.85-.1.08-.4.08-.43.02-.18-.33-.07-.61.25-.83M239.3 161.87c3.34.37 6.65.93 9.97 1.34 2.52.31 4.92.95 7.34 1.61 1.15.32 2.13.97 3.25 1.3.96.28 1.93.55 2.89.86 1.11.36 2.03 1.18 3.25 1.27 1.4.9 3.15 1.17 4.4 2.36 1.74.59 3.34 1.45 4.91 2.38.43.25 1.02.28 1.36.6 1.76 1.63 3.96 2.42 6.13 3.27.79.31 1.52.68 2.15 1.24q.57.495 1.2.9c.98.63 2.21.76 3.07 1.64.81.84 1.7 1.61 2.59 2.36 1.92 1.62 3.9 3.16 5.78 4.82 1.15 1.02 2.72 1.22 3.86 2.28.96.9 1.96 1.83 3.35 2.13.47.1.98.36 1.3.71 1.3 1.4 3.33 1.54 4.7 2.8.94.87 1.89 1.74 2.83 2.61-.11.09-.23.2-.31.18-.97-.22-1.92-.47-2.89-.72-1.35-.95-2.56-2.09-4.28-2.52-1.28-.32-2.19-1.45-3.53-1.84-1.1-.32-2.09-.98-3.19-1.4-1.06-.41-1.89-1.38-2.92-1.91-1.04-.53-2.14-.91-3.1-1.61-.53-.39-1.17-.61-1.86-.96-.18-.32-.43-.74-.65-1.12-1.03-.66-2.32-.69-3.16-1.58-.73-.77-1.8-.86-2.63-1.39-1.13-.71-2.06-1.78-3.25-2.32-1.22-.55-2.42-1.07-3.46-1.93-.72-.6-2.02-.41-2.29-1.64-1.04-.18-1.77-.89-2.6-1.45-.41-.27-.86-.58-1.33-.66-1.71-.27-2.74-1.99-4.56-1.99-1.15-.66-2.57-.72-3.58-1.73-.43-.43-1.19-.55-1.83-.75-1.6-.49-3.21-.93-4.67-1.35-1.01-.52-1.86-1.06-2.79-1.41-1.25-.46-2.55-.81-3.85-1.13-2.11-.52-4.16-1.22-6.13-2.12-1.67-.77-3.41-1.31-5.17-1.81-.63-.18-1.17-.46-1.61-.93.38-.42.85-.45 1.31-.39m-1.48.35c-1.3.67-2.14.56-3.37-.45 1.36-.6 2.11-.51 3.37.45m-3.58-.44c-.16.24-.37.35-.64.27a.41.41 0 0 1-.24-.26c-.06-.34.1-.35.88-.01m-4.18-.68c.07.03.1.39.08.4-.3.12-.57.06-.8-.14.16-.27.41-.38.72-.26m-1.48-.22c.2.11.36.29.53.46-1.24.6-2.38.56-3.37-.43 1-.53 1.92-.56 2.84-.03m-4.09-.94c.4.36.72.64 1.03.92-.24.16-.49.36-.74.38-1 .09-2.01.09-3.02.13-.4-.31-.77-.59-1.13-.87.22-.19.43-.46.66-.48 1.08-.07 2.18-.06 3.2-.08m-10.09-.05c1.65-.39 3.32-.33 4.97-.14.4.05.75.46 1.12.75-.26.16-.51.38-.77.4-1.5.1-2.99.12-4.56.18-.34-.27-.7-.57-1.07-.86.1-.13.19-.3.31-.33m-.4.33c-.61.45-.66.46-1.3.09.58-.52.64-.52 1.3-.09m-16.07.28c1.14-.26 2.32-.35 3.48-.51 3.17-.43 6.35-.42 9.52-.48.69-.01 1.22.29 1.63.8-.11.12-.21.26-.32.28-.66.09-1.32.13-1.99.18-4.04.32-8.09.44-12.11 1.01-.48.07-.94-.03-1.28-.41.34-.31.67-.78 1.07-.87m-1.2.89c-.41.44-.82.41-1.24.09.56-.45.63-.45 1.24-.09m-2.2.01c.24-.12.47-.09.68.04-.23.11-.45.22-.67.32-.01-.12-.05-.34-.01-.36m-2.17.86c.08-.07.25-.02.37-.03-.03.11-.02.28-.09.35s-.24.04-.36.05c.03-.13.01-.3.08-.37m4.04-50c-1.13.46-2.07.84-3.21 1.3-.46-.02-1.12-.05-1.73-.08-.44-.39-.81-.72-1.19-1.07-.35-.78-.38-1.6-.12-2.48.81-1.25 1.72-2.44 3.2-2.81.82.4.9 1.09 1.12 1.79.79.08 1.61.16 2.43.24.48 1.01.3 1.95-.5 3.11m118.35 36.32c-.02.04-.38.05-.42-.03-.18-.3-.09-.58.19-.8.26.22.36.5.23.83m.36 31.03-.16-.37.36.19zm2.89-22.7c-.02.06-.25.05-.38.08.07-.24.13-.48.2-.72.19.16.26.37.18.64m33.45 35.25c-.19.08-.37.15-.56.23 0-.14 0-.27-.01-.4.19.05.38.11.57.17m-8.53-18.95c.36.34.69.72.99 1.05.2.53.38 1 .56 1.48l2.44 2.47c.17.43.15.72-.07.78-.16.05-.36.05-.5-.02-1.39-.7-2.22-2-3.24-3.09-.28-1.33-1.38-2.23-1.74-3.52-.03-.09.06-.23.14-.35.48.39.96.78 1.42 1.2m-1.34-2.5c.28.37.18.75-.1 1.09-.27-.27-.57-.53-.79-.84-.23-.34-.19-.72.01-1.08.31.27.64.51.88.83m-2.88-13.87c-.44-.56-.45-.64-.05-1.25.44.56.43.64.05 1.25m-.33-2.23c.02-.05.4-.09.42-.04.17.3.09.58-.15.81-.26-.19-.37-.45-.27-.77m.34 2.37c1.13 1.23 1.14 1.35.12 2.71-.55-.87-.78-1.76-.12-2.71m.12 2.89c.21.19.42.38.67.6.09.22.28.51.3.81.17 2.6.43 5.18 1.14 7.68.05.19-.15.45-.3.69-.45-.4-.89-.8-1.23-1.1-1.16-1.93-.46-4.12-1.41-5.73.46-1.08.14-2.14.83-2.95m-4.04-15.78c-.06.18-.12.36-.18.53-.07-.17-.14-.35-.21-.52.13-.01.26-.01.39-.01m-.16.95c.36.37.35.78.04 1.2-.38-.5-.39-.59-.04-1.2m-.72 2.52c.02-.37.44-.73.74-1.1 1.11 1.89 1.55 3.96 1.09 6.14a9.45 9.45 0 0 0 .12 4.49c.26 1 .31 1.94.08 2.98-.5 2.19-.16 4.3.42 6.45.99 3.71 1.26 4.71 3.05 7.84.23.4.18.64-.21.68-1.22-.71-2.21-1.84-3.32-2.86-1.11-2.4-2.22-4.82-3.34-7.25l.06-2.99c-.91-1.9-.7-3.94-.59-5.97.68-2.78 1.73-5.5 1.9-8.41m-2.18-8.28c.96-.22.47.45.35.76-.1.25-.33.45-.52.66-.14-.23-.34-.47-.32-.69.02-.26.27-.68.49-.73m-1.04 2.7c.15-.43.55-.77.86-1.14.11.1.25.2.27.31.06.49.17 1.02.05 1.48-.53 2.15-1.11 4.27-1.04 6.51.02.82-.28 1.67-.47 2.5-1.48 6.53-1.48 6.53-.88 13.2.74 2.47 2.47 4.61 3.21 7.21 1.05 1.29 1.94 2.7 2.95 4.01.6.78 1.5 1.32 2.26 1.97 1.87.32 2.94 2.29 5.08 2.32.84.65 1.77 1.37 2.69 2.08 1.2.47 2.68.54 3.18 2.16-.23 0-.4.05-.54 0-1.28-.37-2.51-.85-3.74-1.38-1.04-.45-2.33-.32-3.45-.62-1.61-.44-3.2-.99-4.75-1.61-1.24-.49-2.4-1.16-3.68-1.79-1.81-1.62-3.67-3.29-5.35-4.79-.78-1.4-1.42-2.56-2.21-3.98-.08-1.59-.23-3.45-.24-5.31-.02-2.72.49-5.41 1.18-8.04 1.04-3.93 1.94-7.91 3.58-11.68.48-1.08.63-2.29 1.04-3.41m-3.17-6.81c.01-.03.34-.04.38.02.16.27.09.51-.15.71-.23-.19-.32-.44-.23-.73m-1.79 8.4c.4-1.81.89-3.6 1.4-5.38.08-.29.42-.52.64-.77-.47-.66-.49-.7-.02-1.35.56.54.55.59.07 1.35.15.26.45.53.43.79-.15 2.29-.86 4.46-1.71 6.58-.09.24-.34.41-.55.6-.4-.56-.39-1.23-.26-1.82m-1.92-13.77c.37.31.65.73.89 1 .35 1.11.4 2.14.17 3.12-.31 1.32-.32 2.67-.58 3.98-.08.43-.48.8-.76 1.2-.12-.09-.28-.17-.3-.28-.1-.65-.15-1.3-.21-1.95l-.56-5.44c.07-.34.24-1.16.42-1.99.34.13.7.17.93.36m-.8 12.85c-.63-1.3-.51-2.13.53-3.44.75.95.36 1.92-.09 2.87-.1.21-.27.39-.44.57m-.51-15.08-.09.32-.23-.27zm-.33 16.26c.21-.34.51-.62.79-.92.37.48.33.98-.05 1.48-.16.21-.37.38-.57.55-.32-.32-.42-.72-.17-1.11m.14 1.27c.12.24.31.51.25.7-.26.79-.77 1.39-1.64 1.61.1-1 .77-1.64 1.39-2.31m-2.71 4.91c.05-.15.16-.27.25-.4.3-.28.65-.32.63-.17-.04.29-.23.59-.41.84-.07.09-.3.07-.46.11-.01-.13-.05-.27-.01-.38m.74 9.39c.14-2.22 1.07-4.26 1.6-6.4 1.11-1.57 1.26-3.51 2.17-5.37.54-.6 1.19-1.33 1.85-2.07.12.08.25.16.25.25.02.65.19 1.41-.08 1.95-1.12 2.32-1.7 4.79-2.37 7.24-.68 2.47-.84 5.02-1.37 7.5-.5 2.39-.41 4.72-.18 7.07.18 1.87.92 3.54 2.09 5.02.62.77 1.12 1.64 1.9 2.81 1.31.89 3.23 1.59 4.63 3.09.43.46 1.12.74 1.74.92.84.23 1.53.63 2.19 1.15.53.42 1.14.64 1.8.81 3.23.85 6.44 1.75 9.65 2.64.35.1.5.43.47.81-.3.07-.61.23-.9.2-1.34-.13-2.66-.31-3.99-.48-.33-.04-.71-.03-.98-.19-2.64-1.57-5.72-1.73-8.58-2.58-1.29-.38-2.31-1.27-3.67-1.58-.75-.17-1.4-.89-2.02-1.44-2.13-1.88-4.22-3.79-5.96-5.35-1.92-2.92-2.12-5.78-2.11-8.68 0-1.71.25-3.4 1.07-4.94.44-.76.75-1.51.8-2.38m-1.99-5.61a.64.64 0 0 1-.08-.68c.01-.03.24.01.36.02-.09.22-.19.44-.28.66m.22-11.16c-.37.03-.36-.24.04-.94.29.18.4.43.27.73-.04.09-.2.2-.31.21m.67-6.85c-.05.16-.09.33-.14.49-.06-.16-.13-.31-.19-.47.1-.01.21-.01.33-.02m-.15.94c.15.23.33.46.35.7.06.83.03 1.67.03 2.51 0 .71-.35 1.24-.88 1.68a.85.85 0 0 1-.41-.79c.06-1.01.1-2.02.16-3.13.23-.28.49-.62.75-.97m-.9 7.99-.32-.1.27-.24zm-.33-16.6.15-.58c.09.18.17.36.26.54-.13.01-.27.03-.41.04m.24-1.67c-.05.16-.09.32-.14.48-.07-.16-.14-.31-.21-.47.12 0 .24-.01.35-.01m-.25 28.32c.16-.24.35-.46.53-.69.28.3.35.66.12 1.03-.2.32-.47.61-.73.9-.27-.41-.19-.83.08-1.24m-.94-31.71c.05-.17.11-.35.16-.52l.21.51c-.12.01-.24.01-.37.01m.09-.98c-.39-.35-.79-.7-.83-1.3 1.05.25 1.11.27.83 1.3m-1.11 15.13c-.13 3.22-.53 6.42-.99 9.62-.04.27-.24.52-.39.78-.33-.3-.67-.6-1-.9-.28-2.87-1.7-5.45-1.99-8.32-.87-2.17-1.21-4.51-2.17-6.68-1.14-2.6-2.01-5.35-2.51-8.16-.3-1.72-1.3-3.07-1.76-4.67-.09-.31-.25-.64-.47-.87-.93-.97-1.67-2.05-2.38-3.19-.69-1.11-1.84-1.93-2.76-2.89-1.15-1.2-2.47-2.2-3.23-3.79-.41-.86-1.36-1.45-2.06-2.15-.66-.24-1.28-.47-1.91-.7-.28-.19-.6-.33-.82-.57-1.58-1.76-3.58-3.02-5.37-4.52-.37-.31-.85-.53-1.32-.67-.66-.19-1.27-.43-1.78-.89-1.64-1.48-3.69-2.24-5.7-3.02-.97-.38-1.7-1.04-2.87-1.65-1.3-.37-2.88-.94-4.52-1.25-1.51-.28-2.73-1.19-4.25-1.47-1.45-.27-2.75-1.25-4.2-1.5-1.32-.23-2.63-.5-3.95-.72-.69-.12-1.29-.33-1.73-.88-1.66.72-2.24.65-3.48-.53 1.26-.77 2.42-.6 3.48.4.77-.86 1.95-.44 2.68-1 6.58.62 12.66 2.42 18.54 4.93 1.53.65 3.05 1.35 4.6 1.96a8.7 8.7 0 0 1 1.76.93c.95.66 1.79 1.46 2.97 1.85 1.09.36 2.04 1.11 3.07 1.65.43.23.92.37 1.33.54.29.5.55.93.78 1.32.62.32 1.27.54 1.8.93 1.34 1.01 2.65 2.05 3.91 3.15 2.52 2.21 5.05 4.42 7.47 6.74 1.8 1.73 3.91 3.21 4.93 5.63 1.05 1.08 2.11 2.15 3.08 3.14 1.21 2.74 1.15 5.77 2.59 8.1.46 3.21.74 6.25.62 9.32m-14.53 6.93c-.73-.58-1.62-1.02-1.73-2.14 1.2.01 1.69.75 1.87 1.8.03.11-.06.23-.14.34m.07.24c.3.26.63.51.86.83.24.33.15.61-.11.64-.15.01-.33 0-.44-.07-.55-.41-.59-.59-.31-1.4m.77-4.4c-.5-1.22-1.26-2.34-1.91-3.51-.63-1.15-1.67-2.05-2.28-3.28-.36-.72-1.1-1.25-1.67-1.87-.3-1.7-1.72-2.85-2.14-4.5-.16-.64-.56-1.21-1-2.14-.74-1.07-2.15-2.06-2.75-3.73-.27-.74-1-1.33-1.59-1.91-.83-.82-1.72-1.57-2.13-2.74-.16-.45-.58-.81-.94-1.15-1.57-1.51-3.14-3.02-4.77-4.47-2.63-2.34-5.29-4.64-7.95-6.94-.89-.76-1.82-1.47-2.73-2.21-1.52-.26-2.63-1.45-4.17-1.71-.82-.14-1.61-.47-2.54-.76-1-.65-2.05-1.48-3.44-1.75-.81-.16-1.39-.77-1.88-1.43.12-.11.25-.27.34-.25 6 1.34 6.91 1.69 11.74 4.05 1.34.65 2.8 1.09 4.84 1.88.63.5 1.83 1.42 2.97 2.39 1.15.98 2.25 2.01 3.34 2.98.83.36 1.59.7 2.47 1.09 1.4 1.26 2.9 2.6 4.32 3.87.49.8.85 1.58 1.37 2.21 1.18 1.4 2.75 2.49 3.3 4.37 1.03 1.1 2.06 2.2 2.91 3.1.77 1.58 1.27 3.06 2.13 4.26.78 1.09 1.37 2.32 2.22 3.32 1.98 2.34 3.18 5.08 4.36 8.09 1.08 1.03 1.92 2.46 2.71 3.94.88 1.64 2.6 5.84 2.95 7.46.06.27-.14.65-.31.92-.23.37-.86.2-1.29-.14-.69-.56-.94-1.35-1.34-2.09-.31-.58-.83-1.03-1.28-1.53-.55-.62-1.23-1.17-1.46-2.02-.39-1.53-1.81-2.36-2.4-3.8m-3.15.19c-.12.04-.29-.02-.42-.09-.13-.06-.26-.17-.33-.29s-.06-.29-.09-.43c.12-.02.27-.08.35-.04.52.31.76.77.49.85m-61.41-54.19c.08.19.17.38.25.57-.14.01-.27.02-.41.04.06-.2.11-.4.16-.61m1.91 3.74c1.51.27 3 .34 4.52.32 1.34-.02 2.69.09 4.04.09.32 0 .64-.2 1.13-.37.63.28 1.38.61 2.19.96.95-.03 1.97-.14 2.98-.06 1.34.1 2.67.35 3.99.55.33.05.69.11.95.29 1.43.97 3.14 1.12 4.72 1.63 1.91.61 3.9.9 5.74 1.78 1.78.86 3.82 1.19 5.57 2.19.42.24.97.26 1.54.4.98.8 2.01 1.65 3.16 2.59.5.18 1.13.41 2.05.73.94.75 2.13 1.67 3.28 2.63.9.74 1.71 1.62 2.93 1.85 1.42 1.16 2.86 2.3 4.27 3.49 1.15.97 2.26 1.96 2.97 3.36.36.72 1.02 1.31 1.61 1.9 1.42 1.42 2.88 2.8 4.32 4.2 1.43 2.13 1.36 4.28 2.18 6.13.74 1.68 1.21 3.48 1.75 5.25.09.28-.07.65-.12.98-1.73-.13-1.85-1.71-2.51-2.8-.68-.74-1.35-1.49-2.16-2.39-.46-1.06-.99-2.28-1.54-3.54-.17-.24-.34-.54-.56-.78-.9-.99-1.88-1.89-2.44-3.17-.26-.59-.77-1.07-1.21-1.58s-1.08-.9-1.34-1.48c-1.39-3.02-4.03-4.87-6.36-6.99-1.73-1.58-3.58-3.02-5.76-4.86-.15-.06-.81-.24-1.38-.57-.86-.51-1.66-1.12-2.45-1.72-.8-.6-1.61-1.13-2.61-1.44-.94-.29-1.76-.92-2.99-1.6-1.19-.38-2.83-.74-4.31-1.58-.55-.31-1.27-.42-1.93-.45-1.54-.09-2.93-.59-4.31-1.21-1.37-.61-2.77-1.14-4.22-1.73-1.47.03-3.01.24-4.5.05-1.34-.17-2.65-.35-4.01-.21-.5.05-1.02-.03-1.51-.11-4.12-.68-8.27-1.14-12.42-1.48-.14-.64.24-.95.88-1.32 1.19.02 2.57-.17 3.87.07m.83-3.6.32.12-.26.22zm2.88-.21.3.12-.24.2zm8.05 1.57.7.18a.61.61 0 0 1-.64.18c-.05-.01-.04-.23-.06-.36m6.86 8.37c-.98.53-1.14.44-1.59-.75.7-.09 1.16.29 1.59.75m-3.42-1.27-.09.3-.21-.26zm-18.56-1.13c1.31.25 2.58.69 3.89.93s2.7.09 3.85.97c.24.18.64.25.96.24 1.38-.05 2.69.29 3.95.7s2.48.96 3.64 1.58c1.6.86 3.35 1.4 4.78 2.64 1.23 1.07 3.01 1.38 4.25 2.56 1.09 1.04 2.23 2.03 3.41 2.95 1.31 1.02 2.45 2.26 4.13 2.78.6.19 1.09.75 1.59 1.18 2.39 2.09 4.77 4.2 7.14 6.31 1.75 1.55 3.48 3.12 5.23 4.69.4.74.71 1.52 1.2 2.18.89 1.2 2 2.2 2.65 3.61.55 1.19 1.74 1.99 2.27 3.28.3.74 1.04 1.29 1.55 1.94 1.12 1.44 2.09 2.99 2.81 4.68.11.26.01.68-.12.97-.1.23-.5.22-.8-.03-.51-.43-1.12-.84-1.42-1.4-1.12-2.11-2.85-3.68-4.59-5.41-.66-1.21-1.33-2.56-2.45-3.6-1.11-1.03-1.54-2.58-2.73-3.56-1.03-.85-1.97-1.81-2.94-2.73-1.09-1.04-2.16-2.09-3.29-3.18-.28-.55-.58-1.15-.87-1.74-2.87-2.57-5.73-5.13-8.45-7.58-1.15-.36-2.13-.63-2.87-1.36-.75-.75-1.72-.99-2.77-1.13-.73-.66-1.48-1.33-2.06-1.85-2.63-1.17-5.2-1.94-7.39-3.48-6.88-3.22-7.97-3.62-16.79-6.65 1.37-.32 1.84-.57 2.24-.49m28.72 9.31.11-.34.24.28zm2.07.09c3.72 2.02 6.1 5.37 9.29 7.74.64.21 1.27.42 1.95.64 1.09.97 2.2 1.97 3.19 2.86.28.63.49 1.09.66 1.48 1.07 1.15 2.1 2.25 3.11 3.35.1.11.12.31.18.49-.27-.07-.6-.06-.79-.21-1.16-.95-2.32-1.9-3.44-2.91-3.46-3.13-6.81-6.39-10.47-9.32-1.17-.94-2.21-2.03-3.28-3.09-.19-.18-.22-.55-.4-1.03m20.45 19.88c.13-.01.28-.08.37-.03.52.3.78.79.49.87-.13.03-.3-.03-.43-.09a.8.8 0 0 1-.33-.3c-.07-.13-.07-.3-.1-.45m18.32 9.67.21-.2.17.4zm.85 2.14.22-.2.13.36zm1.09 18.57-.11.27-.17-.21zm-1.28 6.9c1.46 1.23 3.14 2.3 4.21 4.02-.12.54-.21 1-.32 1.47-.37-.13-.73-.17-.97-.35-2.25-1.69-4.3-3.6-6.31-5.55-.22-.21-.32-.56-.47-.84.06-.08.14-.24.16-.23 1.27.35 2.33 1.19 3.7 1.48m5.91-46.27c.48.53 1.04 1.15 1.64 1.82.31.85.63 1.74.98 2.71-1.71-.33-2.12-1.64-2.42-2.79-.85-.86-1.55-1.57-2.31-2.33-.23-.55-.49-1.16-.84-1.97-3.22-2.89-6.58-5.9-9.85-8.83-.61-.16-1.1-.28-1.59-.41-.28-.18-.58-.33-.83-.54-1.41-1.18-2.83-2.36-4.21-3.58-.89-.78-1.82-1.43-2.98-1.78-.61-.18-1.09-.76-1.69-1.04-.75-.36-1.55-.61-2.63-1.02-1.27-1.11-3-2.04-4.84-2.88-2.88-1.32-6-2.06-8.82-3.5-.42-.21-1-.12-1.49-.21-.65-.13-1.34-.21-1.92-.49-1.7-.8-3.49-1.12-5.36-1.19-1.51-.06-3-.32-4.51-.37-1.34-.04-2.7.08-3.97.13-1.81-1.34-3.93-1.13-5.89-1.47-.98-.17-2.05-.18-3.03.03-2.34.51-4.75-.09-7.26.79-.2.17-.52.46-.86.75-.33-.29-.65-.58-.91-.82-2.43-.27-4.71.23-6.99.44-.23.02-.48-.23-.73-.38.35-.34.67-.82 1.07-.93 2.63-.67 5.23-1.38 7.98-1.47 4.57-.16 9.13-.62 13.7-.92.84-.06 1.74-.17 2.53.03 2 .51 4.04.21 6.12.27 2.41.45 4.8 1.28 7.33 1.51 1.76.16 7.21 1.58 8.19 2.26 1.69 1.19 3.63 1.66 5.71 2.25 1.08.83 2.27 1.74 3.45 2.65.49.16.97.32 1.59.52 2.06 1.74 4.23 3.58 6.36 5.38.68.26 1.3.49 2.08.79 5.37 4.82 10.85 9.73 16.35 14.67.26.6.53 1.21.85 1.92m-87.67-37.49c.75-.38 1.57-.69 2.39-.85 2.68-.54 5.16-1.69 7.92-2.71 3.5-.34 7.21-.69 10.93-1.07 1.34-.14 2.68-.35 4.02-.57 2.33-.38 4.69-.73 7.06-.23.65.14 1.35.1 2.02.04 2.72-.22 5.4-.14 8 .73 3.08.07 5.95.89 8.68 2.25.74.37 1.6.5 2.42.7.83.2 1.58.52 2.28 1.01 1.49 1.06 3.48 1.26 4.78 2.65 1.77.29 2.92 1.59 4.2 2.63 1.42 1.14 2.72 2.44 3.9 3.57-.08.57-.32.67-.74.55-1.12-.33-2.19-.78-3.26-1.26-1.06-.48-2.21-.75-3.1-1.55-4.01-1.59-7.72-3.87-11.99-4.86-2.61-.6-5.13-1.49-7.74-2.11-1.81-.42-3.57-.88-5.46-.65-.65.08-1.33-.14-1.99-.23s-1.32-.27-1.98-.27c-1.85-.01-3.69.13-5.52-.4-.77-.22-1.68-.04-2.52.02-2.7.2-5.4.42-8.1.64-1.01.08-1.99.3-2.98.59-2.77.79-5.55 1.5-8.47 1.61-1.66.07-3.3.71-4.96 1.03-.22.04-.48-.15-.73-.29.29-.36.56-.77.94-.97m-1.34 1.02-.51.24-.03-.37c.18.05.36.09.54.13m-2.77.75c.08-.07.26-.04.4-.05-.02.14 0 .32-.08.39-.07.07-.25.02-.38.03 0-.11-.02-.3.06-.37m-5.62 4.65c2.98-.57 5.9-1.39 8.74-2.59 1.88-.8 3.85-1.26 5.89-1.53 2.51-.33 4.99-.95 7.48-1.46.33-.07.62-.32.95-.36 1.35-.16 2.7-.26 4.05-.4 1.33-.13 2.6-.8 3.97-.48 3.41-.27 6.43-.15 9.54.16 1.84.18 3.65.51 5.53.53 2.7.02 5.38.49 7.9 1.41 1.42.52 2.85.96 4.3 1.37 2.81.8 3.92 1.31 7.33 3.14 1.17.63 2.36 1.31 3.63 1.63 1.33.33 2.35 1.27 3.7 1.51 1.17.2 1.99 1.17 3.2 1.4 1.36.26 2.17 1.52 3.33 2.19.47.15.95.3 1.65.53 2.46 2.2 5.08 4.54 7.69 6.9.87.79 1.68 1.62 2.09 2.78.11.3.34.6.6.79 1.37 1.06 2.07 2.59 2.89 4.04.24.42.53.81.85 1.3-.41 0-.75.1-.91-.02-1.3-1.05-2.58-2.14-3.84-3.24-1.89-1.66-3.74-3.36-5.63-5.01-.75-.66-1.49-1.39-2.37-1.83-.77-.38-1.4-.79-1.82-1.53-1.26-.18-2-1.14-2.91-1.87-1.82-1.45-3.42-3.21-5.75-3.94-.45-.14-.8-.6-1.2-.9-.8-.6-1.61-1.21-2.66-1.33-.17-.02-.35-.04-.49-.12-4.42-2.47-9.32-3.6-14.23-4.71-.49-.11-.96-.28-1.44-.42-1.67-.11-3.38.16-5.02-.39-.94-.32-1.97-.59-2.96-.54-1.87.09-3.67-.48-5.54-.32-1.86.16-3.73.09-5.58.26-4.22.4-8.45.7-12.68.82-1.18.03-2.36.24-3.52.36-.6.43-1.15.82-1.74 1.24-1.93.41-3.89.94-5.92.92-1.76.64-3.47 1.46-5.88 1.4-.64-.17-1.77-.45-2.88-.79-.34-.1-.43-.45-.34-.9m13.96 2.17c-.19.24-.35.53-.6.66-1.9 1.03-3.89 1.72-6.07 1.41-.11-.02-.22-.1-.32-.17.3-.33.6-.67.88-.98 1.63-.38 3.22-.75 4.8-1.11.47-.09.92-.12 1.31.19m-7.16 1.93c-.52.62-1.06 1.19-1.97.69-.12-.07-.24-.2-.27-.33-.03-.11.02-.35.09-.38.73-.3 1.48-.59 2.15.02m-4.1 1.12c-.18-.04-.37-.07-.55-.11.17-.09.34-.18.51-.26.01.12.03.25.04.37m-.95-.05c-.27.27-.52.56-.82.78-.33.24-.7.22-1.05.03.26-.3.5-.62.81-.86.35-.26.73-.2 1.06.05m-2.9.89a.45.45 0 0 1 .21-.26c.23-.08.43-.01.59.17-.69.43-.85.44-.8.09m1.1 6.58c-.11-.36.06-.5.46-.35.08.03.14.08.21.13-.08.05-.16.1-.25.13-.14.06-.42.11-.42.09m39.87 12.98c-.35-.13-.83-.29-1.52-.54-1.52-1.23-3.2-2.6-4.99-4.04-1.74-.69-3.63-1.34-5.44-2.19-1.66-.78-3.3-1.59-5.08-2.09-.92-.82-2.12-.96-3.24-1.29-4.35-1.27-8.76-2.28-13.32-2.55-1.14-.46-2.35-.11-3.52-.19-.61-.04-1.26.01-1.81-.31.3-.33.6-.67.97-1.08 2.1-.33 4.3-.44 6.28-.59 2.25.12 4.1 1.11 6.15 1.13.49 0 1.04.12 1.46.37 1.17.71 2.48 1.09 3.77 1.34 1.37.26 2.35 1.21 3.68 1.55 1.26.32 2.45 1 3.7 1.46 1.25.45 2.42 1.11 3.64 1.66.45.2.94.34 1.4.53 1.39.56 2.85 1 4.14 1.74 1.16.67 2.53.85 3.6 1.75 1.14.97 2.81 1.1 3.89 2.22 2.81.89 4.82 2.92 6.97 4.75 3.57 3.04 7.08 6.16 10.35 9.54.58.6 1.24 1.15 1.71 1.82.38.54.72 1 1.29 1.41.63.44.94 1.32 1.47 1.93.54.63 1.19 1.18 1.7 1.67.33.73.6 1.34.9 2.01.93.9 1.88 1.84 2.91 2.84.24.53.51 1.14.78 1.75 3.15 3.73 7.41 6.28 10.54 9.86.24 1.11.68 2.09-.34 3.08-.58-.04-1.3.06-1.9-.16-1.4-.5-2.74-1.16-4.17-1.78-.27-.76-.55-1.54-.83-2.32-1.82-1.93-4.21-3.33-5.37-5.86-.47-.54-1.23-.52-1.79-.85-.42-.25-.97-.59-1.08-1-.51-1.88-2.3-2.86-2.99-4.6-.24-.59-.81-1.04-1.25-1.54-1.2-1.38-2.83-2.4-3.46-4.25-1.3-1.31-2.55-2.67-3.91-3.91-4.97-4.52-9.93-9.04-15.29-13.27m-26.72 16.91c3.21.47 6.41-.1 9.7.02 1.21.28 2.5.7 3.83.85 5.7.67 11.09 2.44 16.54 4.03.64.19 1.33.3 1.89.63 1.15.68 2.66.58 3.62 1.65 1.49.26 2.97.61 4.27 1.35 1.19.68 2.55.8 3.78 1.32 1.07.45 2.16.88 3.26 1.26 1.15.4 1.96 1.24 2.88 1.95.53.41 1.05.83 1.63 1.15.57.32 1.3.34 1.72 1.01.18.54.45 1.14-.07 1.74-1.62-.85-3.52-1.08-4.98-2.24-1.9-.26-3.02-2.1-4.95-2.32-.15-.02-.27-.18-.42-.27-1.15-.65-2.03-1.74-3.44-1.98-1.17-.2-2.03-1.08-3.15-1.48-1.24-.44-2.39-1.13-3.69-1.48-.48-.13-.9-.55-1.37-.56-2.74-.11-5.07-1.56-7.67-2.16-1.62-.37-3.19-.94-4.89-1-.84-.03-1.69-.14-2.48-.4-2.73-.9-5.61-.9-8.43-1.26-1.65-.21-3.36.01-5.05.06-2.19.07-4.39.16-6.53.24l-1.14-.85c2.12-1.06 3.27-1.54 5.14-1.26m-5.39 1.24c-.38.35-.77.33-1.17.08.5-.41.59-.41 1.17-.08m-1.48.1c-.36.22-.73.3-1.11.08.36-.28.73-.33 1.11-.08m-1.43.09c-.55.37-.65.38-1.15.06.38-.32.76-.33 1.15-.06m-2.06-.06c.21.04.42.11.63.18-.22.23-.44.44-.78.09-.02-.03.12-.27.15-.27m-58.03 23.78c2.08-.86 3.55-2.63 5.54-3.67 1.96-1.01 3.83-2.21 5.8-3.2 2.58-1.3 5.26-2.39 7.71-3.95.85-.54 1.84-.89 2.8-1.24 3.66-1.36 7.17-3.14 11-4.05 1.8-.43 3.49-1.34 5.09-1.98 1.17-.14 2.19-.24 3.2-.37 1.68-.21 3.36-.33 4.99-.95 1.26-.48 2.6-.78 3.93-.98 1.85-.28 3.71-.46 5.57-.59 3.05-.21 6.12-.59 9.14-.44 3.55.19 7.09.18 10.65 0 .98-.05 1.97.31 2.97.43 6.54.79 6.54.79 12.8 2.54 2.58.72 5.17 1.44 7.95 2.21 1.04.45 2.01 1.39 3.4 1.67 1.65.33 3.17 1.07 4.46 2.2.25.22.53.48.84.54 1.37.27 2.45 1 3.55 1.79.94.67 2.17.88 3.05 1.69.24.22.55.41.86.52 1.25.47 2.5.95 3.77 1.36 1.44.47 2.73 1.24 4.09 1.84 1.23.55 2.5.97 3.77 1.37s2.37 1.32 3.8 1.24c3.32 1.11 6.65 2.23 10.03 3.36.45.44.92.91 1.42 1.41.3.9.61 1.81.96 2.83-1.12-.27-2.08-.56-3.06-.73-2.68-.45-5.13-1.51-7.55-2.64-3.02-1.41-6.19-2.45-9.19-3.9-.44-.21-.95-.32-1.43-.44-1.31-.31-2.62-.59-4.16-.94-1.56-.83-3.3-1.81-5.29-2.27-1.46-.34-2.96-.64-4.2-1.57-1.4-.15-2.43-1.06-3.64-1.6-1.65-.76-3.25-1.67-5.03-2.14-.85-.93-2.26-.69-3.18-1.42-.94-.74-2.06-1.07-3.1-1.58-.76-.37-1.46-.73-2.34-.8-1.69-.12-3.31-.53-4.91-1.09-.95-.33-1.87-.75-2.81-1.06s-2-.26-2.99-.45-1.95-.51-2.94-.69c-1.14-.21-2.4.2-3.43-.59-1.01-.01-2.02 0-3.04-.05-.84-.03-1.68-.13-2.52-.2-1.13.35-2.27.71-3.48.61-2.02-.17-4.06.49-6.08.06-2.51.39-5.01.78-7.51 1.2-.83.14-1.66.6-2.47.56-2.44-.12-4.61 1.15-6.97 1.35-2.64 1.23-5.67 1.12-8.25 2.55-.15.08-.33.17-.48.16-2.64-.2-5 .94-7.36 1.86-2.2.86-4.36 1.89-6.3 3.32-.41.3-.89.5-1.35.7-2.5 1.11-4.86 2.47-7.33 4.1-.63.12-1.47.29-2.44.48-1.48.9-3.08 1.88-4.74 2.9-.76.16-1.59.34-2.28.49-.84.51-1.52 1.04-2.3 1.34-.57.23-1.26.35-1.76-.23.67-1.18 1.81-1.94 2.77-2.87m95.53-9.36c-.63.06-1-.35-1.4-.71 1-.35 1.03-.31 1.4.71m-1.67-.78c-.24.16-.48.37-.71.38-.67.03-1.36.02-1.99-.14-1.94-.51-3.92-.85-5.91-1.09-.67-.08-1.33-.25-2-.21-2.87.14-5.68-.23-8.5-.61-.83-.11-1.68-.11-2.52-.09-1.34.02-2.7.22-3.98-.34-2.35.09-4.67-.29-7.01-.2-3.19.13-6.41.15-9.52 1.16-.16.05-.33.07-.5.09-1.68.19-3.35.37-5.03.55-1.4.84-2.96.5-4.45.72-2.16.32-4.39.09-6.45 1.13-.43.22-.99.16-1.5.2-1.68.14-3.34.27-4.94.95-.51.22-1.23.29-1.78-.15.2-.23.41-.46.69-.77 1.25-.63 2.73-.96 4.19-1.4 3.08-.93 6.21-1.71 9.31-2.57 2.28-.63 4.62-1.09 6.96-1.51 3-.54 6-1.1 9.01-1.63 3.86-.67 7.77-.8 11.66-.87 1.68-.03 3.36.24 5.56.42.78.21 2.06.63 3.38.87 3.82.7 7.47 1.95 11.22 2.9 1.31.33 2.36 1.26 3.76 1.38.4.04.72.5 1.05.83m-66.98 2.37c-.32.3-.63.61-.97.89-.11.09-.44.11-.46.07-.16-.35-.05-.64.25-.86.41-.28.79-.35 1.18-.1m-30.55 10.58c.27-.18.53-.14.76.08-.19.24-.43.35-.73.29-.05 0-.09-.33-.03-.37m-18.93 23.71c2.87-3.66 6.08-7.01 9.28-10.37.35-.37.69-.9 1.13-1.03 1.71-.53 2.6-2.25 4.23-2.86.66-.24 1.26-.58 1.7-1.12 1.12-1.36 2.87-1.86 4.07-3.06 1.11-1.11 2.33-2 3.71-2.72 1.51-.79 2.95-1.7 4.42-2.56 1.62-.94 3.24-1.88 4.87-2.78 1.6-.89 3.1-2.05 5.02-2.42 1.64-.31 3.08-1.43 4.8-1.65 1.68-.22 3.32-.65 4.97-1.01 1.98-.44 3.91-1.28 5.99-1.15 2.53-1.15 5.31-.94 7.94-1.69 1.78-.51 3.69-.61 5.55-.75 3.04-.23 6.09-.34 9.06-1.24 3.39-.25 6.77-.53 10.16-.73.66-.04 1.32.25 1.99.3 2.52.18 5 .79 7.56.46.33-.04.71-.08 1.01.03 2.1.76 4.4-.02 6.49.73 3.88.21 7.61 1.23 11.41 1.86 5.49.91 10.76 2.54 16.14 3.82 2.79.66 5.41 1.73 8.02 2.86.46.2.87.52 1.35.66 1.76.54 3.47 1.18 5.2 1.81 1.57.57 3.01 1.42 4.6 1.92s3.17 1.07 4.91 1.66c.92.74 1.96 1.58 3.01 2.42 3.16 1.03 5.18 3.6 7.62 5.61 1.55 1.28 3.06 2.61 4.55 3.96.74.67 1.42 1.41 1.75 2.42.15.46.46.9.79 1.25 1.41 1.45 1.9 3.57 3.52 4.86.3.24.41.71.65 1.15-1.12 0-1.54-.88-2.27-1.25-.74-.38-1.54-.65-2.25-1.07-.41-.25-.81-.64-1.02-1.07-.53-1.11-1.18-2.02-2.43-2.37-1.01-.29-1.72-1.03-2.5-1.65-1.44-1.15-2.85-2.33-4.13-3.39-.67-.22-1.14-.38-1.68-.56-.35-.27-.79-.54-1.14-.89-1.82-1.8-4.34-2.46-6.37-3.91-1.44-.13-2.26-1.45-3.53-1.81-1.16-.33-2.1-1.01-3.2-1.41-1.25-.45-2.49-.95-3.72-1.44-1.08-.43-2.09-1.06-3.27-1.26-1-.99-2.44-1.05-3.63-1.65-1.33-.67-2.85-.97-4.22-1.52-1.4-.57-2.76-1.15-4.25-1.43-.49-.09-1.01-.19-1.42-.45-1.46-.9-3.11-1.2-4.74-1.62-2.76-.72-5.5-1.5-8.26-2.19-2.11-.53-4.22-1.13-6.46-.95-1.8-.46-3.63-.57-5.49-.52-.66.02-1.33-.2-1.98-.34-1.31-.29-2.6-.7-3.93-.87-1.13-.14-2.28.26-3.47-.02-1.3-.3-2.67-.39-4.01-.42-1.69-.04-3.39.01-5.08.15-1.36.12-2.69.23-3.71-.27l-1.3.65c-2.61.01-5.33-.09-7.92 1.03-.3.13-.67.1-1 .13-6.67.47-6.68.45-12.32 2.39-2.25.77-4.6 1.18-6.79 2.18-2.02.92-4.09 1.71-6.15 2.54-.79.32-1.57.68-2.37.92-3.27 1-6.18 2.81-9.22 4.31-.99 1.04-2.32 1.47-3.59 1.91-1.17.41-1.89 1.49-3.06 1.85-1.03.32-1.69 1.14-2.39 1.89-.6.64-1.35 1-2.12 1.41-3.01 1.58-5.82 3.52-8.86 5.06-.74.38-1.32 1.09-1.93 1.62-.8.39-1.54.85-2.34 1.12-.99.34-1.81.88-2.61 1.56-.77.65-1.79.99-2.58 1.62-.8.63-1.43 1.47-2.19 2.17-.18.16-.55.11-.84.16.05-.36.08-.73.27-.98m-6.17 14.77c.17-.09.46.06.72.16-.8.99-1.55 2.03-2.83 2.48.27-1.23 1.04-2.08 2.11-2.64m55.56 65.63c-.07-.09-.13-.18-.13-.27.01-1.07.47-1.81 1.6-2.01-.08 1.03-.92 1.56-1.47 2.28m21.36-22.4c-1.15.69-2.31 1.33-3.35 2.22-.88.75-1.95 1.35-3.01 1.81-1.43.62-2.59 1.54-3.65 2.65-.1.1-.32.14-.47.14-.21 0-.34-.34-.07-.68.85-1.05 1.78-2.04 2.68-3.05 2.36-1.27 4.27-3.33 6.94-4.04.64-.17 1.27-.36 1.91-.51.1-.02.21.06.33.12-.44.48-.8 1.03-1.31 1.34m5.03-1.89c-.95.25-1.87.58-2.83.78-.2.04-.44-.14-.68-.28.32-.32.61-.68.98-.88.72-.4 1.51-.67 2.63-1.16.76-.02 1.9-.06 3.04-.07.1 0 .19.12.28.22-.19.22-.38.42-.47.52-.98.73-2.01.62-2.95.87m23.37.49c-1.5-.2-2.8-1.26-4.35-1.1-1.41.15-2.65-.39-3.98-.54a42.5 42.5 0 0 0-9.09-.06c-.77.08-1.61.28-2.34-.19.31-.34.62-.69 1.01-1.12l11.4-.77c1.83.41 3.47.76 5.09 1.16.81.2 1.59.51 2.39.77.9 1.12 2.52.91 3.51 1.85.23.21.36.53.57.86-1.52.11-2.8-.67-4.21-.86m62.08 40.18c.8.42.8.43 1.52 1.61-1-.11-1.51-.94-2.23-1.45.22-.2.47-.28.71-.16m-.95.17c-.26.22-.55.33-.79.17-1.51-1.06-3.49-1.21-4.92-2.43-1.65-.38-2.99-1.45-4.55-2.02-.29-.82-.62-1.58-1.61-1.73-1.05-.16-1.8-.84-2.76-1.7-.18-.36-.46-.96-.83-1.74-.96-1.12-2.04-2.41-3.76-2.86-1.56-2.92-4.36-4.62-6.79-7.06-.17-.36-.45-.96-.87-1.87-.88-.79-2-1.79-3.05-2.74-.86-.32-1.64-.61-2.41-.89-.36-.67-.67-1.26-1.02-1.92-.21-.1-.52-.24-.82-.38-.27-.41-.53-.82-.89-1.38-2.24-.49-3.61-2.74-5.69-3.17-.52-.8-.8-1.44-1.26-1.9-1.53-1.55-3.12-3.05-5.35-3.59-1.63-1.15-3.86-1.27-5.19-2.95a.74.74 0 0 0-.42-.27c-2.1-.42-3.35-2.17-5.07-3.23l-7.63-2.14c-2.98-.18-6.36.36-9.74.57-2.35.15-4.74.09-7.04.99-.58.23-1.32 0-1.93-.01-.47.35-.89.65-1.35.98-.94.21-1.93.44-2.85.65-.48.36-.89.68-1.38 1.05-.73.19-1.56.4-2.37.61-2.07 1.2-4.13 2.39-6.54 3.79-2.32 1.98-4.33 4.8-6.67 7.3-.26.67-.51 1.3-.82 2.06-1.56 1.88-3.2 3.87-4.85 5.85-.4 1.74-1.64 2.99-2.56 4.43-1.06 3.07-2.07 6.14-2.45 9.38-.11 1-.47 1.98-.78 2.96-.1.3-.41.53-.62.79.54.69.54.69.06 1.44.15.25.42.48.44.74.06.92.07 1.85.03 2.78-.01.24-.19.48-.32.71-.32-.33-.72-.62-.86-1.01-.22-.61-.21-1.31-.3-1.99.34-.44.65-.83.96-1.23-.53-.69-.53-.69-.06-1.44-.11-.12-.32-.24-.33-.37-.1-1.51-.17-3.02-.24-4.14.46-2.38 1.17-4.29 1.41-6.34.25-2.16.89-4.32 1.77-6.35.81-1.86 1.79-3.66 2.88-5.38.9-1.44 2.16-2.64 2.75-4.3.22-.61.8-1.1 1.25-1.61 1.02-1.16 2.06-2.3 3.03-3.39 2.16-.69 3.27-2.57 4.91-3.9 1.38-.51 2.69-1.27 3.51-2.32 2.47-1.28 4.78-2.36 6.97-3.65.9-.53 1.77-.95 2.77-1.2 1.31-.33 2.59-.8 4.22-1.32.47.02 1.31.14 2.13.08 1.33-.09 2.6-.58 4-.34 1.14.2 2.36-.05 3.54-.09 1.35-.04 2.71-.04 4.06-.12 1.55-.09 3 .33 4.45.71 3.56.93 7.11 1.92 10.4 2.82.93.59 1.58 1.2 2.35 1.46 1.63.54 3.02 1.41 4.26 2.56 1.11 1.03 2.76 1.12 3.85 2.28 1.02 1.09 2.37 1.79 3.8 2.36.73.29 1.46.96 1.81 1.66.7 1.39 1.74 2.45 2.76 3.54.45.48 1 .96 1.23 1.55.46 1.16 1.36 1.9 2.21 2.69 1.47 1.37 2.98 2.69 4.32 3.89 2.84 1.02 4.8 2.73 6.04 5.31 4.8 4.84 10.04 9.25 15.24 13.67.66.25 1.28.49 2.01.76 1.42 1.28 2.87 2.58 4.32 3.88M185.1 262c.25.32.26.68.06 1.07-.16.32-.41.46-.76.36-.04-.01-.05-.32.02-.43.2-.34.44-.67.68-1m.2 22.11c-.34-.39-.43-.79-.04-1.22.4.6.41.69.04 1.22m-.04-1.41c-1.04-.58-1.41-1.52-1.25-2.7.03-.24.25-.47.42-.69.54.37.88.88.96 1.56.06.61.32 1.24-.13 1.83m-1.83-10.2c-.05-.18-.11-.36-.16-.54.12.01.25.03.37.04-.07.17-.14.34-.21.5m.03.47c.28.35.24.71.02 1.09-.16-.35-.18-.71-.02-1.09m.03 1.47c.26.33.29.69.06 1.06-.19-.34-.21-.69-.06-1.06m.07 1.44c.26.34.26.7.03 1.07-.15-.35-.18-.71-.03-1.07m.21-6.06.36-.1-.16.34zm-.15 7.45c.28.24.57.48.79.77.26.34.22.74-.01 1.11-.62-.48-1.19-.98-.78-1.88m-3.68-2c.23.18.32.4.24.67-.02.09-.18.19-.28.19-.35-.02-.34-.25.04-.86m69.89-47.56c1.38.23 2.22 1.23 3.12 2.12-.24.24-.51.35-.78.24-.95-.38-1.72-.98-2.26-1.85-.08-.13-.06-.33-.08-.51m3.31 2.15c.25-.12.52-.3.73-.25.85.19 1.34.78 1.51 1.66-1.11.05-1.63-.75-2.24-1.41m16.71 10.23c.29.08.49.08.61.17 1.28 1.05 2.55 2.11 3.59 2.98.81 1.21 1.42 2.18 1.5 3.53-1.81-1.07-3.07-2.65-4.7-3.94-.31-.85-.65-1.76-1-2.74m7.67 8.16c3.07 1.82 3.08 1.83 4.74 4.07-.09.06-.21.18-.26.16-1.8-.93-2.8-1.88-4.48-4.23m13.58 16.48.32-.03-.07.32zm1.51 1.34.34-.04-.07.34zm8.66 1.04c-.22-.15-.44-.32-.62-.51-.05-.05.02-.21.04-.32.25.11.52.2.75.35.08.06.09.26.09.4 0 .03-.21.11-.26.08m.39-4.93c-1.25-.41-2.64-.58-3.64-1.57-1.39-.2-2.42-1.03-3.51-1.83-.79-.58-1.75-.93-3.11-1.63-.34-.3-1.1-.96-1.82-1.64-.6-.56-1.33-1-1.67-1.76-.09-.36.15-.5.56-.22 1.36.93 2.42 2.35 4.26 2.46 2.2 1.88 5.1 2.39 7.61 3.66.88.45 1.88.67 2.83.97 1.74.55 3.49 1.09 5.72 1.78 2.86-.09 6.16.48 9.41 1.23 1.68.39 3.34.2 5.01.36.47.04.84.36 1.11.77-.91.84-2.11.89-3.42 1.28-3.06-.7-6.46-.53-9.7-1.35-1.56.1-2.91-.59-4.33-1.05-1.75-.56-3.57-.9-5.31-1.46m4.14 6.51c-.23-.29-.21-.58 0-.68.12-.06.34-.05.45.02.34.24.66.5.99.77-.81.42-1.01.42-1.44-.11m34.35-1.77c-.98.27-1.94.63-2.93.79-3.64.59-7.3 1.09-10.84 2.2-2.34.22-4.68.45-7.02.65-.67.06-1.35-.02-2.01.1-3.27.61-6.3-.27-9.31-1.25-.25-.08-.44-.36-.64-.59.26-.16.53-.4.78-.38 2.02.08 4.07.06 6.04.41 1.55.28 2.99.35 4.48-.17 1.84.63 3.66-.21 5.49-.23 1.67-.02 3.41-.3 4.99-.84 3.1-1.05 6.37-.92 9.48-1.87.72-.22 1.58-.41 2.32.08-.27.37-.55.73-.83 1.1m-15.61-2.15c.32-.3.62-.64.99-.85.52-.3 1.05.08 1.17.81-.72.18-1.45.49-2.16.04m16.68 1.04c.39-.26.77-.33 1.17-.08-.38.26-.77.37-1.17.08m2.18-.03c-.24.12-.47.1-.68-.03.21-.11.42-.23.63-.34.02.12.08.35.05.37m3.42-1.24.2.24-.35.09zm-80.32-36.37c1.32 1.03 2.61 2.1 4.1 3.32.39.15 1.01.39 1.96.76 1.24 1.12 2.72 2.47 4.23 3.79 1.76 1.53 3.37 3.27 5.73 3.95 1.04.84 2.09 1.67 3.1 2.53.78.66 1.59 1.22 2.61 1.42.27.42.54.83.8 1.24 4.99 2.72 10.12 5.08 15.67 6.29.61.41 1.16.79 1.84 1.25 1.59.57 3.32 1.18 5.04 1.8.31.11.61.3.93.35 4.32.63 8.5 1.94 12.87 2.32 1 .09 2 .27 2.97.51 1.31.32 2.63.52 4 .49.66-.01 1.33.14 1.99.24 2.83.42 5.66.72 8.55.51.78-.06 1.62-.26 2.37.18-.05.16-.06.42-.14.45-3.3 1.21-4.74 1.62-6.84 1.77-4.73.34-9.46.71-14.19.89-2 .08-4.03-.22-6.01-.5-1.48-.21-2.86-.93-4.43-.8-1.36.11-2.57-.6-3.96-.6-1.47 0-2.96-.36-4.27-1.24-.81-.54-1.84-.74-2.79-1.06-2.06-.69-4.05-1.5-5.94-2.6-1.28-.74-2.68-1.27-3.9-2.16-.51-.37-1.25-.44-1.88-.65-7.07-6.15-14.24-12.19-21.09-19.19-.12-.22-.43-.81-.77-1.47-1.01-1.22-2.32-2.26-3.5-3.69.5-.06.82-.2.95-.1m42.52 13.67c.6-.04.93.4 1.33.71-.94.33-.98.26-1.33-.71m3.25 2.06c-.56-.38-1.05-.85-1.57-1.29.35-.25.75-.33 1.09-.1.57.38 1.06.87 1.58 1.33-.36.23-.76.28-1.1.06m24.66 6.07c-2.37 0-4.64-.63-6.96-1-2.66-.43-5.22-1.21-7.82-1.83-.81-.19-1.59-.48-2.44-.54-.65-.04-4.54-1.42-5.12-1.82-.37-.26-.68-.61-1-.94.1-.11.2-.24.28-.23 2.12.24 4.26.39 6.15 1.49 3.7.88 7.29 2.25 11.16 2.46.66.04 1.37.13 1.95.4 1.25.59 2.56.6 3.89.69.42.03.81.48 1.21.74-.31.49-.79.58-1.3.58m2.44-3.6c.33.17.47.44.34.8-.02.06-.31.1-.42.04-.36-.21-.7-.46-1.04-.7.32-.31.69-.36 1.12-.14m-2.24-.55c.33.18.61.45.9.7-.33.27-.71.36-1.07.15-.33-.19-.62-.48-.91-.74.33-.24.72-.31 1.08-.11m-68.25-30.61c1.43 1.14 2.84 2.31 4 3.27.84.19 1.33.31 1.88.43.87.71 1.72 1.54 2.69 2.18.96.64 2.09 1.04 3.07 1.67.99.63 1.88 1.4 2.82 2.11 1.91.4 3.13 1.87 4.66 2.87 1.24.81 2.81 1.09 3.9 2.18 1.63.46 2.92 1.6 4.46 2.21 2.49.97 4.83 2.29 7.42 3.03 1.12.32 2.27.61 3.23 1.33 2.41.68 4.66 1.83 7.11 2.42.81.19 1.62.44 2.39.75 1.23.51 2.4 1.19 3.66 1.62s2.61.62 3.91.97c3.4.91 6.79 1.86 10.2 2.75a3.3 3.3 0 0 1 1.59.92c-.23.18-.45.41-.69.44-.5.07-1.04.06-1.51-.07-3.08-.81-6.21-1.43-9.34-2.01-1.84-.34-3.49-1.13-5.23-1.71-2.38-.8-4.85-1.34-7.27-2.01-1.45-.4-2.93-.75-4.19-1.61-5.23-1.75-10.13-4.25-15.24-6.29-2.49-.99-4.86-2.22-6.84-4.11-1.45-1.38-2.95-2.67-4.9-3.45-1.05-.42-1.88-1.38-2.79-2.12-1.41-1.16-2.67-2.45-4.49-3.14-1.45-.55-3.68-2.91-5.2-4.68.26.02.55-.06.7.05m-12.29-4.46c.68.47 1.29 1.04 1.79 1.45.66.22 1.13.37 1.66.54 2.64 2.25 5.3 4.52 7.95 6.78.51.15.99.3 1.51.45.99.8 2.27 1.34 2.83 2.67-.1.07-.21.2-.25.18-1.46-.75-3.18-.97-4.45-2.13-.64-.59-1.52-.64-2.29-.79-2.09-1.49-3.98-3.1-5.73-4.9-1.51-1.55-3.2-2.93-4.77-4.42-.34-.32-.53-.8-.82-1.25 1.26-.13 1.79.87 2.57 1.42m-6.18-7.58c.15.03.35 0 .43.09.18.21.31.47.46.71-.09.03-.21.1-.26.07a5 5 0 0 1-.64-.55c-.04-.05.01-.21.01-.32m-4.45 4.76c.67.17 1.15.3 1.68.44 3.45 3.1 6.94 6.22 10.07 9.03 1.09 1.44 1.44 2.76 2.54 3.67 1.67 1.38 3.21 2.93 4.77 4.44.16.16.11.53.16.82-.33-.08-.73-.07-.95-.26-3.71-3.37-7.38-6.79-11.1-10.15-1.61-1.46-3.32-2.81-5.01-4.23-.89-.39-1.81-.8-2.82-1.25-.31-.51-.65-1.08-1.05-1.73-.03-.02-.17-.12-.32-.15-1.88-.41-2.73-2.38-4.63-2.88-1.59-.42-2.87-1.55-3.94-2.83.23-.28.51-.44.79-.34 1.25.44 2.61.67 3.63 1.61.64.59 1.49.72 2.57.97 1.13.89 2.44 1.91 3.61 2.84m-19.69-11.81c-1.22-.51-2.57-.66-3.9-.87-.97-.16-1.88-.65-2.82-1-.46-.17-.91-.49-1.38-.52-2.84-.18-5.65-.72-8.53-.44-1.85.19-3.68.22-5.54 0-1.82-.22-3.68-.11-5.47.65-.76.32-1.64.38-2.48.49-.66.09-1.15.76-1.86.58-.12-.03-.23-.12-.34-.2.4-.49.8-.98 1.19-1.45 3.18-.86 6.27-1.71 9.49-1.82.3-.14.6-.29.91-.42s.63-.24 1.18-.45c4.33-.09 8.8.49 13.21 1.55 1.62.39 3.23.84 4.86 1.22 2.12.5 4.23 1.02 6.02 2.36.5.38 1.28.38 1.85.69s1.12.74 1.2 1.5c-.14.02-.29.08-.41.05-1.28-.37-2.53-.77-3.74-1.34-1.02-.49-2.31-.1-3.44-.58m3.32 3.62-.34.05.09-.34zm-39 3.11c-.38-.41-1-.64-.93-1.38.74-.15 1.48-.51 2.19-.03zm-2.2-14.61c.31-1.37 1.43-1.74 2.85-1.17-.28.31-.55.62-.84.94-.69.08-1.32.15-2.01.23m1.12 1.91-.37.12.15-.36zm1.88 5.64c-.1.09-.42.13-.45.08-.16-.28-.08-.57.2-.8.36-.3.75-.34 1.14-.15-.3.3-.58.6-.89.87m.36 2.76c-.53.43-.62.44-1.19.07.39-.28.78-.36 1.19-.07m.44-11.42c-.25.12-.49.08-.69-.07.23-.1.46-.21.69-.31 0 .13.05.36 0 .38m-2.07 11.55c-.17.1-.33.2-.5.3l-.09-.38c.2.03.39.06.59.08m2.08.09c-.1-.02-.18-.13-.27-.23.93-1.15 2.06-1.46 3.4-.93-.74 1.2-1.88 1.35-3.13 1.16m2.49 2.39c-.36.28-.73.31-1.11.14.29-.28.57-.56.87-.82.11-.09.41-.14.44-.09.16.27.07.55-.2.77m-1.39.17c-.4.31-.8.4-1.22.08.4-.35.81-.42 1.22-.08m-.76-6.43c.4-.3.81-.47 1.25-.09-.42.37-.84.45-1.25.09m34.84 4.4c-.2.22-.4.45-.61.69-2.18-.45-4.29-1.02-6.5-.9-.5.03-1.04.03-1.5-.13-2.57-.9-5.34-.53-7.96-1.11-1.15-.25-2.35-.15-3.54.01-.84.11-1.69.15-2.54.15-1.01 0-2.01-.14-3.02-.12-.83.01-1.68.28-2.48.18-.77-.09-1.65.05-2.28-.56.35-.33.66-.77 1.06-.88 1.14-.32 2.29-.55 3.44-.91 1.1-.35 2.36-.41 3.51-.28 2.87.33 5.72.08 8.76-.06 4.4 1 8.94 2.15 13.41 3.56.1.01.15.2.25.36m-30.6-1.82c-.64.48-.72.49-1.27.07.41-.38.83-.46 1.27-.07m.28-8.54.13-.32.2.24zm2.72-3.16.27-.25.1.38zm35.46 17.06c-1.01.52-1.11.46-1.59-.77.73-.11 1.16.32 1.59.77m5.34-8.49c.67-.04 1.07.4 1.5.78-.93.44-1.01.38-1.5-.78m76.6 38.55c-1.21-.52-2.52-.76-3.72-1.36-1.01-.5-2.23-.62-3.15-1.37-1.76-.3-2.96-1.43-4.08-2.68-.1-.11-.1-.32-.16-.5 1.02-.57 1.7.6 2.68.44.91.65 1.77 1.54 2.82 1.93 1.25.46 2.31 1.36 3.59 1.61 1.2.24 1.97.97 2.78 1.71-.23.24-.49.34-.76.22m1.7-.01c-.17-.06-.35-.12-.52-.19.18-.06.36-.12.53-.18 0 .12-.01.25-.01.37m2.89 1.17-.22-.26.32-.05zm12.39 1.05c.05.02 0 .25-.01.39-.23-.09-.46-.18-.69-.26.2-.2.43-.25.7-.13m-136.99-58.76c1.85-.17 3.71-.35 5.57-.53 1.69-.16 3.39-.31 5.07-.51 1.17-.14 2.35-.58 3.5-.53 2.69.13 5.37.48 8.05.74 2.47 1.08 5.19 1.24 7.78 1.89 2.61.65 5.29 1.13 7.77 2.1 4.07 1.59 8.33 2.56 12.51 3.76 1.62.46 3.1 1.25 4.72 1.69 1.58 1.24 3.61 1.74 5.14 3.08.76.67 1.61 1.17 2.64 1.38 1.34.28 2.16 1.59 3.55 1.82 2.02 1.47 4.6 2.02 6.45 3.78.24.23.53.51.83.55 2.12.3 3.31 2.27 5.3 2.8 1.48.39 2.49 1.67 4 2.06 1.46.38 2.36 1.94 4.01 2.01.81.59 1.62 1.19 2.43 1.79.81.61 1.92.53 2.73 1.23 1.01.87 2.07 1.67 3.41 2.08 1.28.39 2.04 1.75 3.48 1.94.32.04.65.21.89.42 1.9 1.69 4.56 2.15 6.39 3.94 1.67.75 3.34 1.51 5.34 2.41 1.15.92 2.59 2.06 4.01 3.18 1.51.01 2.59.7 3.4 1.84-.13.11-.25.26-.38.27-1.04.08-1.86-.62-2.85-.73-1.51-1.38-3.62-1.64-5.26-2.83-1.19-.86-2.74-1.1-3.94-2.1-.99-.82-2.42-.98-3.53-1.81-1.18-.88-2.72-1.21-3.95-2.13-.77-.58-1.82-.79-2.73-1.2-1.37-.61-2.8-1.1-3.94-2.13-.36-.33-.82-.63-1.28-.75-1.2-.29-2.13-.97-2.97-1.79-.77-.74-1.77-.89-2.69-1.17-.71-.52-1.38-1.02-2.03-1.49-.52-.14-1.01-.26-1.75-.45-.69-.62-1.56-1.39-2.35-2.1-2.2-.29-3.5-2.15-5.57-2.51l-4.36-3.4c-1.53-.17-2.53-1.56-3.93-1.97-1.55-.45-2.58-1.5-3.74-2.33-1.64-.55-3.27-.95-4.76-1.65-1.5-.7-3.25-.93-4.46-2.19-2.22-.72-4.25-1.89-6.41-2.72-1.69-.65-3.28-1.58-5.25-1.52-.96.03-1.93-.49-2.89-.77-1.45-.42-2.88-.85-4.43-.74-.48.03-1.04-.11-1.43-.36a4.82 4.82 0 0 0-2.86-.8c-1.09.03-1.83-.79-2.82-.96-1.15-.2-2.38.08-3.46-.53-2.06.04-3.99-.54-5.75-1.05-2.36-.18-4.56.1-6.75-.22-1.31-.19-2.69.02-4.04.1-1.35.07-2.7.24-4.05.28-1.12.03-2.25.17-3.33-.22.29-.31.62-.61.97-.95m-8.56 2.01c1.25-.46 2.54-.82 3.82-1.19.8-.23 1.61-.4 2.5-.61.31.25.65.52.99.79-.57.65-1.44.6-2.16.83-1.74.55-3.52.95-5.28 1.39-.15.04-.33-.03-.49-.06-.11-.55.19-.99.62-1.15m-2.74 1.63c.09-.09.29-.07.44-.09-.03.15-.01.35-.09.44s-.28.06-.43.09c.02-.15-.01-.35.08-.44m-4.25 1.69c.08-.08.28-.02.43-.02-.02.11.01.31-.08.38-.09.08-.28.05-.43.07.03-.14-.01-.35.08-.43m-1.32 3.88c.89-.49 1.74-1.05 2.7-1.41.79-.29 1.56-.71 2.37-.93 2.13-.59 4.18-1.4 6.27-2.1 1.13-.37 2.28-.67 3.43-.98.33-.09.67-.13 1-.17 2.87-.27 5.74-.56 8.61-.79 1.35-.11 2.71-.18 4.06-.13 1.17.05 2.32.31 3.49.44 8.5.96 8.51.96 16.76 3.14.65.17 1.28.48 1.94.51 2.22.1 4.33.65 6.38 1.36 2.36.81 4.66 1.77 6.92 2.82 1.36.63 2.77 1.12 4.11 1.81 1.61.83 3.4 1.35 5.15 1.93 2.21.73 4.42 1.5 6.21 3.09.36.33.81.66 1.27.76 1.22.25 2.16.97 3.02 1.73.92.82 2.21.78 3.13 1.55.9.75 1.82 1.49 2.8 2.13.97.63 2.2.77 3.07 1.63.84.83 1.84 1.4 3 1.76.61.19 1.16.67 1.65 1.11.9.81 2.08 1.03 3.11 1.56.89.45 1.68 1.07 2.54 1.57.28.16.64.19.96.28 1.59.94 2.77 2.43 4.6 3.01 1.59.51 2.67 2.04 4.45 2.2 1.51 1.35 3.62 1.67 5.22 2.92.76.59 1.86.73 2.69 1.26.85.54 1.65 1.12 2.67 1.31 2.58 1.86 5.7 2.7 8.42 4.3 1.28.75 2.72 1.24 4.1 1.84.46.2.99.27 1.39.55.96.67 1.88 1.4 2.77 2.16.91.78 2.22.7 3.09 1.6.93.97 2.07 1.68 3.45 1.96.31.06.57.34.84.53 1.07.79 2.04 1.75 3.46 1.92.6.49 1.21.98 1.81 1.47-.11.09-.21.19-.3.18-.97-.18-1.94-.4-2.91-.6-1-.58-1.87-1.36-3.02-1.74-.93-.31-1.74-.96-2.98-1.67-.86-.23-2.28-.34-3.43-.95-2.06-1.09-4.28-1.82-6.34-2.89-1.92-1-3.76-2.14-5.86-2.76-.32-.09-.65-.2-.91-.4a19.2 19.2 0 0 0-4.31-2.47c-.45-.18-.81-.59-1.21-.89s-.77-.8-1.21-.86c-1.39-.2-2.33-1.28-3.62-1.64-.32-.09-.65-.17-.98-.25-1.03-.85-2.07-1.69-3.01-2.47-1.48-.64-3.12-.72-3.81-2.02-1.22-.37-2.19-.63-3.13-.95-.63-.21-1.34-.38-1.81-.79-.92-.8-2.11-1-3.09-1.59-1.15-.69-2.32-1.28-3.55-1.82-1.05-.47-2.12-.93-3.2-1.5-.23-.38-.49-.8-.76-1.23-.44-.19-.95-.32-1.35-.6-.81-.59-1.63-1.19-2.33-1.9-1.32-1.34-2.97-2.1-4.64-2.87-1.35-.63-2.91-.85-4.05-1.9-1.39-.1-2.4-1.13-3.71-1.46-.63-.15-1.22-.53-1.78-.87-.71-.43-1.34-1-2.07-1.39-1.61-.86-3.43-1.28-5.03-2.2-.56-.32-1.26-.4-1.9-.59-2.55-.76-4.88-2.18-7.62-2.38-.75-.45-1.6-.47-2.44-.52-1.53-.09-2.93-.65-4.39-1.02s-2.72-1.25-4.31-1.27c-1.69-.02-3.1-1.14-4.84-1.23-1.5-.08-2.95-.61-4.44-.84s-3-.32-4.5-.49c-.5-.06-.98-.21-1.48-.27-2.32-.28-4.62-.78-7-.61-1.01.07-2.03.01-3.03-.12-1.69-.22-3.36-.1-5.05.04-2.54 1.11-5.33.8-7.94 1.68-1.9.64-3.96.65-5.93 1.29-4.23 1.39-4.26 1.3-9.35 3.92-.89.46-1.87.72-2.82 1.04-.08.03-.2-.06-.31-.14.57-.57 1.09-1.26 1.77-1.6 2.45-1.23 4.69-2.8 7.07-4.09m6.08 4.61c.4-.15.73.11 1.03.78-2.29.99-4.57 2.02-6.89 2.94-.57.23-1.31.36-1.85-.23.23-.24.41-.6.69-.71 2.33-.96 4.68-1.87 7.02-2.78m-4.53-.82.06-.38c.12-.01.25-.02.37-.04-.02.12.01.3-.06.36-.07.07-.24.04-.37.06m-2.17 6.93c-.28 1.14-.42 1.27-1.42.98.31-.29.61-.59.94-.86.11-.1.32-.08.48-.12m-2.06-1.54c-1.7 1.06-3.47 1.95-5.66 2.4.35-.58.5-1.14.86-1.38 1.66-1.12 3.51-1.85 5.43-2.35.11-.03.28.16.42.24-.35.37-.64.83-1.05 1.09m1.45 10.45c-.3.31-.57.65-.91.89s-.6.15-.62-.1c-.01-.14 0-.32.09-.43.4-.54.88-.74 1.44-.36m1.17-.97c1.54-.66 3.12-1.22 5.13-1.99.53-.06 1.52-.17 2.64-.28-.23.55-.27.97-.47 1.09-.72.42-1.47.94-2.25 1.04-1.84.25-3.5 1.13-5.31 1.38-.23.03-.5-.17-.75-.31.33-.33.62-.76 1.01-.93m-9.01-12.92c-.37.48-.76.95-1.45.99.39-1.27.46-1.34 1.45-.99m6.37-7.93c-.06 1.06-.61 1.57-1.34 1.88-.19.08-.45-.02-.7-.09.55-.68 1.17-1.3 2.04-1.79m-2.29 1.87c-.37.41-.73.83-1.12 1.22-.42.42-.91.56-1.45.35.48-.54.93-1.11 1.47-1.58.33-.3.75-.26 1.1.01m-2.83 1.63c-.48.52-.94 1.07-1.47 1.55-.33.29-.76.27-1.15.04.5-.55.96-1.14 1.52-1.61.33-.28.75-.23 1.1.02m-9.48 5.06c1.09-.45 2.02-1.14 2.98-1.83.81-.58 1.8-.87 2.53-1.65.34-.37.83-.32 1.22.03-.87 1.26-1.94 2.26-3.43 2.76-.46.16-.9.48-1.26.82-.7.65-1.52.67-2.36.67-.1-.31-.02-.66.32-.8m2.94 8.01c.7-.19 1.06-.81 1.61-1.2.37-.26.63-.2.66.05-.33 1-1.08 1.8-1.93 2.25-1.05.55-1.95 1.31-2.99 1.85-.26.14-.53.03-.78-.21.91-1.23 1.91-2.32 3.43-2.74m-2.26-4.58c.28-.29.54-.61.86-.84.35-.25.72-.2 1.05.03-.28.29-.54.6-.85.85-.36.29-.73.22-1.06-.04m2.2-.88c.38-.4.71-.86 1.33-.92-.3 1.06-.33 1.12-1.33.92m-47.75 25.18c1.63-.91 3.26-1.85 5.01-2.49 1.62-.6 2.54-2.32 4.29-2.69 1.47-1.18 3.2-1.92 4.8-2.9 1.45-.88 2.86-1.84 4.37-2.61 2.26-1.17 4.42-2.52 6.57-3.88.43-.27.99-.38 1.33-.73 1.24-1.27 2.8-1.96 4.39-2.56 2.86-1.08 5.44-2.78 8.29-3.88 1.79-1.36 3.89-1.99 5.97-2.68.09-.03.22.07.34.15-.49.64-.98 1.29-1.52 2.01-1.34.6-2.87 1.02-4.08 1.9-1.39 1.01-3.08 1.44-4.33 2.63-1.6.22-2.52 1.71-3.98 2.21-.46.16-.88.5-1.24.85-.98.94-1.9 1.89-3.22 2.46-.88.38-1.48 1.41-2.32 1.97-1.56 1.03-3.03 2.16-4.51 3.31-1.34 1.03-2.71 2.03-4.02 3.11-1.03.85-2.27 1.49-3.49 2.05-1.38.63-2.93 1.04-4.01 2.12-1.01 1.01-2.46 1.28-3.38 2.23-1.34 1.39-3.3 1.79-4.57 3.24-.31.35-.87.49-1.33.69-1.55.69-3.24 1.16-4.61 2.11-1.27.88-2.71 1.36-3.96 2.25-1.09.78-2.43 1.19-3.63 1.81-.6.31-1.14.73-1.95 1.25-1.71.35-3.78.27-5.66 1.2-2.67.03-5.36.98-8.02.1-4.22-.2-8.25-1.26-12.28-2.39-.99-.28-1.81-.74-2.43-1.55.33-.46.82-.51 1.3-.41 2.28.52 4.56 1.07 7.2 1.69 2.48.21 5.37-.71 7.92.11 1.28-.34 2.28-.55 3.25-.88 1.93-.65 4.06-.67 5.8-1.85 1.71-1.17 3.81-1.45 5.46-2.77.78-.62 1.81-.92 2.73-1.36.46-.22.99-.34 1.37-.67 1.04-.9 2.22-1.54 3.41-2.22 1.02-.58 2.05-1.2 3.06-1.84.54-.35 1.09-.76 1.68-1.09m44.21-16.94c-.32.31-.63.63-.97.92-.11.09-.32.08-.48.11.41-1.28.47-1.33 1.45-1.03m-2.68 2.13.19.21-.39.17zm-1.6-2.36c.01-1.13.79-1.43 1.6-2.05-.22 1.17-.9 1.56-1.6 2.05m-1.09 4.36-.33-.07.29-.26zm-3.41-1.47c-1.28.92-2.3 2.31-3.92 3.02-1.36.6-2.26 2.01-3.83 2.41-.59.15-1.04.82-1.59 1.21-.23.16-.51.08-.77-.11.77-.85 1.49-1.76 2.35-2.5.76-.65 1.74-1.02 2.53-1.63.8-.62 1.38-1.62 2.25-2.05 1.81-.89 3.32-2.38 5.37-2.79.38 1.01-.05 1.45-2.39 2.44m.6 2.9c-.13 1.31-1.07 1.98-2.09 2.52-.15.08-.43-.09-.68-.2.73-.8 1.35-1.73 2.34-2.26.12-.06.28-.04.43-.06m-3.03 2.4c-.6.71-1.09 1.56-2.13 1.77.07-1.15.78-1.67 1.81-1.87.1-.01.21.04.32.1m-3.94 2.24c-.04.29-.07.58-.13 1.02-.75.69-1.58 1.46-2.43 2.21-.11.1-.3.1-.46.15.48-1.65.98-2.21 3.02-3.38m-37.77 5.79c-.08.02-.2-.08-.31-.17 1.1-1.53 2.75-2.16 4.44-2.7.1-.03.25.13.39.22-1.08 1.63-2.78 2.18-4.52 2.65m3.43.87c-.02.95-.63 1.48-1.39 1.83-.2.09-.5-.03-.77-.1.41-.46.8-.94 1.25-1.35.22-.21.59-.25.91-.38m-2.66 1.56c.08-.02.2.11.31.21-.83.81-1.6 1.7-2.51 2.4-.8.62-1.76 1.01-2.94 1.66-.66.16-1.65.4-2.48.59-.53.46-.92.79-1.28 1.11-1.16.35-2.34.58-3.4 1.07-.77.36-1.51.71-2.33.96-3.44 1.08-6.96 1.34-10.49 1.44-.49.02-1.03-.02-1.47-.21-1.38-.63-2.97-.1-4.39-.92-1.26-.74-2.85-.89-4.25-1.42-.58-.22-1.21-.61-1.22-1.42 2.5.01 4.72 1.25 7.19 1.45 2.34.19 4.65.58 7.12.89.53-.18 1.15-.54 1.8-.6 3.07-.27 5.86-1.66 8.84-2.29.68-.14 1.22-.56 1.79-.95 1.69-1.14 3.88-1.29 5.4-2.79.11-.11.32-.11.48-.17.16-.05.33-.1.49-.14 1.11-.28 2.22-.6 3.34-.87m-35.32 9.82c-.12.1-.23.22-.37.25-.52.12-.92-.13-1.27-.47-.5-.47-1.12-.59-1.77-.74-.45-.11-.87-.41-1.24-.71-.24-.19-.36-.52-.58-.85.99-.42 1.7.48 2.71.45.79.65 1.66 1.36 2.52 2.07m39.11-14.91c.39-.67.9-1.23 1.56-1.63.39-.24.8-.23 1.18.02-.5.56-.97 1.16-1.53 1.67-.36.32-.82.25-1.21-.06m1.31-10.22c.43-.22.89-.45 1.54-.78.24-.42.57-1.01.95-1.69 1.62-.98 1.62-.98 2.79-3.26.45.01.94.01 1.44.02.12 1.22-.87 1.74-1.42 2.49-.61.83-1.25 1.64-1.95 2.39-.82.87-1.74 1.64-2.57 2.51-.71.74-1.32 1.56-2.01 2.31-.69.76-1.43 1.47-2.08 2.14-.57.25-1.04.45-1.56.69-1 .79-1.84 1.91-3.23 2.73 1.41-2.41 1.41-2.41 8.1-9.55m-11.61 14.49c1.61-.71 3.21-1.47 4.92-1.89.08-.02.19.07.3.15-.54.57-1.01 1.28-1.67 1.61-.9.44-1.72.95-2.56 1.47-.78.48-1.74.85-2.66.24.4-.7.98-1.27 1.67-1.58m-16.32 4.6c2.34-.3 4.69-.59 6.36-.8 3.03-.93 5.42-1.67 7.82-2.39.08-.02.21.1.32.2-.43.48-.85.94-1.06 1.18-.44.28-.58.43-.73.46-2.81.53-5.34 2.1-8.24 2.33-.81.07-1.6.49-2.42.66-.65.14-1.33.15-2.11.22-.33-.29-.67-.6-1.02-.92.21-.23.42-.47.62-.69.17-.09.31-.23.46-.25m-5.34-.27c1 .15 2.01.23 2.99.47.43.1.79.47 1.18.74-.26.18-.51.46-.77.47-1.52.05-3.04.02-4.1.01-1.37-.48-2.31-.81-3.26-1.14-.94-.33-2-.5-2.8-1.03-.88-.59-1.93-.58-3.09-1.21-.53-.44-1.34-1.05-2.06-1.75-.6-.58-1.33-1.16-1.59-1.9-.54-1.53-1.89-2.32-2.93-3.86-.22-.62-.55-1.56-.79-2.24.06-2.31.11-4.34.17-6.48.27-1.58 1.16-3.09 1.62-4.7.43-1.5 1.64-2.64 1.79-4.22.5-.69.93-1.46 1.51-2.07.97-1.02 1.53-2.25 2.13-3.46 1.02-.62 2.04-1.24 3.31-2.01 1.02-.26 2.34-.6 3.76-.97.87.24 1.86.44 2.8.79.59.22 1.13.64.89 1.48-2.59.19-4.83 1.48-7.08 2.4-1.86 1.71-3.46 3.51-5.07 5.46-.51 1.88-1.26 3.82-1.51 5.81-.3 2.34-.88 4.71-.07 7.84.32.82.92 2.38 1.53 3.95 1.71 2.32 3.94 4.09 6.24 5.74 1.76.61 3.64.8 5.2 1.88m-14.56-.93c-.08.06-.38-.01-.45-.11-.18-.25-.4-.55-.41-.83-.01-.27.24-.55.37-.82.16.01.41-.04.45.03.42.68.44 1.42.04 1.73M66 220.88c-1.13.01-1.52-1.02-2.23-1.59-.3-.25-.27-.6-.07-.67.14-.05.39-.03.47.07.6.73 1.62 1.11 1.83 2.19m21.68-23.68c-1.16.18-2.36.11-3.67.16-.98.43-2.1.84-3.14 1.4s-1.99 1.27-3.11 2c-.61 1.25-1.27 2.61-2.1 4.31-.12 1.48-.44 3.34-.39 5.18.04 1.66.49 3.3.74 4.88.62 1.06 1.35 1.96 1.87 3.01.42.85 1.27 1.49 1.99 2.3-1.16.71-1.86-.38-2.87-.34-1.08-.89-2.24-1.83-3.44-2.82-.44-1.24-.8-2.53-1.35-3.74-.57-1.27-.74-2.62-.64-3.95.18-2.33.13-4.72 1.4-6.89.33-.56.35-1.29.49-1.85.95-1.53 2.57-2.48 2.84-4.23 1.56-1.24 3.35-1.79 5.2-2.52 2.38-.34 4.89-.59 7.43-.22.71 1.16 1.4 2.27 2.12 3.45-1.2.27-2.25-.31-3.37-.13m-27.01 1.67c.17-.26.66-.79.89-1.41.92-2.47 2.56-4.42 4.35-6.28.71-.74 1.43-1.48 2.01-2.08 2.38-1.45 4.83-2.18 7.35-3.16 1.69-.33 3.57-.7 5.41-.45 2.99.42 5.99.81 9.16 1.99.87.78 1.99 1.79 3.11 2.79s2.24 2.01 3.18 2.85c1.2 1.74 1.47 3.57 1.97 5.31-1.36-.28-1.72-1.44-2.24-2.6-1.29-1.16-2.66-2.39-3.93-3.52-2.82-1.04-5.45-2.12-7.35-3.9-2.18-.83-4.2-.97-6.65-1.09-.89.2-2.21.49-3.51.78-.31.2-.64.34-.88.58-.88.85-2.21.94-3.02 1.91-.99 1.19-2.02 2.34-3.02 3.51-1.12 1.32-1.35 3.14-2.54 4.42-.71 1.91-1.18 3.91-2.15 5.73-.34 2.35-.94 4.68-.79 7.08.04.59.28 1.25-.25 1.79-.16-.07-.36-.09-.44-.2-.19-.26-.42-.56-.45-.86-.22-2.37-.95-4.61-1.6-6.64.48-2.19.9-4.19 1.39-6.55M57.13 219c-.11-.24-.21-.48-.32-.72.79.06.56.39.32.72m4.75 12.71c-.77-.64-1.5-1.33-2.08-1.85-1.69-3.21-2.34-6.51-2.95-9.81-.04-.24.16-.53.3-.8 1.49.84 2.36 2.18 2.96 3.82 3.05 3.02 6.13 6.1 9.88 8.88 1.57.66 3.44 1.38 5.25 2.22 1.38.64 2.8 1.08 4.31 1.33 1.82.29 3.62.84 5.45.96 1.7.1 3.3.57 4.95.81.66.1 1.35.08 2.03.06 3.33-.13 5.02-.39 8.53-1.29 1.15-.29 2.29-.63 3.44-.89.68-.15 1.3-.38 1.83-.84.13-.11.25-.25.4-.32 1.25-.53 2.57-.95 3.75-1.61 1.03-.57 1.9-1.42 3.05-1.83 1.28-.45 2.42-1.28 3.66-1.78 1.15-.47 1.89-1.45 3-1.93 1.24-.54 2.47-1.17 3.6-1.93 1-.66 2-1.3 3.08-1.8.3-.14.54-.42.78-.67.72-.78 1.74-1.06 2.57-1.61 1.42-.94 3.15-1.35 4.35-2.65 1.8-.33 2.63-2.17 4.26-2.79.62-.24.52-1.2 1.33-1.39.46-.11.89-.49 1.29-.8.53-.42 1.01-.91 1.55-1.32.23-.18.52-.12.79.06-1.88 2.16-3.77 4.32-5.64 6.48-.81.94-1.81 1.55-3.01 2.03-.9.93-1.84 1.94-2.82 2.89-.49.47-1.04.91-1.63 1.22-.77.39-1.48.84-2.08 1.46-.95.99-2 1.8-3.26 2.42-.89.44-1.57 1.31-2.43 2.05-.98.47-2.02 1.04-3.12 1.48-1.15.45-1.94 1.37-2.87 2.11-1.89.26-3.57 1.09-5.31 1.73-2.23.82-4.33 2.03-6.71 2.38-1.4.74-2.93.81-4.44.98-1.84.2-3.72.11-5.51.8-3.2-.08-6.39-.14-9.59-.25-.49-.02-.97-.25-1.46-.37-2.1-.52-4.18-1.22-6.32-1.51-2.87-.39-5.52-1.34-8.06-2.57-1.05-.51-2.32-.51-3.22-1.35-.75-.71-1.65-1.1-2.63-1.39-.47-.14-.87-.5-1.25-.82m72.02-6.8c-.47 1.08-1.13 1.98-2.31 2.39.24-1.22 1.15-1.87 2.09-2.49.04-.02.22.09.22.1m-64.89 24.43c-.45-.1-.95-.19-1.42-.34-.51-.16-.97-.71-.85-1.08.1-.28.37-.5.57-.74 2.46 1.14 4.11 2.57 5 4.33-1.38-.28-2.09-1.57-3.3-2.17m6.06 3.44-.17-.4.39.19zm12.79 5.19c-1.02.18-2.11.19-2.94-.3-1.36-.81-2.86-.81-4.51-1.11-.75-.64-1.64-1.37-2.5-2.13-.1-.09-.11-.32-.1-.48.01-.24.34-.4.69-.16.84.58 1.83.73 2.74 1.09 1.07.43 2.28.46 3.27 1.17.98.7 2.3.23 3.36.73.26.12.49.43.61.71.1.22-.2.41-.62.48m-4.24-4.56.32-.05-.09.31zm2.17.65c.29-.45.54-.16.8-.01-.15.19-.34.28-.57.23-.09-.03-.24-.21-.23-.22m5.56 4.72c-.27.05-.63-.05-.85-.23-.18-.15-.2-.49-.33-.84.65.03 1.26.05 1.84.07.21.71-.22.92-.66 1m2.7-.03c-.07-.03-.06-.25-.08-.38.24.07.48.14.72.2-.17.2-.38.28-.64.18m.92-.25c.36-.27.74-.29 1.12-.07-.48.39-.59.39-1.12.07m2.12.11c-.26.08-.5.02-.7-.15.25-.08.49-.17.74-.25-.01.14.01.39-.04.4m21.38-5.44c-2.28 1.35-4.86 1.47-7.23 2.3-1.25.44-2.69.23-3.9.98-1.17.06-2.37.25-3.51.11-.83-.1-1.65-.15-2.47-.2-1.33-.09-2.52.78-3.94.4-1.25-.34-2.65-.16-4.31-.22-.31-.15-.9-.44-1.62-.78-1.02-.15-2.17-.33-3.24-.49-.5-.45-.94-.84-1.37-1.23.27-.09.54-.21.78-.18 2.99.47 5.98.86 9.04.7 1.51-.08 3.02.19 4.53.2 1.35 0 2.71-.1 4.05-.24 1-.11 2.03-.25 2.98-.57 4.02-1.33 8.09-2.48 12.06-3.95.28-.1.54.01.77.25-.89.99-1.77 1.98-2.62 2.92m-21.14-1.44c.72-.23 1.43-.38 2.12-.04-.3.29-.59.6-.94.8-.53.33-1.08-.04-1.18-.76m24.26-1.36c-.11.02-.23-.06-.35-.13.57-.76 1.29-1.35 2.2-1.98-.17 1.32-.82 1.91-1.85 2.11m10.74-12.79c-1.32 1.8-2.95 3.32-4.49 5.05-1.66.44-2.84 1.68-4 3.05-2.78 1.13-5.63 2.25-8.41 3.49-2.81 1.26-5.86 1.62-8.81 3.01-1.84.12-3.86.26-5.9.4-.34-.31-.67-.6-.99-.88.26-.14.51-.31.77-.35 1.51-.2 3.03-.36 4.36-.51 3.1-.97 5.89-2.23 8.84-3.06.94-.27 1.89-.67 2.78-1.24 1.28-.82 2.73-1.38 4.27-2.14 1.15-1.25 2.64-2.34 4.3-3.27 1.46-.82 2.97-1.6 4.26-2.8.8-.74 1.94-1.22 3.13-1.27-.04.19-.02.4-.11.52m9.25-1.56c-.76-.35-.47-1-.43-1.55.07-.19.1-.37.2-.49.55-.64 1.12-1.26 1.58-1.77.61-.28 1.06-.49 1.52-.7 1.21-.75 1.76-2.37 3.39-2.61-1.2 2.24-2.87 4.15-6.26 7.12m7.7-8.38c-.46.25-.6.1-.38-.37l.44-.06c-.02.14.01.39-.06.43m6.92-6.18c-1.13 1.9-2.78 3.35-4.29 4.93-.21.22-.59.28-.9.41-.26-1.06.48-1.89.76-2.82.13-.43.59-.99.99-1.09 1.33-.34 2.19-1.52 3.48-1.91-.01.17.03.35-.04.48m-.97-6.54c-1.7.61-2.86 1.81-3.94 3.17-.42.54-.91 1.03-1.56 1.75-1.2.74-2.84 1.33-3.97 2.69-1.65.66-2.71 2.02-3.91 3.25-1.07 1.09-2.09 2.29-3.56 2.9-.2.45-.4.91-.61 1.37-.82.88-2.15.96-2.94 1.96-.63.81-1.42 1.48-1.96 2.03-1.37.83-2.49 1.59-3.68 2.21-1.05.54-2.19.93-3.4 1.43-1.39 1.92-3.59 2.96-5.58 4.21-2.44 1.54-5.03 2.82-7.53 4.26-.87.51-1.8 1.06-2.76 1.25-2.31.46-4.46 1.7-6.89 1.62-.67-.02-1.4.02-2.01.28-1.62.67-3.31.67-4.99.83-1.33.13-2.7.05-3.94.84-.39.25-.98.18-1.49.21-1.52.08-3.04.14-4.73.2-2.28-.6-4.71-1.25-7.13-1.88-1.31-.34-2.54-.81-3.65-1.62-.51-.37-1.24-.45-1.85-.7a3.9 3.9 0 0 1-2.11-2c-.04-.09.03-.25.07-.49 2.27 1.1 4.71 1.67 7.08 2.39 1.75.53 3.51 1.02 5.43.89.97-.07 1.96.37 2.94.54.5.09 1 .03 1.4-.37-.25-.22-.5-.45-.64-.57-1.17-.68-2.36-.78-3.51-.86-1.2-.08-2.34-.16-3.35-.85-.26-.18-.63-.21-.96-.27-.82-.15-1.77-.06-2.45-.44-2.33-1.29-5.04-1.75-7.26-3.28-.67-.46-1.49-.71-2.5-1.17-.88-.85-1.95-1.9-3.11-3.02-.07-.59-.14-1.24-.24-2.1 6.83 3.44 14.03 4.86 21.35 5.86 1.83.25 3.66.52 5.53.79 1.28-.08 2.57-.77 3.93-.34 1.17.36 2.38.17 3.52-.07 4.64-.97 9.29-1.86 13.67-3.88 1.85-.85 3.79-1.5 5.64-2.34 1.22-.56 2.26-1.48 3.55-1.97 1.1-.42 2.18-.93 3.14-1.69.51-.41 1.22-.56 1.83-.82.99-1 1.96-1.97 2.93-2.93.11-.11.31-.13.46-.19.23.04.35.35.07.68-1.22 1.43-2.5 2.82-3.45 3.88-1.28 1.34-2.76 1.55-3.69 2.64-.31.37-.82.6-1.27.82-1.38.65-2.78 1.25-4.09 2.08-1.15.72-2.56 1.01-3.66 1.79-1.26.9-2.73 1.32-3.97 2.24-.65.48-1.55.67-2.37.86-.87.2-1.56.65-2.25 1.22-1.3.23-2.66.36-3.95.73-1.3.37-2.54.96-3.72 1.43-2.41.47-4.82.39-7.09 1.2-.3.11-.56.34-.84.52.4.29.79.59 1.13.83 1.8.19 3.52.09 5.13-.49 1.03-.37 2.17.33 2.95-.29 1.43-1.15 3.18-1.18 4.75-1.79 1.56-.61 3.14-1.29 4.86-1.47.48-.05.93-.4 1.41-.58 1.44-.52 2.53-1.71 4.06-2.13 1.3-.35 2.4-1.26 3.59-1.91 1.63-.9 3.22-1.88 4.95-2.61 1.4-.59 2.69-1.45 4.3-2.33.61-.68 1.39-1.59 2.22-2.46.47-.49.96-1.06 1.56-1.32 2.28-1.02 3.75-2.97 5.41-4.67 1.68-1.72 3.23-3.56 4.78-5.3 2.13-.54 3.21-2.71 5.28-3.16 1.11-1.1 2.2-2.19 3.22-3.2.58-.25 1.18-.33 1.5-.67 1.31-1.42 3.04-2.18 4.61-3.18 1.3-.82 2.58-1.63 3.64-2.78.69-.74 1.41-1.5 2.45-1.82.31-.09.64-.29.86-.53 1.78-1.9 4-3.14 6.22-4.41.88-.5 1.65-1.22 2.61-1.95 2.03-.82 4.23-1.72 6.45-2.57.22-.08.5.03.77.1-.93 1.14-1.97 2.13-3.27 2.89-1.75 1.03-3.15 2.57-4.95 3.6-1.59.91-3.33 1.7-4.62 3.13-.32.35-.92.43-1.64.74-1.2 1.34-2.57 2.87-3.73 4.16-1.15.7-2.03 1.2-2.87 1.77-.56.36-1 1.01-1.61 1.23m20.62-8.16-.31.28-.05-.36zm2.03 3.19c-2.18.92-4.4 1.74-6.31 3.22-.8.61-1.7 1.17-2.64 1.48-1.46.49-2.85 1.12-4.1 1.96-1.13.76-2.59.94-3.45 2.12-1.25.37-2.33 1.09-3.53 2.04.29-1.64 1.64-2.08 2.01-2.97 1.2-.79 2.27-1.34 3.15-2.11 1.95-1.7 4.36-2.61 6.46-4.05.4-.28.96-.33 1.44-.48.64-.21 1.38-.28 1.9-.67 2.26-1.67 4.95-1.99 7.51-2.73.07-.02.19.09.29.2-.43.48-.86.95-1.26 1.41-.53.22-1.01.39-1.47.58m2.94-2.01c.27-.3.52-.62.83-.86.36-.28.76-.22 1.11.04-.17.2-.33.4-.51.58-.44.43-.92.52-1.43.24m39.97-2.47c-1.8-.25-3.44-1.14-5.35-1.19-1.84-.05-3.65-.56-5.48-.77-1.84-.2-3.7-.26-6.04-.42-.35.1-1.17.33-2.07.58-1.91-.02-3.94-.44-5.88.52-3.6.18-6.92 1.55-10.28 2.71-.63.22-1.31.36-1.97.44-.24.03-.51-.15-.77-.28.32-.33.62-.73 1-.9 1.68-.74 3.4-1.42 5.12-2.06.63-.24 1.09-.65 1.56-1.08 1.97.63 3.88.1 5.76-.55 1.61-.55 3.19-1.18 5.02-1.86.6-.05 1.46-.08 2.29-.2 3.37-.5 6.74-.83 10.1-.16 1.31.26 2.68.05 4.02.36 3.1.72 6.31.98 9.33 2.06.56.36 1.12.72 1.69 1.09.3.11.61.25.93.34 3.35.93 3.75 1.12 7.72 3.4.57.33 1.25.48 1.85.78 1.23.62 2.21 1.5 2.66 2.9 2.33.68 3.79 2.65 5.61 3.87.62.2 1.1.35 1.66.54.81.73 1.68 1.51 2.52 2.26.63 1.25 1.16 2.54 2.67 2.86.37.08.62.23.74.6.31.91 1.48.73 1.91 1.47.25.43.44.9.64 1.33 2.82 2.67 5.61 5.32 8.43 7.98.33.91.66 1.83 1.11 3.08-3.88-2.65-6.88-5.82-10.15-8.5-.23-.59-.41-1.06-.63-1.64-1.03-1.17-2.18-2.34-3.84-2.91-.61-.21-1.13-.7-1.63-1.13-1.28-1.08-2.51-2.22-3.79-3.3-.76-.64-1.5-1.34-2.55-1.56-.32-.07-.67-.2-.89-.42-2.05-2.03-4.94-2.79-7.13-4.62-1.87-.77-3.63-1.7-4.74-3.04-2.16-.53-3.96-.96-5.75-1.42-1.78-.45-3.55-.9-5.4-1.16m-1.99 12.05c-.43 1.38-1.38 1.72-3.01 1.09.72-1.21 1.82-1.29 3.01-1.09m-47.03 32c.22-1 .51-1.96 1.04-2.88.42-.73.61-1.59.87-2.39.27-.81.32-1.72.94-2.36 1.46-1.5 1.64-3.75 3.24-5.19 1.14-1.03 2.05-2.31 3.1-3.45 1.16-1.26 2.11-2.75 3.54-3.73 1.26-.86 2.66-1.51 3.96-2.32 1.59-.99 3.15-2.01 4.68-3.08.57-.4 1.12-.74 1.78-.98 1.12-.4 2.19-.95 3.31-1.33 1.61-.56 3.19-1.22 4.92-1.35 1.55-.11 2.96-.73 4.51-1.44 2.19-.34 4.53-.7 7.08-1.1.24.17.63.44 1.03.7-.33.44-.83.53-1.32.64-3.65.85-7.12 2.26-10.6 3.65-.47.19-.93.53-1.41.57-1.92.16-3.55 1.12-5.27 1.84-.32.13-.64.24-.96.36-3.25 2.5-6.68 4.72-10.18 6.76-2.34 3.89-2.63 4.29-5.78 7.86-.57.64-1.15 1.28-1.58 1.77-.31.85-.54 1.49-.78 2.15-.74.93-1.48 1.87-2.2 2.77-.18.53-.35 1.02-.59 1.71-1.36 1.04-2.05 2.92-3.59 4.06-.12.09-.33.08-.5.12-.13-1.2.51-2.24.76-3.36m8.83 42.47c-.43-.69-.69-1.35-1.15-1.8-1.21-1.18-2-2.66-3.01-3.97-.95-1.22-1.62-2.55-2.14-3.94-.92-2.51-2.17-4.94-2.12-7.74-.62-1.58-.62-3.31-1.02-4.93-.61-2.5-.59-5.02-.7-7.38.61-1.42 1.17-2.65 1.72-3.89.74-1.7 1.32-3.49 2.74-4.87.98-.95 1.04-2.5 2.06-3.52.96-.97 1.77-2.1 2.64-3.16.21-.26.47-.54.56-.86.57-2.07 2.09-3.52 3.37-5.11.75-.94 1.41-1.88 1.94-2.98.98-2.03 2.79-3.45 4.34-5.05.11-.12.26-.24.41-.29 1.33-.48 2.13-1.79 3.36-2.31 1.29-.54 2.23-1.58 3.51-2.1.77-.32 1.44-.88 2.18-1.29.29-.16.63-.27.96-.32 2.36-.41 4.52-1.42 6.71-2.35 2.03-.86 4.11-1.61 6.17-2.39.47-.18.97-.31 1.47-.36 1.35-.15 2.66-.36 3.97-.83 1.27-.45 2.66-.54 3.99-.8.5-.1 1.06-.4 1.47-.27 1.08.34 2.01-.39 2.98-.34 3.36.19 6.72.47 9.84 1.88 2.74 1.23 5.52 2.38 8.78 3.78 2.18 1.79 2.18 1.79 2.4 2.78-1.4-.57-2.68-1.36-4.19-1.55-1.04-.13-1.81-.86-2.74-1.18s-2.09-.06-2.96-.46c-1.25-.58-2.49-.82-3.86-.91-1.16-.08-2.3-.4-3.46-.59-2.2-.35-4.36-.4-6.56-.06-.5.08-1.01.1-1.42.14-.59-.16-1.08-.29-1.62-.43-.76.16-1.58.45-2.4.49-5.14.23-10.01 1.56-14.65 3.87-.46.23-.95.38-1.46.58-.87.78-1.77 1.58-2.82 2.52-1.05.47-2.29 1.03-3.72 1.67-1.43 1.43-3 3.01-4.56 4.57-.51.2-.98.4-1.65.67-2.31 2.28-4.41 5-6.63 7.61-.11.13-.27.27-.29.42-.27 1.6-1.68 2.59-2.21 4.02-.36.97-.9 1.84-1.27 2.76-.68 1.73-1.22 3.53-1.82 5.3-.59 1.75-.65 3.67-.89 5.51-.26 2.02-.33 4.07-.71 6.07-.8 4.22.09 8.06 1.93 11.75 1.41 1.77 1.72 3.98 2.3 6.1.42.5.85 1.02 1.54 1.85.44 1.01 1.04 2.39 1.66 3.83.52.77 1.46 1.32 1.63 2.4-2.04-.08-2.79-2.4-4.6-2.54m4.65-6.92c.04-.19.07-.38.11-.56l.27.48c-.13.02-.25.05-.38.08m.57-24.26c-.19.32-.45.6-.69.88-.25-.48-.18-.94.18-1.39.14-.18.29-.35.43-.53.24.32.3.69.08 1.04m.6-2.21c-.18.32-.43.61-.66.9-.2-.32-.24-.68-.03-1.03.19-.32.43-.6.66-.9.19.33.23.68.03 1.03m20.09-7.79-.19.37-.19-.21zm-7.72 23.75c-.04.19-.09.38-.13.57-.08-.16-.15-.32-.23-.48zm1.25 8.53c-.48-1.79-1.28-3.43-2.23-4.85.01-.66.01-1.17.02-1.79.25-.28.54-.6.83-.92.56 1.13 1.27 2.21 1.73 3.37.61 1.53.82 3.23 1.15 4.87.04.22-.19.51-.34.77-.55-.35-.98-.78-1.16-1.45m1.97 3.1c-.14.02-.33.02-.43-.06-.47-.4-.73-.86-.35-1.46.31.28.65.54.89.87.23.33.14.61-.11.65m2.19 13.98c-.06.28-.31.31-.66.11-.3-.17-.41-.44-.33-.8.29.1.59.17.86.31.09.04.16.26.13.38m22.31-53.12c-2.27-.8-4.3.06-6.3 1.09-.45.23-.95.38-1.43.56-1.65 1.2-2.73 3.12-4.75 3.86l-5.22 5.67c-.38 1.89-1.89 3.2-2.59 4.97-.75 1.91-1.53 3.75-1.75 5.81-.19 1.86-.54 3.69-.56 5.57-.01.99-.28 1.96-.78 2.84-.38.04-.69-.09-.82-.46-.66-1.77-.55-3.65-.63-5.51-.09-2.39.12-4.72 1.09-6.98.34-.78.55-1.62.74-2.44.2-.84.49-1.61 1-2.32 1.09-1.52 1.35-3.49 2.85-4.81 1.02-.9 1.87-2.01 2.81-3.01.23-.25.5-.47.76-.69s.53-.54.82-.59c1.44-.24 2.23-1.55 3.48-2.11.92-.42 1.78-.98 2.71-1.4 1.24-.57 2.51-1.06 3.66-1.54 3.09-.7 6.04-1.08 8.89.24-.3.33-.59.66-.89 1-1.07.09-2.08.17-3.09.25m5.12-.5c-.33-.21-.61-.5-.9-.77.88-.54 1.46-.01 2.01.58-.32.33-.72.43-1.11.19m4.3.49c-.33.06-.65.14-.98.16s-.66-.02-1.09-.05c-.29-.24-.64-.52-.99-.81.09-.11.19-.23.3-.26.81-.23 1.61-.17 2.38.16.33.15.45.42.38.8m32.41 22.57c-.69-1.8-2.24-2.89-3.49-4.21-.46-.49-.94-.95-1.44-1.46-.98-1.68-1.98-3.41-2.98-5.12-.97-.98-2.47-.96-3.53-1.86-.86-.73-2.05-1.07-3.09-1.57-.56-.86-1.11-1.68-1.6-2.44-.58-.2-1.06-.36-1.75-.6-1.59-1.43-3.33-2.99-4.64-4.16-1.48-.98-2.73-.97-3.71-1.7-1.49-1.11-3.28-1.62-5.1-1.95-2.64-.48-5.2-1.22-7.89-1.55-2.94-.37-5.73 0-8.48 1.01-2.39.88-4.72 1.92-7.02 2.86-.69.62-1.33 1.18-1.89 1.69-1.12.11-2.05-.07-2.93-.51.14-.71.6-1.25 1.13-1.67 1.22-.93 2.47-1.82 3.75-2.66.71-.46 1.5-.8 2.27-1.15 1.56-.69 3.13-1.34 4.55-1.95 2.31-.46 4.47-.89 6.62-1.31 2.18.28 4.34.58 6.51.84 1.35.16 2.65.47 3.89 1 1.23.52 2.44 1.07 3.68 1.57 1.23.49 2.53.83 3.64 1.6.4.27.94.35 1.07.39 2.32 1.35 3.8 3.31 6.23 4.03 1.07.96 2.19 1.96 3.34 2.99.2.42.42.88.69 1.46 2.32 2.22 4.73 4.54 7.14 6.86.96.93 1.85 1.87 2.58 3.04.78 1.25 2 2.23 3.05 3.35.78 1.9 2.28 3.51 2.58 5.78-1.48-.52-2.16-1.77-3.18-2.6m25.69 22c.42.35.81.74 1.2 1.11-.36.27-.79.33-1.13.09-.56-.39-1.06-.88-1.57-1.34.53-.3 1.04-.23 1.5.14m-1.75-.15c-.22.22-.46.32-.71.21-.86-.37-.85-.39-1.58-1.66 1.05.05 1.56.92 2.29 1.45m-6.41-4.01c.25.18.49.37.7.6.06.07 0 .24 0 .37-.29-.13-.6-.23-.86-.4-.1-.06-.08-.29-.12-.44.09-.05.24-.16.28-.13m-2.24-1.94c.17.59-.22.84-.65 1.08-1.14-.33-1.81-1.21-2.7-2.48 1.41.41 2.27 1.15 3.35 1.4m22.97 16.67c-.97-.22-2.06-.25-2.9-.71-2.34-1.27-5.04-1.81-7.19-3.45-.25-.19-.58-.33-.89-.41-3.27-.76-6.25-2.29-9.39-3.54-7.34-6.18-7.34-6.18-8.61-8.18.29.05.64.01.86.16.68.48 1.32 1.02 1.96 1.56.51.43.99.9 1.5 1.34.12.11.26.25.42.27 2.06.4 3.3 2.26 5.23 2.88.32.1.73.11.95.32 2.37 2.24 5.51 3.08 8.37 4.37 3.8 1.71 7.74 3.1 11.98 3.47 1 .09 2 .32 2.95.61.4.12.73.49 1.07.78-.09.09-.18.18-.29.21-2 .59-4.03-.31-6.02.32m6.71-.53.54-.21c0 .13 0 .26.01.38-.18-.05-.37-.11-.55-.17m2.54.26c.17.07.33.13.49.2l-.54.18c.02-.12.03-.25.05-.38m.95.18c.35-.27.71-.22 1.08-.06-.35.22-.71.21-1.08.06m1.47-.07c.34-.19.69-.2 1.04-.05-.34.22-.68.21-1.04.05m1.45-.08c.36-.19.72-.22 1.08-.07-.35.27-.72.25-1.08.07m1.93.44c-.19-.13-.36-.31-.52-.48 1.25-.64 2.42-.7 3.43.42-1.15.7-1.95.72-2.91.06m2.99-.06c.61-.48.67-.49 1.3-.09-.56.51-.62.5-1.3.09m13.46-.08c-.54.33-1.27.42-1.93.47-2.65.17-5.31.31-7.97.41-.81.03-1.53-.25-2.08-.87 1.14-.78 2.49-.51 3.73-.72 1.3-.21 2.68 0 3.93-.55 1.12-.49 2.33.4 3.39-.42 1.63-.36 3.28-.3 4.93-.3.1 0 .2.08.3.15-.19.21-.38.42-.6.67-1.09.7-2.52.43-3.7 1.16m4.59-1.85c.37-.25.75-.35 1.15-.09-.38.31-.76.35-1.15.09m2.16 0c-.26.15-.51.12-.73-.05.23-.12.47-.24.71-.36.01.14.07.38.02.41m1.85-1.14.56.12-.51.27c-.02-.13-.03-.26-.05-.39m1.66.2-.5-.15c.17-.08.34-.16.52-.23-.01.13-.01.26-.02.38m1.79-.94c-.01-.09.08-.27.17-.3.26-.11.49-.05.7.14-.62.46-.81.5-.87.16m1.1-.15c.38-.36.77-.37 1.17-.08-.58.39-.67.4-1.17.08m2.16-.02c-.25.11-.48.09-.68-.04.22-.11.43-.23.65-.34.01.14.07.37.03.38" style="fill:#63a595"/></svg>