<?xml version="1.0" encoding="UTF-8"?>
<svg id="Calque_2" xmlns="http://www.w3.org/2000/svg" version="1.1" viewBox="0 0 501.4 213.5">
  <!-- Generator: Adobe Illustrator 29.5.0, SVG Export Plug-In . SVG Version: 2.1.0 Build 137)  -->
  <defs>
    <style>
      .st0 {
        fill: #fff;
      }

      .st1 {
        fill: #e8ab54;
      }
    </style>
  </defs>
  <g id="CONTENT">
    <g>
      <g>
        <path class="st0" d="M16.3,24.1l5.3-15.3h2.7l-6.9,18.5h-2.2l-6.9-18.5h2.7s5.3,15.3,5.3,15.3Z"/>
        <path class="st0" d="M32.1,27.6c-1.9,0-3.4-.6-4.6-1.8s-1.8-2.9-1.8-4.9v-.4c0-1.4.3-2.6.8-3.7s1.2-1.9,2.2-2.5c.9-.6,1.9-.9,3.1-.9,1.8,0,3.2.6,4.2,1.8s1.5,2.9,1.5,5.1v1h-9.3c0,1.4.4,2.5,1.2,3.3.8.8,1.7,1.2,2.9,1.2s1.5-.2,2.1-.5c.6-.3,1.1-.8,1.5-1.4l1.4,1.1c-1.1,1.8-2.9,2.7-5.2,2.7h0ZM31.8,15.2c-.9,0-1.8.4-2.4,1s-1,1.7-1.2,2.9h6.9v-.2c0-1.2-.4-2.1-1-2.8-.6-.7-1.4-1-2.3-1Z"/>
        <path class="st0" d="M42.4,13.6v1.7c1.1-1.3,2.5-2,4.2-2,2.9,0,4.4,1.6,4.4,4.9v9.1h-2.4v-9.1c0-1-.2-1.7-.7-2.2-.5-.5-1.1-.7-2.1-.7s-1.4.2-2,.6c-.6.4-1,.9-1.4,1.6v9.8h-2.4v-13.8h2.2,0Z"/>
        <path class="st0" d="M60.3,27.6c-1.9,0-3.4-.6-4.6-1.8s-1.8-2.9-1.8-4.9v-.4c0-1.4.3-2.6.8-3.7s1.2-1.9,2.2-2.5c.9-.6,2-.9,3-.9,1.8,0,3.2.6,4.2,1.8s1.5,2.9,1.5,5.1v1h-9.3c0,1.4.4,2.5,1.2,3.3.8.8,1.7,1.2,2.9,1.2s1.5-.2,2.1-.5c.6-.3,1.1-.8,1.5-1.4l1.4,1.1c-1.1,1.8-2.9,2.7-5.2,2.7h0ZM60,15.2c-1,0-1.8.4-2.4,1s-1,1.7-1.2,2.9h6.9v-.2c0-1.2-.4-2.1-1-2.8-.6-.7-1.4-1-2.3-1h0Z"/>
        <path class="st0" d="M70.6,25.4h8.1v1.9h-10.9v-1.7l7.6-10.1h-7.5v-1.9h10.4v1.7l-7.7,10.2h0Z"/>
        <path class="st0" d="M87.2,20.3c0-2.1.5-3.8,1.5-5.1,1-1.3,2.3-1.9,3.9-1.9s2.9.6,3.8,1.7v-7.2h2.4v19.6h-2.2v-1.5c-1,1.1-2.4,1.7-4,1.7s-2.9-.6-3.9-2-1.5-3-1.5-5.1v-.2h0ZM89.6,20.6c0,1.6.3,2.8,1,3.7.6.9,1.5,1.3,2.7,1.3s2.6-.7,3.3-2v-6.3c-.7-1.3-1.8-1.9-3.2-1.9s-2,.4-2.7,1.3c-.6.9-1,2.2-1,4h0Z"/>
        <path class="st0" d="M108.2,27.6c-1.9,0-3.4-.6-4.6-1.8s-1.8-2.9-1.8-4.9v-.4c0-1.4.3-2.6.8-3.7s1.2-1.9,2.2-2.5c.9-.6,2-.9,3-.9,1.8,0,3.2.6,4.2,1.8s1.5,2.9,1.5,5.1v1h-9.3c0,1.4.4,2.5,1.2,3.3.8.8,1.7,1.2,2.9,1.2s1.5-.2,2.1-.5c.6-.3,1.1-.8,1.5-1.4l1.4,1.1c-1.1,1.8-2.9,2.7-5.2,2.7h0ZM107.9,15.2c-1,0-1.8.4-2.4,1s-1,1.7-1.2,2.9h6.9v-.2c0-1.2-.4-2.1-1-2.8-.6-.7-1.4-1-2.3-1h0ZM109.1,7.8h2.9l-3.4,3.7h-1.9s2.5-3.7,2.5-3.7Z"/>
        <path class="st0" d="M121.8,25.6c.8,0,1.6-.2,2.2-.8s1-1.1,1-1.9h2.2c0,.8-.3,1.5-.8,2.2s-1.2,1.3-2,1.7c-.8.4-1.7.6-2.6.6-1.9,0-3.4-.6-4.5-1.9-1.1-1.2-1.7-3-1.7-5.1v-.4c0-1.3.2-2.5.7-3.6s1.2-1.9,2.1-2.4c.9-.6,2-.9,3.3-.9s2.8.5,3.9,1.4c1,.9,1.6,2.1,1.6,3.6h-2.2c0-.9-.4-1.6-1-2.2-.6-.6-1.4-.9-2.2-.9s-2.1.4-2.8,1.3c-.7.9-1,2.1-1,3.7v.5c0,1.6.3,2.8,1,3.7.6.9,1.6,1.3,2.8,1.3h0Z"/>
        <path class="st0" d="M129.3,20.3c0-1.4.3-2.6.8-3.6s1.3-1.9,2.2-2.5,2-.9,3.2-.9c1.9,0,3.4.6,4.5,1.9,1.2,1.3,1.7,3,1.7,5.2v.2c0,1.3-.3,2.5-.8,3.6-.5,1.1-1.2,1.9-2.2,2.5s-2,.9-3.3.9c-1.9,0-3.4-.6-4.5-2s-1.7-3-1.7-5.2v-.2h0ZM131.7,20.6c0,1.5.4,2.8,1.1,3.7s1.7,1.4,2.9,1.4,2.1-.5,2.9-1.4,1.1-2.2,1.1-3.9-.4-2.7-1.1-3.7c-.7-.9-1.7-1.4-2.9-1.4s-2.1.5-2.8,1.4c-.7.9-1.1,2.2-1.1,4h0Z"/>
        <path class="st0" d="M153.3,26c-.9,1.1-2.3,1.6-4,1.6s-2.6-.4-3.4-1.3-1.2-2.1-1.2-3.8v-9h2.4v8.9c0,2.1.9,3.1,2.5,3.1s3-.7,3.6-2v-10h2.4v13.8h-2.2v-1.4s0,0,0,0Z"/>
        <path class="st0" d="M163.7,24.1l3.4-10.6h2.4l-4.9,13.8h-1.8l-5-13.8h2.4l3.5,10.6h0Z"/>
        <path class="st0" d="M178.5,15.7c-.4,0-.7,0-1.2,0-1.5,0-2.6.7-3.1,2v9.8h-2.4v-13.8h2.3v1.6c.8-1.2,1.9-1.9,3.3-1.9s.8,0,1,.2v2.2h0Z"/>
        <path class="st0" d="M180.7,9.9c0-.4.1-.7.4-1,.2-.3.6-.4,1-.4s.8.1,1,.4c.2.3.4.6.4,1s-.1.7-.4,1c-.2.2-.6.4-1,.4s-.8-.1-1-.4c-.2-.2-.4-.6-.4-1ZM183.2,27.3h-2.4v-13.8h2.4v13.8Z"/>
        <path class="st0" d="M193.6,15.7c-.4,0-.7,0-1.2,0-1.5,0-2.6.7-3.1,2v9.8h-2.4v-13.8h2.3v1.6c.8-1.2,1.9-1.9,3.3-1.9s.8,0,1,.2v2.2h0Z"/>
        <path class="st0" d="M204.8,27.3h-2.4V7.8h2.4v19.6h0Z"/>
        <path class="st0" d="M214.3,27.6c-1.9,0-3.4-.6-4.6-1.8s-1.8-2.9-1.8-4.9v-.4c0-1.4.3-2.6.8-3.7s1.2-1.9,2.2-2.5c.9-.6,2-.9,3-.9,1.8,0,3.2.6,4.2,1.8s1.5,2.9,1.5,5.1v1h-9.3c0,1.4.4,2.5,1.2,3.3.8.8,1.7,1.2,2.9,1.2s1.5-.2,2.1-.5c.6-.3,1.1-.8,1.5-1.4l1.4,1.1c-1.1,1.8-2.9,2.7-5.2,2.7h0ZM214,15.2c-1,0-1.8.4-2.4,1s-1,1.7-1.2,2.9h6.9v-.2c0-1.2-.4-2.1-1-2.8-.6-.7-1.4-1-2.3-1h0Z"/>
        <path class="st0" d="M230.4,23.7c0-.6-.2-1.1-.7-1.5s-1.3-.7-2.5-.9-2.1-.6-2.8-.9-1.2-.8-1.5-1.3c-.3-.5-.5-1.1-.5-1.8,0-1.1.5-2.1,1.4-2.9,1-.8,2.2-1.2,3.7-1.2s2.8.4,3.8,1.2,1.5,1.8,1.5,3.1h-2.4c0-.6-.3-1.2-.8-1.7s-1.2-.7-2.1-.7-1.5.2-2,.6-.7.9-.7,1.5.2,1,.7,1.3,1.3.6,2.4.8,2.1.6,2.9.9c.7.4,1.3.8,1.6,1.3.4.5.5,1.1.5,1.9,0,1.2-.5,2.2-1.5,3-1,.7-2.3,1.1-3.8,1.1s-2.1-.2-2.9-.6-1.5-.9-2-1.6c-.5-.7-.7-1.5-.7-2.3h2.4c0,.8.4,1.4,1,1.9.6.5,1.4.7,2.3.7s1.6-.2,2.1-.5.8-.8.8-1.5h0Z"/>
        <path class="st0" d="M253.9,20.6c0,2.1-.5,3.8-1.4,5.1-1,1.3-2.3,1.9-3.9,1.9s-3-.5-4-1.6v6.6h-2.4V13.6h2.1v1.5c1.1-1.2,2.4-1.8,4.1-1.8s3,.6,3.9,1.9c1,1.2,1.4,3,1.4,5.2v.2h0ZM251.6,20.3c0-1.5-.3-2.8-1-3.7s-1.6-1.4-2.7-1.4-2.5.6-3.2,1.9v6.6c.7,1.3,1.8,1.9,3.2,1.9s2-.5,2.7-1.3c.7-.9,1-2.2,1-4h0Z"/>
        <path class="st0" d="M259.5,27.3h-2.4V7.8h2.4v19.6h0Z"/>
        <path class="st0" d="M271.8,27.3c-.1-.3-.2-.8-.3-1.5-1.1,1.1-2.4,1.7-3.9,1.7s-2.5-.4-3.3-1.1-1.3-1.7-1.3-2.9.5-2.5,1.6-3.3c1.1-.8,2.6-1.2,4.6-1.2h2.3v-1.1c0-.8-.2-1.5-.7-2s-1.2-.7-2.2-.7-1.5.2-2.1.6c-.6.4-.9.9-.9,1.5h-2.4c0-.7.2-1.4.7-2,.5-.6,1.1-1.1,2-1.5.8-.4,1.8-.6,2.8-.6,1.6,0,2.8.4,3.7,1.2.9.8,1.4,1.9,1.4,3.3v6.3c0,1.3.2,2.3.5,3v.2h-2.5ZM267.9,25.5c.7,0,1.4-.2,2.1-.6s1.1-.9,1.4-1.5v-2.8h-1.9c-2.9,0-4.3.8-4.3,2.5s.2,1.3.7,1.7,1.1.6,1.9.6h0Z"/>
        <path class="st0" d="M276.9,20.3c0-2.1.5-3.9,1.5-5.1,1-1.3,2.3-1.9,4-1.9s3,.6,3.9,1.8v-1.5h2.3v13.4c0,1.8-.5,3.2-1.6,4.2-1.1,1-2.5,1.5-4.3,1.5s-2-.2-2.9-.6-1.7-1-2.2-1.7l1.2-1.4c1,1.2,2.2,1.9,3.7,1.9s2-.3,2.7-1,1-1.5,1-2.7v-1.2c-.9,1.1-2.2,1.6-3.9,1.6s-2.9-.6-3.9-2c-1-1.3-1.5-3.1-1.5-5.3h0ZM279.2,20.6c0,1.5.3,2.8,1,3.7.6.9,1.5,1.3,2.7,1.3s2.6-.7,3.3-2v-6.3c-.7-1.3-1.8-2-3.2-2s-2,.4-2.7,1.3-1,2.2-1,4h0Z"/>
        <path class="st0" d="M297.8,27.6c-1.9,0-3.4-.6-4.6-1.8s-1.8-2.9-1.8-4.9v-.4c0-1.4.3-2.6.8-3.7s1.2-1.9,2.2-2.5c.9-.6,1.9-.9,3.1-.9,1.8,0,3.2.6,4.2,1.8s1.5,2.9,1.5,5.1v1h-9.3c0,1.4.4,2.5,1.2,3.3.8.8,1.7,1.2,2.9,1.2s1.5-.2,2.1-.5c.6-.3,1.1-.8,1.5-1.4l1.4,1.1c-1.2,1.8-2.9,2.7-5.2,2.7h0ZM297.5,15.2c-1,0-1.8.4-2.4,1s-1,1.7-1.2,2.9h6.9v-.2c0-1.2-.4-2.1-1-2.8-.6-.7-1.4-1-2.3-1Z"/>
        <path class="st0" d="M313.9,23.7c0-.6-.2-1.1-.7-1.5s-1.3-.7-2.5-.9-2.1-.6-2.8-.9-1.2-.8-1.5-1.3c-.3-.5-.5-1.1-.5-1.8,0-1.1.5-2.1,1.4-2.9,1-.8,2.2-1.2,3.7-1.2s2.8.4,3.8,1.2,1.5,1.8,1.5,3.1h-2.4c0-.6-.3-1.2-.8-1.7s-1.2-.7-2.1-.7-1.5.2-2,.6-.7.9-.7,1.5.2,1,.7,1.3,1.3.6,2.4.8,2.1.6,2.9.9,1.3.8,1.6,1.3c.3.5.5,1.1.5,1.9,0,1.2-.5,2.2-1.5,3-1,.7-2.3,1.1-3.8,1.1s-2.1-.2-2.9-.6-1.5-.9-2-1.6c-.5-.7-.7-1.5-.7-2.3h2.4c0,.8.4,1.4,1,1.9s1.4.7,2.3.7,1.6-.2,2.2-.5.8-.8.8-1.5h0Z"/>
        <path class="st0" d="M325.2,20.3c0-2.1.5-3.8,1.5-5.1,1-1.3,2.3-1.9,3.9-1.9s2.9.6,3.8,1.7v-7.2h2.4v19.6h-2.2v-1.5c-1,1.1-2.4,1.7-4,1.7s-2.9-.6-3.9-2-1.5-3-1.5-5.1v-.2h0ZM327.6,20.6c0,1.6.3,2.8,1,3.7.7.9,1.5,1.3,2.7,1.3s2.6-.7,3.3-2v-6.3c-.7-1.3-1.8-1.9-3.2-1.9s-2,.4-2.7,1.3-1,2.2-1,4h0Z"/>
        <path class="st0" d="M346.2,27.6c-1.9,0-3.4-.6-4.6-1.8s-1.8-2.9-1.8-4.9v-.4c0-1.4.3-2.6.8-3.7s1.2-1.9,2.2-2.5c.9-.6,2-.9,3-.9,1.8,0,3.2.6,4.2,1.8s1.5,2.9,1.5,5.1v1h-9.3c0,1.4.4,2.5,1.2,3.3.8.8,1.7,1.2,2.9,1.2s1.5-.2,2.1-.5c.6-.3,1.1-.8,1.5-1.4l1.4,1.1c-1.2,1.8-2.9,2.7-5.2,2.7h0ZM345.9,15.2c-1,0-1.8.4-2.4,1s-1,1.7-1.2,2.9h6.9v-.2c0-1.2-.4-2.1-1-2.8-.6-.7-1.4-1-2.3-1Z"/>
        <path class="st0" d="M368.8,23.7c0-.6-.2-1.1-.7-1.5s-1.3-.7-2.5-.9-2.1-.6-2.8-.9-1.2-.8-1.5-1.3c-.3-.5-.5-1.1-.5-1.8,0-1.1.5-2.1,1.4-2.9,1-.8,2.2-1.2,3.7-1.2s2.8.4,3.8,1.2,1.5,1.8,1.5,3.1h-2.4c0-.6-.3-1.2-.8-1.7s-1.2-.7-2.1-.7-1.5.2-2,.6-.7.9-.7,1.5.2,1,.7,1.3,1.3.6,2.4.8,2.1.6,2.9.9,1.3.8,1.6,1.3c.3.5.5,1.1.5,1.9,0,1.2-.5,2.2-1.5,3-1,.7-2.3,1.1-3.8,1.1s-2.1-.2-2.9-.6-1.5-.9-2-1.6c-.5-.7-.7-1.5-.7-2.3h2.4c0,.8.4,1.4,1,1.9s1.4.7,2.3.7,1.6-.2,2.2-.5.8-.8.8-1.5h0Z"/>
        <path class="st0" d="M382.7,27.3c-.1-.3-.2-.8-.3-1.5-1.1,1.1-2.4,1.7-3.9,1.7s-2.5-.4-3.3-1.1-1.3-1.7-1.3-2.9.5-2.5,1.6-3.3,2.6-1.2,4.6-1.2h2.3v-1.1c0-.8-.2-1.5-.7-2s-1.2-.7-2.2-.7-1.5.2-2.1.6c-.6.4-.8.9-.8,1.5h-2.4c0-.7.2-1.4.7-2,.5-.6,1.2-1.1,2-1.5.8-.4,1.8-.6,2.8-.6,1.6,0,2.8.4,3.7,1.2.9.8,1.4,1.9,1.4,3.3v6.3c0,1.3.2,2.3.5,3v.2h-2.5ZM378.8,25.5c.7,0,1.4-.2,2.1-.6s1.1-.9,1.4-1.5v-2.8h-1.8c-2.9,0-4.3.8-4.3,2.5s.2,1.3.7,1.7,1.1.6,1.9.6h0Z"/>
        <path class="st0" d="M400,20.6c0,2.1-.5,3.8-1.5,5.1-1,1.3-2.3,1.9-3.9,1.9s-3.1-.6-4-1.9v1.6h-2.3V7.8h2.3v7.3c1-1.2,2.3-1.8,3.9-1.8s3,.6,3.9,1.9c1,1.3,1.4,3,1.4,5.2v.2h0ZM397.7,20.3c0-1.6-.3-2.8-.9-3.7s-1.5-1.3-2.7-1.3-2.7.7-3.3,2.2v6c.7,1.4,1.8,2.2,3.4,2.2s2-.4,2.6-1.3c.6-.9.9-2.2.9-4h0Z"/>
        <path class="st0" d="M405.6,27.3h-2.4V7.8h2.4v19.6h0Z"/>
        <path class="st0" d="M415.1,27.6c-1.9,0-3.4-.6-4.6-1.8s-1.8-2.9-1.8-4.9v-.4c0-1.4.3-2.6.8-3.7s1.2-1.9,2.2-2.5c.9-.6,2-.9,3-.9,1.8,0,3.2.6,4.2,1.8s1.5,2.9,1.5,5.1v1h-9.3c0,1.4.4,2.5,1.2,3.3.8.8,1.7,1.2,2.9,1.2s1.5-.2,2.1-.5c.6-.3,1.1-.8,1.5-1.4l1.4,1.1c-1.2,1.8-2.9,2.7-5.2,2.7h0ZM414.8,15.2c-1,0-1.8.4-2.4,1s-1,1.7-1.2,2.9h6.9v-.2c0-1.2-.4-2.1-1-2.8-.6-.7-1.4-1-2.3-1Z"/>
        <path class="st0" d="M441.3,20.6c0,2.1-.5,3.8-1.5,5.1-1,1.3-2.3,1.9-3.9,1.9s-3.1-.6-4-1.9v1.6h-2.3V7.8h2.3v7.3c1-1.2,2.3-1.8,3.9-1.8s3,.6,3.9,1.9c1,1.3,1.4,3,1.4,5.2v.2h0ZM438.9,20.3c0-1.6-.3-2.8-.9-3.7s-1.5-1.3-2.7-1.3-2.7.7-3.3,2.2v6c.7,1.4,1.8,2.2,3.4,2.2s2-.4,2.6-1.3c.6-.9.9-2.2.9-4h0Z"/>
        <path class="st0" d="M446.8,27.3h-2.4V7.8h2.4v19.6h0Z"/>
        <path class="st0" d="M459.1,27.3c-.1-.3-.2-.8-.3-1.5-1.1,1.1-2.4,1.7-3.9,1.7s-2.5-.4-3.3-1.1-1.3-1.7-1.3-2.9.5-2.5,1.6-3.3,2.6-1.2,4.6-1.2h2.3v-1.1c0-.8-.2-1.5-.7-2s-1.2-.7-2.2-.7-1.5.2-2.1.6c-.6.4-.8.9-.8,1.5h-2.4c0-.7.2-1.4.7-2,.5-.6,1.2-1.1,2-1.5.8-.4,1.8-.6,2.8-.6,1.6,0,2.8.4,3.7,1.2.9.8,1.4,1.9,1.4,3.3v6.3c0,1.3.2,2.3.5,3v.2h-2.5ZM455.2,25.5c.7,0,1.4-.2,2.1-.6s1.1-.9,1.4-1.5v-2.8h-1.8c-2.9,0-4.3.8-4.3,2.5s.2,1.3.7,1.7,1.1.6,1.9.6h0Z"/>
        <path class="st0" d="M467,13.6v1.7c1.1-1.3,2.5-2,4.2-2,2.9,0,4.4,1.6,4.4,4.9v9.1h-2.3v-9.1c0-1-.2-1.7-.7-2.2-.5-.5-1.1-.7-2.1-.7s-1.4.2-2,.6-1,.9-1.3,1.6v9.8h-2.3v-13.8h2.2,0Z"/>
        <path class="st0" d="M484.7,25.6c.8,0,1.6-.2,2.2-.8s1-1.1,1-1.9h2.2c0,.8-.3,1.5-.8,2.2s-1.2,1.3-2,1.7c-.8.4-1.7.6-2.7.6-1.9,0-3.4-.6-4.5-1.9s-1.7-3-1.7-5.1v-.4c0-1.3.2-2.5.7-3.6s1.2-1.9,2.1-2.4,2-.9,3.3-.9,2.8.5,3.8,1.4c1,.9,1.6,2.1,1.6,3.6h-2.2c0-.9-.4-1.6-1-2.2-.6-.6-1.4-.9-2.2-.9s-2.1.4-2.8,1.3c-.7.9-1,2.1-1,3.7v.5c0,1.6.3,2.8,1,3.7.7.9,1.6,1.3,2.8,1.3h0Z"/>
      </g>
      <g>
        <path class="st0" d="M27,82.6c0-2.1.5-3.8,1.5-5.1s2.3-1.9,3.9-1.9,2.9.6,3.8,1.7v-7.2h2.4v19.6h-2.2v-1.5c-1.1,1.2-2.4,1.7-4,1.7s-2.9-.7-3.9-2-1.5-3-1.5-5.1v-.2h0ZM29.3,82.9c0,1.6.3,2.8,1,3.7.6.9,1.5,1.3,2.7,1.3s2.6-.7,3.3-2v-6.3c-.7-1.3-1.8-1.9-3.2-1.9s-2.1.4-2.7,1.3-1,2.2-1,4h0Z"/>
        <path class="st0" d="M48,89.9c-1.9,0-3.4-.6-4.6-1.8s-1.8-2.9-1.8-4.9v-.4c0-1.4.3-2.6.8-3.7.5-1.1,1.2-1.9,2.2-2.5.9-.6,2-.9,3-.9,1.8,0,3.2.6,4.2,1.8s1.5,2.9,1.5,5.1v1h-9.3c0,1.4.4,2.5,1.2,3.3.8.8,1.7,1.2,2.9,1.2s1.5-.2,2.1-.5c.6-.3,1.1-.8,1.5-1.3l1.4,1.1c-1.1,1.8-2.9,2.7-5.2,2.7h0ZM47.7,77.5c-1,0-1.8.3-2.4,1s-1,1.7-1.2,2.9h6.9v-.2c0-1.2-.4-2.1-1-2.8-.6-.7-1.4-1-2.3-1h0Z"/>
      </g>
      <g>
        <path class="st1" d="M59.9,99.7c-.2-.3-.5-.5-.7-.8-.3-.2-.5-.5-.6-.8,0-.2,0-.3,0-.5,0-.2-.2-.2-.5-.2,0-.1,0-.2,0-.2s0-.1,0-.2c-.1,0-.2,0-.3,0-.1,0-.2,0-.2,0,.1-.3.1-.4,0-.5s-.2-.1-.3-.2c.3-.9.7-1.7,1.3-2.2s1.3-1,2-1.2c-.3.1-.4.3-.5.5,0,.2-.1.4-.2.6,0,.1,0,.2,0,.4v.5l.7.6c0,.6.1,1.1.4,1.4.3.3.6.6,1,.7s.9.3,1.4.3c.5,0,1,.1,1.5.2h.2c1.1,0,2.1,0,3-.2.9-.2,1.7-.3,2.6-.6.1-.1.2-.2.4-.2s.3,0,.4,0c.2-.1.4-.2.5-.2.1,0,.2-.1.4-.2.5-.1,1-.3,1.5-.5.5-.2,1.1-.4,1.6-.6.3,0,.5-.1.6-.2.9-.4,1.8-1,2.8-1.6,1-.6,2-1.2,2.9-1.8.4-.3.9-.6,1.4-1,.5-.4.9-.8,1.1-1.2.8-.8,1.5-1.8,2.1-2.9.6-1.1.9-2.4.8-4,0-1.1-.1-2.1-.6-2.9s-.8-1.8-1.1-2.7c.2.2.3.4.4.7s.2.5.4.8c-.1-.7-.3-1.3-.7-1.8s-.7-1.1-1.1-1.7c0,.2,0,.3.2.6.1.2.2.4.2.6-.1-.2-.2-.3-.3-.6-.1-.2-.2-.4-.3-.6-.6-.8-1.2-1.6-1.9-2.4s-1.3-1.6-2-2.3l-1.8-1.8c-.1-.3-.1-.4,0-.5-.3-.2-.5-.4-.8-.6-.2-.2-.4-.4-.4-.7-.9-1.1-1.8-2.3-2.8-3.6-1-1.3-1.7-2.7-2.1-4.4-.4-1.5-.7-3.2-1-4.9-.2-1.7,0-3.5.8-5.5,0-.3.1-.5.2-.8.1-.2.2-.5.3-.8,1-1.9,2.2-3.6,3.7-5.2,1.5-1.6,3-3,4.6-4.2.3-.1.5-.2.7-.3s.4-.2.5-.4c.6-.3,1.1-.6,1.7-.9.5-.3,1.1-.6,1.7-.8,1.2-.4,2.5-.7,3.7-.9,1.2-.2,2.5-.2,3.8.3l1.4,1.3c.3.3.6.5.9.8.3.2.6.5,1,.8.2.1.3.3.4.6s.2.6.4.9c.2.3.3.6.4.9,0,.3.1.6.2.9.3.8.5,1.7.6,2.6.1.9,0,1.8-.2,2.9-.3,1-.5,1.8-.6,2.2s-.1,1.1-.2,1.8c-.1.4-.3.7-.5,1-.2.3-.4.6-.4.9-.3.7-.6,1-1.1.8-.5-.2-1-.5-1.6-.9-.4-.3-.7-.5-.9-.6-.2-.1-.4-.4-.6-.8,0-.2.1-.4.2-.6,0-.2,0-.4,0-.6.3-.6.6-1.3.9-2s.6-1.4.7-2.1c0-.2,0-.4,0-.5s0-.2.1-.3c0-.1,0-.3.2-.6.1-.3,0-.5-.2-.6,0-.1.1-.2.2-.2,0,0,.1-.2.2-.4,0-.3,0-.6,0-1s0-.6-.1-1c0-.4-.2-.7-.5-1-.4-.3-.6-.6-.9-.8-.4-.3-.9-.5-1.5-.6-.6-.1-1.1,0-1.7.1-2.2.4-4.3,1.2-6.2,2.5-1.9,1.3-3.5,2.9-4.8,4.8-.5.8-1,1.9-1.6,3.2s-1.1,2.5-1.5,3.7c-.3,1-.4,2-.3,3,.1,1,.4,1.9.8,2.7,0,1.3.4,2.5.9,3.5.6,1,1.1,2,1.7,3.1,1.1,1.4,2.3,2.7,3.6,4,1.3,1.3,2.5,2.6,3.7,3.9,1.2,1.3,2.4,2.7,3.5,4.1,1.1,1.4,2,3,2.8,4.7v.3c.4,1,.6,2.1.6,3.2,0,1.1-.2,2.2-.5,3.2-.3,1-.7,2-1.3,2.9s-1.1,1.7-1.7,2.3l-.9.5c-.2.3-.4.6-.6.8-.1.2-.2.3-.4.4-.1.1-.2.2-.2.3-.5.2-.9.4-1.1.7-.3.3-.6.5-1.1.6.1.1.2.1.2,0s.1-.1.2,0c-.6.8-1.5,1.4-2.4,1.7-1,.3-1.9.8-2.7,1.4-.9.4-1.9.8-2.9,1.2-1,.3-2.1.7-3.1,1.2-.3-.2-.5-.1-.7,0,0-.2-.2-.2-.4-.2s-.4,0-.6,0c-.2,0-.5,0-.8.1-.3,0-.5,0-.7,0v-.2c0-.1.2-.2.5-.2.3,0,.4,0,.5.2.4,0,.7-.1.9-.2.2,0,.5-.2.7-.2,0-.2.2-.3.6-.4s.6-.2.6-.3c0,0,0,0,0,0s0,0,0,0h0c.1,0,.1,0,0,0,0,0,0,0,0,0s.1,0,0,0,0,0,0,.2c.2-.1.3-.1.3,0,.1-.3.4-.5.9-.6.5-.1,1-.3,1.5-.6.3-.1.5-.3.6-.6s.2-.4.3-.6c-.1,0-.2,0-.4.2s-.3.2-.5.2c0,.1,0,.2,0,.1s0,0,0,.2c-.7.3-1.4.6-2,.9s-1.4.6-2.1.7c0,0,.1-.2.4-.3-.3-.1-.4-.1-.4,0s0,0-.2,0c0-.1.2-.2.4-.2.2,0,.3-.2.4-.3.4.1.7,0,.9-.2.2-.2.5-.3.9-.3.4-.2.7-.4,1-.5.3-.1.6-.3,1-.5.3-.3.8-.4,1.4-.6.6-.1,1.1-.3,1.5-.7-.1,0-.2,0-.4,0s-.3.2-.4.2c.1-.3.4-.6.8-.8.4-.2.7-.4,1-.6.3-.1.5-.2.6-.2s.3,0,.6-.1c.2-.5.6-.9,1-1,.1-.2.2-.4.4-.5.1-.1.2-.3.4-.5-.1,0-.2,0-.3,0s-.2,0-.3,0c-.3.3-.5.6-.8.8-.2.2-.4.5-.5.8h-.3c-1.4.8-2.9,1.6-4.3,2.3s-3,1.5-4.7,2.2l-.3.4c-.2.1-.3.2-.5.2s-.4,0-.5.2c0,.1,0,.2,0,.2s.1,0,0,0c-.2.3-.5.4-.8.5-.4,0-.6.2-.8.4-.5.2-1,.2-1.6.2s-1.1,0-1.6.2c-.1,0-.3,0-.5.1-.2.1-.4,0-.6-.2-.7,0-1.6,0-2.5-.2s-1.7-.3-2.2-.6c-.3-.3-.6-.4-.9-.5-.3,0-.5-.2-.7-.5-.2,0-.3-.1-.3-.2,0,0-.2-.1-.3-.1h0ZM58.3,97.9c.1,0,.2,0,.2.2l-.2-.2ZM60.5,99.7c0-.2-.2-.3-.3-.4s-.3,0-.5,0c.2.3.5.5.8.5h0ZM61.8,100.5c0-.2-.1-.2-.2-.3,0,0-.1,0-.2-.2-.1,0-.2,0-.4,0-.1,0-.2,0-.2,0,.2.1.4.2.6.2.2,0,.3.1.4.2h0ZM76.6,98.2c0-.2.1-.2.2-.2.4-.3.9-.6,1.4-.8.5-.3,1-.7,1.3-1.1-1,.4-1.9.8-2.9,1.2-1,.4-2,.8-3,1.1h-.2c-.3.2-.7.4-1.1.4s-.7.3-1,.8c.2,0,.3,0,.5-.1.2,0,.3,0,.4-.1.1,0,.1,0,0,.1,0,0,0,0,0,.2-.1.1-.2.2-.4.2s-.3,0-.4.2c.3,0,.4,0,.3.2.5-.1,1-.2,1.5-.3s1-.3,1.4-.6c.1,0,.2,0,.4,0s.3-.2.4-.2c0-.3,0-.4.3-.4.3,0,.5,0,.7-.2h0ZM83.7,73.8c0-.2-.2-.4-.6-.6.1.1.2.2.2.3s.2.2.3.2Z"/>
        <path class="st1" d="M138.1,81.6c-.3,0-.5,0-.7.4-.2.3-.4.6-.6.8,0,0,0-.1,0-.2-.4.3-.8.7-1.2,1s-.8.7-1.2,1.2h-.2c-.1,0-.2.2-.4.3-.1.2-.3.2-.4,0-.3.2-.5.3-.6.6s-.3.3-.5.4c-.3.3-.5.5-.6.6s-.4.3-.7.6c0,0,0,0-.2,0-.2.2-.5.4-1,.5-.6.3-1.1.7-1.5,1-.5.3-.9.5-1.4.5-.5,0-.8.1-1,.2-.2,0-.5,0-.7,0-.4,0-1,.1-1.6.4-.6.2-1.2.3-1.6.1-.1-.3-.3-.4-.6-.6-.3-.2-.5-.3-.8-.4-.2-.1-.4-.3-.5-.7-.6-.4-1-.9-1.3-1.6-.3-.7-.4-1.5-.4-2.5s0-1.9.2-2.9.4-2,.6-2.9c-.7.6-1.5,1.3-2.1,2.1s-1.4,1.6-2.1,2.3c-.3.5-.6.9-.9,1.2-.3.3-.6.6-1,.9-.9,1.1-1.8,2-2.5,2.8,0,0,0,0,0,.1s0,0-.1.2c-.4.3-.9.7-1.4,1.1s-1.1.8-1.6,1.1c-.6.3-1.1.5-1.8.5-.6,0-1.2-.2-1.9-.6-.4,0-.6-.2-.8-.4-.1-.2-.3-.4-.6-.5-.6-.3-.9-.6-1.1-1-.1-.4-.2-.9-.3-1.7,0-.4,0-.8.1-1.4s.3-1.1.5-1.5c.3-1,.7-1.9,1.2-2.8.5-.9,1-1.7,1.5-2.4.9-1.2,1.8-2.3,2.8-3.4.9-1,1.9-2.1,2.9-3.1.3-.2.6-.4,1-.6.3-.3.7-.5,1.1-.6.3.1.6,0,.9-.2s.6-.2.8.2c1.1.1,2.1.4,3,.8s1.4,1.1,1.8,2.1c.4-.3.7-.5,1-.7.3-.2.7-.4,1-.5.2,0,.3-.2.4-.3.1-.2.2-.2.3-.2.5-.1,1,0,1.5.3s.9.6,1.3.8c0,0,.1,0,.2,0,0,0,.2,0,.4,0,.1.2.2.3.2.4s.1.2.2.4c.1,1,0,2-.4,3.1-.4,1.1-.7,2-1.1,2.8-.2,1.2-.5,2.6-.9,4s-.4,2.7,0,3.7c1.9-.2,3.4-.7,4.7-1.4,1.2-.7,2.5-1.4,3.8-2.1.5-.4.9-.7,1.3-1,.4-.3.8-.6,1.1-1,0,0,.1,0,.2,0h0c.3,0,.8-.2,1.6-.9.8-.7,1.6-1.3,2.4-2.1s1.6-1.3,2.3-1.9c.7-.5,1.1-.7,1.2-.6.1.1.2.1.4,0s.3,0,.4,0c0,.1,0,.2,0,.2,0,0,0,.1,0,.2v-.2s0,0,0,.2-.1.3-.2.4c0,.1-.1.2-.2.3,0,0,0,0,0-.2l-.4.4-.4.4c-.1.3-.2.4-.2.6s0,.3-.2.6c-.2,0-.3,0-.3,0-.1.3-.2.4-.4.6s-.3.3-.4.6c-.1,0-.2.1-.3.4l-1.1,1.2h0ZM116.4,74.7c-.1-.7-.3-1.3-.6-1.8s-.8-.5-1.5-.2l-1.3,1.4c-.1.2-.2.3-.4.4s-.3.2-.4.3-.2.2-.3.4c-.1.2-.2.4-.4.6l-1.1,1.3c-.6.7-1.1,1.6-1.7,2.5s-1,1.8-1.5,2.7c-.1.3-.2.5-.4.7s-.3.5-.4,1c-.1,0-.2,0-.2,0s0,0,0,0c-.1.6-.3,1.1-.6,1.5-.3.4-.4.9-.4,1.6.4-.3.9-.5,1.4-.8.5-.3.9-.6,1.2-.9,1.5-1.5,3-3,4.4-4.7,1.4-1.6,2.8-3.3,4.2-5,.2-.1.3-.2.4-.4s.2-.3.4-.4v-.2c-.1-.1-.4-.2-.7-.2h0Z"/>
        <path class="st1" d="M156.7,88c-.1,0-.2,0-.3,0-.1,0-.2,0-.2,0,0,0-.1,0-.3,0-.2.3-.3.5-.5.8-.2.2-.4.3-.6.2-.1.1-.2.2-.4.3-.1,0-.3.2-.4.4,0,0,0,0,0,0-.2.1-.5.2-.9.4s-.9.3-1.4.5c-.5.2-.9.4-1.3.5-.4.2-.6.3-.8.4-.3,0-.7,0-1.1.2s-.7.3-1,.5c-.6.1-1.4.2-2.2.4s-1.7.2-2.7-.1c-.3,0-.4,0-.4,0s0,0,0,.1,0,.1,0,.2-.1,0-.3,0c0-.2,0-.3-.2-.4-.1,0-.2,0-.3,0-.1-.1-.2-.2-.4-.3-.1,0-.3-.2-.6-.2-1-1-1.8-2.1-2.5-3.3s-1-2.6-1.2-4.2c0-.2,0-.3,0-.5,0-.2,0-.3,0-.4v-3.5c0-.1,0-.2.1-.3s0-.2,0-.3l.2-1.8c0-.2,0-.3,0-.4s0-.2,0-.3h0c.1,0,.2-.1.2-.2.1-.1.1-.2,0-.2,0,0,0-.1,0-.2l.5-1.4c0-.1,0-.2.1-.3s0-.2-.1-.4c0-.1.2-.1.3,0,0-.3.1-.5.2-.8,0-.3,0-.5,0-.7h0c.1-.1.2-.2.2-.3s0-.2.2-.2c0-.8.3-1.5.6-2.1.4-.6.6-1.3.6-2,.4-.2.5-.4.4-.7.1,0,.2,0,.2-.3s0-.3.2-.4v-.2c.5-.7.8-1.4.9-2.2.9-1.2,1.5-2.3,1.8-3.5.2,0,.3-.2.4-.3,0-.1,0-.3.1-.4.3-.4.5-.9.8-1.5.3-.6.6-1.1,1.1-1.5.2-.4.4-.7.6-1.1.3-.4.5-.8.8-1.2.9-1.3,1.8-2.6,2.7-3.9.9-1.3,2.1-2.5,3.7-3.5.3-.3.6-.5.9-.6s.7-.2,1.1-.4c1.2-.7,2.5-.7,3.7.2.3.2.6.4,1,.4.4,0,.6.3.8.7.2,0,.3.1.3.2s0,.2,0,.4c0,.1.1.2.2.3s.1.2,0,.4c0,.1,0,.2,0,.3,0,.1,0,.3-.1.5,0,.3-.3.6-.6,1l-.2,1.2-.6.6c-.2.4-.3.8-.5,1.2-.2.4-.4.8-.6,1.1-.3,1.3-.9,2.4-1.8,3.4-.9,1-1.6,2.1-2.3,3.2-.5.6-1,1.2-1.3,2-.4.7-.8,1.4-1.2,2.1-.2.1-.3.2-.5.4s-.3.4-.3.6c-.7.6-1.2,1.2-1.6,1.9s-.9,1.4-1.5,2.1c-.1.4-.3.6-.6.8-.3.1-.5.4-.6.8-.1.1-.2.2-.3.2-.1,0-.1.2,0,.4-.3.1-.6.4-.8.8s-.4.7-.7.9c0,.2-.2.3-.4.5-.2.2-.3.3-.4.3-.4.4-.8.9-1.2,1.5s-1.1,1.2-2,1.8c-.1.2-.2.2-.3.2v.6c-.3,1.1-.4,2.4-.5,3.8,0,1.4,0,2.8.4,4.2.2.8.4,1.2.5,1.3.1,0,.2,0,.3,0s.1-.1.2,0c0,0,0,.4.2,1.1,0,0,0,0,0,0h.2c0,0,.1,0,.2,0,1,.2,1.7.2,2.1.2.4,0,.9-.2,1.5-.4.9-.3,1.7-.6,2.4-.9.8-.3,1.5-.7,2.2-1.1,0,0,0,0,.2,0h0c.1,0,.1,0,0,0,.1,0,.2,0,.2,0s0,0,0,0h.2l.2-.2c.9-.4,1.7-1,2.5-1.7.8-.7,1.6-1.3,2.5-1.7,0-.2,0-.2.2-.3.1,0,.2-.1.2-.3,0,0,0,0,0,0s0,0,.1,0c.5-.3,1-.5,1.4-.7.4-.2.6-.5.5-.9.1,0,.2,0,.2,0s0,0,0,0c.2-.3.4-.4.5-.6.1-.1.2-.2.3-.2.1,0,.2-.1.4-.2.1,0,.3-.2.6-.5-.2-.2-.2-.2,0-.3.1,0,.2,0,.2-.2.1.1.1.2,0,.2s0,0,0,.2c.4-.5.8-.9,1.2-1.3.4-.4.6-.5.7-.3.3-.3.5-.4.4-.4,0,0,0,0-.2,0s-.1,0-.2,0,.1-.2.4-.4c.3,0,.5,0,.6.2,0,.4,0,.6.4.6-.2.1-.3.2-.2.3s.1.2.2.3c0,.2,0,.4,0,.5,0,.5-.1.9-.2,1.1,0,.2-.2.3-.2.4s-.2,0-.2.1c0,0-.1.1-.1.3s0,.2,0,.2h0c0,.1,0,.1-.1,0s0-.2-.2-.2c0,.1,0,.2,0,.3s0,.2.1.2c-.2.2-.4.3-.5.3-.1,0-.2,0-.2,0s0,0-.1,0-.1.2-.2.4v-.2c-.2,0-.3,0-.3.2s0,.3-.2.4c-.1-.1-.1-.2,0-.2,0,0,0-.1,0-.2-.1,0-.2,0-.3.1,0,.1-.2.1-.3,0,0,.1-.1.3-.2.6,0,.3-.2.4-.3.6-.1,0-.1,0,0-.2s.1-.2.1-.4c-.3.2-.5.4-.6.6l-.2.2c0,0,0,0,.2,0,0,.1,0,.2,0,.4s-.2.2-.5.4c-.1.5-.4.7-.8.7v-.2c0,0,0-.2,0-.2-.3,0-.4.1-.3.3-.1,0-.2,0-.2,0s-.2.1-.3,0c-.1.1,0,.2,0,.2s.1,0,0,0c0,0,0,0-.1,0s0,0-.1,0c-.3.3-.7.5-1,.8-.4.3-.7.6-.9,1,0,.1,0,.2,0,.2,0,0,.1.1.2.2h0ZM138.4,75.8c0-.2,0-.3,0-.4,0,0,0,.1,0,.2,0,0,0,.2.1.2ZM142.9,72.1c1.1-1.4,2.1-2.7,3-4,.9-1.3,1.9-2.6,2.9-4,0,0,0,0,0,0,.3-.3.6-.6.8-1.1.2-.5.4-.8.6-1.1.9-1.1,1.7-2.2,2.5-3.4s1.5-2.3,2.1-3.5c.4-.7.7-1.4,1-2s.6-1.4.7-2.1c.6-.4.8-1,.6-1.8-.6.2-1,.5-1.4.9-.3.5-.7.8-1.1,1.2-.2.5-.5.9-.8,1.3-.3.4-.6.8-1,1.2-1.4,1.2-2.4,2.5-3.2,4-.7,1.5-1.5,3-2.2,4.5-.2,0-.3,0-.4,0-.1.4-.3.8-.6,1.1-.3.3-.4.6-.4,1-.3.4-.6.8-.7,1.2s-.4.8-.6,1.2c-.1.3-.2.5-.4.8-.1.2-.2.5-.4.7v.4c-.1.2-.2.4-.4.7s-.2.5-.2.9c-.3.3-.4.7-.5,1,0,.4-.2.7-.3,1.1h0ZM154.7,87.3c0,0,0,0,0,0,.1,0,.2,0,.2,0s0-.2,0-.2c.3,0,.5,0,.6-.3s.3-.4.5-.6c0,0,0,.1.2.2l.4-.4c.1-.1.2-.2.1-.4-.3.1-.6.2-.9.4s-.6.5-.9.8h-.2v.2c0,0,0,0,0,0-.1,0-.2,0-.3,0s-.1.2,0,.3c0,0,0,0,.1-.1s0-.2.2-.2h0ZM154.8,87.2h0c0,0,0,0,0,0h0ZM157.1,85.4c-.3,0-.4.1-.4.3.1,0,.2,0,.2,0s0-.1.2-.2h0ZM157.4,85.7c0-.2,0-.3,0-.3v.3c.2,0,.2,0,.3,0s0-.1.2-.2c-.2,0-.2,0-.2-.2-.2,0-.3.1-.4.2s0,.2,0,.2h0ZM158,85.2s0,0-.1,0,0,0-.1,0c.2.2.2.2.2.2v-.2ZM158.4,84.8c0,0,0,.2,0,.3,0,.1,0,.2,0,.2,0-.1,0-.2,0-.2,0-.1,0-.2,0-.2ZM160.2,83.8c-.2.1-.4.2-.5.2-.1,0-.2.1-.3.2,0,0,0,0,0,0s0,0-.1,0c-.1.1-.2.2-.3.2,0,0,0,.2,0,.4.3-.1.6-.2.8-.4s.4-.4.5-.6h0ZM160.9,83.7c0,.2,0,.3-.2.4,0-.2,0-.3,0-.3,0,0,0,0,.2,0ZM161.3,79.9c0-.2,0-.1,0,0h0ZM162.1,81.7c-.2,0-.4,0-.6.2s-.2.2-.2.4c.1,0,.2-.1.3-.2s.2-.2.4-.4ZM163.6,80.4c-.3.2-.4.4-.4.7.2,0,.3,0,.5-.1.2-.1.1-.3,0-.6h0ZM164.1,81.3v.4-.5h0ZM164.2,81.7c0,0,0,0,0,0s0,0,0,0h0Z"/>
        <path class="st1" d="M190.9,80c.1.2,0,.4-.6.8s-1,.8-1.4,1.3c-.1,0-.4.2-.7.6s-.6.5-.6.6l-.5.4-1.4,1-.6.4-1.1.7c-.9.6-1.8,1.1-2.5,1.7s-1.8,1-3,1.4c0,0-.1,0-.3,0s-.3.1-.4.2c-.2,0-.4.1-.6.2-.2,0-.4,0-.6.1s-.4.1-.6.1,0,0,0-.2c-.3,0-.5,0-.6.1-.2,0-.4.1-.6.3-.2-.1-.3,0-.4,0s-.3.2-.5,0c-.1.2-.3.2-.5.2-.2,0-.4,0-.6.2-.1,0-.1,0,0-.1,0,0,0,0,0-.1-.2,0-.4,0-.6,0-.2,0-.5,0-.8.2-.2-.1-.3-.1-.4,0,0,0-.2,0-.5,0v.2c-.9-.2-1.5-.2-1.8-.2-.2,0-.4-.1-.5-.2-.1,0-.2,0-.3,0-.6-.1-1.1-.2-1.6-.4s-1-.3-1.6-.6c-.6-.3-1.2-.7-1.7-1.2s-.9-1.1-1.4-1.6c-.2-.4-.4-.7-.5-1.1-.1-.4-.2-.7-.3-1-.1-.4-.2-.8-.2-1.2s0-.7.2-1.2c.1-.6.3-1.4.5-2.4s.6-1.9,1.2-2.6l1.8-2.1,1.2-1.6c.4-.3.8-.6,1-.8.3-.2.6-.5,1-1,.3-.3.6-.5,1-.7.4-.2.7-.4,1-.7.5-.3.9-.6,1.1-.9.4-.3.8-.5,1.2-.8.4-.2.8-.4,1.2-.5.2-.1.4-.2.6-.2s.5,0,.6-.2c.1,0,.2-.1.3-.2.1,0,.2,0,.4,0,.3.4.6.8,1.1,1.1.5.3.8.7,1.1,1.1.4.1.6.3.6.6,0,.3.2.5.5.7.1.4.1.8,0,1.1s-.2.7-.4,1c-.1.1-.2.2-.2.3s0,.2,0,.3c-.1.3-.3.5-.5.7s-.5.4-.7.7c-.1.1-.2.3-.3.5,0,.2-.2.4-.3.6l-.8.8c-.3.3-.6.6-.9,1-.3.4-.6.6-1,.8s-.7.4-1,.7c-.2.1-.2.3-.2.5-.4.4-.9.8-1.5,1.2-.6.3-1,.7-1.5,1.2-.9.2-1.6.5-2.4,1-.7.5-1.5.6-2.5.4-.1,0-.1.1,0,.2s.2,0,.4,0c-.2.3-.2.5,0,.6s.2.3.3.4c.4.4.9.8,1.5,1.2.6.4,1.2.6,1.9.7,2,.6,3.8.6,5.6,0,.6-.1,1.1-.2,1.6-.3s1.1-.3,1.8-.6c.9-.3,1.6-.7,2.3-1l1-.5c.2-.1.2-.2.3-.1s0,0,0,0,0,0,0,0,0,0,.2-.1l2.1-1c.6-.4,1.1-.8,1.4-1s.9-.7,1.7-1.2c0,0,.2-.2.5-.4.3-.2.5-.4.8-.6.3-.2.6-.4.8-.6.3-.2.5-.3.6-.4l.8-.8c.6-.4,1.2-.8,1.6-1.1.5-.3.8-.5,1-.6.2.2.3.4.3.7,0,.3.2.4.3.4-.3.5-.5.8-.7,1.1-.1.2-.2.4-.3.5,0,.1-.2.2-.3.3s-.4.2-.7.4h0ZM174,71.1c-.2.1-.4.2-.6.4s-.4.3-.6.4c-.2,0-.4,0-.4.2-.1,0-.2.1-.3.2s-.2.1-.3.2l-.6.5c-.3.3-.5.5-.8.6s-.5.3-.8.5c-.3.4-.6.8-.9,1-.3.2-.6.6-.9,1-.6.4-1.1.8-1.4,1.3-.6.6-1.1,1.2-1.6,1.7-.5.6-.9,1.1-1.1,1.7,1-.3,2-.8,2.9-1.5.9-.7,1.9-1.4,2.9-2.2.3-.3.6-.5,1-.8.3-.3.6-.6.9-1,.5-.3,1-.7,1.6-1.3.6-.6,1.1-1.2,1.5-1.8.1-.3.2-.5.4-.7.1-.2.1-.4,0-.6-.1,0-.2,0-.4,0s-.3,0-.4.2h0Z"/>
        <path class="st1" d="M210.8,85.1c-.4,0-.8.2-1.1.6s-.7.6-1.1.7c0,0,0,.1,0,.2h-.6c0,0-.1,0-.2,0-.2,0-.2,0-.2.1s0,.2,0,.3c-.4.1-.7.2-.9.4s-.6.3-1.1.3c0,.1,0,.2,0,.2-.3,0-.5.2-.7.5-.4,0-.8.2-1.2.6-.9.1-1.5.4-2.1.9-.6.5-1.3.8-2.3.9-.2,0-.3,0-.3,0-1.1.2-2.1.2-3.2.2-1.1,0-2.2-.2-3.3-.6-.4-.1-.8-.3-1.2-.5-.4-.2-.8-.4-1.1-.6-.6-.2-1.1-.7-1.5-1.3-.4-.7-.7-1.3-.8-2-.2-.7-.3-1.7-.2-2.8s.3-2.1.6-3c.2-.6.4-1.2.7-1.8s.6-1.1.9-1.7c.3-.2.6-.6.9-1.3h.2c.7-1.1,1.5-2.1,2.2-2.9.7-.8,1.6-1.6,2.7-2.3,0-.1,0-.2.1-.2s.1,0,.1,0c.3-.3.7-.5,1-.6.4-.1.8-.3,1.2-.6.3-.2.5-.3.7-.6.2-.2.5-.3,1-.2.3,0,.5.2.8.4.2.2.5.3.8.4.2.1.3.1.4,0,.1,0,.2,0,.4,0,.1.1.2.2.3.4.1.1.3.2.6.2.3.4.6.9,1,1.5.4.6.6,1.2.6,1.9-.3.4-.4,1-.2,1.7-.3.4-.5.8-.6,1.4s-.4,1-.6,1.4c-.1,0-.2,0-.2,0s-.1,0-.2,0c-.1,0-.2,0-.2-.1s0-.1-.1-.1v.2c-.1,0-.2-.2-.3-.4-.3.1-.6,0-1.1-.6-.5-.5-.8-.9-.8-1.3l.3-.9c.3-.6.5-1.2.8-1.7.3-.6.4-1.1.4-1.6-1.3.3-2.2.9-2.9,1.8-.7.8-1.5,1.7-2.4,2.5,0,.1,0,.2,0,.2s0,0,0,.2c-1.1,1-2,2.1-2.6,3.4-.6,1.3-1.2,2.7-1.8,4.1,0,.4-.1.9-.2,1.4,0,.5,0,1,0,1.5,0,.4.2.9.4,1.5.2.6.6,1,1.2,1.1,1.3.4,2.4.4,3.4,0,1-.4,2-.7,3.1-1,1.6-.7,3.2-1.4,4.6-2s2.8-1.4,4.2-2.3h.2c.7-.5,1.5-1,2.2-1.5.7-.5,1.5-1,2.2-1.6.7-.3,1.3-.7,1.8-1.2s1.1-.9,1.8-1.2c0-.3.2-.4.4-.6,0-.1,0-.2,0-.2s0,0,0,0h.2c0,0,0-.2,0-.2.3,0,.4-.1.5-.4s.2-.4.4-.5h0c.1,0,.2-.2.4-.4s.4-.3.7-.4c-.2.2-.2.4,0,.4.2,0,.2.2,0,.3.1,0,.2,0,.2,0s.2.1.3.1h0c0,0,.2,0,.2,0,0,0,0,.1,0,.2,0,0,0,.1.2.1-.1.2-.1.3-.1.5,0,.2,0,.3,0,.4s0,0,0,0-.1,0-.2,0v.8c-.1.2-.2.2-.2.2,0,0,0,0-.1.1h0c-.2,0-.2,0,0,0-.3-.1-.3,0-.2.2-.3,0-.5,0-.6.2-.1.2-.3.3-.5.4,0-.3,0-.4.2-.6s.2-.2.2-.3c-.3.1-.4.3-.5.5s-.2.4-.5.6l.2-.2c-.3,0-.5,0-.7.2l-.4.4c0,.1,0,.2,0,.1s0,0,0,.1h0c-.2,0-.2-.2-.2-.4-.1.2-.2.4-.4.7-.1.3-.3.5-.4.6-.1,0-.2,0-.2,0s-.1,0-.2,0c0,.1,0,.2,0,.2,0,0-.1.1-.2.2h0c0,0,0,.2,0,.2,0,0-.2,0-.6.4s-.6.5-.7.6c0,.2,0,.3,0,.4s0,.2,0,.2c-.1,0-.2,0-.3.1-.1.1-.2.2-.3.4-.1-.1,0-.2,0-.2.1,0,.2-.1.2-.2s0,0-.2,0c-.4.2-.7.4-.9.7-.2.3-.5.6-.7,1-.3,0-.5.2-.6.3l-.4.4c0,0,0,0,0,0s0,0,0,0h0ZM218.8,78c.2-.1.3-.2.4-.4-.1.1-.2.2-.2.2s-.1,0-.2.2ZM219.3,76c.1,0,.2,0,.3,0s0-.1,0-.2c-.2.1-.3.2-.3.2ZM219.8,76.3h0c.2-.2.1-.2,0-.2v.2Z"/>
        <path class="st1" d="M237.2,85.1c-.4,0-.8.2-1.1.6s-.7.6-1.1.7c0,0,0,.1,0,.2h-.6c0,0-.1,0-.2,0-.2,0-.2,0-.2.1s0,.2,0,.3c-.4.1-.7.2-.9.4s-.6.3-1.1.3c0,.1,0,.2,0,.2-.3,0-.5.2-.7.5-.4,0-.8.2-1.2.6-.9.1-1.5.4-2.1.9-.6.5-1.3.8-2.3.9-.2,0-.3,0-.3,0-1.1.2-2.1.2-3.2.2-1.1,0-2.2-.2-3.3-.6-.4-.1-.8-.3-1.2-.5-.4-.2-.8-.4-1.1-.6-.6-.2-1.1-.7-1.5-1.3-.4-.7-.7-1.3-.8-2-.2-.7-.3-1.7-.2-2.8s.3-2.1.6-3c.2-.6.4-1.2.7-1.8s.6-1.1.9-1.7c.3-.2.6-.6.9-1.3h.2c.7-1.1,1.5-2.1,2.2-2.9.7-.8,1.6-1.6,2.7-2.3,0-.1,0-.2.1-.2s.1,0,.1,0c.3-.3.7-.5,1-.6.4-.1.8-.3,1.2-.6.3-.2.5-.3.7-.6.2-.2.5-.3,1-.2.3,0,.5.2.8.4.2.2.5.3.8.4.2.1.3.1.4,0,.1,0,.2,0,.4,0,.1.1.2.2.3.4.1.1.3.2.6.2.3.4.6.9,1,1.5.4.6.6,1.2.6,1.9-.3.4-.4,1-.2,1.7-.3.4-.5.8-.6,1.4s-.4,1-.6,1.4c-.1,0-.2,0-.2,0s-.1,0-.2,0c-.1,0-.2,0-.2-.1s0-.1-.1-.1v.2c-.1,0-.2-.2-.3-.4-.3.1-.6,0-1.1-.6-.5-.5-.8-.9-.8-1.3l.3-.9c.3-.6.5-1.2.8-1.7.3-.6.4-1.1.4-1.6-1.3.3-2.2.9-2.9,1.8-.7.8-1.5,1.7-2.4,2.5,0,.1,0,.2,0,.2s0,0,0,.2c-1.1,1-2,2.1-2.6,3.4-.6,1.3-1.2,2.7-1.8,4.1,0,.4-.1.9-.2,1.4,0,.5,0,1,0,1.5,0,.4.2.9.4,1.5.2.6.6,1,1.2,1.1,1.3.4,2.4.4,3.4,0,1-.4,2-.7,3.1-1,1.6-.7,3.2-1.4,4.6-2s2.8-1.4,4.2-2.3h.2c.7-.5,1.5-1,2.2-1.5.7-.5,1.5-1,2.2-1.6.7-.3,1.3-.7,1.8-1.2s1.1-.9,1.8-1.2c0-.3.2-.4.4-.6,0-.1,0-.2,0-.2s0,0,0,0h.2c0,0,0-.2,0-.2.3,0,.4-.1.5-.4s.2-.4.4-.5h0c.1,0,.2-.2.4-.4s.4-.3.7-.4c-.2.2-.2.4,0,.4.2,0,.2.2,0,.3.1,0,.2,0,.2,0s.2.1.3.1h0c0,0,.2,0,.2,0,0,0,0,.1,0,.2,0,0,0,.1.2.1-.1.2-.1.3-.1.5,0,.2,0,.3,0,.4s0,0,0,0-.1,0-.2,0v.8c-.1.2-.2.2-.2.2,0,0,0,0-.1.1h0c-.2,0-.2,0,0,0-.3-.1-.3,0-.2.2-.3,0-.5,0-.6.2-.1.2-.3.3-.5.4,0-.3,0-.4.2-.6s.2-.2.2-.3c-.3.1-.4.3-.5.5s-.2.4-.5.6l.2-.2c-.3,0-.5,0-.7.2l-.4.4c0,.1,0,.2,0,.1s0,0,0,.1h0c-.2,0-.2-.2-.2-.4-.1.2-.2.4-.4.7-.1.3-.3.5-.4.6-.1,0-.2,0-.2,0s-.1,0-.2,0c0,.1,0,.2,0,.2,0,0-.1.1-.2.2h0c0,0,0,.2,0,.2,0,0-.2,0-.6.4s-.6.5-.7.6c0,.2,0,.3,0,.4s0,.2,0,.2c-.1,0-.2,0-.3.1-.1.1-.2.2-.3.4-.1-.1,0-.2,0-.2.1,0,.2-.1.2-.2s0,0-.2,0c-.4.2-.7.4-.9.7-.2.3-.5.6-.7,1-.3,0-.5.2-.6.3l-.4.4c0,0,0,0,0,0s0,0,0,0h0ZM245.2,78c.2-.1.3-.2.4-.4-.1.1-.2.2-.2.2s-.1,0-.2.2ZM245.7,76c.1,0,.2,0,.3,0s0-.1,0-.2c-.2.1-.3.2-.3.2ZM246.2,76.3h0c.2-.2.1-.2,0-.2v.2Z"/>
        <path class="st1" d="M241.1,83.6c.1,0,.2-.2.2-.3,0-.2,0-.3,0-.4.1-.3.2-.5.2-.8,0-.3.2-.4.4-.6.2-.2.2-.3.1-.4,0-.1,0-.2.2-.2.1-.2.2-.4.3-.6,0-.2.2-.4.4-.6.4-1,1-2.1,1.6-3.2.7-1.1,1.3-2.2,1.8-3.3.3-.3.5-.6.7-1,.2-.3.3-.7.4-1h.2c.1-.5.5-.7,1.1-.6.6.1,1.2.3,1.8.5.3.1.4.2.5.4,0,.2,0,.4,0,.6-.1,0-.1.2-.1.3s0,.2,0,.4c-.4.6-.6,1.2-.8,1.8s-.4,1.2-.8,1.8c0,.1-.1.2-.2.2,0,0-.1.1-.2.2-.1.2-.2.5-.3.9s-.2.8-.5,1.2c-.4.8-.8,1.7-1.1,2.4-.3.7-.6,1.6-1,2.5-.2.8-.3,1.6-.5,2.2s0,1.3.4,2.1c1.2-.3,2.3-.7,3.2-1.2.9-.4,1.9-.9,2.9-1.5l2.1-1.6.6-.4,2.5-1.9,2.1-1.7c.2-.2.5-.3.8-.5.3-.2.6-.4.8-.5.5-.4,1-.8,1.3-1,.3-.2.7-.5,1.3-.9.1-.2.2-.3.4-.4.1,0,.3-.2.5-.3l.6-.4c.1-.3.4-.4.8-.6.4-.1.6-.3.8-.7.2,0,.3,0,.3-.2.3.1.4.2.3.4s0,.3.2.4c-.1,0-.2.2-.3.4s-.1.3-.1.4c.2.1.3,0,.4-.4,0-.3.2-.5.3-.4,0,0,0,.2,0,.4,0,.2-.1.4-.2.4.3.1.3.2.2.4s-.2.4,0,.5c-.1.1-.2.2-.2.2s-.1.1-.2.3c-.1,0-.1,0,0-.2s0-.2-.2-.2c0,.1-.1.2-.2.3,0,0-.1.2-.2.4-.1,0-.1,0-.1-.1s0-.2,0-.2c-.3,0-.4,0-.4.2-.3.1-.4.3-.5.5,0,.2-.2.4-.3.6-.2,0-.2,0-.2,0s0,0-.2,0c0,0,0,.2-.1.4-.1.2-.3.5-.4.7s-.3.4-.4.5,0,0,0-.1c-.1,0-.4,0-.7.3s-.6.4-.7.6l-1,1c-.2.1-.4.3-.8.6s-.6.5-.8.6h-.2s0,0,0,0,0,0,0,.2c0-.1-.1-.1-.2,0s-.1.2,0,.3h-.2c0,0-.1.2-.3.6-.2.3-.5.6-.9.8v-.3c-.1,0-.2,0-.2,0s0,.2-.2.2h.2c0,.2-.1.3-.2.4s-.2,0-.4.1c0,0,0,0,0,0,0,0,0,0,0,0-.1.1-.2.2-.4.4-.1.2-.3.3-.4.4-.1-.2-.2-.2-.3,0s-.2.2-.3.2l-.4.2c-.2.1-.3.2-.4.3s-.3.2-.6.2c0,.1,0,.2,0,.3,0,0,0,0,0,0s0,0-.2,0c-.1.1-.2.2-.4.4s-.4.2-.6.3c-.2.4-.5.6-.9.8s-.8.3-1.2.5c-.6.4-1.3.7-1.9.9-.6.1-1.2.2-1.9.4s-1.4.2-2.2,0c-.5-.1-1-.2-1.5-.2-.5,0-.9-.2-1.2-.3-.4-.3-.7-.6-.9-1-.2-.4-.4-.7-.6-1-.2,0-.2-.1-.2-.2s0-.2-.2-.4c0,0,0,0,0,0s0,0,0-.2c-.1.1-.2.2-.2.2-.1-.3,0-.5.1-.6.2-.2.2-.4,0-.6-.1.1-.2.3-.2.6-.1-.1-.2-.2-.2-.4s.1-.3.3-.3c0-.3.1-.7.3-1.1-.1,0-.2,0-.2,0,0-.3.2-.5.3-.6.2-.2.2-.4.2-.6-.1,0-.1,0-.1.2s0,.2,0,.2c-.1-.3,0-.6.3-1,0,0,0,0,0-.2,0,.1,0,.2-.2.4-.1.1-.1.2,0,.4h0ZM254.3,65.3c-.1,0-.1,0,0,.1,0,0,0,0,0,.2-.3.2-.5.5-.6.8s-.4.4-.8.4c-.3.1-.5.3-.6.6-.3,0-.4,0-.5,0,0,0-.1-.1-.2-.2-.3,0-.4,0-.5.2-.5-.2-.9-.3-1.2-.5-.3-.2-.6-.3-1-.5,0-.5,0-.9.2-1.4s.5-.6,1.1-.5c.1-.1.2-.2.2-.2s.1,0,.2,0c.6,0,1.2.2,1.7.4s1.1.3,1.8.4c-.1.2,0,.3.3.3h0ZM256.6,85.8c.1,0,.2,0,.3-.1.1,0,.1-.2,0-.3l-.3.4ZM265.1,78.5c-.2,0-.4.2-.5.3-.1.2,0,.3,0,.5,0-.2,0-.3.2-.5.1-.1.2-.2.2-.3h0ZM265.9,78.1c0,0,0,0,0,0h0Z"/>
        <path class="st1" d="M297.5,81.6c-.3,0-.5,0-.7.4-.2.3-.4.6-.6.8,0,0,0-.1,0-.2-.4.3-.8.7-1.2,1s-.8.7-1.2,1.2h-.2c-.1,0-.2.2-.4.3-.1.2-.3.2-.4,0-.3.2-.5.3-.6.6s-.3.3-.5.4c-.3.3-.5.5-.6.6s-.4.3-.7.6c0,0,0,0-.2,0-.2.2-.5.4-1,.5-.6.3-1.1.7-1.5,1-.5.3-.9.5-1.4.5-.5,0-.8.1-1,.2-.2,0-.5,0-.7,0-.4,0-1,.1-1.6.4-.6.2-1.2.3-1.6.1-.1-.3-.3-.4-.6-.6-.3-.2-.5-.3-.8-.4-.2-.1-.4-.3-.5-.7-.6-.4-1-.9-1.3-1.6-.3-.7-.4-1.5-.4-2.5s0-1.9.2-2.9.4-2,.6-2.9c-.7.6-1.5,1.3-2.1,2.1s-1.4,1.6-2.1,2.3c-.3.5-.6.9-.9,1.2-.3.3-.6.6-1,.9-.9,1.1-1.8,2-2.5,2.8,0,0,0,0,0,.1s0,0-.1.2c-.4.3-.9.7-1.4,1.1s-1.1.8-1.6,1.1c-.6.3-1.1.5-1.8.5-.6,0-1.2-.2-1.9-.6-.4,0-.6-.2-.8-.4-.1-.2-.3-.4-.6-.5-.6-.3-.9-.6-1.1-1-.1-.4-.2-.9-.3-1.7,0-.4,0-.8.1-1.4s.3-1.1.5-1.5c.3-1,.7-1.9,1.2-2.8.5-.9,1-1.7,1.5-2.4.9-1.2,1.8-2.3,2.8-3.4.9-1,1.9-2.1,2.9-3.1.3-.2.6-.4,1-.6.3-.3.7-.5,1.1-.6.3.1.6,0,.9-.2s.6-.2.8.2c1.1.1,2.1.4,3,.8s1.4,1.1,1.8,2.1c.4-.3.7-.5,1-.7.3-.2.7-.4,1-.5.2,0,.3-.2.4-.3.1-.2.2-.2.3-.2.5-.1,1,0,1.5.3s.9.6,1.3.8c0,0,.1,0,.2,0,0,0,.2,0,.4,0,.1.2.2.3.2.4s.1.2.2.4c.1,1,0,2-.4,3.1-.4,1.1-.7,2-1.1,2.8-.2,1.2-.5,2.6-.9,4s-.4,2.7,0,3.7c1.9-.2,3.4-.7,4.7-1.4,1.2-.7,2.5-1.4,3.8-2.1.5-.4.9-.7,1.3-1,.4-.3.8-.6,1.1-1,0,0,.1,0,.2,0h0c.3,0,.8-.2,1.6-.9.8-.7,1.6-1.3,2.4-2.1s1.6-1.3,2.3-1.9c.7-.5,1.1-.7,1.2-.6.1.1.2.1.4,0,.2,0,.3,0,.4,0,0,.1,0,.2,0,.2,0,0,0,.1,0,.2v-.2s0,0,0,.2-.1.3-.2.4c0,.1-.1.2-.2.3,0,0,0,0,0-.2l-.4.4-.4.4c-.1.3-.2.4-.2.6s0,.3-.2.6c-.2,0-.3,0-.3,0-.1.3-.2.4-.4.6s-.3.3-.4.6c-.1,0-.2.1-.3.4l-1.1,1.2h0ZM275.7,74.7c-.1-.7-.3-1.3-.6-1.8s-.8-.5-1.5-.2l-1.3,1.4c-.1.2-.2.3-.4.4s-.3.2-.4.3-.2.2-.3.4c-.1.2-.2.4-.4.6l-1.1,1.3c-.6.7-1.1,1.6-1.7,2.5s-1,1.8-1.5,2.7c-.1.3-.2.5-.4.7s-.3.5-.4,1c-.1,0-.2,0-.2,0s0,0,0,0c-.1.6-.3,1.1-.6,1.5-.3.4-.4.9-.4,1.6.4-.3.9-.5,1.4-.8.5-.3.9-.6,1.2-.9,1.5-1.5,3-3,4.4-4.7,1.4-1.6,2.8-3.3,4.2-5,.2-.1.3-.2.4-.4s.2-.3.4-.4v-.2c-.1-.1-.4-.2-.7-.2h0Z"/>
      </g>
      <path class="st0" d="M306.6,94.9c.9-2.5,2.1-7.1,2.6-10.2l4.2-.4c-1,3.6-2.8,8.3-4,10.3l-2.7.3h0Z"/>
      <g>
        <path class="st0" d="M323.3,82.6c0-2.1.5-3.8,1.5-5.1s2.3-1.9,3.9-1.9,2.9.6,3.8,1.7v-7.2h2.4v19.6h-2.2v-1.5c-1,1.2-2.4,1.7-4,1.7s-2.9-.7-3.9-2-1.5-3-1.5-5.1v-.2h0ZM325.6,82.9c0,1.6.3,2.8,1,3.7.7.9,1.5,1.3,2.7,1.3s2.6-.7,3.3-2v-6.3c-.7-1.3-1.8-1.9-3.2-1.9s-2,.4-2.7,1.3-1,2.2-1,4h0Z"/>
        <path class="st0" d="M347,88.3c-.9,1.1-2.3,1.6-4,1.6s-2.6-.4-3.3-1.3-1.2-2.1-1.2-3.8v-9h2.4v8.9c0,2.1.8,3.1,2.5,3.1s3-.7,3.6-2v-10h2.4v13.8h-2.2v-1.4s0,0,0,0Z"/>
      </g>
      <g>
        <path class="st1" d="M372.3,104.8h0c-.3,0-.5,0-.7.2-.1.2-.4.2-.8.2.1-.3.2-.3.4-.2s.3,0,.3-.2c-.4,0-.6,0-.8.2-.2.2-.4.3-.6.4-.2-.3-.3-.3-.5,0s-.4.4-.6.4c-.1.1-.3.1-.6,0-.3,0-.5,0-.6.2-.1-.1-.3-.1-.5,0-.2.1-.3.2-.3.3s0,0-.1-.2c0-.2-.2-.3-.2-.2v.2c-.2,0-.3,0-.4.3s-.3.4-.4.6c-.2.2-.3.4-.4.6-.1.2-.3.2-.4.2-.3.3-.5.5-.6.6-.1.1-.6.2-1.5.3-.6,0-1,0-1.3,0-.3,0-.6-.2-.9-.3s-.5-.2-.8-.4c-.3-.2-.6-.3-1-.5-.6-.3-1.1-.5-1.4-.7-.3-.1-.6-.4-.9-.8l.2-.3c-.3-.2-.5-.3-.6-.3s-.2-.2-.3-.7c0,0,.2,0,.3,0s.3,0,.4,0c-.1-.4-.1-.9,0-1.5s0-1.1,0-1.7c.3-.2.5-.6.6-1.2.2-.6.2-1.1.2-1.5.1,0,.2,0,.2-.1s0-.2.2-.2c.4-2.1,1-4.1,1.7-6,.7-1.9,1.5-3.8,2.2-5.6.2.1.2.2,0,.4s-.2.3-.1.5c.3-.1.5-.3.5-.7s.1-.6.3-.7c0-.3.2-.7.3-1,.2-.4.4-.7.6-1-.2-.2-.2-.4,0-.7.1-.3.2-.5.3-.6-.5.4-.9,1-1,1.8s-.5,1.5-.9,2c.8-2.8,1.9-5.5,3.1-7.9,1.2-2.5,2.3-5,3.4-7.7.4-.6.8-1.3,1.2-2s.7-1.5,1.2-2.1c0-.3,0-.5.3-.6.2-.1.3-.3.2-.5.2-.2.3-.5.4-1,0-.1-.1-.1-.2,0s-.1.1-.2.1,0,0,.1-.2c.1-.2.3-.2.4,0-.2-.3-.2-.5,0-.7.2-.2.4-.5.4-1h.4c0-.1,0-.3.2-.6,0-.1,0-.1,0,0s-.1.1-.2.2c.5-1.5,1.2-3.1,2.1-4.9.9-1.8,1.6-3.4,2.3-5,.7-2,1.5-3.9,2.3-5.7.8-1.8,1.6-3.7,2.3-5.6-.1-.2-.2-.3-.4-.4s-.2-.2-.4-.4c.1-.3.3-.5.5-.6.9.1,1.8.2,2.7.4.9.2,1.5.7,1.8,1.6-.3.7-.4,1.5-.5,2.5s-.2,1.8-.6,2.6c-.3.5-.4,1.1-.5,1.7,0,.6-.2,1.2-.4,1.8l-2.9,6.4c-.2.5-.4,1.1-.6,1.8s-.5,1.3-.7,1.6c-.1.2-.2.4-.2.5s-.1.3-.2.6c-.6,1.2-1.2,2.4-1.7,3.4-.5,1.1-1,2.1-1.6,3.2,0,.1,0,.2-.1.2s-.1,0-.1.1c-.7,1-1.2,1.8-1.5,2.6.1,0,.2,0,.2,0-.4.4-.6.8-.6,1.2,0,.4-.2.7-.7,1,0,.2,0,.2,0,.1.1,0,.1,0,0,.1-.3.3-.4.5-.4.8,0,.2-.2.5-.4.8-.4,0-.6.1-.6.3.1.1.2,0,.2,0s0-.2.2-.1c-.1.2-.2.3-.4.6-.2.2-.3.4-.3.5,0,.1.1.2.3.2-.1.2-.2.3-.4.4-.2,0-.3.2-.4.3.2.1.3.1.4,0,0-.1.2-.1.3,0-.1.1-.2.2-.3.4s-.2.2-.4,0c.2.3.2.6,0,.9-.2.3-.4.5-.7.7,0,.1,0,.1.1,0,0,0,.1,0,.1,0-.2.4-.4.8-.4,1.2,0,.4-.3.7-.8.9.1.5,0,1-.2,1.3-.2.3-.4.8-.4,1.2-.1,0-.2,0-.3.1,0,0-.1,0-.1.2h.2c-.3.5-.5,1.1-.8,1.7-.3.6-.5,1.2-.6,1.7-.4,0-.6.2-.6.6,0,.4-.2.7-.5,1,.2,0,.4,0,.5.2-.1.3-.2.6-.3.8s-.2.5-.3.8c-.4,0-.7,0-.7,0,0,.1-.1.2-.2.3.1.2.2.2.2,0s.2-.1.5,0c0,.1,0,.2-.2.2-.2,0-.2.2,0,.3-.2,0-.3,0-.5,0l-.3,1.8c-.1,0-.2,0-.2,0s0,0-.2,0c.2-.3.3-.5.4-.8,0-.3,0-.6,0-.8-.3,0-.4,0-.5.2s-.1.3-.2.5c0,.2,0,.4-.1.5,0,.2-.2.3-.4.3.2.2.2.3,0,.6,0,0,.1.1.4.2-.3,0-.4,0-.5.2,0,.2-.2.3-.2.5,0,0,.2,0,.3,0-.4.6-.7,1.2-1,2-.2-.1-.2-.3,0-.6s.2-.5.2-.8c-.4.4-.6.8-.7,1.3s-.2,1-.3,1.4c.3-.1.4-.3.4-.7s.2-.6.5-.7c-.3.7-.4,1.3-.4,1.9s0,.1.2,0,.2,0,.1.2c-.4-.1-.6,0-.6.3,0,.3-.1.5-.2.6h-.2c-.2.6-.3,1.1-.4,1.7,0,.5,0,1.1,0,1.8,0,.1,0,.1,0,0s0,0,.2,0c0,.3.2.4.3.4s.2.1.4.3c3.7-1.3,7.3-2.6,11-3.7s7.6-1.9,11.9-2.4c.4,0,.7,0,.9-.1.2,0,.5-.1,1-.1-.1,0,0,0,0-.1.2,0,.3,0,.4-.1h2.5c.7-.2,1.5-.3,2.4-.3s1.8,0,2.7,0,1.7.3,2.5.5c.8.2,1.4.6,1.9,1.1-.1,0-.2.1-.1.2s0,0,.1.1c0,0,.1,0,.2.2s0,.2,0,.4c0,0,.1.1.2.2,0,0,.1.2.1.4,0-.2-.1-.2-.2-.3s-.2,0-.3-.2c-.2.1-.2.2,0,.2.2,0,.2.1.1.2,0,0,0,.2.2.3s.2.2.2.3c-.4.1-.8.1-1.1,0-.3,0-.7,0-1,0l1.7-.6c-.2-.2-.4-.1-.6,0s-.3.3-.4.2c-.1-.1,0-.1.1,0,.2,0,.3,0,.3,0,0-.1-.2-.1-.3,0-.1,0-.3,0-.5,0h0c-.2,0-.3,0-.5,0-.4-.1-1-.2-1.6-.2s-1.2,0-1.6.2c-.1,0-.2,0-.1,0s0-.2-.1-.3v.4l-.4.2h-.2c-.4-.1-1.1-.1-2,0-.9,0-1.7.1-2.5.2-.8.1-1.3.2-1.7.3s-.3.1.3.1v.2c.1-.1.3-.2.7-.3.3,0,.6-.1.8-.1s.2,0,.1,0-.1.1-.1.2h.3c0-.1.2-.2.6-.2.4,0,.8,0,1-.2,0,.1,0,.1.2,0,.1,0,.2-.1.2-.2.4-.1.9,0,1.3,0s.9.2,1.4,0l.5-.2v.2c-.1.1,0,.1,0,0s.2,0,0,.2c-1,.1-2,.2-3,.3s-2,0-2.9,0c.1,0,.1,0,0,.1,0,0-.2,0-.3,0-.2,0-.3,0-.4,0h-.3c-.5,0-.9.1-1.1.4-.2.2-.5.4-1,.4,0-.2,0-.3-.2-.4-1,.4-2,.6-3.1.6,0,.1.1.2.2.2s0,0,0,.2c-.1-.4-.2-.4-.2,0-.1,0-.2,0-.2-.2s0-.2-.2-.2,0,0,0,.2v.2c-.4,0-.8,0-1,.2s-.5.1-.9,0c0-.1,0-.2,0-.1s0,0,0-.1c-.1,0-.2,0-.4.3-.2.2-.4.2-.6.2l.5-.2c-.7,0-1,.2-1,.5h-.8c0,0,0,0,.2,0s.2,0,.2-.2c-.3,0-.4,0-.4,0s0,.1-.2.2c-.1-.1-.2-.1-.2,0,0,0-.1,0-.2,0l-.5.2h0,0,0c-.5.5-1.1.5-1.7.2-.3.2-.5.3-.8.4-.3,0-.5.1-.5.3h0c0,0,0,0,0,0h.1ZM359.8,94.4c-.3,0-.4.3-.4.8h0c.1,0,.2-.2.2-.4s0-.3.1-.4ZM359.8,94.4c-.3,0-.4.3-.4.8h0c.1,0,.2-.2.2-.4s0-.3.1-.4ZM360.3,103c-.1-.2-.2-.2-.3-.1s-.2.1-.3.1c0,.3,0,.7,0,1-.1.3-.1.7,0,1.1l.3-.4c0,0,0-.2,0-.3,0-.2,0-.4,0-.6v-.2c.1-.3.2-.4.2-.5h0ZM360.3,103c-.1-.2-.2-.2-.3-.1s-.2.1-.3.1c0,.3,0,.7,0,1-.1.3-.1.7,0,1.1l.3-.4c0,0,0-.2,0-.3,0-.2,0-.4,0-.6v-.2c.1-.3.2-.4.2-.5h0ZM359.8,93.9c.2,0,.3-.3.4-.7h0c0-.2,0-.4,0-.5h-.3c0,.2,0,.4-.2.6s-.2.3-.2.4c0,0,0,0,0,0s0,0,0,0h0c0,0,.2,0,.2,0h0ZM360.1,92.8c0,.2,0,.3-.2.5s-.2.3-.2.4c0,0,0,0,0,0s0,0,0,0h0c0,0,.2,0,.2,0,.2,0,.3-.3.4-.7h0c0-.2,0-.4,0-.5h-.3c0,0,0,0,0,0ZM360.4,91.4c0,.2-.1.4-.2.6s-.1.4,0,.5c-.1,0,0-.3.4-.6.2-.2.3-.4.5-.6s.3-.4.3-.5c0,0-.2.2-.4.4s-.3.3-.3.3h0c0,0,0,0,0,0,0,0,0,0,0,0s0,0-.2,0ZM361.5,89.1c-.2,0-.3.1-.3.2s-.1.1-.2.2c0,0,0,.1,0,.2,0,.2,0,.3,0,.3h0c.1,0,.2-.1.2-.2s0-.1,0-.2c0-.1,0-.2.1-.3,0,0,0-.2.2-.3ZM361,89.9c.1,0,.2-.1.2-.2s0-.1,0-.2c0-.1,0-.2.1-.3,0,0,0-.2.2-.3-.2,0-.3.1-.3.2s-.1.1-.2.2c0,0,0,.1,0,.2,0,.2,0,.3,0,.3h0ZM360.9,90.3v.6s0-.1.3-.3.4-.3.4-.4c0,0,0,0-.2,0s-.3,0-.5.2h0ZM361.4,101.4c-.1,0-.2.1-.2.2s0,.1-.2.2c-.1-.1-.1-.2,0-.3s.2-.1.4-.1ZM361,90.3c0,0,0,0,.2,0s.3,0,.4,0c0,0,0,0-.2,0-.2.1-.4.2-.5.2h0ZM362,95.8c.1,0,.2,0,.2,0s0,0,.2,0h.2,0c0-.1,0-.2,0-.2h0c0-.1,0-.2,0-.2,0,0,0-.1,0-.2h-.2l-.2.3-.2.2h0ZM362,95.8c.1,0,.2,0,.2,0s0,0,.2,0h.2,0c0-.1,0-.2,0-.2h0c0-.1,0-.2,0-.2,0,0,0-.1,0-.2h-.2l-.2.3-.2.2h0ZM362.9,98.9c-.1.2-.2.4-.2.6s-.2.4-.5.5c0-.1,0-.3.2-.5.2-.2.2-.3,0-.4,0-.1,0-.2.1-.2s.2,0,.3,0h0ZM362.9,98.4c.1,0,.2.1.1.2s-.2.1-.4,0c0,0,0,0,.1,0s.1,0,.1-.2ZM363.2,93.5h.2c0,0-.1-.1-.2-.2h-.2v.2h.2ZM363.3,93.4s-.1,0-.2,0h-.2v.2h.4ZM363,97.5c0,0,.1.1.2.2s0,.2-.2.2c0-.1,0-.2,0-.3s0-.2,0-.2ZM363.1,93.3h.2c.1-.1.2-.2.2-.3s0-.2.2-.3h-.5c0,0,0,.1,0,.2v.2s0,0,0,0h0v.2h0ZM363.1,92.7c0,0,0,.1,0,.2v.2s0,0,0,0h0v.2h.2c.1-.1.2-.2.2-.3s0-.2.2-.3h-.5,0ZM363.1,96.8c0-.1,0-.1.2,0s.2,0,.2-.2c.1.2,0,.3,0,.4-.2,0-.3.2-.4.3,0-.1,0-.2.2-.2.1,0,0-.1-.1-.2h0ZM364,94.3c.1,0,.1,0,0,.2,0,.2,0,.2.2,0,0,.1-.1.2-.2.3s-.1.2-.2.3c.2,0,.2.2,0,.3s0,.2.2.2c0,.1,0,.2-.3.2s-.3,0-.4.2c-.2-.1-.2-.2,0-.3s.2-.2,0-.2c.1,0,.2-.1.2-.2s0-.1.2-.2c-.1-.1-.2-.2-.2-.1s-.1,0-.2,0c.1-.1.2-.2.4-.2.2,0,.2-.2.2-.4h0ZM363.7,82.9h0c.1-.3.2-.5.2-.6h0c0,0,0-.2,0-.2,0,0,0-.1,0-.2,0,0-.1,0-.2,0h0c0,.1,0,.2,0,.2,0,.2-.1.3-.2.4s0,.2,0,.3h.2ZM363.8,82c0,.1,0,.2,0,.2,0,.2-.1.3-.2.4s0,.2,0,.3h.2c.1-.3.2-.5.2-.6h0c0,0,0-.2,0-.2,0,0,0-.1,0-.2,0,0-.1,0-.2,0h0ZM364.4,81c-.2.2-.2.2-.2.2,0,0-.1,0-.2,0l-.2.2v.2h0s.1,0,.2-.2c0,0,0,0,0,0s0,0,0,0c0,0,0,0,0,0,.2-.2.2-.2,0-.2h0q0,0,0,0ZM364,81.7s.1,0,.2-.2c0,0,0,0,0,0s0,0,0,0c0,0,0,0,0,0,.2-.2.2-.2,0-.2h0c-.2,0-.2.2-.2.2,0,0-.1,0-.2,0l-.2.2v.2h0,0ZM364.9,93.1c.2.2,0,.3-.2.3,0-.2,0-.3.2-.3ZM364.9,79.5h0c0,0,0-.2,0-.2h0c0,0-.2,0-.2,0h0c-.1,0-.2.1-.2.2h0c0,0,.2,0,.2,0h0ZM364.9,79.5h0c0,0,0-.2,0-.2h0c0,0-.2,0-.2,0h0c-.1,0-.2.1-.2.2h0c0,0,.2,0,.2,0h0ZM365,79.2c.1,0,.2,0,.2,0s0-.1,0-.2v-.2h0s0,0,0,0h0c0,.1,0,.2,0,.2s0,0,0,.1c0,0,0,0,0,0ZM365,79.2c.1,0,.2,0,.2,0s0-.1,0-.2v-.2h0s0,0,0,0h0c0,.1,0,.2,0,.2s0,0,0,.1c0,0,0,0,0,0ZM365.7,87.6h0c0,.2,0,.3-.1.4,0,0,0,.2-.2.3h0c0,0,0,0,0,0l.6-.2c.1-.1.2-.2.2-.2h0v-.6l-.4.2h0ZM365.3,88.3l.5-.2c.1-.1.2-.2.2-.2h0v-.6l-.4.2h0c0,.2,0,.3-.1.4,0,0,0,.2-.2.3h0q0,0,0,0ZM366.3,76.9h0c0-.1,0-.2,0-.2,0,0,0,0,0-.1h0c0,0,0-.2,0-.2h0c-.2,0-.3.1-.3.3v.2c0,0,0,0,0,0h0q0,0,0,0ZM366.3,76.9h0c0-.1,0-.2,0-.2,0,0,0,0,0-.1h0c0,0,0-.2,0-.2h0c-.2,0-.3.1-.3.3v.2c0,0,0,0,0,0h0q0,0,0,0ZM366.5,88.5c0,.1,0,.3,0,.6s-.2.3-.3.2c0-.1,0-.2.1-.4,0-.2,0-.3.2-.4ZM367.7,84.1h-.2l-.2.2-.2.2h0c0,0,.3,0,.3,0h0c0,0,.2-.4.2-.4h0c0,0,0,0,0,0h0ZM367.7,84.1h-.2l-.2.2-.2.2h0c0,0,.3,0,.3,0h0c0,0,.2-.4.2-.4h0c0,0,0,0,0,0h0ZM368,83.7c0,0-.1,0-.2,0h0c0,0,.2,0,.2,0h.2v-.2h-.2ZM368,83.8h.2v-.2h-.2c0,.1-.1.2-.2.2h0c0,0,.2,0,.2,0ZM370.1,78.5h.2v-.2h-.2s0,0,0,0h0ZM370.2,78.3s0,0,0,0h0c0,0,.2,0,.2,0h0v-.2h-.2ZM370.4,105.6h-.2v-.2h.2c0,0,0,.1,0,.2h0ZM371.7,76.5c0,0,0,0,0,0,0,0,0,0,0,0ZM374.1,104.4c-.1,0-.3,0-.6,0,.1-.1.3-.1.6,0ZM375.5,103.3h0s0,0,0,0h0c0,0,0,0,0,0,0,0,0,0,.1,0,0,0,0,0,.1,0h0v-.2s-.2,0-.2,0ZM375.5,103.3h0s0,0,0,0h0c0,0,0,0,0,0,0,0,0,0,.1,0,0,0,0,0,.1,0h0v-.2s-.2,0-.2,0ZM376.3,103.3h.3l.2-.2h.6s0,0,0,0,0,0,0,0l.3-.2c.2,0,.3,0,.4,0h0c0,0-1.1,0-1.1,0,0,0-.1,0-.2,0,0,0,0,0,0,0s0,0,0,0h-.2c0,0,0,0,0,0-.1,0-.2-.1-.2-.2l-.2.2c0,0-.1,0-.2,0h0v.2h0,0ZM376.3,103.3h.3l.2-.2h.6s0,0,0,0,0,0,0,0l.3-.2c.2,0,.3,0,.4,0h0c0,0-1.1,0-1.1,0,0,0-.1,0-.2,0,0,0,0,0,0,0s0,0,0,0h-.2c0,0,0,0,0,0-.1,0-.2-.1-.2-.2l-.2.2c0,0-.1,0-.2,0h0v.2h0,0ZM384.5,101.3c-.1,0-.2,0-.3.2h0c-.1,0-.2,0-.2,0h0v-.2h0c0,0-.2,0-.2,0h-.4c-.1,0-.2,0-.4,0-.2,0-.3,0-.3,0h-.6l-.4.2s-.2,0-.4.2h0c-.1,0-.2.1-.3.2s-.2,0-.3,0-.1,0-.2,0-.1,0-.2,0h-.6c-.2,0-.3,0-.3,0h0c-.2,0-.3,0-.4.2l-.3.2h0,0,.3c0,0,1-.2,1-.2h0c0,0,.1,0,.2,0h.5c0,0,.5,0,.5,0,.3-.1.5-.2.8-.3s.5-.2.7-.3h.2c.3,0,.5,0,.6,0h0c.1,0,.2,0,.2,0v.2c.4,0,.7,0,1.1-.1.4,0,.7-.2.9-.2.2,0,.2-.1.1-.1s-.5,0-1.2,0h-.2ZM383.7,101.7c.1,0,.2,0,.2,0h.2v-.2c0,0,0,0,0,0h-.4c-.1,0-.2,0-.4,0-.2,0-.3,0-.3,0h0,0-.2c0,0,0,0,0,0h-.5l-.4.2s-.2,0-.4.2h0c-.1,0-.2.1-.3.2s-.2,0-.3,0-.1,0-.2,0-.1,0-.2,0h-.6c-.2,0-.3,0-.3,0h0c-.2,0-.3,0-.4.2l-.2.2h.2c0,0,1-.2,1-.2h0c0,0,.1,0,.2,0h.5c0,0,.5,0,.5,0,.3-.1.5-.2.7-.3.2,0,.5-.2.7-.3h.2c.3,0,.5,0,.6,0h0ZM384.8,101.3h-.2c-.1,0-.2,0-.3.2h0c-.1,0-.2,0-.2.2l.9-.4ZM384.4,101.2h-.2c0,0,.2,0,.2,0,.1,0,.2,0,.2,0h-.3ZM384.4,101.2h-.2c0,0,.2,0,.2,0,.1,0,.2,0,.2,0h-.3ZM388,100.6h.2c0,0-.2,0-.2,0-.1,0-.2,0-.2,0h.2ZM388,100.6h.2c0,0-.2,0-.2,0-.1,0-.2,0-.2,0h.2ZM388.6,100.5h.2c0,0,0,0,0,0h.2c0-.1,0-.2-.2-.2,0,0,0,0,0,0-.1,0-.2,0-.2,0s0,.1,0,.2h0ZM388.6,100.5h.2c0,0,0,0,0,0h.2c0-.1,0-.2-.2-.2,0,0,0,0,0,0-.1,0-.2,0-.2,0s0,.1,0,.2h0ZM396.5,100.5c0,.2,0,.2-.3.2-.2,0-.4,0-.5,0,0-.1.2-.1.4,0,.2,0,.3,0,.4,0ZM397.7,99.3c0,.3,0,.4.2.5.2,0,.5.1.7.2-.2-.3-.5-.5-1-.7h0Z"/>
        <path class="st1" d="M407,71.8c0-.3.1-.1.2.4.1.6.2,1.3.2,2.3s0,2.1-.2,3.3-.5,2.3-1,3.2c.3,0,1,0,2.3-.4l1-.4c.5-.1,1-.2,1.4-.4.5-.2,1-.4,1.4-.6l1.7-.6,1.2-.5c.5-.2,1-.4,1.5-.6.5-.2.9-.4,1.3-.7l1.8-1.3h.2c.1-.1.2-.2.3-.2s.2-.2.4-.3c.2-.2.5-.3.8-.6.3-.2.7-.4,1-.6.3-.2.7-.4.9-.5.3-.2.4-.3.4-.3l.3.7c.2-.2.2-.2.2,0s0,.3-.2.5-.3.5-.6.9-.5.7-.8.9l-1,.6c-.3.2-.5.4-.7.7s-.4.4-.6.6c-.1,0-.2.2-.4.3-.1.2-.2.2-.3.2-.2.1-.2.2-.2.4s-.1.2-.3.1c-.3.2-.5.4-.7.7s-.4.5-.8.7c-.1,0-.2.1-.3.2s-.2.1-.2,0c0,0-.1.1-.2.2s-.2.1-.3.2-.2.1-.3.2l-3,1.4c-.2.2-.5.3-.8.4-.3.1-.6.3-.9.4-.3.1-.7.3-1.1.4-.1.1-.2.2-.4.1-.2,0-.4,0-.8,0-.2,0-.4.2-.6.4s-.5.3-.7.4c-.8.1-1.7.2-2.4.4s-1.3.3-1.5.5c-.2.3-.3.4-.4.6,0,.1-.2.2-.2.2,0,0-.2.1-.2.2s-.2.3-.3.6c-.1-.2-.2-.2-.1-.1,0,0,0,.2,0,.4-.2.5-.5,1-.8,1.3-.3.3-.6.7-.8,1.1-.1,0-.2,0-.4.3s-.3.2-.3.2c-.4.5-.7.8-1,.8s-.6.2-1,.6c-.1-.1-.2-.1-.2,0s0,.1-.2,0c0,.2-.2.3-.5.3-1.5.4-3.2.6-5.1.4h0c-.2-.2-.3-.2-.4-.2-.1,0-.2,0-.4,0-.2-.2-.4-.3-.5-.4s-.3-.2-.6-.2c-.8-.5-1.4-1.2-1.8-2.2,0-.1,0-.3-.3-.5-.2-.2-.2-.4,0-.6-.2-.3-.4-.7-.4-1.2,0-.6,0-1.1.3-1.6.1-1.1.3-2.2.7-3.2.4-1,.8-1.7,1-2.3.3-.6.5-1.1.8-1.6.2-.5.4-.7.4-.7,0,.1,0,0,.1-.2s.2-.4.3-.5c.4-.7.8-1.4,1.3-2.2.5-.7,1.1-1.4,1.6-2,.6-.6,1.1-1.1,1.6-1.5.5-.4,1-.7,1.3-.8l1.4-.9c.3.1.6.1.7,0,.2,0,.3-.1.4-.2.1,0,.2,0,.3,0s.2.1.3.3h.2c0,0,0,0,.2,0s.2,0,.2,0c.3,0,.4,0,.5.2,0,.1.1.2.2.2,0,.1,0,.1,0,0,0,0,.1,0,.1,0,.4-.2.6-.2.8-.1.2,0,.3.2.5.3.1,0,.1.1,0,.2-.1,0-.1.2,0,.2.3,0,.4,0,.3-.2.4.1.8.3,1,.6s.6.5,1,.8c0,0,0,.1,0,.2s.2.2.4.2h.2v-.2c0,0-.6-.2-.6-.2,0-.2.2-.1.6.2h0ZM399.7,84.1c-1.1-.3-1.9-.8-2.4-1.8-.5-.9-.9-1.7-1.3-2.5-.2.1-.4.3-.6.5s-.5.5-.7.7h0c0,.1,0,.2,0,.2,0,0,0,.1,0,.2v.2h0c-.3.3-.6.7-.7,1.3-.1.3-.2.6-.3.9-.1.3-.2.6-.2.8-.1.4-.2.9-.2,1.5,0,.6,0,1.1,0,1.6,0,.5.1.9.2,1.3.1.4.3.6.6.6,0,0,.2,0,.4,0s.5,0,.8,0,.5,0,.8-.1.4-.1.5-.2c1-.5,1.7-.9,2.1-1.2.4-.3.7-.6,1-.9.2-.3.4-.6.6-.8s.5-.6.9-.9l.3-1c-.3,0-.5,0-.8,0s-.5,0-.7-.2h0ZM394.6,81.2c0,0,0,.1,0,.2h0c0,.1,0,.2,0,.2,0,0,0,.1,0,.2h0c0-.2,0-.4,0-.5ZM403.2,72.2c-.2.1-.5.3-.8.6-.3.3-.7.7-1.1,1.1-.4.4-.7.8-1.1,1.2-.3.4-.6.8-.8,1.1,0,0,0,0,0,0s0,0,0,0c0,.1-.2.2-.3.2s-.2,0-.4.2c-.1.2-.2.3-.1.3s0,0,0,0,0,0,0,0,0,.2,0,.4c0,.3.2.6.3,1.1.2.5.4,1,.7,1.4.3.5.6.9,1,1.2.4.3.9.5,1.4.4.2-.5.4-1.2.6-2.2s.4-2,.6-3c.2-1,.2-1.9.2-2.8,0-.8-.2-1.3-.5-1.4h0Z"/>
        <path class="st1" d="M442.4,80.9c0,.1,0,.2-.1.2,0,0,0,0,0,0-.3.4-.7.9-1.2,1.5-.6.6-.9,1.1-1.1,1.4-.1,0-.3,0-.6.2.1-.2.3-.3.5-.5s.4-.3.6-.4c0-.1,0-.3.2-.5s.2-.5.3-.7c-.1,0-.2.2-.4.6-.2.3-.3.5-.4.6-.3.3-.6.6-1,.7s-.6.4-.9.8c-.5.2-1,.6-1.3,1.2-.3.6-.8.9-1.4,1,0,.2-.1.2-.2.3s-.1,0-.2.2c0-.1,0-.2,0-.3s0-.1,0-.1l-.7.6c-.3.1-.5.2-.7.4s-.4.3-.7.3h0c-.2,0-.3.1-.4.2,0,0,0,.2-.1.2,0,0,0,.1-.1.2,0,0-.2.2-.4.2-.1,0-.2,0-.2,0-.2,0-.4.2-.6.4s-.4.3-.7.3c0-.1,0-.2.2-.2-.3,0-.5,0-.6.2h-.2l-2.1,1.1c-.4.2-.9.3-1.4.5-.5.2-1,.3-1.4.3-.8.4-1.7.5-2.5.3-.9-.2-1.8-.5-2.7-.9-.6-.4-1.2-.7-1.7-.9-.5-.2-.8-.5-1.1-.8s-.5-.6-.6-1-.2-1-.2-1.7,0-.2,0-.2,0,0,0-.2c0-.9,0-2,.3-3.2.3-1.2.5-2.4.8-3.4.1-.3.2-.5.2-.7s0-.4.2-.6c.3-1.1.6-2.3,1-3.5.4-1.2.9-2.3,1.3-3.5.1-.3.2-.4.2-.4s0,0,0,0l.3-.6c.4-.8.9-1.9,1.5-3.1.6-1.2,1-2.3,1.3-3.3-.2.2-.3.2-.2.1,0,0,0-.1-.3-.1-.4.1-.7.2-1.1.4-.3.1-.7.2-1.1.2-.4.1-.8.2-1.1.3s-.7.2-1,.2c-.6.1-1,.2-1.2.2h-.3s-.1,0-.2,0-.5.2-1.2.3c-.3-.1-.7,0-1.2.2-.5.2-.9.3-1.3.2-.1,0-.2,0-.2-.1,0,0,0,0-.2,0-.4.2-.8.2-1,0s-.4-.3-.6-.6c.1-.3,0-.6-.2-.9-.2-.3-.3-.5-.3-.8l.3.2c1.1-.2,2.1-.5,2.9-.8.8-.3,1.7-.6,2.6-.9s2.1-.6,3.4-1c1.3-.3,3.1-.6,5.3-.9,1.1-2.2,2.2-4.2,3.3-6,1.1-1.8,2.3-3.7,3.5-5.6v-.4c.1-.1.2-.1.4,0,.1,0,.2,0,.4,0,0,.2,0,.2.1.3s.2,0,.2.2c.3,0,.6.2,1,.3.4.2.7.4,1,.6s.6.5.7.8c.2.3.2.6,0,.9l-.7.6c0,.1,0,.2,0,.3-.2.5-.4.9-.8,1.3-.3.4-.6.8-.8,1.2-.3.4-.5.8-.6,1.1-.1.3-.3.7-.6,1.2-.3.5-.6.9-.9,1.2-.3.2-.5.7-.6,1.2.9-.1,1.8-.2,2.5-.2.8,0,1.7,0,2.5,0,.8-.2,1.6-.3,2.2-.3h2s.2,0,.4,0c.5.1.9,0,1.4,0,.5-.2.9-.2,1.5,0,.2,0,.3,0,.5,0,.2,0,.4,0,.6,0,0,0,0,0,0,0,.1,0,.2,0,.3,0h0c.3.2.6.2.7,0-.2-.1-.2-.2-.3-.2,0,0,.2,0,.6.2.4,0,1,0,1.6.1s1.2.4,1.6.8c0,0,0,.2,0,.3,0,.1,0,.2,0,.4,0,0-.1,0-.2,0s0,0,0,.2c0,0,0,0,.1.1,0,0,.1,0,.3.1-.1.1-.3.2-.5.2,0,.2.2.4.5.6-.1.1-.2.2-.4.2s-.2,0-.3.2c-.1,0-.2,0-.3,0-.4,0-.7,0-1,0-.3,0-.7,0-1.1.2-.3-.2-.4-.2-.5-.2s-.2,0-.3,0c0-.1,0-.2,0-.1,0,0,0,0,0-.1-.2,0-.3,0-.4.1,0,0,0,.2-.1.2,0,0,0,0-.1,0s-.2-.1-.3-.3l-.3.2h0c0,0,0,0,0,0-.1,0-.2,0-.1,0,0,0,0,0,0-.1-.2.1-.2.2-.2.2-.1-.2-.3-.2-.6-.1s-.4,0-.2-.2c-.1,0-.2,0-.2.3s-.2.2-.4,0c.1-.2.2-.3.2-.3,0,0,0,0,0-.1,0,0-.1,0-.2,0-.1,0-.2.2-.2.3v-.2c-.2,0-.3.1-.3.3v-.2c-.2-.1-.3-.1-.3,0s-.2,0-.3,0c-.1-.1-.1-.2,0-.1.1,0,.2,0,.3-.1h-.4c-.2,0-.3,0-.3.2-.3-.2-.6-.2-.8,0,0,.1.2.1.3,0s.2-.1.3,0c0,0-.2.1-.3.2-.2,0-.3,0-.4.1s-.2,0-.3,0c0,0,0,0,0-.2h-.3c0,0,0,0,0,0h0c0,0,0-.1-.1-.2,0,0,0,0-.1,0,0,0,0,0,0,0s0,0,0,0c-.2.1-.3.2-.3.3s0,0-.2-.1c0-.2-.2-.3-.5-.3-.3,0-.6,0-.9.2v-.2c-.2.1-.4.2-.6.3s-.5,0-.7-.2c.1,0,.2,0,.2,0s.1,0,.2,0c0-.1,0-.2,0-.2s0,0,0,0c-.1,0-.2,0-.2,0s-.1.1-.2.2c0,0,0,0,0-.2s0,0,0,0c-.3,0-.4,0-.3,0-.1,0-.2.1-.2.3s0,.4-.2.5c-.3,0-.5,0-.7,0-.2,0-.5,0-.8,0,0-.1,0-.2.1-.1,0,0,.1,0,.1-.1,0,0,0,0,0,0s0,0,0,0h0c-.1,0-.2,0-.3,0-.1,0-.2,0-.3,0-.1.3-.2.4-.4.3s-.3,0-.4,0h0c-.2,0-.3,0-.3,0,.2,0,.3,0,.3,0,0,.1,0,.1.1,0,0,0,0,0,0,0s0,.2-.1.2-.2,0-.3.2c-.2,0-.3,0-.4-.1-.1,0-.2,0-.4,0-.3,0-.6,0-.9,0-.3,0-.7.1-.9.2-.2.1-.3.2-.4.4,0,.1-.1.3-.2.5-.4,1-.9,2.1-1.6,3.4-.7,1.3-1.2,2.6-1.7,3.7-.2.5-.3.8-.4,1,0,.2-.2.4-.2.5s-.2.3-.2.5-.2.6-.4,1.1c-.6,1-1,2.1-1.3,3.5-.3,1.4-.6,2.8-.9,4.3-.1.5-.2,1-.4,1.4-.2.5-.3,1-.3,1.5,0,.8-.2,1.5-.4,2.2s-.2,1.4.3,2.1c.1,0,.1,0,0,0s0,0,.2,0c.4,0,1,0,1.6-.2.6-.1,1.2-.3,1.7-.5.6-.2,1.2-.4,1.8-.6s1.2-.4,1.7-.6c.1-.1.2-.2.2-.1s0,0,0-.1c.2,0,.3,0,.5-.1.2,0,.3-.2.3-.4.3-.1.6-.2.8-.3s.3-.2.5-.3c.1-.1.3-.2.4-.3s.4-.2.7-.3v-.3c.2.2.5,0,1-.5,0,0,.1,0,.2,0,.5-.3,1-.7,1.6-1,.6-.4,1.2-.7,1.7-1.1.3,0,.7-.3,1.3-.8s1.2-1,1.8-1.6c.6-.6,1.2-1.1,1.6-1.6s.8-.8.9-.9c0,0,.1,0,.2,0,0-.3,0-.5.1-.6,0,0,0,0,0,0s0,0,0,0,.1-.2.3-.4c0-.2,0-.2,0-.2.2-.1.3-.2.3-.2,0,0,.1-.2.2-.3.3,0,.5-.1.6-.6.4.1.6.2.8.4.1.1.2.2.4,0,0,.1,0,.2.2.2s.2,0,.3,0c0,.1,0,.2,0,.2s0,0,0,0c.1,0,0,.1-.2.2s-.2.2,0,.2c0,.1,0,.3-.2.5,0,0,.1,0,.2.2-.1,0-.6.6-1.3,1.8h0c0,0-.1,0-.2,0-.2.2-.3.3-.3.2l-.5.4v-.2c-.1.1-.2.2-.2.3s0,.2-.2.2c0,0,0,.1,0,.2h0c0-.1,0-.2,0-.2h.1ZM431,63s0,0,0,0,0,0,0,0c-.2-.1-.3,0-.2.2h0ZM431.2,62.9c.1.1.2.1.2,0s.1,0,.2,0c0,0,0,0,0-.1s0,0,0-.2c0,.1,0,.2-.2.2-.1,0-.2,0-.2.1ZM433.6,62.7c-.1,0-.1,0,0,0h0ZM433.6,62.6l.2-.2c0,.1,0,.2-.2.2ZM437,85.8c.2-.2.3-.3.4-.4s.2-.3.4-.5c-.2.1-.4.2-.6.4s-.3.3-.2.5ZM437.5,62.5c-.2,0-.3,0-.3,0,0,0,0,0,.2-.2,0,.1,0,.2,0,.2ZM438,83.6c.1,0,.2,0,.3,0s.1-.2,0-.3c-.1.1-.2.2-.2.2,0,0,0,.1-.2.2ZM438.1,84.4c.2,0,.3,0,.4,0,0-.1.1-.2.2-.3,0-.2,0-.3,0-.4-.1,0-.2,0-.2.2v.2c0,0-.1.1-.2.2-.1,0-.2.2-.3.2h0ZM438.1,84.8c0,.1.2.1.3,0s.2-.2,0-.3c0,.1-.1.2-.2.1s-.1,0-.1.1ZM438.9,85.1c.2-.3.3-.4.5-.5.2,0,.4-.2.6-.4h0c-.2.2-.4.3-.6.5s-.4.3-.5.4ZM439.1,83.6c0,0,0,0,0-.2,0,0,0,.1,0,.2ZM439.3,62.4s0,0,0,0h.2c.1.2.1.2,0,.2s-.1,0-.1-.1h0ZM440.1,84.1h0c0,0,0,0,0,0h0ZM440.6,83.4c0-.3,0-.5.3-.7.3-.2.4-.4.4-.5.1.1,0,.3-.2.6s-.4.5-.5.6ZM443.9,79.3s0,0,.2-.2h0c0,0-.2,0-.2,0-.1.2-.2.3-.4.4l-.4.4v-.2c-.2.3-.3.6-.2.8l.2-.2h0v-.3c.2,0,.3,0,.3,0,0-.2.1-.3.3-.4l.2-.4s0,0,0,0ZM443.3,80.1c-.1,0-.2,0-.1,0s0,.1,0,.1l.2-.2ZM444.5,61.2c-.1.1-.2.1-.4,0-.1,0-.2,0-.4,0,.1,0,.3,0,.5.1.2,0,.3,0,.2-.2ZM443.9,79.4c0,0,0,0,0,0,0,0,0,0,0,0ZM443.9,79.4c.1-.1.2-.2.2-.2l-.2.2s0,0,0,0Z"/>
        <path class="st1" d="M476.8,76.6c-.2.2-.2.3-.2.5.1-.1.2-.1.2,0s.1,0,.2-.3c.1,0,.2-.1.2-.2s0,0,.2,0c0,.3,0,.6-.4.9s-.4.6-.3.8c-.1.1-.2.2-.3.3s-.2.3-.3.6c-.1.1,0,.1,0,0,.2,0,.2,0,.2,0-.4.3-.5.5-.5.6,0,.2-.2.4-.6.6,0,0,0,.1,0,.2h0c0,0,0,0,0,0-.1.1-.3.2-.6.2s-.5.2-.6.6c-.1,0-.2,0-.3,0s-.2.1-.3.2c-.2.7-.5,1.1-1,1.3h0c0,0-.3.2-.3.2,0,0,0,0-.1,0s0,0-.1.1-.1.2-.2.4v-.2c-.2.1-.3.3-.3.5,0,.2-.1.3-.2.2,0,0,0,.2,0,.3,0,.1-.2.3-.5.5-.3.2-.5.3-.5.4,0,.2,0,.3-.1.3s-.2,0-.2.2c-.1,0-.2,0-.1,0s0,0-.1,0c-.2.3-.3.4-.3.5s-.1,0-.2,0-.1,0-.2,0-.2,0-.4.2c-.1,0-.2,0-.2,0s0,0-.2.2c-.1.3-.2.4-.4.5-.1,0-.3.2-.4.5,0-.1,0-.1-.2,0-.3.2-.6.4-1,.6s-.8.5-1.3.8c-.5.3-1,.5-1.5.7-.5.2-.9.3-1.3.4-.6.1-1.2.2-1.7.1-.6,0-1.2-.2-1.9-.6,0,0-.1,0-.2-.1-.1,0-.2,0-.2-.2l-.2-.3h-.2c-.4-.3-.7-.7-.9-1.1-.2-.4-.3-.8-.4-1.3-.1-.3-.2-.4-.2-.3.1-.3.1-.4,0-.6,0-.3,0-.7,0-1.3s0-1.2.2-1.9c0-.7.2-1.3.2-1.9s.1-1,.2-1.3c-.1,0-.2,0-.2.2s0,.2,0,.3c-.3.3-.5.6-.6.8-.2.2-.3.6-.6.9-.3.1-.5.3-.6.6s-.4.6-.8.9c-.1.2-.2.4-.4.6-.2.2-.4.3-.5.4-.3.6-.7,1.1-1.3,1.4-.7.8-1.6,1.6-2.5,2.3-.9.7-1.8,1.3-2.7,1.9-.6.4-1.3.5-1.9.5-.6,0-1.3-.2-2-.4-.2-.2-.5-.2-.9-.3-.4,0-.7,0-.8-.2-.3-.2-.5-.4-.6-.9-.1-.4-.2-.7-.4-.9,0-1.1,0-2.3.4-3.7.3-1.4.7-2.8,1.2-4.1.5-1.4,1-2.7,1.5-4,.5-1.3,1-2.4,1.3-3.4l.8-2.3c0-.2,0-.4,0-.4s0-.2,0-.2c.4,0,.8-.1,1.4-.2.6,0,1,0,1.3.3.4-.1.7,0,.9.3s.4.5.5.7c0,.4,0,.6.2.6-.2.4-.3.7-.2,1s0,.5,0,.8l-.5,1c0,0-.1,0-.3.2,0,.2-.2.4-.3.9s-.3.9-.4,1.3-.3.9-.4,1.3c-.1.4-.2.7-.4.8-.4.7-.8,1.4-1.1,2.1-.3.7-.5,1.2-.8,1.7-.3.9-.5,1.8-.6,2.6-.2.8-.3,1.7-.4,2.7,2.4-1.7,4.8-3.8,7.4-6.4,2.5-2.6,5-5.5,7.4-8.8.1-.3.2-.5.4-.6.1-.1.2-.4.2-.7.4-.1.6-.2.6-.3.7,0,1.2,0,1.5,0,.3,0,.6.2,1.1.5,0,.5,0,1.1,0,1.8s0,1.3-.2,2c-.1.7-.2,1.3-.4,1.8-.2.6-.4,1-.6,1.2-.2.6-.3,1.3-.6,2.2s-.4,1.7-.6,2.6c-.2.9-.3,1.8-.3,2.6s0,1.5.4,1.9c1-.1,2.1-.6,3.2-1.4,1.1-.8,2.1-1.5,3-1.9v-.2c.3-.1.4-.2.5-.2h.2s0,0,0,0,.1-.2.3-.4c1.5-.8,2.8-1.8,4.1-2.9.3-.3.4-.4.3-.4-.1,0,0,0,.4,0,.3-.4.5-.7.8-.9.3-.2.5-.4.8-.6.3-.2.6-.5,1-.8.4-.3.8-.7,1.2-1.2h.9ZM476.4,77.1h0c0-.1,0-.2-.1-.3,0,0,0,0,0,.3Z"/>
      </g>
      <g>
        <path class="st0" d="M119.9,126.8h10.4c.2,0,.4,0,.6,0,.6.2.9.6.9,1.2s0,.3-.1.5c-.2.5-.6.8-1.3.9h-9.3l-1.2,8.8h6.7c.3,0,.5,0,.7.1.5.2.8.6.8,1.2s0,.3,0,.4c-.2.5-.6.8-1.3.9h-7.1l-1.1,8.3h9.2c.2,0,.5,0,.7.1.6.2.8.6.8,1.2s0,.3,0,.4c-.2.5-.6.8-1.3.9h-10.8c-.3,0-.5,0-.7-.2-.4-.3-.6-.7-.6-1.4s1-7.6,2.9-22.3c0-.2,0-.3.1-.4.2-.5.6-.8,1.2-.8h0Z"/>
        <path class="st0" d="M153.4,128.1c0,.2,0,.4-.2.6-.3.4-.7.6-1.2.6h-7.4c-1.7,13.7-2.6,20.8-2.7,21.3,0,0,0,.1,0,.2-.2.8-.6,1.1-1.3,1.1s-.5,0-.7-.2c-.4-.3-.6-.7-.6-1.4s.6-5.1,2-14.8c.4-3.3.7-5.4.8-6.2h-6.9c-.2,0-.5,0-.7-.1-.6-.2-.9-.5-.9-1.1s0-.5.2-.7c.3-.4.7-.6,1.2-.6h17.1c.1,0,.3,0,.5,0,.6.2.9.6.9,1.2h0Z"/>
        <path class="st0" d="M179.9,131.6c0,2.6-1,4.8-3,6.6-1.9,1.7-4.3,2.9-7.5,3.5l-1.2,8.9c0,0,0,.1,0,.2-.2.8-.6,1.1-1.3,1.1s-.5,0-.7-.2c-.4-.3-.6-.7-.6-1.4s1-7.5,3-22.3c0-.2,0-.4.2-.5.3-.5.7-.8,1.3-.8,1-.2,2.1-.3,3.2-.3s2.2.2,3.2.4c2.3.8,3.5,2.3,3.5,4.7h0ZM177.5,131.8v-.2c-.1-1.8-1.5-2.7-4.2-2.7s-1.5,0-2.2.2c0,.6-.5,3.8-1.2,9.7,1.5-.2,2.9-.8,4.3-1.6,2.2-1.4,3.4-3.2,3.4-5.4h0Z"/>
        <path class="st0" d="M193.5,151.9h-10.9c-.2,0-.5,0-.7-.2-.3-.2-.5-.7-.6-1.4h0c0-.5,1-7.9,3-22.3,0-.2,0-.3,0-.5.2-.5.6-.8,1.2-.8s.4,0,.6.2c.5.2.7.6.7,1.2-.1,1-.3,3-.7,6.1-1.2,9.5-1.9,14.5-2,15.1h9.2c.2,0,.5,0,.7.1.5.2.8.6.8,1.2s0,.3,0,.4c-.2.5-.6.8-1.4.9h0Z"/>
        <path class="st0" d="M211.2,150.6h0c-.1.9-.6,1.3-1.3,1.3s-.5,0-.7-.2c-.4-.3-.6-.7-.6-1.4s0-.6.1-1.4c-.4.7-1,1.2-1.7,1.7-1.2.8-2.5,1.2-3.9,1.2s-.5,0-.7,0c-1.7-.2-3-1.2-4.1-3-1.2-1.9-1.8-4.4-1.8-7.3s.5-7.1,1.6-12.9c0-.3,0-.5.1-.6,0-.1,0-.3.1-.4.2-.6.6-.8,1.1-.8s.4,0,.6.2c.4.2.7.6.7,1.1,0,.2,0,.5-.1.9-.9,5.5-1.3,9.4-1.3,11.6s.3,4.4,1,5.9c.8,1.8,1.8,2.6,3.2,2.6s.3,0,.4,0c1.1-.2,2.1-1.1,3.3-2.6,1.3-1.7,2.2-3.7,2.7-6l1.7-12.4c0-.2,0-.4.2-.6.2-.5.6-.7,1.1-.7s.4,0,.6.2c.4.2.7.6.7,1.1-.1,1-.3,2.1-.4,3.4-1.6,12.6-2.4,18.9-2.5,19.1h0Z"/>
        <path class="st0" d="M215.7,147.4c0-.2,0-.4,0-.6s0-.4.1-.6c.2-.4.5-.6,1-.6.4,0,.8.2,1.2.7.1.1.2.3.3.4,1.5,1.9,3,2.8,4.4,2.8s2.5-.5,3.5-1.5c1-1,1.4-2.1,1.4-3.5,0-1.2-.3-2.1-.9-2.9-.5-.7-1.3-1.3-2.5-2-1.3-.8-2-1.2-2.3-1.4-.5-.4-1-.8-1.4-1.2-1-1-1.5-2.3-1.5-3.8s0-.4,0-.6c.1-1.6.8-3,2-4.1,1.2-1.1,2.7-1.7,4.4-1.7s1.4.1,2.1.3c1.4.5,2.5,1.3,3.3,2.5.1.3.2.6.2.7s0,.4-.2.6c-.2.4-.6.6-1,.6s-.7-.1-.8-.3c-1.1-1.3-2.3-2-3.6-2-1,0-1.9.4-2.7,1.1-.9.8-1.3,1.8-1.3,3s.2,1.4.7,1.9c.4.5,1.2,1.1,2.4,1.8,1.3.8,2.2,1.4,2.9,1.9,2,1.6,3,3.5,3,5.7s0,1-.1,1.4c-.4,1.7-1.2,3.1-2.7,4.3-1.5,1.2-3.1,1.8-4.9,1.8s-2.3-.3-3.4-.9c-1.5-.9-2.7-2.1-3.5-3.8h0Z"/>
        <path class="st0" d="M250.8,126.8h10.4c.2,0,.4,0,.6,0,.6.2.9.6.9,1.2s0,.3-.1.5c-.2.5-.6.8-1.3.9h-9.3l-1.2,8.8h6.7c.3,0,.5,0,.7.1.5.2.8.6.8,1.2s0,.3,0,.4c-.2.5-.6.8-1.3.9h-7.1l-1.1,8.3h9.2c.2,0,.5,0,.7.1.6.2.8.6.8,1.2s0,.3,0,.4c-.2.5-.6.8-1.3.9h-10.8c-.3,0-.5,0-.7-.2-.4-.3-.6-.7-.6-1.4s1-7.6,2.9-22.3c0-.2,0-.3.1-.4.2-.5.6-.8,1.2-.8h0Z"/>
        <path class="st0" d="M280.1,150.7c-.1.8-.5,1.3-1.3,1.3-.5,0-1-.3-1.4-1l-8.2-18.7c-.1.9-.2,1.9-.4,3-1.1,9-1.7,14.1-1.9,15.4-.1.9-.6,1.3-1.3,1.3-.2,0-.5,0-.7-.2-.4-.3-.6-.7-.6-1.4,2-14.8,2.9-22.3,3-22.3,0-.2,0-.4.2-.5.3-.4.7-.7,1.2-.7s1.2.2,1.4.6l8.2,18.3,2.4-17.7c0-.2,0-.4.1-.6.2-.5.6-.7,1.1-.7s.4,0,.6.2c.4.3.6.6.6,1.1,0,.4,0,.8-.1,1.2-1.6,12.8-2.5,19.9-2.7,21.4h0Z"/>
        <path class="st0" d="M299.2,132.6c-.2-.6-.5-1.1-.9-1.6-.8-1.1-1.8-1.7-2.8-1.7s-1.3.2-2,.7c-1.3.9-2.4,2.5-3.3,4.7-1,2.3-1.4,4.6-1.4,6.8s.4,3.9,1,5.3c.8,1.6,1.8,2.4,3.1,2.4s1.3-.3,2.1-.8c1.2-.9,2.2-2.2,3.1-3.9,0,0,0-.1,0-.2.2-.4.6-.6,1.1-.6s.4,0,.7.2c.4.2.7.6.7,1.1s0,.4-.2.6c-.7,1.5-1.5,2.7-2.5,3.8-1.6,1.7-3.4,2.6-5.2,2.6s-.5,0-.7,0c-1.7-.2-3-1.2-4.1-3-1.2-1.9-1.8-4.4-1.8-7.3s.2-3.5.8-5.2c.8-2.8,2-5.1,3.6-6.9,1.7-1.9,3.5-2.8,5.4-2.8s1.6.2,2.3.5c1.6.8,2.7,2.2,3.5,4.4,0,.2.1.4.1.6s0,.4-.2.6c-.3.4-.6.6-1.1.6-.5,0-.9-.3-1.2-.9h0Z"/>
        <path class="st0" d="M304.1,141.7c0-1.8.2-3.5.8-5.3.8-2.8,2-5.1,3.6-6.9,1.7-1.9,3.5-2.8,5.3-2.8,1.8,0,3.2.8,4.5,2.4,1.3,1.7,2,4,2.2,6.8.4-.1.9-.4,1.6-.7.9-.4,1.5-.6,2-.6s.4,0,.6.2c.4.2.6.6.6,1,0,.4-.2.8-.6,1.2-.8.8-2.2,1.4-4.2,1.7,0,1.2-.3,2.4-.6,3.5-.8,2.9-2,5.2-3.6,7-1.7,1.9-3.5,2.8-5.4,2.8s-.5,0-.7,0c-1.7-.2-3-1.2-4.1-3-1.2-1.9-1.8-4.4-1.8-7.3h0ZM306.9,141.2c0,2,.3,3.7.8,5.1.8,1.9,1.9,2.9,3.3,2.9s.8,0,1.2-.3c1.2-.5,2.3-1.7,3.3-3.6,1.2-2.1,1.9-4.2,2.2-6.6-1.6,0-3.1-.5-4.4-1.4-1.8-1.2-3-2.9-3.7-5.2-1.8,2.6-2.7,5.6-2.7,8.9h0ZM314.4,129.6c-.3,0-.5,0-.8.2-.6.3-.9,1-.9,2s0,.4,0,.6c.2,1.2.9,2.2,2.2,3,1,.6,1.9.9,2.8.9,0-.9-.2-1.8-.4-2.6-.6-2.6-1.6-4-3.1-4.1h0Z"/>
        <path class="st0" d="M328.3,150.6c-.2.9-.6,1.3-1.3,1.3-.2,0-.5,0-.7-.2-.4-.3-.7-.7-.7-1.4.5-4.1,1.5-11.5,2.9-22.3,0-.2.2-.4.3-.6.4-.3.8-.5,1.3-.5,1-.2,2-.3,3.2-.3s1.6,0,2.3.2c3,.6,4.5,2.2,4.5,5s-.2,2.1-.5,3.1c-1.1,2.9-3.8,5.1-8,6.4l8.9,8.2c.4.4.5.8.5,1.2,0,.2,0,.4-.2.6-.3.4-.6.6-1,.6s-.7-.1-1-.4c-.2-.2-3.4-3.1-9.6-8.7-.5,4.3-.9,6.9-1,7.8h0ZM331.1,129.3l-1.2,9.7c1.5-.2,3-.7,4.3-1.5,2.4-1.4,3.5-3.2,3.5-5.6,0-1.9-1.4-2.8-4.2-2.8-.2,0-1,0-2.4.2h0Z"/>
        <path class="st0" d="M348.5,126.8h10.4c.2,0,.4,0,.6,0,.6.2.9.6.9,1.2s0,.3-.1.5c-.2.5-.7.8-1.3.9h-9.3l-1.2,8.8h6.7c.3,0,.5,0,.7.1.5.2.8.6.8,1.2s0,.3,0,.4c-.2.5-.6.8-1.3.9h-7.2l-1.1,8.3h9.2c.2,0,.5,0,.7.1.6.2.8.6.8,1.2s0,.3,0,.4c-.2.5-.6.8-1.3.9h-10.8c-.3,0-.5,0-.7-.2-.4-.3-.6-.7-.6-1.4s1-7.6,2.9-22.3c0-.2,0-.3.1-.4.2-.5.6-.8,1.2-.8h0Z"/>
        <path class="st0" d="M379,150.5c0-.3,0-.5.2-.8.3-.5.7-.7,1.2-.7s.5,0,.7.2c.4.3.7.7.7,1.3s0,.5-.2.8c-.3.5-.7.7-1.2.7s-.5,0-.7-.2c-.4-.3-.6-.7-.6-1.2h0ZM379.9,144.6l2.2-16.1c0-.4.2-.8.5-1.1.2-.2.5-.4.8-.4s.6,0,.8.2c.2.2.4.5.4,1s0,.2,0,.3l-1.9,16c0,.4-.2.8-.3,1.1-.3.5-.7.8-1.2.8s-.2,0-.3,0c-.5-.2-.8-.8-.8-1.7h0Z"/>
      </g>
      <path class="st1" d="M248.2,213.3c0-.1.1-.2.2-.3s0-.2,0-.3c0,0,0-.2,0-.3,0,0,0-.2,0-.2,0-.3-.2-.6-.3-.9-.1-.3-.3-.6-.4-.9s-.4-.6-.5-.8c-.3-.4-.5-.8-.6-1.3h.1c0,0,0-.2,0-.2,0,0-.1-.1-.1-.1h0c0,0,0-.1,0-.2,0,0-.1-.1-.2-.1h0c0-.1,0-.2-.1-.4h0c2.1-1.2,3.8-2.9,4.8-5h.1c.1,0,.2.1.4.1h0c0,0,0,.2,0,.2s.2,0,.2,0h0s0,0,.1,0c0,0,.2,0,.2,0h0c.5,0,.9.3,1.3.5.3.2.5.4.8.5s.6.3.9.4c.3.1.6.2.9.3,0,0,.2,0,.2,0,0,0,.2,0,.3,0s.2,0,.3,0c.1,0,.2,0,.3-.2.1,0,.2-.2.2-.4,0-.1,0-.2-.1-.4s-.1-.2-.2-.2-.1-.1-.2-.2-.1-.1-.2-.1c-.3-.2-.6-.3-.9-.4s-.6-.2-.9-.3-.6-.1-1-.2c-.5-.1-1-.2-1.4-.5h0c0-.2,0-.2-.1-.3,0,0-.2,0-.2,0h0c0-.1,0-.2-.1-.2,0,0-.2,0-.2,0h0c-.1,0-.2-.1-.3-.2h-.1c.7-2.2.8-4.6,0-6.9h.1c.1-.1.2-.2.3-.2h0c0,0,.1,0,.2,0s.1-.1.1-.2h0s.1,0,.2,0,.1-.1.1-.1h0c.4-.4.9-.5,1.4-.6.3,0,.6-.1,1-.2.3,0,.6-.2.9-.3s.6-.2.9-.4c0,0,.1-.1.2-.1,0,0,.1-.1.2-.2,0,0,.1-.1.2-.2,0-.1.1-.2.1-.4,0-.1,0-.3-.2-.4-.1,0-.2-.1-.3-.2-.1,0-.2,0-.3,0,0,0-.2,0-.3,0,0,0-.2,0-.2,0-.3,0-.6.2-.9.3-.3.1-.6.3-.9.4-.3.2-.6.4-.8.5-.4.3-.8.5-1.3.6h0c0-.2-.1-.2-.2-.1,0,0-.1.1-.1.1h0c0-.1-.1-.1-.2-.1,0,0-.1.1-.1.2h0c-.1,0-.2,0-.4.1h-.1c-1.1-2.1-2.8-3.8-4.8-4.8h0c0-.2,0-.4.1-.5h0c0,0,.1,0,.2,0s0-.2,0-.2h0s.1,0,.1-.1c0,0,0-.2,0-.2h-.1c.1-.5.4-.9.6-1.4.2-.3.4-.6.5-.8s.3-.6.4-.9c.1-.3.2-.6.3-.9,0,0,0-.2,0-.2,0,0,0-.2,0-.3,0,0,0-.2,0-.3,0-.1,0-.2-.2-.3,0-.1-.2-.2-.4-.2-.1,0-.2,0-.4.1-.1,0-.2.1-.2.2s-.1.1-.2.2c0,0-.1.1-.1.2-.2.3-.3.6-.4.9-.1.3-.2.6-.3.9,0,.3-.1.6-.2,1-.1.5-.2,1-.5,1.4h-.1c0,0-.1,0-.1,0s0,.2,0,.2h0c0,0-.1,0-.2,0s0,.2,0,.2h0c0,.1-.1.2-.2.3h0c-2.1-.6-4.5-.6-6.8.1h0c0-.2-.1-.3-.2-.4h0c0,0,0-.1,0-.2,0,0-.1-.1-.2-.1h0s0,0,0-.1c0,0-.1-.1-.1-.1h-.1c-.3-.4-.4-.8-.5-1.3,0-.3-.1-.6-.2-1s-.2-.6-.3-.9-.2-.6-.4-.9c0,0-.1-.1-.1-.2s-.1-.1-.2-.2-.1-.1-.2-.2c-.1,0-.2,0-.4-.1-.1,0-.3,0-.4.2,0,.1-.1.2-.2.3s0,.2,0,.3c0,0,0,.2,0,.3s0,.2,0,.2c0,.3.2.6.3.9.1.3.3.6.4.9.2.3.4.6.5.8.3.4.5.8.6,1.3h-.1c0,0,0,.2,0,.2,0,0,.1.1.1.1h0c0,0,0,.1,0,.2,0,0,.1.1.2.1h0c0,.1,0,.2.1.4h0c-2.1,1.2-3.8,2.9-4.8,5h-.1c-.1,0-.2-.1-.4-.1h0c0,0,0-.2,0-.2s-.2,0-.2,0h0s0,0-.1,0c0,0-.2,0-.2,0h0c-.5,0-.9-.3-1.3-.5-.3-.2-.5-.4-.8-.5-.3-.2-.6-.3-.9-.4-.3-.1-.6-.2-.9-.3,0,0-.2,0-.2,0,0,0-.2,0-.3,0s-.2,0-.3,0c-.1,0-.2,0-.3.2-.1,0-.2.2-.2.4,0,.1,0,.2.1.4s.1.2.2.2c0,0,.1.1.2.2,0,0,.1.1.2.1.3.2.6.3.9.4s.6.2.9.3c.3,0,.6.1,1,.2.5.1,1,.2,1.4.5h0c0,.2,0,.2.1.3s.1,0,.2,0h0c0,.1,0,.2.1.2,0,0,.2,0,.2,0h0c.1,0,.2.1.3.2h.1c-.7,2.2-.8,4.6,0,6.9h-.1c-.1.1-.2.2-.3.2h0c0,0-.1-.1-.2,0,0,0-.1.1-.1.2h0s-.1,0-.2,0c0,0-.1.1-.1.1h0c-.4.4-.9.5-1.4.6-.3,0-.6.1-1,.2-.3,0-.6.2-.9.3-.3.1-.6.2-.9.4,0,0-.1.1-.2.1,0,0-.1.1-.2.2,0,0-.1.1-.2.2,0,.1,0,.2-.1.4,0,.1,0,.3.2.4.1,0,.2.1.3.2.1,0,.2,0,.3,0,0,0,.2,0,.3,0,0,0,.2,0,.2,0,.3,0,.6-.2.9-.3.3-.1.6-.3.9-.4.3-.2.6-.4.8-.5.4-.3.8-.5,1.3-.6h0c0,.2.1.2.2.1,0,0,.1-.1.1-.1h0c0,.1.1.1.2.1,0,0,.1-.1.1-.2h0c.1,0,.2,0,.4-.1h.1c1.1,2.1,2.8,3.8,4.8,4.8h0c0,.2,0,.4-.1.5h0c0,0-.1,0-.2,0s0,.2,0,.2h0s-.1,0-.1.1c0,0,0,.2,0,.2h.1c-.1.5-.4.9-.6,1.4-.2.3-.4.6-.5.8-.2.3-.3.6-.4.9-.1.3-.2.6-.3.9,0,0,0,.2,0,.2,0,0,0,.2,0,.3,0,0,0,.2,0,.3s0,.2.2.3c0,.1.2.2.4.2.1,0,.2,0,.4-.1.1,0,.2-.1.2-.2,0,0,.1-.1.2-.2,0,0,.1-.1.1-.2.2-.3.3-.6.4-.9.1-.3.2-.6.3-.9,0-.3.1-.6.2-1,.1-.5.2-1,.5-1.4h.1c0,0,.1,0,.1,0s0-.2,0-.2h0c0,0,.1,0,.2,0s0-.2,0-.2h0c0-.1.1-.2.2-.3h0c2.1.6,4.5.6,6.8-.1h0c0,.2.1.3.2.4h0c0,0,0,.1,0,.2,0,0,.1.1.2.1h0s0,0,0,.1c0,0,.1.1.1.1h.1c.3.4.4.8.5,1.3,0,.3.1.6.2,1s.2.6.3.9.2.6.4.9c0,0,.1.1.1.2s.1.1.2.2.1.1.2.2c0,0,.2,0,.4.1.1,0,.3,0,.4-.2M238.8,205.8c0,0,0-.2,0-.2,0,0,0-.1,0-.2h0c0,0,.1,0,.2-.1s0-.2,0-.2h0s.1,0,.1-.1,0-.2,0-.2h0s.1,0,.1-.1c0,0,0-.2,0-.2h0c0-.1,0-.3,0-.4,0-.2.1-.3.2-.4.1-.3.3-.6.5-.9.4-.6.9-1.1.7-1.8,0,0,0,0,0,0h.1s.1,0,.1,0c0,0,0-.2,0-.2h0s.1,0,.1,0,0-.2,0-.2h0s0,0,0,0c0,0,.1-.2.2-.2.2,0,.5,0,.8,0,0,0,.2.2.2.2,0,0,0,0,0,0h0c0,0,0,.1,0,.2,0,0,.1.1.1.1h0s0,0,0,.1c0,0,.1.1.1.1h.1s0,0,0,0c-.1.8.4,1.3.7,1.8.2.3.4.6.5.9,0,.1.1.3.2.4,0,.1,0,.2,0,.4h0s-.1.1,0,.2c0,0,.1.1.1.1h0c0,0,0,.1,0,.2,0,0,.1.1.1.1h0c0,0,0,.1,0,.2,0,0,.1.1.2.1h0c0,0,0,.1,0,.2,0,0,0,.2,0,.2-1.8.6-3.6.5-5.2,0M233.6,201.5c0,0,.1,0,.2-.1,0,0,.1,0,.2-.1h0c0,0,.1,0,.2,0s.1-.1.1-.2h0s.1,0,.2,0c0,0,.1-.1.1-.1h0c0,0,.1,0,.2,0,0,0,.1-.1,0-.2h0c.1-.1.2-.2.3-.2.1,0,.3-.1.5-.2.3-.1.6-.2,1-.2.6-.1,1.4-.1,1.8-.8,0,0,0,0,0,0h0c0,.1.1.2.2.1,0,0,.1-.1.1-.1h0c0,.1.1.1.2,0,0,0,.1-.1.1-.1h0c0,0,0,0,0,0,0,0,.2,0,.3,0,.1.2.3.4.5.5,0,0,0,.2,0,.3,0,0,0,0,0,0h0c0,0-.1,0-.1,0,0,0,0,.2,0,.2h0s-.1,0-.1.1c0,0,0,.2,0,.2h0s0,0,0,.1c-.6.4-.6,1.1-.8,1.8,0,.3-.1.6-.2,1,0,.1-.1.3-.2.4,0,.1-.1.2-.2.3h0s-.2,0-.2,0,0,.2,0,.2h0c0,0-.1,0-.1,0s0,.2,0,.2h0c0,0-.1,0-.2,0s0,.2,0,.2h0c0,0,0,.1-.1.2,0,0,0,.1-.1.2-1.5-.8-2.9-2.1-3.7-3.7M233,194.8c0,0,.2,0,.2,0,0,0,.1,0,.2,0h0c0,0,0,.1.1.2,0,0,.2,0,.2,0h0s0,0,.1,0c0,0,.2,0,.2,0h0c0,0,0,0,.1,0s.2,0,.2,0h0c.1,0,.2,0,.4,0,.2,0,.3.1.5.2.3.1.6.3.9.5.5.4,1.1.9,1.8.7,0,0,0,0,0,0h0c0,0,0,.2.1.2,0,0,.1,0,.2,0h0c0,.1,0,.2.1.2,0,0,.2,0,.2,0h0c0,0,0,0,0,0,0,0,.2.1.2.2,0,.2,0,.5,0,.8,0,0-.2.2-.2.2,0,0,0,0,0,0h0c0-.1-.1-.1-.2-.1,0,0-.1.1-.1.1h0c0,0-.1,0-.2,0s-.1.1-.1.1h0c0,0,0,.1,0,.1-.8-.1-1.3.4-1.8.7-.3.2-.6.4-.9.5-.1,0-.3.1-.5.2-.1,0-.2,0-.4,0h0s-.1-.1-.2-.1c0,0-.1,0-.1.1h0c0,0-.1-.2-.2-.1,0,0-.1.1-.1.1h0c0-.1-.1-.2-.2-.1,0,0-.1.1-.1.2h0c0,0-.1,0-.2,0,0,0-.2,0-.2,0-.5-1.8-.5-3.6,0-5.2M237.3,189.6c0,0,0,.1.1.2,0,0,0,.1.1.2h0c0,0,0,.1,0,.2,0,0,.1.1.2.1h0s0,0,0,.1c0,0,.1.1.1.1h0s0,0,0,.1c0,0,.1.1.2,0h0c0,0,.1.2.2.3,0,.1.1.3.2.4.1.3.2.6.2,1,.1.6.1,1.4.8,1.8,0,0,0,0,0,0h0s0,.1,0,.2c0,0,.1.1.1.1h0s0,.1,0,.2c0,0,.1.1.1.1h0s0,0,0,0c0,0,0,.2,0,.3-.2.1-.4.3-.5.5,0,0-.2,0-.3,0,0,0,0,0,0,0h0c0-.1,0-.2-.1-.2,0,0-.2,0-.2,0h0c0,0,0,0-.1,0,0,0-.1,0-.2,0h0c0,.1,0,0,0,0-.4-.6-1.1-.6-1.8-.8-.3,0-.6-.1-1-.2-.1,0-.3-.1-.5-.2-.1,0-.2-.1-.3-.2h0s0-.2,0-.2c0,0-.1,0-.2,0h0c0-.1,0-.2-.1-.2,0,0-.2,0-.2,0h0c0-.1,0-.2-.1-.2,0,0-.2,0-.2,0h0s-.1,0-.2-.1c0,0-.1,0-.2-.1.8-1.5,2.1-2.9,3.7-3.7M244,189c0,0,0,.2,0,.2,0,0,0,.1,0,.2h0c0,0-.1,0-.2.1s0,.2,0,.2h0s-.1,0-.1.1,0,.2,0,.2h0s-.1,0-.1.1c0,0,0,.2,0,.2h0c0,.1,0,.3,0,.4,0,.2-.1.3-.2.4-.1.3-.3.6-.5.9-.4.6-.9,1.1-.7,1.8,0,0,0,0,0,0h-.1s-.1,0-.1,0c0,0,0,.2,0,.2h0s-.1,0-.1,0,0,.2,0,.2h0s0,0,0,0c0,0-.1.2-.2.2-.2,0-.5,0-.8,0,0,0-.2-.2-.2-.2h0s0,0,0,0c0,0,0-.1,0-.2,0,0-.1-.1-.1-.1h0s0,0,0-.1c0,0-.1-.1-.1-.1h-.1s0,0,0,0c.1-.8-.3-1.3-.7-1.8-.2-.3-.4-.6-.5-.9,0-.1-.1-.3-.2-.4,0-.1,0-.2,0-.4h0s.1-.1,0-.2c0,0,0-.1-.1-.1h0c0,0,0-.1,0-.2,0,0-.1-.1-.1-.1h0c0,0,0-.1,0-.2,0,0-.1-.1-.2-.1h0c0,0,0-.1,0-.2,0,0,0-.2,0-.2,1.8-.6,3.6-.5,5.2,0M249.2,193.3c0,0-.1,0-.2.1,0,0-.1,0-.2.1h0c0,0-.1,0-.2,0s-.1.1-.1.2h0s-.1,0-.2,0c0,0-.1.1-.1.1h0c0,0-.1,0-.2,0,0,0-.1.1,0,.2h0c-.1.1-.2.2-.3.2-.1,0-.3.1-.5.2-.3.1-.6.2-1,.2-.6.1-1.4.1-1.8.8,0,0,0,0,0,0h0c0-.1-.1-.2-.2-.1,0,0-.1.1-.1.1h0c0-.1-.1-.1-.2,0,0,0-.1.1-.1.1h0c0,0,0,0,0,0,0,0-.2,0-.3,0-.1-.2-.3-.4-.5-.5,0,0,0-.2,0-.3,0,0,0,0,0,0h0c0,0,.1,0,.1,0,0,0,0-.2,0-.2h0s.1,0,.1-.1c0,0,0-.2,0-.2h-.1s0,0,0-.1c.6-.4.6-1.1.8-1.8,0-.3.1-.6.2-1,0-.1.1-.3.2-.4,0-.1.1-.2.2-.3h0s.2,0,.2,0,0-.2,0-.2h0c0,0,.1,0,.1,0,0,0,0-.2,0-.2h0c0,0,.1,0,.2,0s0-.2,0-.2h0c0,0,0-.1.1-.2,0,0,0-.1.1-.2,1.5.8,2.9,2.1,3.7,3.7M249.8,200c0,0-.2,0-.2,0,0,0-.1,0-.2,0h0c0,0,0-.1-.1-.2,0,0-.2,0-.2,0h0s0,0-.1,0-.2,0-.2,0h0c0,0,0,0-.1,0s-.2,0-.2,0h0c-.1,0-.2,0-.4,0-.1,0-.3-.1-.5-.2-.3-.1-.6-.3-.9-.5-.6-.4-1.1-.9-1.8-.7,0,0,0,0,0,0h0c0,0,0-.2-.1-.2s-.1,0-.2,0h0c0-.1,0-.2-.1-.2,0,0-.2,0-.2,0h0c0,0,0,0,0,0,0,0-.2-.1-.2-.2,0-.2,0-.5,0-.8,0,0,.2-.2.2-.2,0,0,0,0,0,0h0c0,.1.1.1.2.1,0,0,.1-.1.1-.1h0c0,0,.1,0,.2,0,0,0,.1-.1.1-.1h0c0,0,0-.1,0-.1.8.1,1.3-.4,1.8-.7.3-.2.5-.4.9-.5.1,0,.3-.1.5-.2.1,0,.2,0,.4,0h0s.1.1.2.1c0,0,.1,0,.1-.1h0c0,0,.1.2.2.1,0,0,.1-.1.1-.1h0c0,.1.1.2.2.1,0,0,.1-.1.1-.2h0c0,0,.1,0,.2,0,0,0,.2,0,.2,0,.5,1.8.5,3.6,0,5.2M240.2,197.9c-.3-.6,0-1.4.7-1.6s1.4,0,1.6.7c.3.6,0,1.4-.7,1.6s-1.4,0-1.6-.7M245.3,205c0,0,0-.1-.1-.2h0c0,0,0-.1,0-.2,0,0-.1-.1-.2-.1h0s0,0,0-.1c0,0-.1-.1-.1-.1h0s0,0,0-.1c0,0-.1-.1-.2,0h0c0,0-.1-.2-.2-.3,0-.1-.1-.3-.2-.4-.1-.3-.2-.6-.2-1-.1-.6-.1-1.4-.8-1.8,0,0,0,0,0,0h.1s0-.1,0-.2c0,0-.1-.1-.1-.1h0s0-.1,0-.2c0,0-.1-.1-.1-.1h0s0,0,0,0c0,0,0-.2,0-.3.2-.1.4-.3.5-.5,0,0,.2,0,.3,0,0,0,0,0,0,0h0c0,.1,0,.2.1.2,0,0,.2,0,.2,0h0c0,0,0,0,.1,0,0,0,.2,0,.2,0h0c0-.1,0,0,0,0,.4.6,1.1.6,1.8.8.3,0,.6.1,1,.2.1,0,.3.1.5.2.1,0,.2.1.3.2h0s0,.2,0,.2c0,0,.1,0,.2,0h0c0,.1,0,.2.1.2,0,0,.2,0,.2,0h0c0,.1,0,.2.1.2,0,0,.2,0,.2,0h0s.1,0,.2.1c0,0,.1,0,.2.1-.8,1.5-2.1,2.9-3.7,3.7,0,0,0-.1-.1-.2"/>
    </g>
  </g>
</svg>