<?xml version="1.0" encoding="UTF-8"?>
<svg id="Calque_2" data-name="Calque 2" xmlns="http://www.w3.org/2000/svg" xmlns:xlink="http://www.w3.org/1999/xlink" viewBox="0 0 933.91 213.48">
  <defs>
    <style>
      .cls-1 {
        fill: none;
      }

      .cls-2 {
        font-family: Roboto-Regular, Roboto;
        font-size: 26.08px;
      }

      .cls-2, .cls-3, .cls-4, .cls-5 {
        fill: #fff;
      }

      .cls-6 {
        fill: #ebe8db;
        font-size: 58.36px;
      }

      .cls-6, .cls-7 {
        font-family: GoldenPlains, 'Golden Plains - Demo';
      }

      .cls-3 {
        font-family: NocturneRegular, Nocturne;
        font-size: 69.23px;
      }

      .cls-8 {
        clip-path: url(#clippath-1);
      }

      .cls-4 {
        font-family: MyriadPro-Regular, 'Myriad Pro';
        font-size: 42.6px;
      }

      .cls-9 {
        letter-spacing: 0em;
      }

      .cls-7 {
        font-size: 79.64px;
      }

      .cls-7, .cls-10 {
        fill: #e8ab54;
      }

      .cls-5 {
        font-family: Vibur, Vibur;
        font-size: 33.19px;
      }

      .cls-11 {
        letter-spacing: -.07em;
      }

      .cls-12 {
        clip-path: url(#clippath);
      }
    </style>
    <clipPath id="clippath">
      <rect class="cls-1" width="933.91" height="213.48"/>
    </clipPath>
    <clipPath id="clippath-1">
      <rect class="cls-1" width="933.91" height="213.48"/>
    </clipPath>
  </defs>
  <g id="CONTENT">
    <g>
      <g class="cls-12">
        <text class="cls-2" transform="translate(225.46 27.32)"><tspan x="0" y="0">Venez découvrir les plages de sable blanc </tspan></text>
        <text class="cls-2" transform="translate(714.9 27.32)"><tspan x="0" y="0"> </tspan></text>
      </g>
      <text class="cls-2" transform="translate(243.22 89.63)"><tspan x="0" y="0">de</tspan></text>
      <text class="cls-3" transform="translate(271.74 89.63)"><tspan x="0" y="0"> </tspan></text>
      <text class="cls-7" transform="translate(280.39 89.63)"><tspan x="0" y="0">Saleccia</tspan></text>
      <text class="cls-7" transform="translate(513.43 89.63)"><tspan x="0" y="0"> </tspan></text>
      <text class="cls-4" transform="translate(523.38 89.63)"><tspan x="0" y="0">,</tspan></text>
      <text class="cls-6" transform="translate(532.2 89.63)"><tspan x="0" y="0"> </tspan></text>
      <text class="cls-2" transform="translate(539.49 89.63)"><tspan x="0" y="0">du</tspan></text>
      <text class="cls-4" transform="translate(568.57 89.63)"><tspan x="0" y="0"> </tspan></text>
      <text class="cls-7" transform="translate(577.6 89.63)"><tspan x="0" y="0">Lotu</tspan></text>
      <text class="cls-4" transform="translate(690.7 89.63)"><tspan x="0" y="0"> </tspan></text>
      <text class="cls-5" transform="translate(332.22 151.94)"><tspan x="0" y="0">ET P</tspan><tspan class="cls-11" x="65.67" y="0">L</tspan><tspan class="cls-9" x="79.98" y="0">US ENCORE !</tspan></text>
      <g class="cls-8">
        <path class="cls-10" d="M465.65,213.3c.08-.12.13-.23.16-.33s.05-.2.06-.29c0-.09,0-.18-.01-.26-.02-.08-.03-.16-.04-.25-.06-.33-.17-.64-.31-.93-.14-.3-.27-.6-.44-.88s-.35-.56-.53-.84c-.27-.42-.53-.84-.64-1.32l.11-.05s.07-.1.03-.18c-.03-.08-.1-.12-.15-.1l.07-.03c.06-.02.08-.11.04-.18-.03-.08-.1-.12-.16-.1h-.02c-.02-.12-.06-.23-.1-.35l-.04-.13c2.15-1.08,3.8-2.79,4.82-4.82l.13.04c.12.04.23.07.35.09v.02c-.03.06.01.13.09.16.08.03.16.01.18-.04l.03-.07c-.02.05.02.12.1.15.08.03.16.02.18-.03l.05-.11c.48.11.9.38,1.33.64.28.18.55.37.84.53.29.16.58.3.88.44.3.13.61.25.93.31.08.02.16.03.25.04.08.02.17.02.26.02.09,0,.19-.02.29-.06.1-.03.21-.08.33-.16.13-.09.2-.25.17-.41-.03-.14-.07-.25-.12-.35-.05-.1-.1-.17-.16-.24-.06-.07-.12-.12-.19-.17-.07-.05-.14-.1-.21-.14-.27-.19-.57-.33-.88-.44-.31-.11-.61-.23-.93-.31s-.65-.15-.97-.21c-.48-.11-.97-.22-1.39-.48l.05-.11c.02-.05-.03-.12-.1-.15-.08-.03-.16-.02-.18.04l.03-.07c.02-.06-.02-.13-.1-.16-.08-.03-.16-.01-.18.04h0c-.1-.06-.21-.12-.32-.17l-.12-.06c.71-2.15.76-4.53,0-6.82l.12-.06c.11-.05.22-.11.32-.18h0c.02.07.1.09.18.06.08-.03.12-.1.1-.16l-.03-.07c.02.05.1.06.18.03.08-.03.12-.1.1-.15l-.05-.11c.42-.27.9-.38,1.39-.48.32-.07.65-.13.97-.21.32-.09.62-.2.93-.31.31-.11.6-.25.88-.44.07-.05.14-.1.2-.14.07-.05.13-.11.19-.17.06-.07.12-.15.16-.25.05-.1.1-.2.12-.35.03-.15-.03-.32-.17-.41-.12-.08-.23-.13-.33-.16-.1-.04-.2-.05-.29-.06-.09,0-.18,0-.26.02-.08.01-.17.02-.25.04-.33.06-.63.17-.93.31-.29.14-.59.27-.88.43-.29.16-.56.35-.84.53-.42.27-.84.53-1.33.64l-.05-.11c-.02-.05-.1-.07-.18-.03-.08.03-.12.1-.1.15l-.03-.07c-.02-.06-.1-.07-.18-.04-.08.03-.12.11-.1.16h0c-.12.04-.24.07-.35.11l-.13.04c-1.08-2.15-2.79-3.8-4.82-4.82l.04-.13c.04-.11.08-.23.1-.35h.02c.06.03.13-.01.16-.09.03-.08.01-.16-.04-.18l-.07-.03c.05.02.12-.03.15-.1.03-.08.02-.16-.03-.18l-.11-.05c.11-.48.37-.9.64-1.32.18-.28.37-.55.53-.84.16-.29.3-.58.44-.88.13-.29.24-.6.31-.93.02-.08.03-.16.04-.25.01-.08.02-.17.01-.26,0-.09-.02-.19-.06-.29-.03-.1-.08-.21-.16-.33-.09-.13-.25-.2-.41-.17-.14.03-.25.07-.35.12-.1.05-.18.1-.25.16-.07.06-.12.12-.17.19-.05.07-.1.13-.15.21-.19.27-.33.57-.44.87-.11.31-.23.61-.31.93-.09.32-.15.64-.21.97-.11.48-.22.97-.48,1.39l-.11-.05c-.05-.02-.12.02-.15.1-.03.08-.02.16.03.18l-.07-.03c-.06-.02-.13.02-.16.1-.03.08-.02.16.04.18h.01c-.07.11-.13.21-.18.32l-.06.12c-2.15-.71-4.53-.76-6.81,0l-.06-.12c-.05-.11-.11-.22-.18-.32h.01c.06-.03.08-.11.04-.19-.03-.08-.1-.12-.16-.1l-.07.03c.05-.02.07-.1.04-.18-.03-.08-.1-.12-.15-.1l-.11.05c-.27-.42-.37-.9-.48-1.39-.07-.33-.13-.65-.21-.97-.08-.32-.2-.62-.31-.93-.11-.31-.25-.6-.44-.87-.05-.07-.1-.14-.15-.21-.05-.07-.1-.13-.17-.19-.07-.06-.15-.12-.24-.16-.1-.05-.21-.09-.35-.12-.15-.03-.32.03-.41.17-.08.12-.13.23-.16.33-.03.1-.05.2-.06.29,0,.09,0,.18.01.26.01.08.03.16.04.25.06.33.17.64.31.93.14.29.27.59.44.88.16.28.35.56.53.84.27.42.53.84.64,1.32l-.11.05c-.05.02-.07.1-.04.18.03.08.1.12.15.1l-.07.03c-.06.02-.08.11-.04.18.03.08.1.12.16.1h.02c.02.12.05.23.1.35l.04.13c-2.15,1.08-3.8,2.79-4.82,4.82l-.13-.04c-.12-.04-.23-.07-.36-.09v-.02c.03-.06-.01-.13-.09-.16-.08-.03-.16-.01-.18.04l-.03.07c.02-.05-.02-.12-.1-.15-.08-.03-.16-.02-.18.03l-.04.11c-.49-.11-.9-.38-1.33-.64-.28-.18-.55-.37-.84-.53-.28-.16-.58-.29-.88-.43-.3-.13-.6-.25-.93-.31-.08-.02-.16-.03-.25-.04-.08-.02-.17-.02-.26-.02-.09,0-.19.02-.29.06-.1.03-.21.08-.33.16-.13.09-.2.25-.17.41.03.14.07.25.12.35.05.1.1.17.16.25.06.07.13.12.19.17.07.05.13.1.21.14.27.19.57.33.88.44.31.11.61.23.92.31.32.09.65.15.97.21.48.11.97.22,1.39.48l-.05.11c-.02.05.03.12.11.15.08.03.15.02.18-.03l-.03.07c-.02.06.02.13.1.16.08.03.16.01.18-.04h0c.1.06.21.12.32.17l.12.06c-.71,2.15-.76,4.53,0,6.82l-.12.06c-.11.05-.22.11-.32.18v-.02c-.03-.06-.11-.08-.19-.04-.08.03-.12.1-.1.16l.03.07c-.02-.05-.1-.06-.18-.04-.08.03-.13.1-.11.15l.05.11c-.42.27-.9.38-1.39.48-.32.07-.65.13-.97.21-.32.09-.62.2-.92.31-.31.12-.6.25-.88.44-.07.05-.14.1-.21.14-.07.05-.13.1-.19.17-.06.07-.11.15-.16.24-.05.1-.09.21-.12.35-.03.15.03.32.17.41.12.08.23.13.33.16.1.04.2.05.29.06.09,0,.18,0,.26-.02.08-.01.17-.03.25-.04.33-.06.63-.17.93-.31.29-.14.59-.27.88-.44.29-.16.56-.35.84-.53.42-.27.84-.53,1.33-.64l.04.11c.02.05.1.07.18.03.08-.03.12-.1.1-.15l.03.07c.02.06.1.07.18.04.08-.03.12-.11.1-.16v-.02c.12-.02.23-.06.35-.09l.13-.04c1.08,2.15,2.79,3.8,4.82,4.82l-.04.13c-.04.12-.08.23-.1.36h-.02c-.06-.03-.13.01-.16.09-.03.08-.01.16.04.18l.07.03c-.05-.02-.12.03-.15.1-.03.08-.02.16.04.18l.11.05c-.11.48-.37.9-.64,1.32-.18.28-.37.55-.53.84-.17.28-.3.58-.44.88-.14.29-.25.6-.31.93-.02.08-.03.16-.04.25-.01.08-.02.17-.01.26,0,.09.02.19.06.29s.08.21.16.33c.09.13.25.2.41.17.14-.03.25-.07.35-.12.1-.05.17-.1.24-.16.07-.06.12-.12.17-.19.05-.07.1-.13.15-.21.19-.27.33-.57.44-.87.11-.31.23-.61.31-.93.09-.32.15-.64.21-.97.11-.48.22-.97.48-1.39l.11.05c.05.02.12-.02.15-.1.03-.08.02-.16-.04-.18l.07.03c.06.02.13-.02.16-.1.03-.08.01-.16-.04-.18h-.01c.07-.11.13-.21.18-.32l.06-.12c2.15.71,4.53.76,6.81,0l.06.12c.05.11.11.22.18.32h-.01c-.06.03-.08.11-.04.19.03.08.1.12.16.1l.07-.03c-.05.02-.07.1-.03.18.03.08.1.12.15.1l.11-.05c.27.42.37.9.48,1.39.07.33.13.65.21.97.08.32.2.62.31.93.11.31.25.6.44.87.05.07.1.14.15.21.05.07.1.13.17.19.07.06.15.12.24.16.09.05.21.09.35.12.15.03.32-.03.41-.17M456.2,205.8c.03-.08.06-.16.08-.24.02-.06.03-.12.04-.19h0c.06.03.13-.02.16-.1.03-.08.01-.16-.04-.18l-.07-.03s.12-.02.15-.1c.03-.08.02-.16-.03-.18l-.09-.04s.1-.03.14-.11c.03-.08-.03-.18-.07-.2h-.04c.02-.14.04-.26.08-.38.05-.16.11-.31.18-.45.14-.3.31-.58.51-.85.36-.56.85-1.06.71-1.82.02-.03.03-.05.04-.08l.1.04s.11-.03.14-.11c.03-.08.02-.16-.03-.17l.05.02c.05.02.12-.02.15-.1.03-.08.02-.16-.04-.18l-.08-.03s0-.02.01-.03c.02-.06.13-.16.18-.24.25.04.51.04.76,0,.05.08.16.18.18.24,0,.01,0,.02.01.03l-.08.03c-.05.02-.06.1-.04.18.03.08.1.12.15.1l.05-.02s-.06.1-.03.17c.03.08.1.12.14.11l.1-.04s.03.05.04.08c-.14.76.35,1.27.71,1.82.19.27.37.55.51.85.07.15.13.3.18.45.04.12.06.24.08.36h-.04s-.11.13-.07.21c.03.08.1.13.14.11l-.08.04c-.05.02-.07.1-.04.18.03.08.1.12.15.1l-.07.03c-.06.02-.07.11-.04.18.03.08.11.12.16.1h0c.01.06.03.12.04.18.02.08.05.16.08.24-1.76.55-3.57.52-5.23,0M451.03,201.49c.08-.04.15-.08.23-.12.06-.03.11-.06.16-.1h0c.02.06.1.08.18.05.08-.03.12-.1.1-.16l-.03-.07c.02.05.1.07.18.03.08-.03.13-.1.1-.15l-.04-.09s.1.05.17.02c.08-.03.11-.14.09-.19l-.02-.04c.1-.08.2-.14.31-.2.14-.08.29-.14.45-.2.31-.11.63-.19.96-.24.65-.13,1.35-.15,1.79-.79.03,0,.06-.02.08-.02l.04.1s.1.06.18.02c.08-.03.13-.1.1-.14l.02.05c.02.05.1.07.18.04.08-.03.12-.1.1-.15l-.03-.07s.02,0,.03-.02c.06-.03.21-.03.3-.05.15.21.33.39.54.54-.02.09-.02.24-.04.3,0,0,0,.02-.02.03l-.08-.03c-.05-.02-.12.03-.15.1-.03.08-.02.16.03.18l.05.02s-.11.03-.14.1c-.03.08-.02.16.03.18l.09.04s-.01.06-.02.08c-.64.44-.65,1.14-.79,1.79-.06.33-.13.65-.24.96-.06.15-.12.31-.19.45-.06.11-.13.21-.2.31l-.04-.02s-.16.01-.19.09c-.03.08-.02.16.02.17l-.09-.04c-.05-.02-.12.02-.15.1-.03.08-.02.16.03.18l-.07-.03c-.06-.02-.13.02-.16.1-.03.08-.01.16.04.18h0c-.04.06-.07.11-.1.16-.04.08-.08.15-.12.23-1.54-.81-2.85-2.07-3.7-3.7M450.43,194.79c.08.02.16.05.24.08.06.02.12.03.18.04h0c-.02.06.02.13.1.17.08.03.16.01.19-.04l.03-.07c-.02.05.02.12.1.15.08.03.16.02.18-.03l.04-.09s.03.11.11.14c.08.03.18-.03.19-.07l.02-.04c.12.02.24.04.36.08.16.05.31.11.45.18.29.14.58.31.85.5.55.37,1.06.85,1.82.71.03.01.05.03.08.04l-.04.09s.03.11.1.14c.08.03.15.02.18-.03l-.02.05c-.02.05.03.12.1.15.08.03.16.02.18-.04l.03-.07s.02,0,.04.01c.06.02.16.13.24.18-.04.25-.04.5,0,.76-.08.05-.18.16-.24.18-.01,0-.02,0-.04.01l-.03-.07c-.02-.05-.1-.07-.18-.04-.08.03-.12.1-.1.15l.02.05s-.1-.06-.18-.03c-.08.03-.13.1-.1.14l.04.09s-.05.03-.08.04c-.76-.14-1.27.35-1.82.71-.27.19-.56.37-.85.5-.15.07-.3.13-.46.18-.12.03-.24.06-.36.08l-.02-.04s-.12-.1-.19-.07c-.08.03-.13.09-.11.14l-.03-.09s-.1-.07-.18-.03c-.08.03-.13.1-.1.15l-.03-.07c-.02-.06-.11-.08-.19-.04-.08.03-.12.1-.1.16h0c-.06.02-.12.03-.18.05-.08.02-.16.05-.24.08-.55-1.75-.52-3.57,0-5.23M454.74,189.62c.04.08.08.15.12.23.03.05.06.11.1.16h0c-.06.02-.08.11-.04.19.03.08.1.12.16.1l.07-.03c-.05.02-.06.1-.03.18.03.08.1.12.15.1l.09-.04s-.05.1-.02.17c.03.08.15.1.19.09l.04-.02c.08.1.14.21.2.31.08.14.14.29.19.45.11.31.19.63.24.96.13.65.14,1.35.79,1.79.01.03.02.06.02.08l-.09.04s-.06.1-.03.18c.03.08.1.12.14.1l-.05.02c-.05.02-.06.1-.03.18.03.08.1.12.15.1l.08-.03s0,.02.01.03c.03.06.03.2.04.3-.21.15-.39.34-.54.54-.09-.02-.24-.02-.3-.05,0,0-.02,0-.03-.01l.03-.07c.02-.05-.02-.12-.1-.15-.08-.03-.16-.02-.18.04l-.02.05s-.03-.11-.1-.14c-.08-.03-.15-.02-.18.02l-.04.1s-.06-.01-.08-.02c-.44-.64-1.14-.65-1.79-.79-.33-.06-.65-.13-.96-.24-.15-.06-.31-.12-.45-.2-.11-.06-.21-.12-.31-.2l.02-.04s0-.15-.09-.19c-.08-.03-.15-.02-.17.02l.04-.09c.02-.05-.02-.12-.1-.15-.08-.03-.16-.02-.18.03l.03-.07c.02-.06-.02-.13-.1-.16-.08-.03-.16-.02-.18.04h0c-.05-.03-.11-.07-.16-.1-.07-.04-.15-.08-.23-.12.81-1.54,2.07-2.85,3.7-3.7M461.44,189.01c-.03.08-.05.16-.08.24-.02.06-.03.12-.04.19h0c-.06-.03-.13.02-.16.1-.03.08-.01.16.04.18l.07.03c-.05-.02-.12.02-.15.1-.03.08-.02.16.04.18l.08.04s-.1.03-.14.11c-.03.08.03.18.07.2h.04c-.02.14-.04.26-.08.38-.04.16-.11.31-.18.45-.14.3-.31.58-.51.85-.36.56-.85,1.06-.71,1.82-.01.03-.03.05-.04.08l-.1-.04s-.11.03-.14.11c-.03.08-.02.16.03.17l-.05-.02c-.05-.02-.12.02-.15.1-.03.08-.02.16.04.18l.08.03s0,.02-.01.03c-.02.06-.13.16-.18.24-.25-.04-.51-.04-.76,0-.05-.08-.16-.18-.18-.24v-.03s.06-.03.06-.03c.05-.02.07-.1.04-.18-.03-.08-.1-.12-.15-.1l-.05.02s.06-.1.03-.17c-.03-.08-.1-.12-.14-.11l-.1.04s-.03-.05-.04-.08c.15-.76-.34-1.27-.71-1.82-.19-.27-.37-.55-.51-.85-.07-.15-.13-.3-.18-.45-.03-.12-.06-.24-.08-.36h.04s.11-.13.07-.21c-.03-.08-.09-.13-.14-.11l.09-.04c.05-.02.06-.1.03-.18-.03-.08-.1-.12-.15-.1l.07-.03c.06-.02.08-.11.04-.18-.03-.08-.11-.12-.16-.1h0c-.01-.06-.03-.12-.04-.18-.02-.08-.05-.16-.08-.24,1.76-.55,3.58-.52,5.23,0M466.61,193.32c-.08.04-.15.08-.22.12-.06.03-.11.06-.16.1h0c-.02-.06-.1-.08-.18-.05-.08.03-.12.1-.1.16l.03.07c-.02-.05-.1-.07-.18-.03-.08.03-.12.1-.1.15l.04.09s-.1-.05-.17-.02c-.08.03-.11.14-.09.19l.02.04c-.1.08-.2.14-.31.2-.14.08-.29.14-.45.2-.31.11-.63.19-.96.24-.65.13-1.35.15-1.79.79-.03,0-.06.02-.08.02l-.04-.1s-.1-.06-.18-.02c-.08.03-.12.1-.1.14l-.02-.05c-.02-.05-.1-.07-.18-.04-.08.03-.13.1-.1.15l.03.07s-.02,0-.03.01c-.06.03-.21.03-.3.05-.15-.21-.34-.39-.54-.54.02-.09.02-.24.05-.3,0,0,0-.02.01-.03l.08.03c.05.02.12-.03.15-.1.03-.08.02-.16-.03-.18l-.05-.02s.11-.03.14-.1c.03-.08.02-.16-.03-.18l-.1-.04s.01-.06.02-.08c.64-.44.65-1.14.79-1.79.06-.33.13-.65.24-.96.06-.15.12-.31.2-.45.06-.11.13-.21.2-.31l.04.02s.16-.01.19-.09c.03-.08.02-.16-.02-.17l.09.04c.05.02.12-.03.15-.1.03-.08.02-.16-.03-.18l.07.03c.06.02.13-.02.16-.1.03-.08.01-.16-.04-.18h0c.04-.06.07-.11.1-.16.04-.08.08-.15.12-.23,1.54.81,2.85,2.07,3.7,3.7M467.22,200.02c-.08-.02-.16-.05-.24-.08-.06-.02-.12-.03-.19-.04h0c.02-.06-.02-.13-.1-.17-.08-.03-.16-.01-.19.04l-.03.07c.02-.05-.03-.12-.1-.15s-.16-.02-.18.03l-.03.09s-.03-.11-.11-.14c-.08-.03-.18.03-.19.07l-.02.04c-.12-.02-.24-.04-.36-.08-.15-.05-.31-.11-.45-.18-.29-.14-.58-.31-.85-.5-.56-.37-1.06-.85-1.82-.71-.02-.01-.05-.03-.08-.04l.04-.09s-.03-.11-.11-.14c-.08-.03-.15-.02-.17.02l.02-.05c.02-.05-.02-.12-.1-.15-.08-.03-.16-.02-.18.04l-.03.07s-.02,0-.03-.01c-.06-.02-.17-.13-.25-.18.04-.25.04-.5,0-.76.08-.05.18-.16.25-.18.01,0,.02,0,.03-.01l.03.07c.02.05.1.07.18.04.08-.03.12-.1.1-.15l-.02-.05s.1.06.17.03c.08-.03.13-.1.11-.14l-.04-.09s.05-.03.08-.04c.76.14,1.27-.35,1.82-.71.27-.19.55-.37.85-.5.15-.07.3-.13.45-.18.12-.04.24-.06.36-.08l.02.04s.12.1.19.07c.08-.03.13-.09.11-.14l.03.09s.1.07.18.03c.08-.03.12-.1.1-.15l.03.07c.02.06.11.08.19.04.08-.03.12-.1.1-.16h0c.06-.02.12-.03.19-.05.08-.02.16-.05.24-.08.55,1.75.52,3.57,0,5.23M457.68,197.88c-.26-.63.04-1.35.67-1.61.63-.26,1.35.04,1.61.67.26.63-.04,1.35-.67,1.61-.63.26-1.35-.04-1.61-.67M462.79,204.96c-.03-.05-.06-.11-.1-.16h0c.06-.02.08-.11.04-.19-.03-.08-.1-.12-.16-.1l-.07.03c.05-.02.06-.1.03-.18-.03-.08-.1-.12-.15-.1l-.09.04s.05-.1.02-.17c-.03-.08-.15-.1-.19-.09l-.04.02c-.08-.1-.14-.21-.2-.31-.08-.14-.14-.29-.2-.45-.11-.31-.19-.63-.24-.96-.13-.65-.14-1.35-.79-1.79-.01-.03-.02-.06-.02-.08l.1-.04s.06-.1.03-.18c-.03-.08-.1-.12-.14-.1l.05-.02c.05-.02.07-.1.03-.18-.03-.08-.1-.12-.15-.1l-.08.03s0-.02-.01-.03c-.03-.06-.03-.2-.05-.3.21-.15.39-.34.54-.54.09.02.24.02.3.05.01,0,.02.01.03.02l-.03.07c-.02.05.02.12.1.15.08.03.16.02.18-.04l.02-.05s.03.11.1.14c.08.03.16.02.18-.02l.04-.1s.06.01.08.02c.44.64,1.14.65,1.79.79.33.06.65.13.96.24.15.06.31.12.45.2.11.06.21.12.31.2l-.02.04s0,.15.09.19c.08.03.15.02.17-.02l-.04.09c-.02.05.02.12.1.15.08.03.16.02.18-.03l-.03.07c-.02.06.02.13.1.16.08.03.16.02.18-.04h0c.05.03.11.07.16.1.08.04.15.08.23.12-.81,1.54-2.07,2.85-3.7,3.7-.04-.08-.08-.15-.12-.23"/>
      </g>
    </g>
  </g>
</svg>