<?xml version="1.0" encoding="UTF-8"?>
<svg id="Calque_2" data-name="Calque 2" xmlns="http://www.w3.org/2000/svg" viewBox="0 0 36.4 36.4">
  <defs>
    <style>
      .cls-1 {
        fill: #fff;
      }

      .cls-2 {
        fill: #41556a;
      }
    </style>
  </defs>
  <g id="MENU_fond_gris" data-name="MENU fond gris">
    <g>
      <path class="cls-2" d="M36.4,18.2c0,10.05-8.15,18.2-18.2,18.2h0C8.15,36.4,0,28.25,0,18.2h0C0,8.15,8.15,0,18.2,0h0c10.05,0,18.2,8.15,18.2,18.2h0Z"/>
      <path class="cls-1" d="M23.59,16.79l-.3,2.43c-.05.41-.4.71-.8.71h-3.94v10.18c-.42.04-.84.06-1.26.06-.95,0-1.88-.1-2.78-.28v-9.96h-3.03c-.28,0-.51-.23-.51-.51v-3.05c0-.28.23-.51.51-.51h3.03v-4.57c0-2.8,2.26-5.08,5.06-5.08h3.54c.28,0,.51.23.51.51v3.05c0,.28-.23.51-.51.51h-2.53c-1.12,0-2.02.91-2.02,2.03v3.55h4.25c.49,0,.86.43.8.91Z"/>
    </g>
  </g>
</svg>