<?xml version="1.0" encoding="UTF-8"?>
<svg id="Calque_2" data-name="Calque 2" xmlns="http://www.w3.org/2000/svg" viewBox="0 0 36.4 36.4">
  <defs>
    <style>
      .cls-1 {
        fill: #fff;
      }

      .cls-2 {
        fill: #41556a;
      }
    </style>
  </defs>
  <g id="MENU_fond_gris" data-name="MENU fond gris">
    <g>
      <path class="cls-2" d="M36.4,18.2c0,10.05-8.15,18.2-18.2,18.2h0C8.15,36.4,0,28.25,0,18.2h0C0,8.15,8.15,0,18.2,0h0c10.05,0,18.2,8.15,18.2,18.2h0Z"/>
      <g>
        <path class="cls-1" d="M23.71,7.54h-11.02c-2.84,0-5.14,2.3-5.14,5.14v11.02c0,2.84,2.3,5.14,5.14,5.14h11.02c2.84,0,5.14-2.3,5.14-5.14v-11.02c0-2.84-2.3-5.14-5.14-5.14ZM27.02,23.34c0,2.03-1.65,3.67-3.67,3.67h-10.29c-2.03,0-3.67-1.65-3.67-3.67v-10.29c0-2.03,1.65-3.67,3.67-3.67h10.29c2.03,0,3.67,1.65,3.67,3.67v10.29Z"/>
        <path class="cls-1" d="M18.21,12.69c-3.04,0-5.51,2.47-5.51,5.51s2.47,5.51,5.51,5.51,5.51-2.47,5.51-5.51-2.47-5.51-5.51-5.51ZM18.21,21.87c-2.02,0-3.67-1.65-3.67-3.67s1.65-3.67,3.67-3.67,3.67,1.65,3.67,3.67-1.65,3.67-3.67,3.67Z"/>
        <circle class="cls-1" cx="24.09" cy="12.32" r="1.1"/>
      </g>
    </g>
  </g>
</svg>