<?xml version="1.0" encoding="UTF-8"?>
<svg id="Calque_2" data-name="Calque 2" xmlns="http://www.w3.org/2000/svg" viewBox="0 0 22.28 23.43">
  <defs>
    <style>
      .cls-1 {
        fill: #e8ab55;
      }
    </style>
  </defs>
  <g id="MENU_fond_gris" data-name="MENU fond gris">
    <path class="cls-1" d="M22.28,18.85c.03.37-.1.69-.38.95l-3.36,3.05c-.15.15-.35.28-.59.39-.24.1-.47.16-.7.19-.02,0-.06,0-.15,0-.08,0-.19,0-.31,0-.31-.01-.8-.09-1.48-.22-.68-.14-1.51-.43-2.48-.89-.97-.46-2.07-1.12-3.29-2-1.22-.88-2.51-2.07-3.86-3.57-1.08-1.16-1.97-2.27-2.66-3.32-.7-1.05-1.25-2.02-1.66-2.9-.41-.88-.72-1.68-.91-2.39-.19-.71-.32-1.32-.38-1.84C0,5.78-.01,5.38.01,5.09c.03-.29.04-.45.05-.48.04-.22.13-.45.25-.68.12-.23.27-.41.44-.55L4.11.3C4.35.09,4.61-.01,4.9,0c.21,0,.39.08.55.21.16.13.29.28.39.47l2.37,5.03c.13.26.16.55.08.85-.08.3-.23.56-.45.76l-1.24,1.13s-.06.08-.09.15c-.03.07-.04.13-.04.18.05.34.18.74.38,1.18.18.4.45.88.83,1.46.38.57.92,1.24,1.63,2,.69.78,1.31,1.38,1.86,1.82.55.44,1,.76,1.37.97.37.21.66.34.86.39l.3.07s.09,0,.16-.03c.07-.02.13-.05.16-.08l1.44-1.34c.3-.24.65-.36,1.03-.34.27.01.49.07.65.17h.02s4.54,2.97,4.54,2.97c.33.23.52.5.57.83Z"/>
  </g>
</svg>